<?xml version="1.0" encoding="utf-8" standalone="no"?>
<!DOCTYPE svg PUBLIC "-//W3C//DTD SVG 1.1//EN"
  "http://www.w3.org/Graphics/SVG/1.1/DTD/svg11.dtd">
<svg xmlns:xlink="http://www.w3.org/1999/xlink" width="534.415312pt" height="399.09875pt" viewBox="0 0 534.415312 399.09875" xmlns="http://www.w3.org/2000/svg" version="1.1">
 <metadata>
  <rdf:RDF xmlns:dc="http://purl.org/dc/elements/1.1/" xmlns:cc="http://creativecommons.org/ns#" xmlns:rdf="http://www.w3.org/1999/02/22-rdf-syntax-ns#">
   <cc:Work>
    <dc:type rdf:resource="http://purl.org/dc/dcmitype/StillImage"/>
    <dc:date>2026-05-02T08:15:40.485458</dc:date>
    <dc:format>image/svg+xml</dc:format>
    <dc:creator>
     <cc:Agent>
      <dc:title>Matplotlib v3.10.8, https://matplotlib.org/</dc:title>
     </cc:Agent>
    </dc:creator>
   </cc:Work>
  </rdf:RDF>
 </metadata>
 <defs>
  <style type="text/css">*{stroke-linejoin: round; stroke-linecap: butt}</style>
 </defs>
 <g id="figure_1">
  <g id="patch_1">
   <path d="M 0 399.09875 
L 534.415312 399.09875 
L 534.415312 0 
L 0 0 
z
" style="fill: #ffffff"/>
  </g>
  <g id="axes_1">
   <g id="patch_2">
    <path d="M 80.815313 339.84 
L 527.215312 339.84 
L 527.215312 7.2 
L 80.815313 7.2 
z
" style="fill: #ffffff"/>
   </g>
   <g id="FillBetweenPolyCollection_1">
    <defs>
     <path id="mde6e2cf75b" d="M 101.106222 -189.500319 
L 101.106222 -178.531376 
L 168.742585 -183.707232 
L 236.378949 -189.342701 
L 304.015312 -195.245924 
L 326.560767 -202.875428 
L 349.106222 -212.59558 
L 371.651676 -218.565419 
L 394.197131 -230.772975 
L 416.742585 -294.523473 
L 439.28804 -301.17875 
L 461.833494 -301.17875 
L 484.378949 -301.17875 
L 506.924403 -301.17875 
L 506.924403 -301.17875 
L 506.924403 -301.17875 
L 484.378949 -301.17875 
L 461.833494 -301.17875 
L 439.28804 -301.17875 
L 416.742585 -304.984858 
L 394.197131 -263.552104 
L 371.651676 -240.995566 
L 349.106222 -224.08241 
L 326.560767 -219.620433 
L 304.015312 -210.610667 
L 236.378949 -200.175922 
L 168.742585 -193.690619 
L 101.106222 -189.500319 
z
" style="stroke: #440154; stroke-opacity: 0.3"/>
    </defs>
    <g clip-path="url(#p9d108c2847)">
     <use xlink:href="#mde6e2cf75b" x="0" y="399.09875" style="fill: #440154; fill-opacity: 0.3; stroke: #440154; stroke-opacity: 0.3"/>
    </g>
   </g>
   <g id="FillBetweenPolyCollection_2">
    <defs>
     <path id="m98c7aa43d6" d="M 101.106222 -137.888597 
L 101.106222 -133.685277 
L 168.742585 -136.554474 
L 236.378949 -139.854418 
L 304.015312 -144.805398 
L 326.560767 -147.125828 
L 349.106222 -149.422013 
L 371.651676 -156.879817 
L 394.197131 -170.946396 
L 416.742585 -187.77875 
L 439.28804 -187.77875 
L 461.833494 -187.77875 
L 484.378949 -187.77875 
L 506.924403 -187.77875 
L 506.924403 -187.77875 
L 506.924403 -187.77875 
L 484.378949 -187.77875 
L 461.833494 -187.77875 
L 439.28804 -187.77875 
L 416.742585 -187.77875 
L 394.197131 -188.556727 
L 371.651676 -165.482354 
L 349.106222 -157.92978 
L 326.560767 -154.712941 
L 304.015312 -150.064216 
L 236.378949 -143.812524 
L 168.742585 -140.307591 
L 101.106222 -137.888597 
z
" style="stroke: #453581; stroke-opacity: 0.3"/>
    </defs>
    <g clip-path="url(#p9d108c2847)">
     <use xlink:href="#m98c7aa43d6" x="0" y="399.09875" style="fill: #453581; fill-opacity: 0.3; stroke: #453581; stroke-opacity: 0.3"/>
    </g>
   </g>
   <g id="FillBetweenPolyCollection_3">
    <defs>
     <path id="m2a2f6fa4fa" d="M 101.106222 -102.977227 
L 101.106222 -101.947429 
L 168.742585 -102.93318 
L 236.378949 -104.667989 
L 304.015312 -106.635525 
L 326.560767 -107.859923 
L 349.106222 -109.371761 
L 371.651676 -111.691397 
L 394.197131 -119.73875 
L 416.742585 -119.73875 
L 439.28804 -119.73875 
L 461.833494 -119.73875 
L 484.378949 -119.73875 
L 506.924403 -119.73875 
L 506.924403 -119.73875 
L 506.924403 -119.73875 
L 484.378949 -119.73875 
L 461.833494 -119.73875 
L 439.28804 -119.73875 
L 416.742585 -119.73875 
L 394.197131 -119.73875 
L 371.651676 -114.715136 
L 349.106222 -112.047136 
L 326.560767 -109.225131 
L 304.015312 -108.24816 
L 236.378949 -106.312708 
L 168.742585 -104.795222 
L 101.106222 -102.977227 
z
" style="stroke: #25ac82; stroke-opacity: 0.3"/>
    </defs>
    <g clip-path="url(#p9d108c2847)">
     <use xlink:href="#m2a2f6fa4fa" x="0" y="399.09875" style="fill: #25ac82; fill-opacity: 0.3; stroke: #25ac82; stroke-opacity: 0.3"/>
    </g>
   </g>
   <g id="FillBetweenPolyCollection_4">
    <defs>
     <path id="macaaa73c88" d="M 101.106222 -94.800869 
L 101.106222 -93.828397 
L 168.742585 -94.587358 
L 236.378949 -95.448944 
L 304.015312 -97.015336 
L 326.560767 -97.785721 
L 349.106222 -98.535391 
L 371.651676 -100.420178 
L 394.197131 -104.61875 
L 416.742585 -104.61875 
L 439.28804 -104.61875 
L 461.833494 -104.61875 
L 484.378949 -104.61875 
L 506.924403 -104.61875 
L 506.924403 -104.61875 
L 506.924403 -104.61875 
L 484.378949 -104.61875 
L 461.833494 -104.61875 
L 439.28804 -104.61875 
L 416.742585 -104.61875 
L 394.197131 -104.61875 
L 371.651676 -102.748404 
L 349.106222 -99.956143 
L 326.560767 -98.738599 
L 304.015312 -98.197622 
L 236.378949 -96.50828 
L 168.742585 -95.499691 
L 101.106222 -94.800869 
z
" style="stroke: #fde725; stroke-opacity: 0.3"/>
    </defs>
    <g clip-path="url(#p9d108c2847)">
     <use xlink:href="#macaaa73c88" x="0" y="399.09875" style="fill: #fde725; fill-opacity: 0.3; stroke: #fde725; stroke-opacity: 0.3"/>
    </g>
   </g>
   <g id="matplotlib.axis_1">
    <g id="xtick_1">
     <g id="line2d_1">
      <path d="M 101.106222 339.84 
L 101.106222 7.2 
" clip-path="url(#p9d108c2847)" style="fill: none; stroke: #b0b0b0; stroke-width: 0.8; stroke-linecap: square"/>
     </g>
     <g id="line2d_2">
      <defs>
       <path id="mf0ac556f54" d="M 0 0 
L 0 5 
" style="stroke: #000000; stroke-width: 0.8"/>
      </defs>
      <g>
       <use xlink:href="#mf0ac556f54" x="101.106222" y="339.84" style="stroke: #000000; stroke-width: 0.8"/>
      </g>
     </g>
     <g id="text_1">
      <!-- 0.0 -->
      <g transform="translate(87.048565 363.609375) scale(0.22 -0.22)">
       <defs>
        <path id="LMRoman10-Regular-30" d="M 2944 2048 
C 2944 2560 2912 3072 2688 3546 
C 2394 4160 1869 4262 1600 4262 
C 1216 4262 749 4096 486 3501 
C 282 3059 250 2560 250 2048 
C 250 1568 275 992 538 506 
C 813 -13 1280 -141 1594 -141 
C 1939 -141 2426 -6 2707 602 
C 2912 1043 2944 1542 2944 2048 
z
M 2413 2125 
C 2413 1645 2413 1210 2342 800 
C 2246 192 1882 0 1594 0 
C 1344 0 966 160 851 774 
C 781 1158 781 1747 781 2125 
C 781 2534 781 2957 832 3302 
C 954 4064 1434 4122 1594 4122 
C 1805 4122 2227 4006 2349 3373 
C 2413 3014 2413 2528 2413 2125 
z
" transform="scale(0.015625)"/>
        <path id="LMRoman10-Regular-2e" d="M 1229 339 
C 1229 525 1075 678 890 678 
C 704 678 550 525 550 339 
C 550 154 704 0 890 0 
C 1075 0 1229 154 1229 339 
z
" transform="scale(0.015625)"/>
       </defs>
       <use xlink:href="#LMRoman10-Regular-30"/>
       <use xlink:href="#LMRoman10-Regular-2e" transform="translate(49.999985 0)"/>
       <use xlink:href="#LMRoman10-Regular-30" transform="translate(77.799973 0)"/>
      </g>
     </g>
    </g>
    <g id="xtick_2">
     <g id="line2d_3">
      <path d="M 180.549805 339.84 
L 180.549805 7.2 
" clip-path="url(#p9d108c2847)" style="fill: none; stroke: #b0b0b0; stroke-width: 0.8; stroke-linecap: square"/>
     </g>
     <g id="line2d_4">
      <g>
       <use xlink:href="#mf0ac556f54" x="180.549805" y="339.84" style="stroke: #000000; stroke-width: 0.8"/>
      </g>
     </g>
     <g id="text_2">
      <!-- 0.1 -->
      <g transform="translate(166.492149 363.609375) scale(0.22 -0.22)">
       <defs>
        <path id="LMRoman10-Regular-31" d="M 2682 0 
L 2682 198 
L 2477 198 
C 1901 198 1882 269 1882 506 
L 1882 4096 
C 1882 4250 1882 4262 1734 4262 
C 1338 3853 774 3853 570 3853 
L 570 3654 
C 698 3654 1075 3654 1408 3821 
L 1408 506 
C 1408 275 1389 198 813 198 
L 608 198 
L 608 0 
C 832 19 1389 19 1645 19 
C 1901 19 2458 19 2682 0 
z
" transform="scale(0.015625)"/>
       </defs>
       <use xlink:href="#LMRoman10-Regular-30"/>
       <use xlink:href="#LMRoman10-Regular-2e" transform="translate(49.999985 0)"/>
       <use xlink:href="#LMRoman10-Regular-31" transform="translate(77.799973 0)"/>
      </g>
     </g>
    </g>
    <g id="xtick_3">
     <g id="line2d_5">
      <path d="M 259.993389 339.84 
L 259.993389 7.2 
" clip-path="url(#p9d108c2847)" style="fill: none; stroke: #b0b0b0; stroke-width: 0.8; stroke-linecap: square"/>
     </g>
     <g id="line2d_6">
      <g>
       <use xlink:href="#mf0ac556f54" x="259.993389" y="339.84" style="stroke: #000000; stroke-width: 0.8"/>
      </g>
     </g>
     <g id="text_3">
      <!-- 0.2 -->
      <g transform="translate(245.935733 363.609375) scale(0.22 -0.22)">
       <defs>
        <path id="LMRoman10-Regular-32" d="M 2874 1114 
L 2714 1114 
C 2682 922 2637 640 2573 544 
C 2528 493 2106 493 1965 493 
L 813 493 
L 1491 1152 
C 2490 2035 2874 2381 2874 3021 
C 2874 3750 2298 4262 1517 4262 
C 794 4262 320 3674 320 3104 
C 320 2746 640 2746 659 2746 
C 768 2746 992 2822 992 3085 
C 992 3251 877 3418 653 3418 
C 602 3418 589 3418 570 3411 
C 717 3827 1062 4064 1434 4064 
C 2016 4064 2291 3546 2291 3021 
C 2291 2509 1971 2003 1619 1606 
L 390 237 
C 320 166 320 154 320 0 
L 2694 0 
L 2874 1114 
z
" transform="scale(0.015625)"/>
       </defs>
       <use xlink:href="#LMRoman10-Regular-30"/>
       <use xlink:href="#LMRoman10-Regular-2e" transform="translate(49.999985 0)"/>
       <use xlink:href="#LMRoman10-Regular-32" transform="translate(77.799973 0)"/>
      </g>
     </g>
    </g>
    <g id="xtick_4">
     <g id="line2d_7">
      <path d="M 339.436973 339.84 
L 339.436973 7.2 
" clip-path="url(#p9d108c2847)" style="fill: none; stroke: #b0b0b0; stroke-width: 0.8; stroke-linecap: square"/>
     </g>
     <g id="line2d_8">
      <g>
       <use xlink:href="#mf0ac556f54" x="339.436973" y="339.84" style="stroke: #000000; stroke-width: 0.8"/>
      </g>
     </g>
     <g id="text_4">
      <!-- 0.3 -->
      <g transform="translate(325.379316 363.609375) scale(0.22 -0.22)">
       <defs>
        <path id="LMRoman10-Regular-33" d="M 2925 1094 
C 2925 1619 2522 2118 1856 2253 
C 2381 2426 2752 2874 2752 3379 
C 2752 3904 2189 4262 1574 4262 
C 928 4262 442 3878 442 3392 
C 442 3181 582 3059 768 3059 
C 966 3059 1094 3200 1094 3386 
C 1094 3706 794 3706 698 3706 
C 896 4019 1318 4102 1549 4102 
C 1811 4102 2163 3962 2163 3386 
C 2163 3309 2150 2938 1984 2656 
C 1792 2349 1574 2330 1414 2323 
C 1363 2317 1210 2304 1165 2304 
C 1114 2298 1069 2291 1069 2227 
C 1069 2157 1114 2157 1222 2157 
L 1504 2157 
C 2029 2157 2266 1722 2266 1094 
C 2266 224 1824 38 1542 38 
C 1267 38 787 147 563 525 
C 787 493 986 634 986 877 
C 986 1107 813 1235 627 1235 
C 474 1235 269 1146 269 864 
C 269 282 864 -141 1562 -141 
C 2342 -141 2925 442 2925 1094 
z
" transform="scale(0.015625)"/>
       </defs>
       <use xlink:href="#LMRoman10-Regular-30"/>
       <use xlink:href="#LMRoman10-Regular-2e" transform="translate(49.999985 0)"/>
       <use xlink:href="#LMRoman10-Regular-33" transform="translate(77.799973 0)"/>
      </g>
     </g>
    </g>
    <g id="xtick_5">
     <g id="line2d_9">
      <path d="M 418.880556 339.84 
L 418.880556 7.2 
" clip-path="url(#p9d108c2847)" style="fill: none; stroke: #b0b0b0; stroke-width: 0.8; stroke-linecap: square"/>
     </g>
     <g id="line2d_10">
      <g>
       <use xlink:href="#mf0ac556f54" x="418.880556" y="339.84" style="stroke: #000000; stroke-width: 0.8"/>
      </g>
     </g>
     <g id="text_5">
      <!-- 0.4 -->
      <g transform="translate(404.8229 363.609375) scale(0.22 -0.22)">
       <defs>
        <path id="LMRoman10-Regular-34" d="M 3014 1056 
L 3014 1254 
L 2374 1254 
L 2374 4166 
C 2374 4294 2374 4333 2272 4333 
C 2214 4333 2195 4333 2144 4256 
L 179 1254 
L 179 1056 
L 1882 1056 
L 1882 499 
C 1882 269 1869 198 1395 198 
L 1261 198 
L 1261 0 
C 1523 19 1856 19 2125 19 
C 2394 19 2733 19 2995 0 
L 2995 198 
L 2861 198 
C 2387 198 2374 269 2374 499 
L 2374 1056 
L 3014 1056 
z
M 1920 1254 
L 358 1254 
L 1920 3642 
L 1920 1254 
z
" transform="scale(0.015625)"/>
       </defs>
       <use xlink:href="#LMRoman10-Regular-30"/>
       <use xlink:href="#LMRoman10-Regular-2e" transform="translate(49.999985 0)"/>
       <use xlink:href="#LMRoman10-Regular-34" transform="translate(77.799973 0)"/>
      </g>
     </g>
    </g>
    <g id="xtick_6">
     <g id="line2d_11">
      <path d="M 498.32414 339.84 
L 498.32414 7.2 
" clip-path="url(#p9d108c2847)" style="fill: none; stroke: #b0b0b0; stroke-width: 0.8; stroke-linecap: square"/>
     </g>
     <g id="line2d_12">
      <g>
       <use xlink:href="#mf0ac556f54" x="498.32414" y="339.84" style="stroke: #000000; stroke-width: 0.8"/>
      </g>
     </g>
     <g id="text_6">
      <!-- 0.5 -->
      <g transform="translate(484.266484 363.609375) scale(0.22 -0.22)">
       <defs>
        <path id="LMRoman10-Regular-35" d="M 2874 1286 
C 2874 2048 2349 2688 1658 2688 
C 1350 2688 1075 2586 845 2362 
L 845 3610 
C 973 3571 1184 3526 1389 3526 
C 2176 3526 2624 4109 2624 4192 
C 2624 4230 2605 4262 2560 4262 
C 2560 4262 2541 4262 2509 4243 
C 2381 4186 2067 4058 1638 4058 
C 1382 4058 1088 4102 787 4237 
C 736 4256 710 4256 710 4256 
C 646 4256 646 4205 646 4102 
L 646 2208 
C 646 2093 646 2042 736 2042 
C 781 2042 794 2061 819 2099 
C 890 2202 1126 2547 1645 2547 
C 1978 2547 2138 2253 2189 2138 
C 2291 1901 2304 1651 2304 1331 
C 2304 1107 2304 723 2150 454 
C 1997 205 1760 38 1466 38 
C 998 38 634 378 525 755 
C 544 749 563 742 634 742 
C 845 742 954 902 954 1056 
C 954 1210 845 1370 634 1370 
C 544 1370 320 1325 320 1030 
C 320 480 762 -141 1478 -141 
C 2221 -141 2874 474 2874 1286 
z
" transform="scale(0.015625)"/>
       </defs>
       <use xlink:href="#LMRoman10-Regular-30"/>
       <use xlink:href="#LMRoman10-Regular-2e" transform="translate(49.999985 0)"/>
       <use xlink:href="#LMRoman10-Regular-35" transform="translate(77.799973 0)"/>
      </g>
     </g>
    </g>
    <g id="text_7">
     <!-- Inverse Temperature $\beta$ -->
     <g transform="translate(193.685313 387.49875) scale(0.22 -0.22)">
      <defs>
       <path id="LMRoman10-Regular-49" d="M 2131 0 
L 2131 198 
L 1965 198 
C 1459 198 1440 269 1440 499 
L 1440 3872 
C 1440 4102 1459 4173 1965 4173 
L 2131 4173 
L 2131 4371 
C 1907 4352 1402 4352 1158 4352 
C 909 4352 403 4352 179 4371 
L 179 4173 
L 346 4173 
C 851 4173 870 4102 870 3872 
L 870 499 
C 870 269 851 198 346 198 
L 179 198 
L 179 0 
C 403 19 909 19 1152 19 
C 1402 19 1907 19 2131 0 
z
" transform="scale(0.015625)"/>
       <path id="LMRoman10-Regular-6e" d="M 3424 0 
L 3424 198 
C 3091 198 2931 198 2925 390 
L 2925 1613 
C 2925 2163 2925 2362 2726 2592 
C 2637 2701 2426 2829 2054 2829 
C 1587 2829 1286 2554 1107 2157 
L 1107 2829 
L 205 2758 
L 205 2560 
C 653 2560 704 2515 704 2202 
L 704 486 
C 704 198 634 198 205 198 
L 205 0 
L 928 19 
L 1645 0 
L 1645 198 
C 1216 198 1146 198 1146 486 
L 1146 1664 
C 1146 2330 1600 2688 2010 2688 
C 2413 2688 2483 2342 2483 1978 
L 2483 486 
C 2483 198 2413 198 1984 198 
L 1984 0 
L 2707 19 
L 3424 0 
z
" transform="scale(0.015625)"/>
       <path id="LMRoman10-Regular-76" d="M 3251 2560 
L 3251 2758 
C 3104 2746 2918 2739 2771 2739 
L 2214 2758 
L 2214 2560 
C 2451 2554 2522 2406 2522 2285 
C 2522 2227 2509 2202 2483 2131 
L 1830 499 
L 1114 2285 
C 1075 2368 1075 2394 1075 2394 
C 1075 2560 1325 2560 1440 2560 
L 1440 2758 
L 742 2739 
C 570 2739 314 2746 122 2758 
L 122 2560 
C 525 2560 550 2522 634 2323 
L 1555 51 
C 1594 -38 1606 -70 1690 -70 
C 1773 -70 1798 -13 1824 51 
L 2662 2131 
C 2720 2278 2829 2554 3251 2560 
z
" transform="scale(0.015625)"/>
       <path id="LMRoman10-Regular-65" d="M 2656 762 
C 2656 826 2605 838 2573 838 
C 2515 838 2502 800 2490 749 
C 2266 90 1690 90 1626 90 
C 1306 90 1050 282 902 518 
C 710 826 710 1248 710 1478 
L 2496 1478 
C 2637 1478 2656 1478 2656 1613 
C 2656 2246 2310 2867 1510 2867 
C 768 2867 179 2208 179 1408 
C 179 550 851 -70 1587 -70 
C 2368 -70 2656 640 2656 762 
z
M 2234 1613 
L 717 1613 
C 755 2566 1293 2726 1510 2726 
C 2170 2726 2234 1862 2234 1613 
z
" transform="scale(0.015625)"/>
       <path id="LMRoman10-Regular-72" d="M 2330 2438 
C 2330 2643 2131 2829 1856 2829 
C 1389 2829 1158 2400 1069 2125 
L 1069 2829 
L 179 2758 
L 179 2560 
C 627 2560 678 2515 678 2202 
L 678 486 
C 678 198 608 198 179 198 
L 179 0 
L 909 19 
C 1165 19 1466 19 1722 0 
L 1722 198 
L 1587 198 
C 1114 198 1101 269 1101 499 
L 1101 1485 
C 1101 2118 1370 2688 1856 2688 
C 1901 2688 1914 2688 1926 2682 
C 1907 2675 1779 2598 1779 2432 
C 1779 2253 1914 2157 2054 2157 
C 2170 2157 2330 2234 2330 2438 
z
" transform="scale(0.015625)"/>
       <path id="LMRoman10-Regular-73" d="M 2304 819 
C 2304 1158 2112 1350 2035 1427 
C 1824 1632 1574 1683 1306 1734 
C 947 1805 518 1888 518 2259 
C 518 2483 685 2746 1235 2746 
C 1939 2746 1971 2170 1984 1971 
C 1990 1914 2061 1914 2061 1914 
C 2144 1914 2144 1946 2144 2067 
L 2144 2714 
C 2144 2822 2144 2867 2074 2867 
C 2042 2867 2029 2867 1946 2790 
C 1926 2765 1862 2707 1837 2688 
C 1594 2867 1331 2867 1235 2867 
C 454 2867 211 2438 211 2080 
C 211 1856 314 1677 486 1536 
C 691 1370 870 1331 1331 1242 
C 1472 1216 1997 1114 1997 653 
C 1997 326 1773 70 1274 70 
C 736 70 506 435 384 979 
C 365 1062 358 1088 294 1088 
C 211 1088 211 1043 211 928 
L 211 83 
C 211 -26 211 -70 282 -70 
C 314 -70 320 -64 442 58 
C 454 70 454 83 570 205 
C 851 -64 1139 -70 1274 -70 
C 2010 -70 2304 358 2304 819 
z
" transform="scale(0.015625)"/>
       <path id="LMRoman10-Regular-20" transform="scale(0.015625)"/>
       <path id="LMRoman10-Regular-54" d="M 4384 2893 
L 4262 4333 
L 352 4333 
L 230 2893 
L 390 2893 
C 480 3923 576 4134 1542 4134 
C 1658 4134 1824 4134 1888 4122 
C 2022 4096 2022 4026 2022 3878 
L 2022 506 
C 2022 288 2022 198 1350 198 
L 1094 198 
L 1094 0 
C 1357 19 2010 19 2304 19 
C 2598 19 3258 19 3520 0 
L 3520 198 
L 3264 198 
C 2592 198 2592 288 2592 506 
L 2592 3878 
C 2592 4006 2592 4096 2707 4122 
C 2778 4134 2950 4134 3072 4134 
C 4038 4134 4134 3923 4224 2893 
L 4384 2893 
z
" transform="scale(0.015625)"/>
       <path id="LMRoman10-Regular-6d" d="M 5203 0 
L 5203 198 
C 4870 198 4710 198 4704 390 
L 4704 1613 
C 4704 2163 4704 2362 4506 2592 
C 4416 2701 4205 2829 3834 2829 
C 3296 2829 3014 2445 2906 2202 
C 2816 2758 2342 2829 2054 2829 
C 1587 2829 1286 2554 1107 2157 
L 1107 2829 
L 205 2758 
L 205 2560 
C 653 2560 704 2515 704 2202 
L 704 486 
C 704 198 634 198 205 198 
L 205 0 
L 928 19 
L 1645 0 
L 1645 198 
C 1216 198 1146 198 1146 486 
L 1146 1664 
C 1146 2330 1600 2688 2010 2688 
C 2413 2688 2483 2342 2483 1978 
L 2483 486 
C 2483 198 2413 198 1984 198 
L 1984 0 
L 2707 19 
L 3424 0 
L 3424 198 
C 2995 198 2925 198 2925 486 
L 2925 1664 
C 2925 2330 3379 2688 3789 2688 
C 4192 2688 4262 2342 4262 1978 
L 4262 486 
C 4262 198 4192 198 3763 198 
L 3763 0 
L 4486 19 
L 5203 0 
z
" transform="scale(0.015625)"/>
       <path id="LMRoman10-Regular-70" d="M 3334 1382 
C 3334 2195 2714 2829 1997 2829 
C 1498 2829 1229 2547 1101 2406 
L 1101 2829 
L 179 2758 
L 179 2560 
C 634 2560 678 2522 678 2240 
L 678 -755 
C 678 -1043 608 -1043 179 -1043 
L 179 -1242 
L 896 -1222 
L 1619 -1242 
L 1619 -1043 
C 1190 -1043 1120 -1043 1120 -755 
L 1120 320 
L 1120 378 
C 1152 275 1421 -70 1907 -70 
C 2669 -70 3334 557 3334 1382 
z
M 2803 1382 
C 2803 608 2355 70 1882 70 
C 1626 70 1382 198 1210 461 
C 1120 595 1120 602 1120 730 
L 1120 2157 
C 1306 2483 1619 2669 1946 2669 
C 2413 2669 2803 2106 2803 1382 
z
" transform="scale(0.015625)"/>
       <path id="LMRoman10-Regular-61" d="M 3155 570 
L 3155 928 
L 2995 928 
L 2995 570 
C 2995 198 2835 160 2765 160 
C 2554 160 2528 448 2528 480 
L 2528 1760 
C 2528 2029 2528 2278 2298 2515 
C 2048 2765 1728 2867 1421 2867 
C 896 2867 454 2566 454 2144 
C 454 1952 582 1843 749 1843 
C 928 1843 1043 1971 1043 2138 
C 1043 2214 1011 2426 717 2432 
C 890 2656 1203 2726 1408 2726 
C 1722 2726 2086 2477 2086 1907 
L 2086 1670 
C 1760 1651 1312 1632 909 1440 
C 429 1222 269 890 269 608 
C 269 90 890 -70 1293 -70 
C 1715 -70 2010 186 2131 486 
C 2157 230 2330 -38 2630 -38 
C 2765 -38 3155 51 3155 570 
z
M 2086 896 
C 2086 288 1626 70 1338 70 
C 1024 70 762 294 762 614 
C 762 966 1030 1498 2086 1536 
L 2086 896 
z
" transform="scale(0.015625)"/>
       <path id="LMRoman10-Regular-74" d="M 2125 794 
L 2125 1158 
L 1965 1158 
L 1965 806 
C 1965 333 1773 90 1536 90 
C 1107 90 1107 672 1107 781 
L 1107 2560 
L 2022 2560 
L 2022 2758 
L 1107 2758 
L 1107 3936 
L 947 3936 
C 941 3411 749 2726 122 2701 
L 122 2560 
L 666 2560 
L 666 794 
C 666 6 1261 -70 1491 -70 
C 1946 -70 2125 384 2125 794 
z
" transform="scale(0.015625)"/>
       <path id="LMRoman10-Regular-75" d="M 3424 0 
L 3424 198 
C 2976 198 2925 243 2925 557 
L 2925 2829 
L 1984 2758 
L 1984 2560 
C 2432 2560 2483 2515 2483 2202 
L 2483 1062 
C 2483 506 2176 70 1709 70 
C 1171 70 1146 371 1146 704 
L 1146 2829 
L 205 2758 
L 205 2560 
C 704 2560 704 2541 704 1971 
L 704 1011 
C 704 512 704 -70 1677 -70 
C 2035 -70 2317 109 2502 506 
L 2502 -70 
L 3424 0 
z
" transform="scale(0.015625)"/>
       <path id="Cmmi10-af" d="M 172 -1241 
Q 153 -1241 137 -1219 
Q 122 -1197 122 -1178 
L 1106 2778 
Q 1191 3097 1353 3397 
Q 1516 3697 1761 3955 
Q 2006 4213 2300 4363 
Q 2594 4513 2925 4513 
Q 3163 4513 3355 4408 
Q 3547 4303 3658 4114 
Q 3769 3925 3769 3688 
Q 3769 3459 3681 3251 
Q 3594 3044 3437 2864 
Q 3281 2684 3103 2572 
Q 3206 2506 3287 2404 
Q 3369 2303 3419 2192 
Q 3469 2081 3497 1945 
Q 3525 1809 3525 1691 
Q 3525 1363 3384 1044 
Q 3244 725 3001 465 
Q 2759 206 2446 54 
Q 2134 -97 1806 -97 
Q 1447 -97 1159 100 
Q 872 297 763 634 
L 300 -1203 
Q 300 -1241 250 -1241 
L 172 -1241 
z
M 1819 78 
Q 2106 78 2339 267 
Q 2572 456 2723 742 
Q 2875 1028 2954 1348 
Q 3034 1669 3034 1931 
Q 3034 2256 2847 2444 
Q 2628 2363 2419 2363 
Q 1913 2363 1913 2534 
Q 1913 2759 2491 2759 
Q 2697 2759 2869 2694 
Q 3006 2800 3118 3006 
Q 3231 3213 3289 3438 
Q 3347 3663 3347 3859 
Q 3347 4069 3236 4208 
Q 3125 4347 2913 4347 
Q 2522 4347 2186 4106 
Q 1850 3866 1619 3498 
Q 1388 3131 1288 2741 
L 934 1325 
Q 900 1178 891 997 
Q 891 597 1153 337 
Q 1416 78 1819 78 
z
M 2106 2553 
Q 2203 2528 2425 2528 
Q 2534 2528 2644 2566 
Q 2638 2572 2619 2572 
Q 2550 2591 2472 2591 
Q 2181 2591 2106 2553 
z
" transform="scale(0.015625)"/>
      </defs>
      <use xlink:href="#LMRoman10-Regular-49" transform="translate(0 0.484375)"/>
      <use xlink:href="#LMRoman10-Regular-6e" transform="translate(36.099991 0.484375)"/>
      <use xlink:href="#LMRoman10-Regular-76" transform="translate(91.699982 0.484375)"/>
      <use xlink:href="#LMRoman10-Regular-65" transform="translate(144.499969 0.484375)"/>
      <use xlink:href="#LMRoman10-Regular-72" transform="translate(188.899963 0.484375)"/>
      <use xlink:href="#LMRoman10-Regular-73" transform="translate(228.09996 0.484375)"/>
      <use xlink:href="#LMRoman10-Regular-65" transform="translate(267.499954 0.484375)"/>
      <use xlink:href="#LMRoman10-Regular-20" transform="translate(311.899948 0.484375)"/>
      <use xlink:href="#LMRoman10-Regular-54" transform="translate(345.199936 0.484375)"/>
      <use xlink:href="#LMRoman10-Regular-65" transform="translate(417.399918 0.484375)"/>
      <use xlink:href="#LMRoman10-Regular-6d" transform="translate(461.799911 0.484375)"/>
      <use xlink:href="#LMRoman10-Regular-70" transform="translate(545.099899 0.484375)"/>
      <use xlink:href="#LMRoman10-Regular-65" transform="translate(600.69989 0.484375)"/>
      <use xlink:href="#LMRoman10-Regular-72" transform="translate(645.099884 0.484375)"/>
      <use xlink:href="#LMRoman10-Regular-61" transform="translate(684.299881 0.484375)"/>
      <use xlink:href="#LMRoman10-Regular-74" transform="translate(734.299866 0.484375)"/>
      <use xlink:href="#LMRoman10-Regular-75" transform="translate(773.19986 0.484375)"/>
      <use xlink:href="#LMRoman10-Regular-72" transform="translate(828.79985 0.484375)"/>
      <use xlink:href="#LMRoman10-Regular-65" transform="translate(867.999847 0.484375)"/>
      <use xlink:href="#LMRoman10-Regular-20" transform="translate(912.399841 0.484375)"/>
      <use xlink:href="#Cmmi10-af" transform="translate(945.699829 0.484375)"/>
     </g>
    </g>
   </g>
   <g id="matplotlib.axis_2">
    <g id="ytick_1">
     <g id="line2d_13">
      <path d="M 80.815313 324.72 
L 527.215312 324.72 
" clip-path="url(#p9d108c2847)" style="fill: none; stroke: #b0b0b0; stroke-width: 0.8; stroke-linecap: square"/>
     </g>
     <g id="line2d_14">
      <defs>
       <path id="mf1805d83a3" d="M 0 0 
L -5 0 
" style="stroke: #000000; stroke-width: 0.8"/>
      </defs>
      <g>
       <use xlink:href="#mf1805d83a3" x="80.815313" y="324.72" style="stroke: #000000; stroke-width: 0.8"/>
      </g>
     </g>
     <g id="text_8">
      <!-- 0.00 -->
      <g transform="translate(33.2 332.354688) scale(0.22 -0.22)">
       <use xlink:href="#LMRoman10-Regular-30"/>
       <use xlink:href="#LMRoman10-Regular-2e" transform="translate(49.999985 0)"/>
       <use xlink:href="#LMRoman10-Regular-30" transform="translate(77.799973 0)"/>
       <use xlink:href="#LMRoman10-Regular-30" transform="translate(127.799957 0)"/>
      </g>
     </g>
    </g>
    <g id="ytick_2">
     <g id="line2d_15">
      <path d="M 80.815313 242.919191 
L 527.215312 242.919191 
" clip-path="url(#p9d108c2847)" style="fill: none; stroke: #b0b0b0; stroke-width: 0.8; stroke-linecap: square"/>
     </g>
     <g id="line2d_16">
      <g>
       <use xlink:href="#mf1805d83a3" x="80.815313" y="242.919191" style="stroke: #000000; stroke-width: 0.8"/>
      </g>
     </g>
     <g id="text_9">
      <!-- 0.05 -->
      <g transform="translate(33.2 250.553879) scale(0.22 -0.22)">
       <use xlink:href="#LMRoman10-Regular-30"/>
       <use xlink:href="#LMRoman10-Regular-2e" transform="translate(49.999985 0)"/>
       <use xlink:href="#LMRoman10-Regular-30" transform="translate(77.799973 0)"/>
       <use xlink:href="#LMRoman10-Regular-35" transform="translate(127.799957 0)"/>
      </g>
     </g>
    </g>
    <g id="ytick_3">
     <g id="line2d_17">
      <path d="M 80.815313 161.118382 
L 527.215312 161.118382 
" clip-path="url(#p9d108c2847)" style="fill: none; stroke: #b0b0b0; stroke-width: 0.8; stroke-linecap: square"/>
     </g>
     <g id="line2d_18">
      <g>
       <use xlink:href="#mf1805d83a3" x="80.815313" y="161.118382" style="stroke: #000000; stroke-width: 0.8"/>
      </g>
     </g>
     <g id="text_10">
      <!-- 0.10 -->
      <g transform="translate(33.2 168.75307) scale(0.22 -0.22)">
       <use xlink:href="#LMRoman10-Regular-30"/>
       <use xlink:href="#LMRoman10-Regular-2e" transform="translate(49.999985 0)"/>
       <use xlink:href="#LMRoman10-Regular-31" transform="translate(77.799973 0)"/>
       <use xlink:href="#LMRoman10-Regular-30" transform="translate(127.799957 0)"/>
      </g>
     </g>
    </g>
    <g id="ytick_4">
     <g id="line2d_19">
      <path d="M 80.815313 79.317574 
L 527.215312 79.317574 
" clip-path="url(#p9d108c2847)" style="fill: none; stroke: #b0b0b0; stroke-width: 0.8; stroke-linecap: square"/>
     </g>
     <g id="line2d_20">
      <g>
       <use xlink:href="#mf1805d83a3" x="80.815313" y="79.317574" style="stroke: #000000; stroke-width: 0.8"/>
      </g>
     </g>
     <g id="text_11">
      <!-- 0.15 -->
      <g transform="translate(33.2 86.952261) scale(0.22 -0.22)">
       <use xlink:href="#LMRoman10-Regular-30"/>
       <use xlink:href="#LMRoman10-Regular-2e" transform="translate(49.999985 0)"/>
       <use xlink:href="#LMRoman10-Regular-31" transform="translate(77.799973 0)"/>
       <use xlink:href="#LMRoman10-Regular-35" transform="translate(127.799957 0)"/>
      </g>
     </g>
    </g>
    <g id="text_12">
     <!-- $\log(T_{coal})/N$ -->
     <g transform="translate(23.7 231.05) rotate(-90) scale(0.22 -0.22)">
      <defs>
       <path id="Cmr10-6c" d="M 197 0 
L 197 225 
Q 416 225 556 259 
Q 697 294 697 428 
L 697 3788 
Q 697 3959 645 4036 
Q 594 4113 497 4130 
Q 400 4147 197 4147 
L 197 4372 
L 1147 4441 
L 1147 428 
Q 1147 294 1287 259 
Q 1428 225 1644 225 
L 1644 0 
L 197 0 
z
" transform="scale(0.015625)"/>
       <path id="Cmr10-6f" d="M 1600 -72 
Q 1216 -72 887 123 
Q 559 319 368 647 
Q 178 975 178 1363 
Q 178 1656 283 1928 
Q 388 2200 583 2414 
Q 778 2628 1037 2748 
Q 1297 2869 1600 2869 
Q 1994 2869 2317 2661 
Q 2641 2453 2828 2104 
Q 3016 1756 3016 1363 
Q 3016 978 2825 648 
Q 2634 319 2307 123 
Q 1981 -72 1600 -72 
z
M 1600 116 
Q 2113 116 2284 487 
Q 2456 859 2456 1434 
Q 2456 1756 2422 1967 
Q 2388 2178 2272 2350 
Q 2200 2456 2089 2536 
Q 1978 2616 1854 2658 
Q 1731 2700 1600 2700 
Q 1400 2700 1220 2609 
Q 1041 2519 922 2350 
Q 803 2169 770 1951 
Q 738 1734 738 1434 
Q 738 1075 800 789 
Q 863 503 1052 309 
Q 1241 116 1600 116 
z
" transform="scale(0.015625)"/>
       <path id="Cmr10-67" d="M 178 -500 
Q 178 -272 343 -101 
Q 509 69 738 141 
Q 609 238 542 384 
Q 475 531 475 697 
Q 475 997 666 1228 
Q 372 1516 372 1888 
Q 372 2088 458 2263 
Q 544 2438 697 2566 
Q 850 2694 1037 2761 
Q 1225 2828 1422 2828 
Q 1803 2828 2106 2606 
Q 2238 2747 2417 2823 
Q 2597 2900 2791 2900 
Q 2928 2900 3015 2801 
Q 3103 2703 3103 2566 
Q 3103 2488 3043 2428 
Q 2984 2369 2906 2369 
Q 2825 2369 2765 2428 
Q 2706 2488 2706 2566 
Q 2706 2684 2784 2731 
Q 2453 2731 2216 2503 
Q 2331 2388 2401 2220 
Q 2472 2053 2472 1888 
Q 2472 1616 2322 1398 
Q 2172 1181 1926 1061 
Q 1681 941 1422 941 
Q 1072 941 781 1131 
Q 691 1006 691 850 
Q 691 681 802 554 
Q 913 428 1081 428 
L 1606 428 
Q 1988 428 2294 359 
Q 2600 291 2808 84 
Q 3016 -122 3016 -500 
Q 3016 -781 2778 -967 
Q 2541 -1153 2211 -1236 
Q 1881 -1319 1600 -1319 
Q 1316 -1319 984 -1236 
Q 653 -1153 415 -967 
Q 178 -781 178 -500 
z
M 538 -500 
Q 538 -716 713 -861 
Q 888 -1006 1134 -1076 
Q 1381 -1147 1600 -1147 
Q 1816 -1147 2062 -1076 
Q 2309 -1006 2482 -861 
Q 2656 -716 2656 -500 
Q 2656 -166 2350 -67 
Q 2044 31 1606 31 
L 1081 31 
Q 934 31 811 -39 
Q 688 -109 613 -236 
Q 538 -363 538 -500 
z
M 1422 1113 
Q 1966 1113 1966 1888 
Q 1966 2222 1850 2439 
Q 1734 2656 1422 2656 
Q 1109 2656 993 2439 
Q 878 2222 878 1888 
Q 878 1675 922 1503 
Q 966 1331 1084 1222 
Q 1203 1113 1422 1113 
z
" transform="scale(0.015625)"/>
       <path id="Cmr10-28" d="M 1984 -1588 
Q 1628 -1306 1370 -942 
Q 1113 -578 948 -165 
Q 784 247 703 697 
Q 622 1147 622 1600 
Q 622 2059 703 2509 
Q 784 2959 951 3375 
Q 1119 3791 1378 4153 
Q 1638 4516 1984 4788 
Q 1984 4800 2016 4800 
L 2075 4800 
Q 2094 4800 2109 4783 
Q 2125 4766 2125 4744 
Q 2125 4716 2113 4703 
Q 1800 4397 1592 4047 
Q 1384 3697 1257 3301 
Q 1131 2906 1075 2482 
Q 1019 2059 1019 1600 
Q 1019 -434 2106 -1491 
Q 2125 -1509 2125 -1544 
Q 2125 -1559 2108 -1579 
Q 2091 -1600 2075 -1600 
L 2016 -1600 
Q 1984 -1600 1984 -1588 
z
" transform="scale(0.015625)"/>
       <path id="Cmmi10-54" d="M 294 84 
Q 297 100 308 140 
Q 319 181 336 203 
Q 353 225 384 225 
Q 934 225 1113 256 
Q 1284 300 1319 441 
L 2194 3956 
Q 2222 4034 2222 4097 
Q 2222 4147 1997 4147 
L 1625 4147 
Q 1197 4147 964 4015 
Q 731 3884 622 3668 
Q 513 3453 341 2963 
Q 319 2906 275 2906 
L 219 2906 
Q 153 2906 153 2988 
L 609 4313 
Q 622 4372 672 4372 
L 4453 4372 
Q 4519 4372 4519 4288 
L 4306 2963 
Q 4306 2944 4284 2925 
Q 4263 2906 4244 2906 
L 4184 2906 
Q 4122 2906 4122 2988 
Q 4191 3441 4191 3628 
Q 4191 3853 4097 3968 
Q 4003 4084 3853 4115 
Q 3703 4147 3463 4147 
L 3084 4147 
Q 2913 4147 2853 4115 
Q 2794 4084 2753 3928 
L 1875 416 
Q 1872 403 1870 390 
Q 1869 378 1863 359 
Q 1863 278 1959 256 
Q 2125 225 2669 225 
Q 2731 225 2731 141 
Q 2709 50 2696 25 
Q 2684 0 2625 0 
L 359 0 
Q 294 0 294 84 
z
" transform="scale(0.015625)"/>
       <path id="Cmmi10-63" d="M 750 763 
Q 750 484 892 290 
Q 1034 97 1300 97 
Q 1681 97 2032 272 
Q 2384 447 2606 756 
Q 2625 775 2656 775 
Q 2688 775 2720 739 
Q 2753 703 2753 672 
Q 2753 647 2741 634 
Q 2506 306 2109 117 
Q 1713 -72 1288 -72 
Q 981 -72 747 73 
Q 513 219 384 462 
Q 256 706 256 1013 
Q 256 1444 497 1869 
Q 738 2294 1138 2561 
Q 1538 2828 1978 2828 
Q 2266 2828 2495 2689 
Q 2725 2550 2725 2278 
Q 2725 2103 2623 1979 
Q 2522 1856 2350 1856 
Q 2247 1856 2176 1920 
Q 2106 1984 2106 2088 
Q 2106 2238 2215 2344 
Q 2325 2450 2472 2450 
L 2484 2450 
Q 2409 2559 2267 2611 
Q 2125 2663 1972 2663 
Q 1597 2663 1315 2342 
Q 1034 2022 892 1576 
Q 750 1131 750 763 
z
" transform="scale(0.015625)"/>
       <path id="Cmmi10-6f" d="M 1288 -72 
Q 984 -72 748 72 
Q 513 216 384 459 
Q 256 703 256 1013 
Q 256 1447 498 1872 
Q 741 2297 1142 2562 
Q 1544 2828 1984 2828 
Q 2222 2828 2408 2747 
Q 2594 2666 2731 2519 
Q 2869 2372 2942 2175 
Q 3016 1978 3016 1747 
Q 3016 1413 2875 1089 
Q 2734 766 2489 502 
Q 2244 238 1928 83 
Q 1613 -72 1288 -72 
z
M 1300 97 
Q 1584 97 1820 290 
Q 2056 484 2207 779 
Q 2359 1075 2440 1403 
Q 2522 1731 2522 1997 
Q 2522 2275 2383 2469 
Q 2244 2663 1972 2663 
Q 1597 2663 1315 2342 
Q 1034 2022 892 1576 
Q 750 1131 750 763 
Q 750 484 892 290 
Q 1034 97 1300 97 
z
" transform="scale(0.015625)"/>
       <path id="Cmmi10-61" d="M 1113 -72 
Q 709 -72 476 233 
Q 244 538 244 953 
Q 244 1363 456 1803 
Q 669 2244 1030 2536 
Q 1391 2828 1806 2828 
Q 1997 2828 2147 2725 
Q 2297 2622 2381 2444 
Q 2453 2700 2663 2700 
Q 2744 2700 2798 2651 
Q 2853 2603 2853 2522 
Q 2853 2503 2851 2493 
Q 2850 2484 2847 2472 
L 2400 684 
Q 2356 494 2356 372 
Q 2356 97 2541 97 
Q 2741 97 2845 351 
Q 2950 606 3022 941 
Q 3034 978 3072 978 
L 3150 978 
Q 3175 978 3190 956 
Q 3206 934 3206 916 
Q 3094 469 2961 198 
Q 2828 -72 2528 -72 
Q 2313 -72 2147 54 
Q 1981 181 1941 391 
Q 1528 -72 1113 -72 
z
M 1119 97 
Q 1350 97 1567 270 
Q 1784 444 1941 678 
Q 1947 684 1947 697 
L 2291 2088 
L 2297 2106 
Q 2259 2334 2132 2498 
Q 2006 2663 1791 2663 
Q 1575 2663 1389 2486 
Q 1203 2309 1075 2069 
Q 950 1813 836 1366 
Q 722 919 722 672 
Q 722 450 817 273 
Q 913 97 1119 97 
z
" transform="scale(0.015625)"/>
       <path id="Cmmi10-6c" d="M 281 519 
Q 281 538 286 575 
Q 291 613 295 648 
Q 300 684 300 703 
L 1094 3872 
Q 1119 3981 1125 4044 
Q 1125 4147 709 4147 
Q 647 4147 647 4231 
Q 650 4247 661 4287 
Q 672 4328 689 4350 
Q 706 4372 738 4372 
L 1600 4441 
Q 1678 4441 1678 4359 
L 756 678 
Q 709 575 709 372 
Q 709 97 897 97 
Q 1094 97 1192 342 
Q 1291 588 1369 941 
Q 1381 978 1422 978 
L 1497 978 
Q 1522 978 1539 958 
Q 1556 938 1556 916 
Q 1481 606 1420 426 
Q 1359 247 1225 87 
Q 1091 -72 884 -72 
Q 628 -72 454 93 
Q 281 259 281 519 
z
" transform="scale(0.015625)"/>
       <path id="Cmr10-29" d="M 416 -1600 
Q 359 -1600 359 -1544 
Q 359 -1516 372 -1503 
Q 1466 -434 1466 1600 
Q 1466 3634 384 4691 
Q 359 4706 359 4744 
Q 359 4766 376 4783 
Q 394 4800 416 4800 
L 475 4800 
Q 494 4800 506 4788 
Q 966 4425 1272 3906 
Q 1578 3388 1720 2800 
Q 1863 2213 1863 1600 
Q 1863 1147 1786 708 
Q 1709 269 1542 -157 
Q 1375 -584 1119 -945 
Q 863 -1306 506 -1588 
Q 494 -1600 475 -1600 
L 416 -1600 
z
" transform="scale(0.015625)"/>
       <path id="Cmmi10-3d" d="M 359 -1472 
Q 359 -1453 366 -1447 
L 2591 4722 
Q 2603 4759 2634 4779 
Q 2666 4800 2706 4800 
Q 2763 4800 2798 4765 
Q 2834 4731 2834 4672 
L 2834 4647 
L 609 -1522 
Q 572 -1600 488 -1600 
Q 434 -1600 396 -1562 
Q 359 -1525 359 -1472 
z
" transform="scale(0.015625)"/>
       <path id="Cmmi10-4e" d="M 300 0 
Q 238 0 238 84 
Q 241 100 250 139 
Q 259 178 276 201 
Q 294 225 319 225 
Q 931 225 1031 616 
L 1900 4116 
Q 1722 4147 1338 4147 
Q 1275 4147 1275 4231 
Q 1278 4247 1287 4286 
Q 1297 4325 1314 4348 
Q 1331 4372 1356 4372 
L 2463 4372 
Q 2509 4372 2522 4331 
L 3944 947 
L 4653 3781 
Q 4666 3850 4666 3878 
Q 4666 4147 4172 4147 
Q 4109 4147 4109 4231 
Q 4131 4313 4143 4342 
Q 4156 4372 4219 4372 
L 5588 4372 
Q 5650 4372 5650 4288 
Q 5647 4272 5637 4233 
Q 5628 4194 5611 4170 
Q 5594 4147 5569 4147 
Q 4956 4147 4856 3756 
L 3938 56 
Q 3916 0 3872 0 
L 3794 0 
Q 3750 0 3738 44 
L 2106 3916 
L 2094 3956 
Q 2081 3969 2081 3975 
L 1234 588 
Q 1228 572 1225 548 
Q 1222 525 1216 494 
Q 1216 328 1359 276 
Q 1503 225 1716 225 
Q 1778 225 1778 141 
Q 1756 53 1740 26 
Q 1725 0 1672 0 
L 300 0 
z
" transform="scale(0.015625)"/>
      </defs>
      <use xlink:href="#Cmr10-6c"/>
      <use xlink:href="#Cmr10-6f" transform="translate(27.685547 0)"/>
      <use xlink:href="#Cmr10-67" transform="translate(77.685547 0)"/>
      <use xlink:href="#Cmr10-28" transform="translate(127.685547 0)"/>
      <use xlink:href="#Cmmi10-54" transform="translate(166.503906 0)"/>
      <use xlink:href="#Cmmi10-63" transform="translate(224.902344 -17.00625) scale(0.7)"/>
      <use xlink:href="#Cmmi10-6f" transform="translate(255.151367 -17.00625) scale(0.7)"/>
      <use xlink:href="#Cmmi10-61" transform="translate(289.023438 -17.00625) scale(0.7)"/>
      <use xlink:href="#Cmmi10-6c" transform="translate(325.97168 -17.00625) scale(0.7)"/>
      <use xlink:href="#Cmr10-29" transform="translate(353.198633 0)"/>
      <use xlink:href="#Cmmi10-3d" transform="translate(392.016992 0)"/>
      <use xlink:href="#Cmmi10-4e" transform="translate(442.016992 0)"/>
     </g>
    </g>
   </g>
   <g id="line2d_21">
    <path d="M 101.106222 215.082903 
L 168.742585 210.399825 
L 236.378949 204.339438 
L 304.015312 196.170454 
L 326.560767 187.850819 
L 349.106222 180.759755 
L 371.651676 169.318257 
L 394.197131 151.936211 
L 416.742585 99.344585 
L 439.28804 97.92 
L 461.833494 97.92 
L 484.378949 97.92 
L 506.924403 97.92 
" clip-path="url(#p9d108c2847)" style="fill: none; stroke: #440154; stroke-width: 4; stroke-linecap: square"/>
   </g>
   <g id="line2d_22">
    <path d="M 101.106222 263.311813 
L 168.742585 260.667718 
L 236.378949 257.265279 
L 304.015312 251.663943 
L 326.560767 248.179366 
L 349.106222 245.422854 
L 371.651676 237.917664 
L 394.197131 219.347189 
L 416.742585 211.32 
L 439.28804 211.32 
L 461.833494 211.32 
L 484.378949 211.32 
L 506.924403 211.32 
" clip-path="url(#p9d108c2847)" style="fill: none; stroke: #453581; stroke-width: 4; stroke-linecap: square"/>
   </g>
   <g id="line2d_23">
    <path d="M 101.106222 296.636422 
L 168.742585 295.234549 
L 236.378949 293.608402 
L 304.015312 291.656907 
L 326.560767 290.556223 
L 349.106222 288.389302 
L 371.651676 285.895484 
L 394.197131 279.36 
L 416.742585 279.36 
L 439.28804 279.36 
L 461.833494 279.36 
L 484.378949 279.36 
L 506.924403 279.36 
" clip-path="url(#p9d108c2847)" style="fill: none; stroke: #25ac82; stroke-width: 4; stroke-linecap: square"/>
   </g>
   <g id="line2d_24">
    <path d="M 101.106222 304.784117 
L 168.742585 304.055226 
L 236.378949 303.120138 
L 304.015312 301.492271 
L 326.560767 300.83659 
L 349.106222 299.852983 
L 371.651676 297.514459 
L 394.197131 294.48 
L 416.742585 294.48 
L 439.28804 294.48 
L 461.833494 294.48 
L 484.378949 294.48 
L 506.924403 294.48 
" clip-path="url(#p9d108c2847)" style="fill: none; stroke: #fde725; stroke-width: 4; stroke-linecap: square"/>
   </g>
   <g id="LineCollection_1">
    <path d="M 304.015312 324.72 
L 304.015312 22.32 
" clip-path="url(#p9d108c2847)" style="fill: none; stroke-dasharray: 14.8,6.4; stroke-dashoffset: 0; stroke: #000000; stroke-width: 4"/>
   </g>
   <g id="patch_3">
    <path d="M 80.815313 339.84 
L 80.815313 7.2 
" style="fill: none; stroke: #000000; stroke-width: 0.8; stroke-linejoin: miter; stroke-linecap: square"/>
   </g>
   <g id="patch_4">
    <path d="M 80.815313 339.84 
L 527.215312 339.84 
" style="fill: none; stroke: #000000; stroke-width: 0.8; stroke-linejoin: miter; stroke-linecap: square"/>
   </g>
   <g id="legend_1">
    <g id="line2d_25">
     <path d="M 91.615313 22.2 
L 103.615313 22.2 
L 115.615313 22.2 
" style="fill: none; stroke: #440154; stroke-width: 4; stroke-linecap: square"/>
    </g>
    <g id="text_13">
     <!-- $N$=100 -->
     <g transform="translate(125.215313 26.4) scale(0.12 -0.12)">
      <defs>
       <path id="LMRoman10-Regular-3d" d="M 4614 2221 
C 4614 2349 4493 2349 4403 2349 
L 570 2349 
C 480 2349 358 2349 358 2221 
C 358 2093 480 2093 576 2093 
L 4397 2093 
C 4493 2093 4614 2093 4614 2221 
z
M 4614 979 
C 4614 1107 4493 1107 4397 1107 
L 576 1107 
C 480 1107 358 1107 358 979 
C 358 851 480 851 570 851 
L 4403 851 
C 4493 851 4614 851 4614 979 
z
" transform="scale(0.015625)"/>
      </defs>
      <use xlink:href="#Cmmi10-4e" transform="translate(0 0.6875)"/>
      <use xlink:href="#LMRoman10-Regular-3d" transform="translate(80.322266 0.6875)"/>
      <use xlink:href="#LMRoman10-Regular-31" transform="translate(158.122253 0.6875)"/>
      <use xlink:href="#LMRoman10-Regular-30" transform="translate(208.122238 0.6875)"/>
      <use xlink:href="#LMRoman10-Regular-30" transform="translate(258.122223 0.6875)"/>
     </g>
    </g>
    <g id="line2d_26">
     <path d="M 91.615313 38.92875 
L 103.615313 38.92875 
L 115.615313 38.92875 
" style="fill: none; stroke: #453581; stroke-width: 4; stroke-linecap: square"/>
    </g>
    <g id="text_14">
     <!-- $N$=200 -->
     <g transform="translate(125.215313 43.12875) scale(0.12 -0.12)">
      <use xlink:href="#Cmmi10-4e" transform="translate(0 0.6875)"/>
      <use xlink:href="#LMRoman10-Regular-3d" transform="translate(80.322266 0.6875)"/>
      <use xlink:href="#LMRoman10-Regular-32" transform="translate(158.122253 0.6875)"/>
      <use xlink:href="#LMRoman10-Regular-30" transform="translate(208.122238 0.6875)"/>
      <use xlink:href="#LMRoman10-Regular-30" transform="translate(258.122223 0.6875)"/>
     </g>
    </g>
    <g id="line2d_27">
     <path d="M 91.615313 55.6575 
L 103.615313 55.6575 
L 115.615313 55.6575 
" style="fill: none; stroke: #25ac82; stroke-width: 4; stroke-linecap: square"/>
    </g>
    <g id="text_15">
     <!-- $N$=500 -->
     <g transform="translate(125.215313 59.8575) scale(0.12 -0.12)">
      <use xlink:href="#Cmmi10-4e" transform="translate(0 0.6875)"/>
      <use xlink:href="#LMRoman10-Regular-3d" transform="translate(80.322266 0.6875)"/>
      <use xlink:href="#LMRoman10-Regular-35" transform="translate(158.122253 0.6875)"/>
      <use xlink:href="#LMRoman10-Regular-30" transform="translate(208.122238 0.6875)"/>
      <use xlink:href="#LMRoman10-Regular-30" transform="translate(258.122223 0.6875)"/>
     </g>
    </g>
    <g id="line2d_28">
     <path d="M 91.615313 72.38625 
L 103.615313 72.38625 
L 115.615313 72.38625 
" style="fill: none; stroke: #fde725; stroke-width: 4; stroke-linecap: square"/>
    </g>
    <g id="text_16">
     <!-- $N$=750 -->
     <g transform="translate(125.215313 76.58625) scale(0.12 -0.12)">
      <defs>
       <path id="LMRoman10-Regular-37" d="M 3104 4122 
L 1549 4122 
C 768 4122 755 4205 730 4326 
L 570 4326 
L 358 3008 
L 518 3008 
C 538 3110 595 3514 678 3590 
C 723 3629 1222 3629 1306 3629 
L 2630 3629 
L 1914 2618 
C 1338 1754 1126 864 1126 211 
C 1126 147 1126 -141 1421 -141 
C 1715 -141 1715 147 1715 211 
L 1715 538 
C 1715 890 1734 1242 1786 1587 
C 1811 1734 1901 2285 2182 2682 
L 3046 3898 
C 3104 3974 3104 3987 3104 4122 
z
" transform="scale(0.015625)"/>
      </defs>
      <use xlink:href="#Cmmi10-4e" transform="translate(0 0.6875)"/>
      <use xlink:href="#LMRoman10-Regular-3d" transform="translate(80.322266 0.6875)"/>
      <use xlink:href="#LMRoman10-Regular-37" transform="translate(158.122253 0.6875)"/>
      <use xlink:href="#LMRoman10-Regular-35" transform="translate(208.122238 0.6875)"/>
      <use xlink:href="#LMRoman10-Regular-30" transform="translate(258.122223 0.6875)"/>
     </g>
    </g>
    <g id="line2d_29">
     <path d="M 91.615313 90.915 
L 115.615313 90.915 
" style="fill: none; stroke-dasharray: 14.8,6.4; stroke-dashoffset: 0; stroke: #000000; stroke-width: 4"/>
    </g>
    <g id="text_17">
     <!-- $\beta=\tanh^{-1}(1/d)$ -->
     <g transform="translate(125.215313 95.115) scale(0.12 -0.12)">
      <defs>
       <path id="Cmr10-3d" d="M 481 850 
Q 428 850 393 890 
Q 359 931 359 978 
Q 359 1031 393 1068 
Q 428 1106 481 1106 
L 4500 1106 
Q 4547 1106 4581 1068 
Q 4616 1031 4616 978 
Q 4616 931 4581 890 
Q 4547 850 4500 850 
L 481 850 
z
M 481 2094 
Q 428 2094 393 2131 
Q 359 2169 359 2222 
Q 359 2269 393 2309 
Q 428 2350 481 2350 
L 4500 2350 
Q 4547 2350 4581 2309 
Q 4616 2269 4616 2222 
Q 4616 2169 4581 2131 
Q 4547 2094 4500 2094 
L 481 2094 
z
" transform="scale(0.015625)"/>
       <path id="Cmr10-74" d="M 653 769 
L 653 2534 
L 122 2534 
L 122 2700 
Q 541 2700 737 3090 
Q 934 3481 934 3938 
L 1119 3938 
L 1119 2759 
L 2022 2759 
L 2022 2534 
L 1119 2534 
L 1119 781 
Q 1119 516 1208 316 
Q 1297 116 1528 116 
Q 1747 116 1844 327 
Q 1941 538 1941 781 
L 1941 1159 
L 2125 1159 
L 2125 769 
Q 2125 569 2051 373 
Q 1978 178 1834 53 
Q 1691 -72 1484 -72 
Q 1100 -72 876 158 
Q 653 388 653 769 
z
" transform="scale(0.015625)"/>
       <path id="Cmr10-61" d="M 256 628 
Q 256 1009 556 1248 
Q 856 1488 1276 1586 
Q 1697 1684 2075 1684 
L 2075 1947 
Q 2075 2131 1994 2304 
Q 1913 2478 1759 2589 
Q 1606 2700 1422 2700 
Q 997 2700 775 2509 
Q 897 2509 976 2417 
Q 1056 2325 1056 2203 
Q 1056 2075 965 1984 
Q 875 1894 750 1894 
Q 622 1894 531 1984 
Q 441 2075 441 2203 
Q 441 2541 747 2705 
Q 1053 2869 1422 2869 
Q 1681 2869 1943 2758 
Q 2206 2647 2373 2440 
Q 2541 2234 2541 1959 
L 2541 519 
Q 2541 394 2594 289 
Q 2647 184 2759 184 
Q 2866 184 2917 290 
Q 2969 397 2969 519 
L 2969 928 
L 3156 928 
L 3156 519 
Q 3156 375 3081 245 
Q 3006 116 2879 39 
Q 2753 -38 2606 -38 
Q 2419 -38 2283 107 
Q 2147 253 2131 453 
Q 2013 213 1781 70 
Q 1550 -72 1288 -72 
Q 1044 -72 808 0 
Q 572 72 414 226 
Q 256 381 256 628 
z
M 775 628 
Q 775 403 940 250 
Q 1106 97 1331 97 
Q 1538 97 1706 200 
Q 1875 303 1975 481 
Q 2075 659 2075 856 
L 2075 1522 
Q 1784 1522 1479 1426 
Q 1175 1331 975 1128 
Q 775 925 775 628 
z
" transform="scale(0.015625)"/>
       <path id="Cmr10-6e" d="M 191 0 
L 191 225 
Q 409 225 550 259 
Q 691 294 691 428 
L 691 2175 
Q 691 2347 639 2423 
Q 588 2500 491 2517 
Q 394 2534 191 2534 
L 191 2759 
L 1119 2828 
L 1119 2203 
Q 1247 2478 1498 2653 
Q 1750 2828 2047 2828 
Q 2491 2828 2714 2615 
Q 2938 2403 2938 1966 
L 2938 428 
Q 2938 294 3078 259 
Q 3219 225 3438 225 
L 3438 0 
L 1972 0 
L 1972 225 
Q 2191 225 2331 259 
Q 2472 294 2472 428 
L 2472 1947 
Q 2472 2259 2381 2461 
Q 2291 2663 2009 2663 
Q 1638 2663 1398 2366 
Q 1159 2069 1159 1691 
L 1159 428 
Q 1159 294 1300 259 
Q 1441 225 1656 225 
L 1656 0 
L 191 0 
z
" transform="scale(0.015625)"/>
       <path id="Cmr10-68" d="M 191 0 
L 191 225 
Q 409 225 550 259 
Q 691 294 691 428 
L 691 3788 
Q 691 3959 639 4036 
Q 588 4113 491 4130 
Q 394 4147 191 4147 
L 191 4372 
L 1141 4441 
L 1141 2241 
Q 1275 2506 1515 2667 
Q 1756 2828 2047 2828 
Q 2491 2828 2714 2615 
Q 2938 2403 2938 1966 
L 2938 428 
Q 2938 294 3078 259 
Q 3219 225 3438 225 
L 3438 0 
L 1972 0 
L 1972 225 
Q 2191 225 2331 259 
Q 2472 294 2472 428 
L 2472 1947 
Q 2472 2259 2381 2461 
Q 2291 2663 2009 2663 
Q 1638 2663 1398 2366 
Q 1159 2069 1159 1691 
L 1159 428 
Q 1159 294 1300 259 
Q 1441 225 1656 225 
L 1656 0 
L 191 0 
z
" transform="scale(0.015625)"/>
       <path id="Cmsy10-a1" d="M 653 1472 
Q 600 1472 565 1512 
Q 531 1553 531 1600 
Q 531 1647 565 1687 
Q 600 1728 653 1728 
L 4325 1728 
Q 4375 1728 4408 1687 
Q 4441 1647 4441 1600 
Q 4441 1553 4408 1512 
Q 4375 1472 4325 1472 
L 653 1472 
z
" transform="scale(0.015625)"/>
       <path id="Cmr10-31" d="M 594 0 
L 594 225 
Q 1394 225 1394 428 
L 1394 3788 
Q 1063 3628 556 3628 
L 556 3853 
Q 1341 3853 1741 4263 
L 1831 4263 
Q 1853 4263 1873 4245 
Q 1894 4228 1894 4206 
L 1894 428 
Q 1894 225 2694 225 
L 2694 0 
L 594 0 
z
" transform="scale(0.015625)"/>
       <path id="Cmmi10-64" d="M 1113 -72 
Q 709 -72 476 233 
Q 244 538 244 953 
Q 244 1363 456 1803 
Q 669 2244 1030 2536 
Q 1391 2828 1806 2828 
Q 1994 2828 2145 2723 
Q 2297 2619 2381 2444 
L 2741 3872 
Q 2766 3981 2772 4044 
Q 2772 4147 2356 4147 
Q 2291 4147 2291 4231 
Q 2294 4247 2305 4287 
Q 2316 4328 2333 4350 
Q 2350 4372 2381 4372 
L 3244 4441 
Q 3322 4441 3322 4359 
L 2400 678 
Q 2356 572 2356 372 
Q 2356 97 2541 97 
Q 2741 97 2845 351 
Q 2950 606 3022 941 
Q 3034 978 3072 978 
L 3150 978 
Q 3175 978 3190 956 
Q 3206 934 3206 916 
Q 3094 469 2961 198 
Q 2828 -72 2528 -72 
Q 2313 -72 2147 54 
Q 1981 181 1941 391 
Q 1528 -72 1113 -72 
z
M 1119 97 
Q 1350 97 1567 270 
Q 1784 444 1941 678 
Q 1947 684 1947 703 
L 2297 2113 
Q 2259 2338 2131 2500 
Q 2003 2663 1791 2663 
Q 1575 2663 1389 2486 
Q 1203 2309 1075 2069 
Q 950 1813 836 1366 
Q 722 919 722 672 
Q 722 450 817 273 
Q 913 97 1119 97 
z
" transform="scale(0.015625)"/>
      </defs>
      <use xlink:href="#Cmmi10-af" transform="translate(0 0.109375)"/>
      <use xlink:href="#Cmr10-3d" transform="translate(74.052734 0.109375)"/>
      <use xlink:href="#Cmr10-74" transform="translate(169.296875 0.109375)"/>
      <use xlink:href="#Cmr10-61" transform="translate(208.115234 0.109375)"/>
      <use xlink:href="#Cmr10-6e" transform="translate(258.115234 0.109375)"/>
      <use xlink:href="#Cmr10-68" transform="translate(313.632812 0.109375)"/>
      <use xlink:href="#Cmsy10-a1" transform="translate(373.614531 38.373438) scale(0.7)"/>
      <use xlink:href="#Cmr10-31" transform="translate(427.994414 38.373438) scale(0.7)"/>
      <use xlink:href="#Cmr10-28" transform="translate(484.004212 0.109375)"/>
      <use xlink:href="#Cmr10-31" transform="translate(522.822571 0.109375)"/>
      <use xlink:href="#Cmmi10-3d" transform="translate(572.822571 0.109375)"/>
      <use xlink:href="#Cmmi10-64" transform="translate(622.822571 0.109375)"/>
      <use xlink:href="#Cmr10-29" transform="translate(674.824524 0.109375)"/>
     </g>
    </g>
   </g>
  </g>
 </g>
 <defs>
  <clipPath id="p9d108c2847">
   <rect x="80.815313" y="7.2" width="446.4" height="332.64"/>
  </clipPath>
 </defs>
</svg>
