<?xml version="1.0" encoding="utf-8" standalone="no"?>
<!DOCTYPE svg PUBLIC "-//W3C//DTD SVG 1.1//EN"
  "http://www.w3.org/Graphics/SVG/1.1/DTD/svg11.dtd">
<svg xmlns:xlink="http://www.w3.org/1999/xlink" width="523.19875pt" height="399.09875pt" viewBox="0 0 523.19875 399.09875" xmlns="http://www.w3.org/2000/svg" version="1.1">
 <metadata>
  <rdf:RDF xmlns:dc="http://purl.org/dc/elements/1.1/" xmlns:cc="http://creativecommons.org/ns#" xmlns:rdf="http://www.w3.org/1999/02/22-rdf-syntax-ns#">
   <cc:Work>
    <dc:type rdf:resource="http://purl.org/dc/dcmitype/StillImage"/>
    <dc:date>2026-05-03T03:04:54.039878</dc:date>
    <dc:format>image/svg+xml</dc:format>
    <dc:creator>
     <cc:Agent>
      <dc:title>Matplotlib v3.10.8, https://matplotlib.org/</dc:title>
     </cc:Agent>
    </dc:creator>
   </cc:Work>
  </rdf:RDF>
 </metadata>
 <defs>
  <style type="text/css">*{stroke-linejoin: round; stroke-linecap: butt}</style>
 </defs>
 <g id="figure_1">
  <g id="patch_1">
   <path d="M 0 399.09875 
L 523.19875 399.09875 
L 523.19875 0 
L 0 0 
z
" style="fill: #ffffff"/>
  </g>
  <g id="axes_1">
   <g id="patch_2">
    <path d="M 69.59875 339.84 
L 515.99875 339.84 
L 515.99875 7.2 
L 69.59875 7.2 
z
" style="fill: #ffffff"/>
   </g>
   <g id="FillBetweenPolyCollection_1">
    <defs>
     <path id="mf95349b812" d="M 89.889659 -100.171094 
L 89.889659 -76.673614 
L 134.980568 -74.120551 
L 180.071477 -73.706459 
L 225.162386 -83.164542 
L 255.222992 -80.151301 
L 285.283598 -81.803642 
L 315.344205 -82.391984 
L 345.404811 -86.078701 
L 375.465417 -90.320087 
L 405.526023 -85.594533 
L 435.586629 -89.12548 
L 465.647235 -95.101178 
L 495.707841 -95.709997 
L 495.707841 -125.640194 
L 495.707841 -125.640194 
L 465.647235 -122.461308 
L 435.586629 -118.876733 
L 405.526023 -112.177884 
L 375.465417 -111.358266 
L 345.404811 -110.187995 
L 315.344205 -111.541015 
L 285.283598 -109.071401 
L 255.222992 -103.361548 
L 225.162386 -105.146673 
L 180.071477 -106.510066 
L 134.980568 -95.564709 
L 89.889659 -100.171094 
z
" style="stroke: #440154; stroke-opacity: 0.3"/>
    </defs>
    <g clip-path="url(#p1077904c66)">
     <use xlink:href="#mf95349b812" x="0" y="399.09875" style="fill: #440154; fill-opacity: 0.3; stroke: #440154; stroke-opacity: 0.3"/>
    </g>
   </g>
   <g id="FillBetweenPolyCollection_2">
    <defs>
     <path id="m0a3813fc13" d="M 89.889659 -134.129382 
L 89.889659 -106.221343 
L 134.980568 -112.075279 
L 180.071477 -109.316745 
L 225.162386 -114.266628 
L 255.222992 -120.32319 
L 285.283598 -123.826495 
L 315.344205 -124.519376 
L 345.404811 -129.149843 
L 375.465417 -136.908429 
L 405.526023 -138.872621 
L 435.586629 -142.55041 
L 465.647235 -148.055961 
L 495.707841 -157.564068 
L 495.707841 -183.799079 
L 495.707841 -183.799079 
L 465.647235 -180.015314 
L 435.586629 -168.623163 
L 405.526023 -160.597263 
L 375.465417 -159.56736 
L 345.404811 -151.418577 
L 315.344205 -145.899077 
L 285.283598 -142.689105 
L 255.222992 -143.245158 
L 225.162386 -137.828476 
L 180.071477 -136.482804 
L 134.980568 -125.336444 
L 89.889659 -134.129382 
z
" style="stroke: #453581; stroke-opacity: 0.3"/>
    </defs>
    <g clip-path="url(#p1077904c66)">
     <use xlink:href="#m0a3813fc13" x="0" y="399.09875" style="fill: #453581; fill-opacity: 0.3; stroke: #453581; stroke-opacity: 0.3"/>
    </g>
   </g>
   <g id="FillBetweenPolyCollection_3">
    <defs>
     <path id="md6ac0d3e4b" d="M 89.889659 -168.620695 
L 89.889659 -153.35608 
L 134.980568 -154.627774 
L 180.071477 -160.737195 
L 225.162386 -171.390774 
L 255.222992 -176.763962 
L 285.283598 -180.150466 
L 315.344205 -193.006361 
L 345.404811 -209.88505 
L 375.465417 -233.462416 
L 405.526023 -364.859528 
L 435.586629 -364.859528 
L 465.647235 -364.859528 
L 495.707841 -364.859528 
L 495.707841 -364.859528 
L 495.707841 -364.859528 
L 465.647235 -364.859528 
L 435.586629 -364.859528 
L 405.526023 -364.859528 
L 375.465417 -271.303688 
L 345.404811 -230.336052 
L 315.344205 -218.515933 
L 285.283598 -204.104142 
L 255.222992 -192.712185 
L 225.162386 -188.649968 
L 180.071477 -189.155081 
L 134.980568 -175.631557 
L 89.889659 -168.620695 
z
" style="stroke: #25ac82; stroke-opacity: 0.3"/>
    </defs>
    <g clip-path="url(#p1077904c66)">
     <use xlink:href="#md6ac0d3e4b" x="0" y="399.09875" style="fill: #25ac82; fill-opacity: 0.3; stroke: #25ac82; stroke-opacity: 0.3"/>
    </g>
   </g>
   <g id="FillBetweenPolyCollection_4">
    <defs>
     <path id="m536376bfcb" d="M 89.889659 -187.802335 
L 89.889659 -172.403916 
L 134.980568 -181.284423 
L 180.071477 -181.670114 
L 225.162386 -196.428436 
L 255.222992 -200.264621 
L 285.283598 -221.355837 
L 315.344205 -252.300442 
L 345.404811 -364.859528 
L 375.465417 -364.859528 
L 405.526023 -364.859528 
L 435.586629 -364.859528 
L 465.647235 -364.859528 
L 495.707841 -364.859528 
L 495.707841 -364.859528 
L 495.707841 -364.859528 
L 465.647235 -364.859528 
L 435.586629 -364.859528 
L 405.526023 -364.859528 
L 375.465417 -364.859528 
L 345.404811 -364.859528 
L 315.344205 -282.161449 
L 285.283598 -239.247873 
L 255.222992 -224.910818 
L 225.162386 -211.50876 
L 180.071477 -201.18209 
L 134.980568 -193.363107 
L 89.889659 -187.802335 
z
" style="stroke: #fde725; stroke-opacity: 0.3"/>
    </defs>
    <g clip-path="url(#p1077904c66)">
     <use xlink:href="#m536376bfcb" x="0" y="399.09875" style="fill: #fde725; fill-opacity: 0.3; stroke: #fde725; stroke-opacity: 0.3"/>
    </g>
   </g>
   <g id="matplotlib.axis_1">
    <g id="xtick_1">
     <g id="line2d_1">
      <path d="M 89.889659 339.84 
L 89.889659 7.2 
" clip-path="url(#p1077904c66)" style="fill: none; stroke: #b0b0b0; stroke-width: 0.8; stroke-linecap: square"/>
     </g>
     <g id="line2d_2">
      <defs>
       <path id="m81a3f682d0" d="M 0 0 
L 0 5 
" style="stroke: #000000; stroke-width: 0.8"/>
      </defs>
      <g>
       <use xlink:href="#m81a3f682d0" x="89.889659" y="339.84" style="stroke: #000000; stroke-width: 0.8"/>
      </g>
     </g>
     <g id="text_1">
      <!-- 0.000 -->
      <g transform="translate(64.832003 363.609375) scale(0.22 -0.22)">
       <defs>
        <path id="LMRoman10-Regular-30" d="M 2944 2048 
C 2944 2560 2912 3072 2688 3546 
C 2394 4160 1869 4262 1600 4262 
C 1216 4262 749 4096 486 3501 
C 282 3059 250 2560 250 2048 
C 250 1568 275 992 538 506 
C 813 -13 1280 -141 1594 -141 
C 1939 -141 2426 -6 2707 602 
C 2912 1043 2944 1542 2944 2048 
z
M 2413 2125 
C 2413 1645 2413 1210 2342 800 
C 2246 192 1882 0 1594 0 
C 1344 0 966 160 851 774 
C 781 1158 781 1747 781 2125 
C 781 2534 781 2957 832 3302 
C 954 4064 1434 4122 1594 4122 
C 1805 4122 2227 4006 2349 3373 
C 2413 3014 2413 2528 2413 2125 
z
" transform="scale(0.015625)"/>
        <path id="LMRoman10-Regular-2e" d="M 1229 339 
C 1229 525 1075 678 890 678 
C 704 678 550 525 550 339 
C 550 154 704 0 890 0 
C 1075 0 1229 154 1229 339 
z
" transform="scale(0.015625)"/>
       </defs>
       <use xlink:href="#LMRoman10-Regular-30"/>
       <use xlink:href="#LMRoman10-Regular-2e" transform="translate(49.999985 0)"/>
       <use xlink:href="#LMRoman10-Regular-30" transform="translate(77.799973 0)"/>
       <use xlink:href="#LMRoman10-Regular-30" transform="translate(127.799957 0)"/>
       <use xlink:href="#LMRoman10-Regular-30" transform="translate(177.799942 0)"/>
      </g>
     </g>
    </g>
    <g id="xtick_2">
     <g id="line2d_3">
      <path d="M 182.380858 339.84 
L 182.380858 7.2 
" clip-path="url(#p1077904c66)" style="fill: none; stroke: #b0b0b0; stroke-width: 0.8; stroke-linecap: square"/>
     </g>
     <g id="line2d_4">
      <g>
       <use xlink:href="#m81a3f682d0" x="182.380858" y="339.84" style="stroke: #000000; stroke-width: 0.8"/>
      </g>
     </g>
     <g id="text_2">
      <!-- 0.025 -->
      <g transform="translate(157.323201 363.609375) scale(0.22 -0.22)">
       <defs>
        <path id="LMRoman10-Regular-32" d="M 2874 1114 
L 2714 1114 
C 2682 922 2637 640 2573 544 
C 2528 493 2106 493 1965 493 
L 813 493 
L 1491 1152 
C 2490 2035 2874 2381 2874 3021 
C 2874 3750 2298 4262 1517 4262 
C 794 4262 320 3674 320 3104 
C 320 2746 640 2746 659 2746 
C 768 2746 992 2822 992 3085 
C 992 3251 877 3418 653 3418 
C 602 3418 589 3418 570 3411 
C 717 3827 1062 4064 1434 4064 
C 2016 4064 2291 3546 2291 3021 
C 2291 2509 1971 2003 1619 1606 
L 390 237 
C 320 166 320 154 320 0 
L 2694 0 
L 2874 1114 
z
" transform="scale(0.015625)"/>
        <path id="LMRoman10-Regular-35" d="M 2874 1286 
C 2874 2048 2349 2688 1658 2688 
C 1350 2688 1075 2586 845 2362 
L 845 3610 
C 973 3571 1184 3526 1389 3526 
C 2176 3526 2624 4109 2624 4192 
C 2624 4230 2605 4262 2560 4262 
C 2560 4262 2541 4262 2509 4243 
C 2381 4186 2067 4058 1638 4058 
C 1382 4058 1088 4102 787 4237 
C 736 4256 710 4256 710 4256 
C 646 4256 646 4205 646 4102 
L 646 2208 
C 646 2093 646 2042 736 2042 
C 781 2042 794 2061 819 2099 
C 890 2202 1126 2547 1645 2547 
C 1978 2547 2138 2253 2189 2138 
C 2291 1901 2304 1651 2304 1331 
C 2304 1107 2304 723 2150 454 
C 1997 205 1760 38 1466 38 
C 998 38 634 378 525 755 
C 544 749 563 742 634 742 
C 845 742 954 902 954 1056 
C 954 1210 845 1370 634 1370 
C 544 1370 320 1325 320 1030 
C 320 480 762 -141 1478 -141 
C 2221 -141 2874 474 2874 1286 
z
" transform="scale(0.015625)"/>
       </defs>
       <use xlink:href="#LMRoman10-Regular-30"/>
       <use xlink:href="#LMRoman10-Regular-2e" transform="translate(49.999985 0)"/>
       <use xlink:href="#LMRoman10-Regular-30" transform="translate(77.799973 0)"/>
       <use xlink:href="#LMRoman10-Regular-32" transform="translate(127.799957 0)"/>
       <use xlink:href="#LMRoman10-Regular-35" transform="translate(177.799942 0)"/>
      </g>
     </g>
    </g>
    <g id="xtick_3">
     <g id="line2d_5">
      <path d="M 274.872056 339.84 
L 274.872056 7.2 
" clip-path="url(#p1077904c66)" style="fill: none; stroke: #b0b0b0; stroke-width: 0.8; stroke-linecap: square"/>
     </g>
     <g id="line2d_6">
      <g>
       <use xlink:href="#m81a3f682d0" x="274.872056" y="339.84" style="stroke: #000000; stroke-width: 0.8"/>
      </g>
     </g>
     <g id="text_3">
      <!-- 0.050 -->
      <g transform="translate(249.8144 363.609375) scale(0.22 -0.22)">
       <use xlink:href="#LMRoman10-Regular-30"/>
       <use xlink:href="#LMRoman10-Regular-2e" transform="translate(49.999985 0)"/>
       <use xlink:href="#LMRoman10-Regular-30" transform="translate(77.799973 0)"/>
       <use xlink:href="#LMRoman10-Regular-35" transform="translate(127.799957 0)"/>
       <use xlink:href="#LMRoman10-Regular-30" transform="translate(177.799942 0)"/>
      </g>
     </g>
    </g>
    <g id="xtick_4">
     <g id="line2d_7">
      <path d="M 367.363255 339.84 
L 367.363255 7.2 
" clip-path="url(#p1077904c66)" style="fill: none; stroke: #b0b0b0; stroke-width: 0.8; stroke-linecap: square"/>
     </g>
     <g id="line2d_8">
      <g>
       <use xlink:href="#m81a3f682d0" x="367.363255" y="339.84" style="stroke: #000000; stroke-width: 0.8"/>
      </g>
     </g>
     <g id="text_4">
      <!-- 0.075 -->
      <g transform="translate(342.305599 363.609375) scale(0.22 -0.22)">
       <defs>
        <path id="LMRoman10-Regular-37" d="M 3104 4122 
L 1549 4122 
C 768 4122 755 4205 730 4326 
L 570 4326 
L 358 3008 
L 518 3008 
C 538 3110 595 3514 678 3590 
C 723 3629 1222 3629 1306 3629 
L 2630 3629 
L 1914 2618 
C 1338 1754 1126 864 1126 211 
C 1126 147 1126 -141 1421 -141 
C 1715 -141 1715 147 1715 211 
L 1715 538 
C 1715 890 1734 1242 1786 1587 
C 1811 1734 1901 2285 2182 2682 
L 3046 3898 
C 3104 3974 3104 3987 3104 4122 
z
" transform="scale(0.015625)"/>
       </defs>
       <use xlink:href="#LMRoman10-Regular-30"/>
       <use xlink:href="#LMRoman10-Regular-2e" transform="translate(49.999985 0)"/>
       <use xlink:href="#LMRoman10-Regular-30" transform="translate(77.799973 0)"/>
       <use xlink:href="#LMRoman10-Regular-37" transform="translate(127.799957 0)"/>
       <use xlink:href="#LMRoman10-Regular-35" transform="translate(177.799942 0)"/>
      </g>
     </g>
    </g>
    <g id="xtick_5">
     <g id="line2d_9">
      <path d="M 459.854453 339.84 
L 459.854453 7.2 
" clip-path="url(#p1077904c66)" style="fill: none; stroke: #b0b0b0; stroke-width: 0.8; stroke-linecap: square"/>
     </g>
     <g id="line2d_10">
      <g>
       <use xlink:href="#m81a3f682d0" x="459.854453" y="339.84" style="stroke: #000000; stroke-width: 0.8"/>
      </g>
     </g>
     <g id="text_5">
      <!-- 0.100 -->
      <g transform="translate(434.796797 363.609375) scale(0.22 -0.22)">
       <defs>
        <path id="LMRoman10-Regular-31" d="M 2682 0 
L 2682 198 
L 2477 198 
C 1901 198 1882 269 1882 506 
L 1882 4096 
C 1882 4250 1882 4262 1734 4262 
C 1338 3853 774 3853 570 3853 
L 570 3654 
C 698 3654 1075 3654 1408 3821 
L 1408 506 
C 1408 275 1389 198 813 198 
L 608 198 
L 608 0 
C 832 19 1389 19 1645 19 
C 1901 19 2458 19 2682 0 
z
" transform="scale(0.015625)"/>
       </defs>
       <use xlink:href="#LMRoman10-Regular-30"/>
       <use xlink:href="#LMRoman10-Regular-2e" transform="translate(49.999985 0)"/>
       <use xlink:href="#LMRoman10-Regular-31" transform="translate(77.799973 0)"/>
       <use xlink:href="#LMRoman10-Regular-30" transform="translate(127.799957 0)"/>
       <use xlink:href="#LMRoman10-Regular-30" transform="translate(177.799942 0)"/>
      </g>
     </g>
    </g>
    <g id="text_6">
     <!-- Inverse Temperature $\beta$ -->
     <g transform="translate(182.46875 387.49875) scale(0.22 -0.22)">
      <defs>
       <path id="LMRoman10-Regular-49" d="M 2131 0 
L 2131 198 
L 1965 198 
C 1459 198 1440 269 1440 499 
L 1440 3872 
C 1440 4102 1459 4173 1965 4173 
L 2131 4173 
L 2131 4371 
C 1907 4352 1402 4352 1158 4352 
C 909 4352 403 4352 179 4371 
L 179 4173 
L 346 4173 
C 851 4173 870 4102 870 3872 
L 870 499 
C 870 269 851 198 346 198 
L 179 198 
L 179 0 
C 403 19 909 19 1152 19 
C 1402 19 1907 19 2131 0 
z
" transform="scale(0.015625)"/>
       <path id="LMRoman10-Regular-6e" d="M 3424 0 
L 3424 198 
C 3091 198 2931 198 2925 390 
L 2925 1613 
C 2925 2163 2925 2362 2726 2592 
C 2637 2701 2426 2829 2054 2829 
C 1587 2829 1286 2554 1107 2157 
L 1107 2829 
L 205 2758 
L 205 2560 
C 653 2560 704 2515 704 2202 
L 704 486 
C 704 198 634 198 205 198 
L 205 0 
L 928 19 
L 1645 0 
L 1645 198 
C 1216 198 1146 198 1146 486 
L 1146 1664 
C 1146 2330 1600 2688 2010 2688 
C 2413 2688 2483 2342 2483 1978 
L 2483 486 
C 2483 198 2413 198 1984 198 
L 1984 0 
L 2707 19 
L 3424 0 
z
" transform="scale(0.015625)"/>
       <path id="LMRoman10-Regular-76" d="M 3251 2560 
L 3251 2758 
C 3104 2746 2918 2739 2771 2739 
L 2214 2758 
L 2214 2560 
C 2451 2554 2522 2406 2522 2285 
C 2522 2227 2509 2202 2483 2131 
L 1830 499 
L 1114 2285 
C 1075 2368 1075 2394 1075 2394 
C 1075 2560 1325 2560 1440 2560 
L 1440 2758 
L 742 2739 
C 570 2739 314 2746 122 2758 
L 122 2560 
C 525 2560 550 2522 634 2323 
L 1555 51 
C 1594 -38 1606 -70 1690 -70 
C 1773 -70 1798 -13 1824 51 
L 2662 2131 
C 2720 2278 2829 2554 3251 2560 
z
" transform="scale(0.015625)"/>
       <path id="LMRoman10-Regular-65" d="M 2656 762 
C 2656 826 2605 838 2573 838 
C 2515 838 2502 800 2490 749 
C 2266 90 1690 90 1626 90 
C 1306 90 1050 282 902 518 
C 710 826 710 1248 710 1478 
L 2496 1478 
C 2637 1478 2656 1478 2656 1613 
C 2656 2246 2310 2867 1510 2867 
C 768 2867 179 2208 179 1408 
C 179 550 851 -70 1587 -70 
C 2368 -70 2656 640 2656 762 
z
M 2234 1613 
L 717 1613 
C 755 2566 1293 2726 1510 2726 
C 2170 2726 2234 1862 2234 1613 
z
" transform="scale(0.015625)"/>
       <path id="LMRoman10-Regular-72" d="M 2330 2438 
C 2330 2643 2131 2829 1856 2829 
C 1389 2829 1158 2400 1069 2125 
L 1069 2829 
L 179 2758 
L 179 2560 
C 627 2560 678 2515 678 2202 
L 678 486 
C 678 198 608 198 179 198 
L 179 0 
L 909 19 
C 1165 19 1466 19 1722 0 
L 1722 198 
L 1587 198 
C 1114 198 1101 269 1101 499 
L 1101 1485 
C 1101 2118 1370 2688 1856 2688 
C 1901 2688 1914 2688 1926 2682 
C 1907 2675 1779 2598 1779 2432 
C 1779 2253 1914 2157 2054 2157 
C 2170 2157 2330 2234 2330 2438 
z
" transform="scale(0.015625)"/>
       <path id="LMRoman10-Regular-73" d="M 2304 819 
C 2304 1158 2112 1350 2035 1427 
C 1824 1632 1574 1683 1306 1734 
C 947 1805 518 1888 518 2259 
C 518 2483 685 2746 1235 2746 
C 1939 2746 1971 2170 1984 1971 
C 1990 1914 2061 1914 2061 1914 
C 2144 1914 2144 1946 2144 2067 
L 2144 2714 
C 2144 2822 2144 2867 2074 2867 
C 2042 2867 2029 2867 1946 2790 
C 1926 2765 1862 2707 1837 2688 
C 1594 2867 1331 2867 1235 2867 
C 454 2867 211 2438 211 2080 
C 211 1856 314 1677 486 1536 
C 691 1370 870 1331 1331 1242 
C 1472 1216 1997 1114 1997 653 
C 1997 326 1773 70 1274 70 
C 736 70 506 435 384 979 
C 365 1062 358 1088 294 1088 
C 211 1088 211 1043 211 928 
L 211 83 
C 211 -26 211 -70 282 -70 
C 314 -70 320 -64 442 58 
C 454 70 454 83 570 205 
C 851 -64 1139 -70 1274 -70 
C 2010 -70 2304 358 2304 819 
z
" transform="scale(0.015625)"/>
       <path id="LMRoman10-Regular-20" transform="scale(0.015625)"/>
       <path id="LMRoman10-Regular-54" d="M 4384 2893 
L 4262 4333 
L 352 4333 
L 230 2893 
L 390 2893 
C 480 3923 576 4134 1542 4134 
C 1658 4134 1824 4134 1888 4122 
C 2022 4096 2022 4026 2022 3878 
L 2022 506 
C 2022 288 2022 198 1350 198 
L 1094 198 
L 1094 0 
C 1357 19 2010 19 2304 19 
C 2598 19 3258 19 3520 0 
L 3520 198 
L 3264 198 
C 2592 198 2592 288 2592 506 
L 2592 3878 
C 2592 4006 2592 4096 2707 4122 
C 2778 4134 2950 4134 3072 4134 
C 4038 4134 4134 3923 4224 2893 
L 4384 2893 
z
" transform="scale(0.015625)"/>
       <path id="LMRoman10-Regular-6d" d="M 5203 0 
L 5203 198 
C 4870 198 4710 198 4704 390 
L 4704 1613 
C 4704 2163 4704 2362 4506 2592 
C 4416 2701 4205 2829 3834 2829 
C 3296 2829 3014 2445 2906 2202 
C 2816 2758 2342 2829 2054 2829 
C 1587 2829 1286 2554 1107 2157 
L 1107 2829 
L 205 2758 
L 205 2560 
C 653 2560 704 2515 704 2202 
L 704 486 
C 704 198 634 198 205 198 
L 205 0 
L 928 19 
L 1645 0 
L 1645 198 
C 1216 198 1146 198 1146 486 
L 1146 1664 
C 1146 2330 1600 2688 2010 2688 
C 2413 2688 2483 2342 2483 1978 
L 2483 486 
C 2483 198 2413 198 1984 198 
L 1984 0 
L 2707 19 
L 3424 0 
L 3424 198 
C 2995 198 2925 198 2925 486 
L 2925 1664 
C 2925 2330 3379 2688 3789 2688 
C 4192 2688 4262 2342 4262 1978 
L 4262 486 
C 4262 198 4192 198 3763 198 
L 3763 0 
L 4486 19 
L 5203 0 
z
" transform="scale(0.015625)"/>
       <path id="LMRoman10-Regular-70" d="M 3334 1382 
C 3334 2195 2714 2829 1997 2829 
C 1498 2829 1229 2547 1101 2406 
L 1101 2829 
L 179 2758 
L 179 2560 
C 634 2560 678 2522 678 2240 
L 678 -755 
C 678 -1043 608 -1043 179 -1043 
L 179 -1242 
L 896 -1222 
L 1619 -1242 
L 1619 -1043 
C 1190 -1043 1120 -1043 1120 -755 
L 1120 320 
L 1120 378 
C 1152 275 1421 -70 1907 -70 
C 2669 -70 3334 557 3334 1382 
z
M 2803 1382 
C 2803 608 2355 70 1882 70 
C 1626 70 1382 198 1210 461 
C 1120 595 1120 602 1120 730 
L 1120 2157 
C 1306 2483 1619 2669 1946 2669 
C 2413 2669 2803 2106 2803 1382 
z
" transform="scale(0.015625)"/>
       <path id="LMRoman10-Regular-61" d="M 3155 570 
L 3155 928 
L 2995 928 
L 2995 570 
C 2995 198 2835 160 2765 160 
C 2554 160 2528 448 2528 480 
L 2528 1760 
C 2528 2029 2528 2278 2298 2515 
C 2048 2765 1728 2867 1421 2867 
C 896 2867 454 2566 454 2144 
C 454 1952 582 1843 749 1843 
C 928 1843 1043 1971 1043 2138 
C 1043 2214 1011 2426 717 2432 
C 890 2656 1203 2726 1408 2726 
C 1722 2726 2086 2477 2086 1907 
L 2086 1670 
C 1760 1651 1312 1632 909 1440 
C 429 1222 269 890 269 608 
C 269 90 890 -70 1293 -70 
C 1715 -70 2010 186 2131 486 
C 2157 230 2330 -38 2630 -38 
C 2765 -38 3155 51 3155 570 
z
M 2086 896 
C 2086 288 1626 70 1338 70 
C 1024 70 762 294 762 614 
C 762 966 1030 1498 2086 1536 
L 2086 896 
z
" transform="scale(0.015625)"/>
       <path id="LMRoman10-Regular-74" d="M 2125 794 
L 2125 1158 
L 1965 1158 
L 1965 806 
C 1965 333 1773 90 1536 90 
C 1107 90 1107 672 1107 781 
L 1107 2560 
L 2022 2560 
L 2022 2758 
L 1107 2758 
L 1107 3936 
L 947 3936 
C 941 3411 749 2726 122 2701 
L 122 2560 
L 666 2560 
L 666 794 
C 666 6 1261 -70 1491 -70 
C 1946 -70 2125 384 2125 794 
z
" transform="scale(0.015625)"/>
       <path id="LMRoman10-Regular-75" d="M 3424 0 
L 3424 198 
C 2976 198 2925 243 2925 557 
L 2925 2829 
L 1984 2758 
L 1984 2560 
C 2432 2560 2483 2515 2483 2202 
L 2483 1062 
C 2483 506 2176 70 1709 70 
C 1171 70 1146 371 1146 704 
L 1146 2829 
L 205 2758 
L 205 2560 
C 704 2560 704 2541 704 1971 
L 704 1011 
C 704 512 704 -70 1677 -70 
C 2035 -70 2317 109 2502 506 
L 2502 -70 
L 3424 0 
z
" transform="scale(0.015625)"/>
       <path id="Cmmi10-af" d="M 172 -1241 
Q 153 -1241 137 -1219 
Q 122 -1197 122 -1178 
L 1106 2778 
Q 1191 3097 1353 3397 
Q 1516 3697 1761 3955 
Q 2006 4213 2300 4363 
Q 2594 4513 2925 4513 
Q 3163 4513 3355 4408 
Q 3547 4303 3658 4114 
Q 3769 3925 3769 3688 
Q 3769 3459 3681 3251 
Q 3594 3044 3437 2864 
Q 3281 2684 3103 2572 
Q 3206 2506 3287 2404 
Q 3369 2303 3419 2192 
Q 3469 2081 3497 1945 
Q 3525 1809 3525 1691 
Q 3525 1363 3384 1044 
Q 3244 725 3001 465 
Q 2759 206 2446 54 
Q 2134 -97 1806 -97 
Q 1447 -97 1159 100 
Q 872 297 763 634 
L 300 -1203 
Q 300 -1241 250 -1241 
L 172 -1241 
z
M 1819 78 
Q 2106 78 2339 267 
Q 2572 456 2723 742 
Q 2875 1028 2954 1348 
Q 3034 1669 3034 1931 
Q 3034 2256 2847 2444 
Q 2628 2363 2419 2363 
Q 1913 2363 1913 2534 
Q 1913 2759 2491 2759 
Q 2697 2759 2869 2694 
Q 3006 2800 3118 3006 
Q 3231 3213 3289 3438 
Q 3347 3663 3347 3859 
Q 3347 4069 3236 4208 
Q 3125 4347 2913 4347 
Q 2522 4347 2186 4106 
Q 1850 3866 1619 3498 
Q 1388 3131 1288 2741 
L 934 1325 
Q 900 1178 891 997 
Q 891 597 1153 337 
Q 1416 78 1819 78 
z
M 2106 2553 
Q 2203 2528 2425 2528 
Q 2534 2528 2644 2566 
Q 2638 2572 2619 2572 
Q 2550 2591 2472 2591 
Q 2181 2591 2106 2553 
z
" transform="scale(0.015625)"/>
      </defs>
      <use xlink:href="#LMRoman10-Regular-49" transform="translate(0 0.484375)"/>
      <use xlink:href="#LMRoman10-Regular-6e" transform="translate(36.099991 0.484375)"/>
      <use xlink:href="#LMRoman10-Regular-76" transform="translate(91.699982 0.484375)"/>
      <use xlink:href="#LMRoman10-Regular-65" transform="translate(144.499969 0.484375)"/>
      <use xlink:href="#LMRoman10-Regular-72" transform="translate(188.899963 0.484375)"/>
      <use xlink:href="#LMRoman10-Regular-73" transform="translate(228.09996 0.484375)"/>
      <use xlink:href="#LMRoman10-Regular-65" transform="translate(267.499954 0.484375)"/>
      <use xlink:href="#LMRoman10-Regular-20" transform="translate(311.899948 0.484375)"/>
      <use xlink:href="#LMRoman10-Regular-54" transform="translate(345.199936 0.484375)"/>
      <use xlink:href="#LMRoman10-Regular-65" transform="translate(417.399918 0.484375)"/>
      <use xlink:href="#LMRoman10-Regular-6d" transform="translate(461.799911 0.484375)"/>
      <use xlink:href="#LMRoman10-Regular-70" transform="translate(545.099899 0.484375)"/>
      <use xlink:href="#LMRoman10-Regular-65" transform="translate(600.69989 0.484375)"/>
      <use xlink:href="#LMRoman10-Regular-72" transform="translate(645.099884 0.484375)"/>
      <use xlink:href="#LMRoman10-Regular-61" transform="translate(684.299881 0.484375)"/>
      <use xlink:href="#LMRoman10-Regular-74" transform="translate(734.299866 0.484375)"/>
      <use xlink:href="#LMRoman10-Regular-75" transform="translate(773.19986 0.484375)"/>
      <use xlink:href="#LMRoman10-Regular-72" transform="translate(828.79985 0.484375)"/>
      <use xlink:href="#LMRoman10-Regular-65" transform="translate(867.999847 0.484375)"/>
      <use xlink:href="#LMRoman10-Regular-20" transform="translate(912.399841 0.484375)"/>
      <use xlink:href="#Cmmi10-af" transform="translate(945.699829 0.484375)"/>
     </g>
    </g>
   </g>
   <g id="matplotlib.axis_2">
    <g id="ytick_1">
     <g id="line2d_11">
      <path d="M 69.59875 305.556613 
L 515.99875 305.556613 
" clip-path="url(#p1077904c66)" style="fill: none; stroke: #b0b0b0; stroke-width: 0.8; stroke-linecap: square"/>
     </g>
     <g id="line2d_12">
      <defs>
       <path id="mcf53ead508" d="M 0 0 
L -5 0 
" style="stroke: #000000; stroke-width: 0.8"/>
      </defs>
      <g>
       <use xlink:href="#mcf53ead508" x="69.59875" y="305.556613" style="stroke: #000000; stroke-width: 0.8"/>
      </g>
     </g>
     <g id="text_7">
      <!-- $\mathdefault{10^{3}}$ -->
      <g transform="translate(30.73875 313.191301) scale(0.22 -0.22)">
       <defs>
        <path id="LMRoman10-Regular-33" d="M 2925 1094 
C 2925 1619 2522 2118 1856 2253 
C 2381 2426 2752 2874 2752 3379 
C 2752 3904 2189 4262 1574 4262 
C 928 4262 442 3878 442 3392 
C 442 3181 582 3059 768 3059 
C 966 3059 1094 3200 1094 3386 
C 1094 3706 794 3706 698 3706 
C 896 4019 1318 4102 1549 4102 
C 1811 4102 2163 3962 2163 3386 
C 2163 3309 2150 2938 1984 2656 
C 1792 2349 1574 2330 1414 2323 
C 1363 2317 1210 2304 1165 2304 
C 1114 2298 1069 2291 1069 2227 
C 1069 2157 1114 2157 1222 2157 
L 1504 2157 
C 2029 2157 2266 1722 2266 1094 
C 2266 224 1824 38 1542 38 
C 1267 38 787 147 563 525 
C 787 493 986 634 986 877 
C 986 1107 813 1235 627 1235 
C 474 1235 269 1146 269 864 
C 269 282 864 -141 1562 -141 
C 2342 -141 2925 442 2925 1094 
z
" transform="scale(0.015625)"/>
       </defs>
       <use xlink:href="#LMRoman10-Regular-31" transform="translate(0 0.21875)"/>
       <use xlink:href="#LMRoman10-Regular-30" transform="translate(49.999985 0.21875)"/>
       <use xlink:href="#LMRoman10-Regular-33" transform="translate(100.75411 30.384375) scale(0.7)"/>
      </g>
     </g>
    </g>
    <g id="ytick_2">
     <g id="line2d_13">
      <path d="M 69.59875 215.734261 
L 515.99875 215.734261 
" clip-path="url(#p1077904c66)" style="fill: none; stroke: #b0b0b0; stroke-width: 0.8; stroke-linecap: square"/>
     </g>
     <g id="line2d_14">
      <g>
       <use xlink:href="#mcf53ead508" x="69.59875" y="215.734261" style="stroke: #000000; stroke-width: 0.8"/>
      </g>
     </g>
     <g id="text_8">
      <!-- $\mathdefault{10^{4}}$ -->
      <g transform="translate(30.73875 223.368948) scale(0.22 -0.22)">
       <defs>
        <path id="LMRoman10-Regular-34" d="M 3014 1056 
L 3014 1254 
L 2374 1254 
L 2374 4166 
C 2374 4294 2374 4333 2272 4333 
C 2214 4333 2195 4333 2144 4256 
L 179 1254 
L 179 1056 
L 1882 1056 
L 1882 499 
C 1882 269 1869 198 1395 198 
L 1261 198 
L 1261 0 
C 1523 19 1856 19 2125 19 
C 2394 19 2733 19 2995 0 
L 2995 198 
L 2861 198 
C 2387 198 2374 269 2374 499 
L 2374 1056 
L 3014 1056 
z
M 1920 1254 
L 358 1254 
L 1920 3642 
L 1920 1254 
z
" transform="scale(0.015625)"/>
       </defs>
       <use xlink:href="#LMRoman10-Regular-31" transform="translate(0 0.442188)"/>
       <use xlink:href="#LMRoman10-Regular-30" transform="translate(49.999985 0.442188)"/>
       <use xlink:href="#LMRoman10-Regular-34" transform="translate(100.75411 30.607813) scale(0.7)"/>
      </g>
     </g>
    </g>
    <g id="ytick_3">
     <g id="line2d_15">
      <path d="M 69.59875 125.911908 
L 515.99875 125.911908 
" clip-path="url(#p1077904c66)" style="fill: none; stroke: #b0b0b0; stroke-width: 0.8; stroke-linecap: square"/>
     </g>
     <g id="line2d_16">
      <g>
       <use xlink:href="#mcf53ead508" x="69.59875" y="125.911908" style="stroke: #000000; stroke-width: 0.8"/>
      </g>
     </g>
     <g id="text_9">
      <!-- $\mathdefault{10^{5}}$ -->
      <g transform="translate(30.73875 133.546595) scale(0.22 -0.22)">
       <use xlink:href="#LMRoman10-Regular-31" transform="translate(0 0.21875)"/>
       <use xlink:href="#LMRoman10-Regular-30" transform="translate(49.999985 0.21875)"/>
       <use xlink:href="#LMRoman10-Regular-35" transform="translate(100.75411 30.384375) scale(0.7)"/>
      </g>
     </g>
    </g>
    <g id="ytick_4">
     <g id="line2d_17">
      <path d="M 69.59875 36.089555 
L 515.99875 36.089555 
" clip-path="url(#p1077904c66)" style="fill: none; stroke: #b0b0b0; stroke-width: 0.8; stroke-linecap: square"/>
     </g>
     <g id="line2d_18">
      <g>
       <use xlink:href="#mcf53ead508" x="69.59875" y="36.089555" style="stroke: #000000; stroke-width: 0.8"/>
      </g>
     </g>
     <g id="text_10">
      <!-- $\mathdefault{10^{6}}$ -->
      <g transform="translate(30.73875 43.724243) scale(0.22 -0.22)">
       <defs>
        <path id="LMRoman10-Regular-36" d="M 2925 1306 
C 2925 2118 2355 2733 1645 2733 
C 1210 2733 973 2406 845 2099 
L 845 2253 
C 845 3872 1638 4102 1965 4102 
C 2118 4102 2387 4064 2528 3846 
C 2432 3846 2176 3846 2176 3558 
C 2176 3360 2330 3264 2470 3264 
C 2573 3264 2765 3322 2765 3571 
C 2765 3955 2483 4262 1952 4262 
C 1133 4262 269 3437 269 2022 
C 269 314 1011 -141 1606 -141 
C 2317 -141 2925 461 2925 1306 
z
M 2349 1312 
C 2349 1005 2349 685 2240 454 
C 2048 70 1754 38 1606 38 
C 1203 38 1011 422 973 518 
C 858 819 858 1331 858 1446 
C 858 1946 1062 2586 1638 2586 
C 1741 2586 2035 2586 2234 2189 
C 2349 1952 2349 1626 2349 1312 
z
" transform="scale(0.015625)"/>
       </defs>
       <use xlink:href="#LMRoman10-Regular-31" transform="translate(0 0.21875)"/>
       <use xlink:href="#LMRoman10-Regular-30" transform="translate(49.999985 0.21875)"/>
       <use xlink:href="#LMRoman10-Regular-36" transform="translate(100.75411 30.384375) scale(0.7)"/>
      </g>
     </g>
    </g>
    <g id="ytick_5">
     <g id="line2d_19">
      <defs>
       <path id="m75eb78cea9" d="M 0 0 
L -3 0 
" style="stroke: #000000; stroke-width: 0.6"/>
      </defs>
      <g>
       <use xlink:href="#m75eb78cea9" x="69.59875" y="332.595836" style="stroke: #000000; stroke-width: 0.6"/>
      </g>
     </g>
    </g>
    <g id="ytick_6">
     <g id="line2d_20">
      <g>
       <use xlink:href="#m75eb78cea9" x="69.59875" y="325.48359" style="stroke: #000000; stroke-width: 0.6"/>
      </g>
     </g>
    </g>
    <g id="ytick_7">
     <g id="line2d_21">
      <g>
       <use xlink:href="#m75eb78cea9" x="69.59875" y="319.470272" style="stroke: #000000; stroke-width: 0.6"/>
      </g>
     </g>
    </g>
    <g id="ytick_8">
     <g id="line2d_22">
      <g>
       <use xlink:href="#m75eb78cea9" x="69.59875" y="314.261299" style="stroke: #000000; stroke-width: 0.6"/>
      </g>
     </g>
    </g>
    <g id="ytick_9">
     <g id="line2d_23">
      <g>
       <use xlink:href="#m75eb78cea9" x="69.59875" y="309.666659" style="stroke: #000000; stroke-width: 0.6"/>
      </g>
     </g>
    </g>
    <g id="ytick_10">
     <g id="line2d_24">
      <g>
       <use xlink:href="#m75eb78cea9" x="69.59875" y="278.517391" style="stroke: #000000; stroke-width: 0.6"/>
      </g>
     </g>
    </g>
    <g id="ytick_11">
     <g id="line2d_25">
      <g>
       <use xlink:href="#m75eb78cea9" x="69.59875" y="262.70046" style="stroke: #000000; stroke-width: 0.6"/>
      </g>
     </g>
    </g>
    <g id="ytick_12">
     <g id="line2d_26">
      <g>
       <use xlink:href="#m75eb78cea9" x="69.59875" y="251.478168" style="stroke: #000000; stroke-width: 0.6"/>
      </g>
     </g>
    </g>
    <g id="ytick_13">
     <g id="line2d_27">
      <g>
       <use xlink:href="#m75eb78cea9" x="69.59875" y="242.773483" style="stroke: #000000; stroke-width: 0.6"/>
      </g>
     </g>
    </g>
    <g id="ytick_14">
     <g id="line2d_28">
      <g>
       <use xlink:href="#m75eb78cea9" x="69.59875" y="235.661237" style="stroke: #000000; stroke-width: 0.6"/>
      </g>
     </g>
    </g>
    <g id="ytick_15">
     <g id="line2d_29">
      <g>
       <use xlink:href="#m75eb78cea9" x="69.59875" y="229.647919" style="stroke: #000000; stroke-width: 0.6"/>
      </g>
     </g>
    </g>
    <g id="ytick_16">
     <g id="line2d_30">
      <g>
       <use xlink:href="#m75eb78cea9" x="69.59875" y="224.438946" style="stroke: #000000; stroke-width: 0.6"/>
      </g>
     </g>
    </g>
    <g id="ytick_17">
     <g id="line2d_31">
      <g>
       <use xlink:href="#m75eb78cea9" x="69.59875" y="219.844306" style="stroke: #000000; stroke-width: 0.6"/>
      </g>
     </g>
    </g>
    <g id="ytick_18">
     <g id="line2d_32">
      <g>
       <use xlink:href="#m75eb78cea9" x="69.59875" y="188.695038" style="stroke: #000000; stroke-width: 0.6"/>
      </g>
     </g>
    </g>
    <g id="ytick_19">
     <g id="line2d_33">
      <g>
       <use xlink:href="#m75eb78cea9" x="69.59875" y="172.878107" style="stroke: #000000; stroke-width: 0.6"/>
      </g>
     </g>
    </g>
    <g id="ytick_20">
     <g id="line2d_34">
      <g>
       <use xlink:href="#m75eb78cea9" x="69.59875" y="161.655816" style="stroke: #000000; stroke-width: 0.6"/>
      </g>
     </g>
    </g>
    <g id="ytick_21">
     <g id="line2d_35">
      <g>
       <use xlink:href="#m75eb78cea9" x="69.59875" y="152.95113" style="stroke: #000000; stroke-width: 0.6"/>
      </g>
     </g>
    </g>
    <g id="ytick_22">
     <g id="line2d_36">
      <g>
       <use xlink:href="#m75eb78cea9" x="69.59875" y="145.838885" style="stroke: #000000; stroke-width: 0.6"/>
      </g>
     </g>
    </g>
    <g id="ytick_23">
     <g id="line2d_37">
      <g>
       <use xlink:href="#m75eb78cea9" x="69.59875" y="139.825566" style="stroke: #000000; stroke-width: 0.6"/>
      </g>
     </g>
    </g>
    <g id="ytick_24">
     <g id="line2d_38">
      <g>
       <use xlink:href="#m75eb78cea9" x="69.59875" y="134.616593" style="stroke: #000000; stroke-width: 0.6"/>
      </g>
     </g>
    </g>
    <g id="ytick_25">
     <g id="line2d_39">
      <g>
       <use xlink:href="#m75eb78cea9" x="69.59875" y="130.021953" style="stroke: #000000; stroke-width: 0.6"/>
      </g>
     </g>
    </g>
    <g id="ytick_26">
     <g id="line2d_40">
      <g>
       <use xlink:href="#m75eb78cea9" x="69.59875" y="98.872685" style="stroke: #000000; stroke-width: 0.6"/>
      </g>
     </g>
    </g>
    <g id="ytick_27">
     <g id="line2d_41">
      <g>
       <use xlink:href="#m75eb78cea9" x="69.59875" y="83.055754" style="stroke: #000000; stroke-width: 0.6"/>
      </g>
     </g>
    </g>
    <g id="ytick_28">
     <g id="line2d_42">
      <g>
       <use xlink:href="#m75eb78cea9" x="69.59875" y="71.833463" style="stroke: #000000; stroke-width: 0.6"/>
      </g>
     </g>
    </g>
    <g id="ytick_29">
     <g id="line2d_43">
      <g>
       <use xlink:href="#m75eb78cea9" x="69.59875" y="63.128778" style="stroke: #000000; stroke-width: 0.6"/>
      </g>
     </g>
    </g>
    <g id="ytick_30">
     <g id="line2d_44">
      <g>
       <use xlink:href="#m75eb78cea9" x="69.59875" y="56.016532" style="stroke: #000000; stroke-width: 0.6"/>
      </g>
     </g>
    </g>
    <g id="ytick_31">
     <g id="line2d_45">
      <g>
       <use xlink:href="#m75eb78cea9" x="69.59875" y="50.003214" style="stroke: #000000; stroke-width: 0.6"/>
      </g>
     </g>
    </g>
    <g id="ytick_32">
     <g id="line2d_46">
      <g>
       <use xlink:href="#m75eb78cea9" x="69.59875" y="44.794241" style="stroke: #000000; stroke-width: 0.6"/>
      </g>
     </g>
    </g>
    <g id="ytick_33">
     <g id="line2d_47">
      <g>
       <use xlink:href="#m75eb78cea9" x="69.59875" y="40.199601" style="stroke: #000000; stroke-width: 0.6"/>
      </g>
     </g>
    </g>
    <g id="ytick_34">
     <g id="line2d_48">
      <g>
       <use xlink:href="#m75eb78cea9" x="69.59875" y="9.050333" style="stroke: #000000; stroke-width: 0.6"/>
      </g>
     </g>
    </g>
    <g id="text_11">
     <!-- Coalescence Time -->
     <g transform="translate(22.469375 259.103438) rotate(-90) scale(0.22 -0.22)">
      <defs>
       <path id="LMRoman10-Regular-43" d="M 4256 1491 
C 4256 1555 4256 1600 4173 1600 
C 4102 1600 4102 1562 4096 1498 
C 4045 582 3360 58 2662 58 
C 2272 58 1018 275 1018 2182 
C 1018 4096 2266 4314 2656 4314 
C 3354 4314 3923 3731 4051 2797 
C 4064 2707 4064 2688 4154 2688 
C 4256 2688 4256 2707 4256 2842 
L 4256 4358 
C 4256 4467 4256 4512 4186 4512 
C 4160 4512 4134 4512 4083 4435 
L 3763 3962 
C 3526 4192 3200 4512 2586 4512 
C 1389 4512 358 3494 358 2189 
C 358 864 1395 -141 2586 -141 
C 3629 -141 4256 749 4256 1491 
z
" transform="scale(0.015625)"/>
       <path id="LMRoman10-Regular-6f" d="M 3014 1370 
C 3014 2189 2374 2867 1600 2867 
C 800 2867 179 2170 179 1370 
C 179 544 845 -70 1594 -70 
C 2368 -70 3014 557 3014 1370 
z
M 2483 1421 
C 2483 1190 2483 845 2342 563 
C 2202 275 1920 90 1600 90 
C 1325 90 1043 224 870 518 
C 710 800 710 1190 710 1421 
C 710 1670 710 2016 864 2298 
C 1037 2592 1338 2726 1594 2726 
C 1875 2726 2150 2586 2317 2310 
C 2483 2035 2483 1664 2483 1421 
z
" transform="scale(0.015625)"/>
       <path id="LMRoman10-Regular-6c" d="M 1632 0 
L 1632 198 
C 1203 198 1133 198 1133 486 
L 1133 4442 
L 211 4371 
L 211 4173 
C 659 4173 710 4128 710 3814 
L 710 486 
C 710 198 640 198 211 198 
L 211 0 
L 922 19 
L 1632 0 
z
" transform="scale(0.015625)"/>
       <path id="LMRoman10-Regular-63" d="M 2656 762 
C 2656 826 2592 826 2573 826 
C 2515 826 2502 800 2490 762 
C 2304 166 1888 90 1651 90 
C 1312 90 749 365 749 1395 
C 749 2438 1274 2707 1613 2707 
C 1670 2707 2074 2701 2298 2470 
C 2035 2451 1997 2259 1997 2176 
C 1997 2010 2112 1882 2291 1882 
C 2458 1882 2586 1990 2586 2182 
C 2586 2618 2099 2867 1606 2867 
C 806 2867 218 2176 218 1382 
C 218 563 851 -70 1594 -70 
C 2451 -70 2656 698 2656 762 
z
" transform="scale(0.015625)"/>
       <path id="LMRoman10-Regular-69" d="M 1581 0 
L 1581 198 
C 1158 198 1133 230 1133 480 
L 1133 2829 
L 237 2758 
L 237 2560 
C 653 2560 710 2522 710 2208 
L 710 486 
C 710 198 640 198 211 198 
L 211 0 
L 915 19 
C 1139 19 1363 6 1581 0 
z
M 1229 3866 
C 1229 4038 1082 4205 890 4205 
C 672 4205 544 4026 544 3866 
C 544 3693 691 3526 883 3526 
C 1101 3526 1229 3706 1229 3866 
z
" transform="scale(0.015625)"/>
      </defs>
      <use xlink:href="#LMRoman10-Regular-43"/>
      <use xlink:href="#LMRoman10-Regular-6f" transform="translate(72.199982 0)"/>
      <use xlink:href="#LMRoman10-Regular-61" transform="translate(122.199966 0)"/>
      <use xlink:href="#LMRoman10-Regular-6c" transform="translate(172.199951 0)"/>
      <use xlink:href="#LMRoman10-Regular-65" transform="translate(199.999939 0)"/>
      <use xlink:href="#LMRoman10-Regular-73" transform="translate(244.399933 0)"/>
      <use xlink:href="#LMRoman10-Regular-63" transform="translate(283.799927 0)"/>
      <use xlink:href="#LMRoman10-Regular-65" transform="translate(328.199921 0)"/>
      <use xlink:href="#LMRoman10-Regular-6e" transform="translate(372.599915 0)"/>
      <use xlink:href="#LMRoman10-Regular-63" transform="translate(428.199905 0)"/>
      <use xlink:href="#LMRoman10-Regular-65" transform="translate(472.599899 0)"/>
      <use xlink:href="#LMRoman10-Regular-20" transform="translate(516.999893 0)"/>
      <use xlink:href="#LMRoman10-Regular-54" transform="translate(550.299881 0)"/>
      <use xlink:href="#LMRoman10-Regular-69" transform="translate(622.499863 0)"/>
      <use xlink:href="#LMRoman10-Regular-6d" transform="translate(650.29985 0)"/>
      <use xlink:href="#LMRoman10-Regular-65" transform="translate(733.599838 0)"/>
     </g>
    </g>
   </g>
   <g id="line2d_49">
    <path d="M 89.889659 308.933285 
L 134.980568 312.800778 
L 180.071477 305.639401 
L 225.162386 303.414814 
L 255.222992 305.640965 
L 285.283598 301.32567 
L 315.344205 299.470694 
L 345.404811 299.131752 
L 375.465417 296.85817 
L 405.526023 297.990607 
L 435.586629 292.327533 
L 465.647235 287.966409 
L 495.707841 285.6209 
" clip-path="url(#p1077904c66)" style="fill: none; stroke: #440154; stroke-width: 4; stroke-linecap: square"/>
   </g>
   <g id="line2d_50">
    <path d="M 89.889659 276.47912 
L 134.980568 279.832067 
L 180.071477 273.88047 
L 225.162386 271.298665 
L 255.222992 265.65463 
L 285.283598 264.711782 
L 315.344205 262.44281 
L 345.404811 257.246628 
L 375.465417 249.238271 
L 405.526023 247.870626 
L 435.586629 241.373054 
L 465.647235 231.877815 
L 495.707841 226.252046 
" clip-path="url(#p1077904c66)" style="fill: none; stroke: #453581; stroke-width: 4; stroke-linecap: square"/>
   </g>
   <g id="line2d_51">
    <path d="M 89.889659 237.368435 
L 134.980568 232.572205 
L 180.071477 221.620123 
L 225.162386 218.13155 
L 255.222992 213.551274 
L 285.283598 205.161033 
L 315.344205 191.288531 
L 345.404811 177.663069 
L 375.465417 142.296549 
L 405.526023 34.239222 
L 435.586629 34.239222 
L 465.647235 34.239222 
L 495.707841 34.239222 
" clip-path="url(#p1077904c66)" style="fill: none; stroke: #25ac82; stroke-width: 4; stroke-linecap: square"/>
   </g>
   <g id="line2d_52">
    <path d="M 89.889659 218.240717 
L 134.980568 211.309342 
L 180.071477 206.465202 
L 225.162386 194.405922 
L 255.222992 184.596128 
L 285.283598 167.779967 
L 315.344205 129.077693 
L 345.404811 34.239222 
L 375.465417 34.239222 
L 405.526023 34.239222 
L 435.586629 34.239222 
L 465.647235 34.239222 
L 495.707841 34.239222 
" clip-path="url(#p1077904c66)" style="fill: none; stroke: #fde725; stroke-width: 4; stroke-linecap: square"/>
   </g>
   <g id="LineCollection_1">
    <path d="M 225.162386 312.800778 
L 225.162386 -1 
" clip-path="url(#p1077904c66)" style="fill: none; stroke-dasharray: 14.8,6.4; stroke-dashoffset: 0; stroke: #000000; stroke-width: 4"/>
   </g>
   <g id="patch_3">
    <path d="M 69.59875 339.84 
L 69.59875 7.2 
" style="fill: none; stroke: #000000; stroke-width: 0.8; stroke-linejoin: miter; stroke-linecap: square"/>
   </g>
   <g id="patch_4">
    <path d="M 69.59875 339.84 
L 515.99875 339.84 
" style="fill: none; stroke: #000000; stroke-width: 0.8; stroke-linejoin: miter; stroke-linecap: square"/>
   </g>
   <g id="legend_1">
    <g id="line2d_53">
     <path d="M 80.39875 22.2 
L 92.39875 22.2 
L 104.39875 22.2 
" style="fill: none; stroke: #440154; stroke-width: 4; stroke-linecap: square"/>
    </g>
    <g id="text_12">
     <!-- $N$=100 -->
     <g transform="translate(113.99875 26.4) scale(0.12 -0.12)">
      <defs>
       <path id="Cmmi10-4e" d="M 300 0 
Q 238 0 238 84 
Q 241 100 250 139 
Q 259 178 276 201 
Q 294 225 319 225 
Q 931 225 1031 616 
L 1900 4116 
Q 1722 4147 1338 4147 
Q 1275 4147 1275 4231 
Q 1278 4247 1287 4286 
Q 1297 4325 1314 4348 
Q 1331 4372 1356 4372 
L 2463 4372 
Q 2509 4372 2522 4331 
L 3944 947 
L 4653 3781 
Q 4666 3850 4666 3878 
Q 4666 4147 4172 4147 
Q 4109 4147 4109 4231 
Q 4131 4313 4143 4342 
Q 4156 4372 4219 4372 
L 5588 4372 
Q 5650 4372 5650 4288 
Q 5647 4272 5637 4233 
Q 5628 4194 5611 4170 
Q 5594 4147 5569 4147 
Q 4956 4147 4856 3756 
L 3938 56 
Q 3916 0 3872 0 
L 3794 0 
Q 3750 0 3738 44 
L 2106 3916 
L 2094 3956 
Q 2081 3969 2081 3975 
L 1234 588 
Q 1228 572 1225 548 
Q 1222 525 1216 494 
Q 1216 328 1359 276 
Q 1503 225 1716 225 
Q 1778 225 1778 141 
Q 1756 53 1740 26 
Q 1725 0 1672 0 
L 300 0 
z
" transform="scale(0.015625)"/>
       <path id="LMRoman10-Regular-3d" d="M 4614 2221 
C 4614 2349 4493 2349 4403 2349 
L 570 2349 
C 480 2349 358 2349 358 2221 
C 358 2093 480 2093 576 2093 
L 4397 2093 
C 4493 2093 4614 2093 4614 2221 
z
M 4614 979 
C 4614 1107 4493 1107 4397 1107 
L 576 1107 
C 480 1107 358 1107 358 979 
C 358 851 480 851 570 851 
L 4403 851 
C 4493 851 4614 851 4614 979 
z
" transform="scale(0.015625)"/>
      </defs>
      <use xlink:href="#Cmmi10-4e" transform="translate(0 0.6875)"/>
      <use xlink:href="#LMRoman10-Regular-3d" transform="translate(80.322266 0.6875)"/>
      <use xlink:href="#LMRoman10-Regular-31" transform="translate(158.122253 0.6875)"/>
      <use xlink:href="#LMRoman10-Regular-30" transform="translate(208.122238 0.6875)"/>
      <use xlink:href="#LMRoman10-Regular-30" transform="translate(258.122223 0.6875)"/>
     </g>
    </g>
    <g id="line2d_54">
     <path d="M 80.39875 38.92875 
L 92.39875 38.92875 
L 104.39875 38.92875 
" style="fill: none; stroke: #453581; stroke-width: 4; stroke-linecap: square"/>
    </g>
    <g id="text_13">
     <!-- $N$=200 -->
     <g transform="translate(113.99875 43.12875) scale(0.12 -0.12)">
      <use xlink:href="#Cmmi10-4e" transform="translate(0 0.6875)"/>
      <use xlink:href="#LMRoman10-Regular-3d" transform="translate(80.322266 0.6875)"/>
      <use xlink:href="#LMRoman10-Regular-32" transform="translate(158.122253 0.6875)"/>
      <use xlink:href="#LMRoman10-Regular-30" transform="translate(208.122238 0.6875)"/>
      <use xlink:href="#LMRoman10-Regular-30" transform="translate(258.122223 0.6875)"/>
     </g>
    </g>
    <g id="line2d_55">
     <path d="M 80.39875 55.6575 
L 92.39875 55.6575 
L 104.39875 55.6575 
" style="fill: none; stroke: #25ac82; stroke-width: 4; stroke-linecap: square"/>
    </g>
    <g id="text_14">
     <!-- $N$=500 -->
     <g transform="translate(113.99875 59.8575) scale(0.12 -0.12)">
      <use xlink:href="#Cmmi10-4e" transform="translate(0 0.6875)"/>
      <use xlink:href="#LMRoman10-Regular-3d" transform="translate(80.322266 0.6875)"/>
      <use xlink:href="#LMRoman10-Regular-35" transform="translate(158.122253 0.6875)"/>
      <use xlink:href="#LMRoman10-Regular-30" transform="translate(208.122238 0.6875)"/>
      <use xlink:href="#LMRoman10-Regular-30" transform="translate(258.122223 0.6875)"/>
     </g>
    </g>
    <g id="line2d_56">
     <path d="M 80.39875 72.38625 
L 92.39875 72.38625 
L 104.39875 72.38625 
" style="fill: none; stroke: #fde725; stroke-width: 4; stroke-linecap: square"/>
    </g>
    <g id="text_15">
     <!-- $N$=750 -->
     <g transform="translate(113.99875 76.58625) scale(0.12 -0.12)">
      <use xlink:href="#Cmmi10-4e" transform="translate(0 0.6875)"/>
      <use xlink:href="#LMRoman10-Regular-3d" transform="translate(80.322266 0.6875)"/>
      <use xlink:href="#LMRoman10-Regular-37" transform="translate(158.122253 0.6875)"/>
      <use xlink:href="#LMRoman10-Regular-35" transform="translate(208.122238 0.6875)"/>
      <use xlink:href="#LMRoman10-Regular-30" transform="translate(258.122223 0.6875)"/>
     </g>
    </g>
    <g id="line2d_57">
     <path d="M 80.39875 89.235 
L 104.39875 89.235 
" style="fill: none; stroke-dasharray: 14.8,6.4; stroke-dashoffset: 0; stroke: #000000; stroke-width: 4"/>
    </g>
    <g id="text_16">
     <!-- $\beta_{BD}$ -->
     <g transform="translate(113.99875 93.435) scale(0.12 -0.12)">
      <defs>
       <path id="Cmmi10-42" d="M 319 0 
Q 256 0 256 84 
Q 259 100 268 137 
Q 278 175 293 200 
Q 309 225 341 225 
Q 522 225 656 234 
Q 791 244 884 269 
Q 959 297 1006 441 
L 1881 3956 
Q 1894 4019 1894 4044 
Q 1894 4113 1819 4122 
Q 1697 4147 1356 4147 
Q 1294 4147 1294 4231 
Q 1297 4247 1306 4286 
Q 1316 4325 1333 4348 
Q 1350 4372 1375 4372 
L 3669 4372 
Q 3878 4372 4083 4320 
Q 4288 4269 4461 4156 
Q 4634 4044 4736 3876 
Q 4838 3709 4838 3488 
Q 4838 3247 4714 3040 
Q 4591 2834 4395 2681 
Q 4200 2528 3973 2429 
Q 3747 2331 3500 2284 
Q 3675 2284 3854 2215 
Q 4034 2147 4175 2028 
Q 4316 1909 4402 1743 
Q 4488 1578 4488 1388 
Q 4488 1003 4219 684 
Q 3950 366 3542 183 
Q 3134 0 2753 0 
L 319 0 
z
M 1497 275 
Q 1497 225 1716 225 
L 2631 225 
Q 2944 225 3231 398 
Q 3519 572 3692 859 
Q 3866 1147 3866 1459 
Q 3866 1650 3786 1820 
Q 3706 1991 3556 2089 
Q 3406 2188 3213 2188 
L 1966 2188 
L 1522 416 
Q 1497 328 1497 275 
z
M 2009 2356 
L 2981 2356 
Q 3288 2356 3577 2512 
Q 3866 2669 4048 2937 
Q 4231 3206 4231 3506 
Q 4231 3784 4057 3965 
Q 3884 4147 3609 4147 
L 2731 4147 
Q 2559 4147 2500 4115 
Q 2441 4084 2400 3928 
L 2009 2356 
z
" transform="scale(0.015625)"/>
       <path id="Cmmi10-44" d="M 313 0 
Q 250 0 250 84 
Q 253 100 262 139 
Q 272 178 289 201 
Q 306 225 331 225 
Q 722 225 878 269 
Q 959 297 997 441 
L 1875 3956 
Q 1888 4019 1888 4044 
Q 1888 4113 1813 4122 
Q 1691 4147 1350 4147 
Q 1288 4147 1288 4231 
Q 1291 4247 1300 4286 
Q 1309 4325 1326 4348 
Q 1344 4372 1369 4372 
L 3669 4372 
Q 4116 4372 4450 4155 
Q 4784 3938 4962 3570 
Q 5141 3203 5141 2759 
Q 5141 2269 4937 1778 
Q 4734 1288 4368 881 
Q 4003 475 3534 237 
Q 3066 0 2572 0 
L 313 0 
z
M 1509 275 
Q 1509 225 1728 225 
L 2472 225 
Q 2828 225 3159 372 
Q 3491 519 3750 775 
Q 3991 1016 4175 1406 
Q 4359 1797 4461 2222 
Q 4563 2647 4563 3003 
Q 4563 3263 4486 3472 
Q 4409 3681 4270 3831 
Q 4131 3981 3922 4064 
Q 3713 4147 3450 4147 
L 2747 4147 
Q 2572 4147 2515 4117 
Q 2459 4088 2413 3928 
L 1538 416 
Q 1509 338 1509 275 
z
" transform="scale(0.015625)"/>
      </defs>
      <use xlink:href="#Cmmi10-af" transform="translate(0 0.484375)"/>
      <use xlink:href="#Cmmi10-42" transform="translate(56.494141 -16.521875) scale(0.7)"/>
      <use xlink:href="#Cmmi10-44" transform="translate(109.541016 -16.521875) scale(0.7)"/>
     </g>
    </g>
   </g>
  </g>
 </g>
 <defs>
  <clipPath id="p1077904c66">
   <rect x="69.59875" y="7.2" width="446.4" height="332.64"/>
  </clipPath>
 </defs>
</svg>
