<?xml version="1.0" encoding="utf-8" standalone="no"?>
<!DOCTYPE svg PUBLIC "-//W3C//DTD SVG 1.1//EN"
  "http://www.w3.org/Graphics/SVG/1.1/DTD/svg11.dtd">
<svg xmlns:xlink="http://www.w3.org/1999/xlink" width="537.147088pt" height="399.09875pt" viewBox="0 0 537.147088 399.09875" xmlns="http://www.w3.org/2000/svg" version="1.1">
 <metadata>
  <rdf:RDF xmlns:dc="http://purl.org/dc/elements/1.1/" xmlns:cc="http://creativecommons.org/ns#" xmlns:rdf="http://www.w3.org/1999/02/22-rdf-syntax-ns#">
   <cc:Work>
    <dc:type rdf:resource="http://purl.org/dc/dcmitype/StillImage"/>
    <dc:date>2026-04-17T01:00:05.400856</dc:date>
    <dc:format>image/svg+xml</dc:format>
    <dc:creator>
     <cc:Agent>
      <dc:title>Matplotlib v3.10.8, https://matplotlib.org/</dc:title>
     </cc:Agent>
    </dc:creator>
   </cc:Work>
  </rdf:RDF>
 </metadata>
 <defs>
  <style type="text/css">*{stroke-linejoin: round; stroke-linecap: butt}</style>
 </defs>
 <g id="figure_1">
  <g id="patch_1">
   <path d="M 0 399.09875 
L 537.147088 399.09875 
L 537.147088 0 
L 0 0 
z
" style="fill: #ffffff"/>
  </g>
  <g id="axes_1">
   <g id="patch_2">
    <path d="M 67.37125 339.84 
L 513.77125 339.84 
L 513.77125 7.2 
L 67.37125 7.2 
z
" style="fill: #ffffff"/>
   </g>
   <g id="FillBetweenPolyCollection_1">
    <defs>
     <path id="m558ffd403b" d="M 87.662159 -116.754984 
L 87.662159 -80.138086 
L 91.761333 -80.176369 
L 95.860506 -80.215369 
L 99.95968 -80.255108 
L 104.058853 -80.295611 
L 108.158027 -80.336903 
L 112.2572 -80.379011 
L 116.356374 -80.421962 
L 120.455548 -80.465786 
L 124.554721 -80.510512 
L 128.653895 -80.556174 
L 132.753068 -80.602804 
L 136.852242 -80.650439 
L 140.951415 -80.699114 
L 145.050589 -80.748871 
L 149.149762 -80.799749 
L 153.248936 -80.851792 
L 157.34811 -80.905047 
L 161.447283 -80.959562 
L 165.546457 -81.015388 
L 169.64563 -81.07258 
L 173.744804 -81.131194 
L 177.843977 -81.191293 
L 181.943151 -81.25294 
L 186.042324 -81.316204 
L 190.141498 -81.381158 
L 194.240671 -81.44788 
L 198.339845 -81.516453 
L 202.439019 -81.586964 
L 206.538192 -81.659508 
L 210.637366 -81.734186 
L 214.736539 -81.811104 
L 218.835713 -81.890379 
L 222.934886 -81.972134 
L 227.03406 -82.056503 
L 231.133233 -82.143628 
L 235.232407 -82.233663 
L 239.331581 -82.326775 
L 243.430754 -82.423143 
L 247.529928 -82.522961 
L 251.629101 -82.626441 
L 255.728275 -82.733811 
L 259.827448 -82.84532 
L 263.926622 -82.961238 
L 268.025795 -83.081861 
L 272.124969 -83.207513 
L 276.224143 -83.338547 
L 280.323316 -83.475352 
L 284.42249 -83.618355 
L 288.521663 -83.768028 
L 292.620837 -83.924889 
L 296.72001 -84.089515 
L 300.819184 -84.262545 
L 304.918357 -84.444686 
L 309.017531 -84.636732 
L 313.116705 -84.839563 
L 317.215878 -85.054169 
L 321.315052 -85.28166 
L 325.414225 -85.523282 
L 329.513399 -85.780443 
L 333.612572 -86.054734 
L 337.711746 -86.347956 
L 341.810919 -86.662157 
L 345.910093 -86.999665 
L 350.009267 -87.363138 
L 354.10844 -87.755617 
L 358.207614 -88.180581 
L 362.306787 -88.642028 
L 366.405961 -89.144552 
L 370.505134 -89.69344 
L 374.604308 -90.294788 
L 378.703481 -90.955626 
L 382.802655 -91.684062 
L 386.901829 -92.48945 
L 391.001002 -93.382565 
L 395.100176 -94.375806 
L 399.199349 -95.483397 
L 403.298523 -96.721604 
L 407.397696 -98.108935 
L 411.49687 -99.666313 
L 415.596043 -101.417204 
L 419.695217 -103.387643 
L 423.79439 -105.606139 
L 427.893564 -108.103386 
L 431.992738 -110.911725 
L 436.091911 -114.064293 
L 440.191085 -117.593794 
L 444.290258 -121.530872 
L 448.389432 -125.902076 
L 452.488605 -130.727479 
L 456.587779 -136.018117 
L 460.686952 -141.773443 
L 464.786126 -147.979129 
L 468.8853 -154.605556 
L 472.984473 -161.60733 
L 477.083647 -168.92407 
L 481.18282 -176.482566 
L 485.281994 -184.200183 
L 489.381167 -191.989186 
L 493.480341 -199.761517 
L 493.480341 -307.157339 
L 493.480341 -307.157339 
L 489.381167 -303.012684 
L 485.281994 -298.492005 
L 481.18282 -293.602937 
L 477.083647 -288.368073 
L 472.984473 -282.824411 
L 468.8853 -277.021462 
L 464.786126 -271.018234 
L 460.686952 -264.879539 
L 456.587779 -258.672073 
L 452.488605 -252.460757 
L 448.389432 -246.305682 
L 444.290258 -240.259873 
L 440.191085 -234.367928 
L 436.091911 -228.665469 
L 431.992738 -223.179275 
L 427.893564 -217.927898 
L 423.79439 -212.922601 
L 419.695217 -208.168447 
L 415.596043 -203.665438 
L 411.49687 -199.409586 
L 407.397696 -195.393898 
L 403.298523 -191.609219 
L 399.199349 -188.044938 
L 395.100176 -184.689565 
L 391.001002 -181.531184 
L 386.901829 -178.557792 
L 382.802655 -175.757562 
L 378.703481 -173.119023 
L 374.604308 -170.631186 
L 370.505134 -168.283622 
L 366.405961 -166.066506 
L 362.306787 -163.97064 
L 358.207614 -161.987445 
L 354.10844 -160.108956 
L 350.009267 -158.32779 
L 345.910093 -156.637123 
L 341.810919 -155.030655 
L 337.711746 -153.502576 
L 333.612572 -152.047534 
L 329.513399 -150.660596 
L 325.414225 -149.337221 
L 321.315052 -148.073226 
L 317.215878 -146.864757 
L 313.116705 -145.708261 
L 309.017531 -144.600462 
L 304.918357 -143.538337 
L 300.819184 -142.519095 
L 296.72001 -141.540156 
L 292.620837 -140.599135 
L 288.521663 -139.693824 
L 284.42249 -138.822175 
L 280.323316 -137.982291 
L 276.224143 -137.172412 
L 272.124969 -136.3909 
L 268.025795 -135.636232 
L 263.926622 -134.906993 
L 259.827448 -134.201862 
L 255.728275 -133.519606 
L 251.629101 -132.859076 
L 247.529928 -132.219197 
L 243.430754 -131.598964 
L 239.331581 -130.997435 
L 235.232407 -130.413729 
L 231.133233 -129.847018 
L 227.03406 -129.296525 
L 222.934886 -128.76152 
L 218.835713 -128.241316 
L 214.736539 -127.735268 
L 210.637366 -127.242766 
L 206.538192 -126.763236 
L 202.439019 -126.296137 
L 198.339845 -125.840957 
L 194.240671 -125.397213 
L 190.141498 -124.964447 
L 186.042324 -124.542227 
L 181.943151 -124.130142 
L 177.843977 -123.727804 
L 173.744804 -123.334845 
L 169.64563 -122.950914 
L 165.546457 -122.57568 
L 161.447283 -122.208826 
L 157.34811 -121.850051 
L 153.248936 -121.499072 
L 149.149762 -121.155614 
L 145.050589 -120.819418 
L 140.951415 -120.490238 
L 136.852242 -120.167838 
L 132.753068 -119.851991 
L 128.653895 -119.542484 
L 124.554721 -119.239111 
L 120.455548 -118.941675 
L 116.356374 -118.649989 
L 112.2572 -118.363873 
L 108.158027 -118.083154 
L 104.058853 -117.807668 
L 99.95968 -117.537256 
L 95.860506 -117.271768 
L 91.761333 -117.011057 
L 87.662159 -116.754984 
z
" style="stroke: #ff0000; stroke-opacity: 0.2"/>
    </defs>
    <g clip-path="url(#pbf005871fb)">
     <use xlink:href="#m558ffd403b" x="0" y="399.09875" style="fill: #ff0000; fill-opacity: 0.2; stroke: #ff0000; stroke-opacity: 0.2"/>
    </g>
   </g>
   <g id="matplotlib.axis_1">
    <g id="xtick_1">
     <g id="line2d_1">
      <path d="M 87.662159 339.84 
L 87.662159 7.2 
" clip-path="url(#pbf005871fb)" style="fill: none; stroke: #b0b0b0; stroke-width: 0.8; stroke-linecap: square"/>
     </g>
     <g id="line2d_2">
      <defs>
       <path id="m69c3b8a4f9" d="M 0 0 
L 0 5 
" style="stroke: #000000; stroke-width: 0.8"/>
      </defs>
      <g>
       <use xlink:href="#m69c3b8a4f9" x="87.662159" y="339.84" style="stroke: #000000; stroke-width: 0.8"/>
      </g>
     </g>
     <g id="text_1">
      <!-- 0.00 -->
      <g transform="translate(68.104503 363.609375) scale(0.22 -0.22)">
       <defs>
        <path id="LMRoman10-Regular-30" d="M 2944 2048 
C 2944 2560 2912 3072 2688 3546 
C 2394 4160 1869 4262 1600 4262 
C 1216 4262 749 4096 486 3501 
C 282 3059 250 2560 250 2048 
C 250 1568 275 992 538 506 
C 813 -13 1280 -141 1594 -141 
C 1939 -141 2426 -6 2707 602 
C 2912 1043 2944 1542 2944 2048 
z
M 2413 2125 
C 2413 1645 2413 1210 2342 800 
C 2246 192 1882 0 1594 0 
C 1344 0 966 160 851 774 
C 781 1158 781 1747 781 2125 
C 781 2534 781 2957 832 3302 
C 954 4064 1434 4122 1594 4122 
C 1805 4122 2227 4006 2349 3373 
C 2413 3014 2413 2528 2413 2125 
z
" transform="scale(0.015625)"/>
        <path id="LMRoman10-Regular-2e" d="M 1229 339 
C 1229 525 1075 678 890 678 
C 704 678 550 525 550 339 
C 550 154 704 0 890 0 
C 1075 0 1229 154 1229 339 
z
" transform="scale(0.015625)"/>
       </defs>
       <use xlink:href="#LMRoman10-Regular-30"/>
       <use xlink:href="#LMRoman10-Regular-2e" transform="translate(49.999985 0)"/>
       <use xlink:href="#LMRoman10-Regular-30" transform="translate(77.799973 0)"/>
       <use xlink:href="#LMRoman10-Regular-30" transform="translate(127.799957 0)"/>
      </g>
     </g>
    </g>
    <g id="xtick_2">
     <g id="line2d_3">
      <path d="M 172.207614 339.84 
L 172.207614 7.2 
" clip-path="url(#pbf005871fb)" style="fill: none; stroke: #b0b0b0; stroke-width: 0.8; stroke-linecap: square"/>
     </g>
     <g id="line2d_4">
      <g>
       <use xlink:href="#m69c3b8a4f9" x="172.207614" y="339.84" style="stroke: #000000; stroke-width: 0.8"/>
      </g>
     </g>
     <g id="text_2">
      <!-- 0.25 -->
      <g transform="translate(152.649957 363.609375) scale(0.22 -0.22)">
       <defs>
        <path id="LMRoman10-Regular-32" d="M 2874 1114 
L 2714 1114 
C 2682 922 2637 640 2573 544 
C 2528 493 2106 493 1965 493 
L 813 493 
L 1491 1152 
C 2490 2035 2874 2381 2874 3021 
C 2874 3750 2298 4262 1517 4262 
C 794 4262 320 3674 320 3104 
C 320 2746 640 2746 659 2746 
C 768 2746 992 2822 992 3085 
C 992 3251 877 3418 653 3418 
C 602 3418 589 3418 570 3411 
C 717 3827 1062 4064 1434 4064 
C 2016 4064 2291 3546 2291 3021 
C 2291 2509 1971 2003 1619 1606 
L 390 237 
C 320 166 320 154 320 0 
L 2694 0 
L 2874 1114 
z
" transform="scale(0.015625)"/>
        <path id="LMRoman10-Regular-35" d="M 2874 1286 
C 2874 2048 2349 2688 1658 2688 
C 1350 2688 1075 2586 845 2362 
L 845 3610 
C 973 3571 1184 3526 1389 3526 
C 2176 3526 2624 4109 2624 4192 
C 2624 4230 2605 4262 2560 4262 
C 2560 4262 2541 4262 2509 4243 
C 2381 4186 2067 4058 1638 4058 
C 1382 4058 1088 4102 787 4237 
C 736 4256 710 4256 710 4256 
C 646 4256 646 4205 646 4102 
L 646 2208 
C 646 2093 646 2042 736 2042 
C 781 2042 794 2061 819 2099 
C 890 2202 1126 2547 1645 2547 
C 1978 2547 2138 2253 2189 2138 
C 2291 1901 2304 1651 2304 1331 
C 2304 1107 2304 723 2150 454 
C 1997 205 1760 38 1466 38 
C 998 38 634 378 525 755 
C 544 749 563 742 634 742 
C 845 742 954 902 954 1056 
C 954 1210 845 1370 634 1370 
C 544 1370 320 1325 320 1030 
C 320 480 762 -141 1478 -141 
C 2221 -141 2874 474 2874 1286 
z
" transform="scale(0.015625)"/>
       </defs>
       <use xlink:href="#LMRoman10-Regular-30"/>
       <use xlink:href="#LMRoman10-Regular-2e" transform="translate(49.999985 0)"/>
       <use xlink:href="#LMRoman10-Regular-32" transform="translate(77.799973 0)"/>
       <use xlink:href="#LMRoman10-Regular-35" transform="translate(127.799957 0)"/>
      </g>
     </g>
    </g>
    <g id="xtick_3">
     <g id="line2d_5">
      <path d="M 256.753068 339.84 
L 256.753068 7.2 
" clip-path="url(#pbf005871fb)" style="fill: none; stroke: #b0b0b0; stroke-width: 0.8; stroke-linecap: square"/>
     </g>
     <g id="line2d_6">
      <g>
       <use xlink:href="#m69c3b8a4f9" x="256.753068" y="339.84" style="stroke: #000000; stroke-width: 0.8"/>
      </g>
     </g>
     <g id="text_3">
      <!-- 0.50 -->
      <g transform="translate(237.195412 363.609375) scale(0.22 -0.22)">
       <use xlink:href="#LMRoman10-Regular-30"/>
       <use xlink:href="#LMRoman10-Regular-2e" transform="translate(49.999985 0)"/>
       <use xlink:href="#LMRoman10-Regular-35" transform="translate(77.799973 0)"/>
       <use xlink:href="#LMRoman10-Regular-30" transform="translate(127.799957 0)"/>
      </g>
     </g>
    </g>
    <g id="xtick_4">
     <g id="line2d_7">
      <path d="M 341.298523 339.84 
L 341.298523 7.2 
" clip-path="url(#pbf005871fb)" style="fill: none; stroke: #b0b0b0; stroke-width: 0.8; stroke-linecap: square"/>
     </g>
     <g id="line2d_8">
      <g>
       <use xlink:href="#m69c3b8a4f9" x="341.298523" y="339.84" style="stroke: #000000; stroke-width: 0.8"/>
      </g>
     </g>
     <g id="text_4">
      <!-- 0.75 -->
      <g transform="translate(321.740866 363.609375) scale(0.22 -0.22)">
       <defs>
        <path id="LMRoman10-Regular-37" d="M 3104 4122 
L 1549 4122 
C 768 4122 755 4205 730 4326 
L 570 4326 
L 358 3008 
L 518 3008 
C 538 3110 595 3514 678 3590 
C 723 3629 1222 3629 1306 3629 
L 2630 3629 
L 1914 2618 
C 1338 1754 1126 864 1126 211 
C 1126 147 1126 -141 1421 -141 
C 1715 -141 1715 147 1715 211 
L 1715 538 
C 1715 890 1734 1242 1786 1587 
C 1811 1734 1901 2285 2182 2682 
L 3046 3898 
C 3104 3974 3104 3987 3104 4122 
z
" transform="scale(0.015625)"/>
       </defs>
       <use xlink:href="#LMRoman10-Regular-30"/>
       <use xlink:href="#LMRoman10-Regular-2e" transform="translate(49.999985 0)"/>
       <use xlink:href="#LMRoman10-Regular-37" transform="translate(77.799973 0)"/>
       <use xlink:href="#LMRoman10-Regular-35" transform="translate(127.799957 0)"/>
      </g>
     </g>
    </g>
    <g id="xtick_5">
     <g id="line2d_9">
      <path d="M 425.843977 339.84 
L 425.843977 7.2 
" clip-path="url(#pbf005871fb)" style="fill: none; stroke: #b0b0b0; stroke-width: 0.8; stroke-linecap: square"/>
     </g>
     <g id="line2d_10">
      <g>
       <use xlink:href="#m69c3b8a4f9" x="425.843977" y="339.84" style="stroke: #000000; stroke-width: 0.8"/>
      </g>
     </g>
     <g id="text_5">
      <!-- 1.00 -->
      <g transform="translate(406.286321 363.609375) scale(0.22 -0.22)">
       <defs>
        <path id="LMRoman10-Regular-31" d="M 2682 0 
L 2682 198 
L 2477 198 
C 1901 198 1882 269 1882 506 
L 1882 4096 
C 1882 4250 1882 4262 1734 4262 
C 1338 3853 774 3853 570 3853 
L 570 3654 
C 698 3654 1075 3654 1408 3821 
L 1408 506 
C 1408 275 1389 198 813 198 
L 608 198 
L 608 0 
C 832 19 1389 19 1645 19 
C 1901 19 2458 19 2682 0 
z
" transform="scale(0.015625)"/>
       </defs>
       <use xlink:href="#LMRoman10-Regular-31"/>
       <use xlink:href="#LMRoman10-Regular-2e" transform="translate(49.999985 0)"/>
       <use xlink:href="#LMRoman10-Regular-30" transform="translate(77.799973 0)"/>
       <use xlink:href="#LMRoman10-Regular-30" transform="translate(127.799957 0)"/>
      </g>
     </g>
    </g>
    <g id="xtick_6">
     <g id="line2d_11">
      <path d="M 510.389432 339.84 
L 510.389432 7.2 
" clip-path="url(#pbf005871fb)" style="fill: none; stroke: #b0b0b0; stroke-width: 0.8; stroke-linecap: square"/>
     </g>
     <g id="line2d_12">
      <g>
       <use xlink:href="#m69c3b8a4f9" x="510.389432" y="339.84" style="stroke: #000000; stroke-width: 0.8"/>
      </g>
     </g>
     <g id="text_6">
      <!-- 1.25 -->
      <g transform="translate(490.831776 363.609375) scale(0.22 -0.22)">
       <use xlink:href="#LMRoman10-Regular-31"/>
       <use xlink:href="#LMRoman10-Regular-2e" transform="translate(49.999985 0)"/>
       <use xlink:href="#LMRoman10-Regular-32" transform="translate(77.799973 0)"/>
       <use xlink:href="#LMRoman10-Regular-35" transform="translate(127.799957 0)"/>
      </g>
     </g>
    </g>
    <g id="text_7">
     <!-- Inverse Temperature $\beta$ -->
     <g transform="translate(180.24125 387.49875) scale(0.22 -0.22)">
      <defs>
       <path id="LMRoman10-Regular-49" d="M 2131 0 
L 2131 198 
L 1965 198 
C 1459 198 1440 269 1440 499 
L 1440 3872 
C 1440 4102 1459 4173 1965 4173 
L 2131 4173 
L 2131 4371 
C 1907 4352 1402 4352 1158 4352 
C 909 4352 403 4352 179 4371 
L 179 4173 
L 346 4173 
C 851 4173 870 4102 870 3872 
L 870 499 
C 870 269 851 198 346 198 
L 179 198 
L 179 0 
C 403 19 909 19 1152 19 
C 1402 19 1907 19 2131 0 
z
" transform="scale(0.015625)"/>
       <path id="LMRoman10-Regular-6e" d="M 3424 0 
L 3424 198 
C 3091 198 2931 198 2925 390 
L 2925 1613 
C 2925 2163 2925 2362 2726 2592 
C 2637 2701 2426 2829 2054 2829 
C 1587 2829 1286 2554 1107 2157 
L 1107 2829 
L 205 2758 
L 205 2560 
C 653 2560 704 2515 704 2202 
L 704 486 
C 704 198 634 198 205 198 
L 205 0 
L 928 19 
L 1645 0 
L 1645 198 
C 1216 198 1146 198 1146 486 
L 1146 1664 
C 1146 2330 1600 2688 2010 2688 
C 2413 2688 2483 2342 2483 1978 
L 2483 486 
C 2483 198 2413 198 1984 198 
L 1984 0 
L 2707 19 
L 3424 0 
z
" transform="scale(0.015625)"/>
       <path id="LMRoman10-Regular-76" d="M 3251 2560 
L 3251 2758 
C 3104 2746 2918 2739 2771 2739 
L 2214 2758 
L 2214 2560 
C 2451 2554 2522 2406 2522 2285 
C 2522 2227 2509 2202 2483 2131 
L 1830 499 
L 1114 2285 
C 1075 2368 1075 2394 1075 2394 
C 1075 2560 1325 2560 1440 2560 
L 1440 2758 
L 742 2739 
C 570 2739 314 2746 122 2758 
L 122 2560 
C 525 2560 550 2522 634 2323 
L 1555 51 
C 1594 -38 1606 -70 1690 -70 
C 1773 -70 1798 -13 1824 51 
L 2662 2131 
C 2720 2278 2829 2554 3251 2560 
z
" transform="scale(0.015625)"/>
       <path id="LMRoman10-Regular-65" d="M 2656 762 
C 2656 826 2605 838 2573 838 
C 2515 838 2502 800 2490 749 
C 2266 90 1690 90 1626 90 
C 1306 90 1050 282 902 518 
C 710 826 710 1248 710 1478 
L 2496 1478 
C 2637 1478 2656 1478 2656 1613 
C 2656 2246 2310 2867 1510 2867 
C 768 2867 179 2208 179 1408 
C 179 550 851 -70 1587 -70 
C 2368 -70 2656 640 2656 762 
z
M 2234 1613 
L 717 1613 
C 755 2566 1293 2726 1510 2726 
C 2170 2726 2234 1862 2234 1613 
z
" transform="scale(0.015625)"/>
       <path id="LMRoman10-Regular-72" d="M 2330 2438 
C 2330 2643 2131 2829 1856 2829 
C 1389 2829 1158 2400 1069 2125 
L 1069 2829 
L 179 2758 
L 179 2560 
C 627 2560 678 2515 678 2202 
L 678 486 
C 678 198 608 198 179 198 
L 179 0 
L 909 19 
C 1165 19 1466 19 1722 0 
L 1722 198 
L 1587 198 
C 1114 198 1101 269 1101 499 
L 1101 1485 
C 1101 2118 1370 2688 1856 2688 
C 1901 2688 1914 2688 1926 2682 
C 1907 2675 1779 2598 1779 2432 
C 1779 2253 1914 2157 2054 2157 
C 2170 2157 2330 2234 2330 2438 
z
" transform="scale(0.015625)"/>
       <path id="LMRoman10-Regular-73" d="M 2304 819 
C 2304 1158 2112 1350 2035 1427 
C 1824 1632 1574 1683 1306 1734 
C 947 1805 518 1888 518 2259 
C 518 2483 685 2746 1235 2746 
C 1939 2746 1971 2170 1984 1971 
C 1990 1914 2061 1914 2061 1914 
C 2144 1914 2144 1946 2144 2067 
L 2144 2714 
C 2144 2822 2144 2867 2074 2867 
C 2042 2867 2029 2867 1946 2790 
C 1926 2765 1862 2707 1837 2688 
C 1594 2867 1331 2867 1235 2867 
C 454 2867 211 2438 211 2080 
C 211 1856 314 1677 486 1536 
C 691 1370 870 1331 1331 1242 
C 1472 1216 1997 1114 1997 653 
C 1997 326 1773 70 1274 70 
C 736 70 506 435 384 979 
C 365 1062 358 1088 294 1088 
C 211 1088 211 1043 211 928 
L 211 83 
C 211 -26 211 -70 282 -70 
C 314 -70 320 -64 442 58 
C 454 70 454 83 570 205 
C 851 -64 1139 -70 1274 -70 
C 2010 -70 2304 358 2304 819 
z
" transform="scale(0.015625)"/>
       <path id="LMRoman10-Regular-20" transform="scale(0.015625)"/>
       <path id="LMRoman10-Regular-54" d="M 4384 2893 
L 4262 4333 
L 352 4333 
L 230 2893 
L 390 2893 
C 480 3923 576 4134 1542 4134 
C 1658 4134 1824 4134 1888 4122 
C 2022 4096 2022 4026 2022 3878 
L 2022 506 
C 2022 288 2022 198 1350 198 
L 1094 198 
L 1094 0 
C 1357 19 2010 19 2304 19 
C 2598 19 3258 19 3520 0 
L 3520 198 
L 3264 198 
C 2592 198 2592 288 2592 506 
L 2592 3878 
C 2592 4006 2592 4096 2707 4122 
C 2778 4134 2950 4134 3072 4134 
C 4038 4134 4134 3923 4224 2893 
L 4384 2893 
z
" transform="scale(0.015625)"/>
       <path id="LMRoman10-Regular-6d" d="M 5203 0 
L 5203 198 
C 4870 198 4710 198 4704 390 
L 4704 1613 
C 4704 2163 4704 2362 4506 2592 
C 4416 2701 4205 2829 3834 2829 
C 3296 2829 3014 2445 2906 2202 
C 2816 2758 2342 2829 2054 2829 
C 1587 2829 1286 2554 1107 2157 
L 1107 2829 
L 205 2758 
L 205 2560 
C 653 2560 704 2515 704 2202 
L 704 486 
C 704 198 634 198 205 198 
L 205 0 
L 928 19 
L 1645 0 
L 1645 198 
C 1216 198 1146 198 1146 486 
L 1146 1664 
C 1146 2330 1600 2688 2010 2688 
C 2413 2688 2483 2342 2483 1978 
L 2483 486 
C 2483 198 2413 198 1984 198 
L 1984 0 
L 2707 19 
L 3424 0 
L 3424 198 
C 2995 198 2925 198 2925 486 
L 2925 1664 
C 2925 2330 3379 2688 3789 2688 
C 4192 2688 4262 2342 4262 1978 
L 4262 486 
C 4262 198 4192 198 3763 198 
L 3763 0 
L 4486 19 
L 5203 0 
z
" transform="scale(0.015625)"/>
       <path id="LMRoman10-Regular-70" d="M 3334 1382 
C 3334 2195 2714 2829 1997 2829 
C 1498 2829 1229 2547 1101 2406 
L 1101 2829 
L 179 2758 
L 179 2560 
C 634 2560 678 2522 678 2240 
L 678 -755 
C 678 -1043 608 -1043 179 -1043 
L 179 -1242 
L 896 -1222 
L 1619 -1242 
L 1619 -1043 
C 1190 -1043 1120 -1043 1120 -755 
L 1120 320 
L 1120 378 
C 1152 275 1421 -70 1907 -70 
C 2669 -70 3334 557 3334 1382 
z
M 2803 1382 
C 2803 608 2355 70 1882 70 
C 1626 70 1382 198 1210 461 
C 1120 595 1120 602 1120 730 
L 1120 2157 
C 1306 2483 1619 2669 1946 2669 
C 2413 2669 2803 2106 2803 1382 
z
" transform="scale(0.015625)"/>
       <path id="LMRoman10-Regular-61" d="M 3155 570 
L 3155 928 
L 2995 928 
L 2995 570 
C 2995 198 2835 160 2765 160 
C 2554 160 2528 448 2528 480 
L 2528 1760 
C 2528 2029 2528 2278 2298 2515 
C 2048 2765 1728 2867 1421 2867 
C 896 2867 454 2566 454 2144 
C 454 1952 582 1843 749 1843 
C 928 1843 1043 1971 1043 2138 
C 1043 2214 1011 2426 717 2432 
C 890 2656 1203 2726 1408 2726 
C 1722 2726 2086 2477 2086 1907 
L 2086 1670 
C 1760 1651 1312 1632 909 1440 
C 429 1222 269 890 269 608 
C 269 90 890 -70 1293 -70 
C 1715 -70 2010 186 2131 486 
C 2157 230 2330 -38 2630 -38 
C 2765 -38 3155 51 3155 570 
z
M 2086 896 
C 2086 288 1626 70 1338 70 
C 1024 70 762 294 762 614 
C 762 966 1030 1498 2086 1536 
L 2086 896 
z
" transform="scale(0.015625)"/>
       <path id="LMRoman10-Regular-74" d="M 2125 794 
L 2125 1158 
L 1965 1158 
L 1965 806 
C 1965 333 1773 90 1536 90 
C 1107 90 1107 672 1107 781 
L 1107 2560 
L 2022 2560 
L 2022 2758 
L 1107 2758 
L 1107 3936 
L 947 3936 
C 941 3411 749 2726 122 2701 
L 122 2560 
L 666 2560 
L 666 794 
C 666 6 1261 -70 1491 -70 
C 1946 -70 2125 384 2125 794 
z
" transform="scale(0.015625)"/>
       <path id="LMRoman10-Regular-75" d="M 3424 0 
L 3424 198 
C 2976 198 2925 243 2925 557 
L 2925 2829 
L 1984 2758 
L 1984 2560 
C 2432 2560 2483 2515 2483 2202 
L 2483 1062 
C 2483 506 2176 70 1709 70 
C 1171 70 1146 371 1146 704 
L 1146 2829 
L 205 2758 
L 205 2560 
C 704 2560 704 2541 704 1971 
L 704 1011 
C 704 512 704 -70 1677 -70 
C 2035 -70 2317 109 2502 506 
L 2502 -70 
L 3424 0 
z
" transform="scale(0.015625)"/>
       <path id="Cmmi10-af" d="M 172 -1241 
Q 153 -1241 137 -1219 
Q 122 -1197 122 -1178 
L 1106 2778 
Q 1191 3097 1353 3397 
Q 1516 3697 1761 3955 
Q 2006 4213 2300 4363 
Q 2594 4513 2925 4513 
Q 3163 4513 3355 4408 
Q 3547 4303 3658 4114 
Q 3769 3925 3769 3688 
Q 3769 3459 3681 3251 
Q 3594 3044 3437 2864 
Q 3281 2684 3103 2572 
Q 3206 2506 3287 2404 
Q 3369 2303 3419 2192 
Q 3469 2081 3497 1945 
Q 3525 1809 3525 1691 
Q 3525 1363 3384 1044 
Q 3244 725 3001 465 
Q 2759 206 2446 54 
Q 2134 -97 1806 -97 
Q 1447 -97 1159 100 
Q 872 297 763 634 
L 300 -1203 
Q 300 -1241 250 -1241 
L 172 -1241 
z
M 1819 78 
Q 2106 78 2339 267 
Q 2572 456 2723 742 
Q 2875 1028 2954 1348 
Q 3034 1669 3034 1931 
Q 3034 2256 2847 2444 
Q 2628 2363 2419 2363 
Q 1913 2363 1913 2534 
Q 1913 2759 2491 2759 
Q 2697 2759 2869 2694 
Q 3006 2800 3118 3006 
Q 3231 3213 3289 3438 
Q 3347 3663 3347 3859 
Q 3347 4069 3236 4208 
Q 3125 4347 2913 4347 
Q 2522 4347 2186 4106 
Q 1850 3866 1619 3498 
Q 1388 3131 1288 2741 
L 934 1325 
Q 900 1178 891 997 
Q 891 597 1153 337 
Q 1416 78 1819 78 
z
M 2106 2553 
Q 2203 2528 2425 2528 
Q 2534 2528 2644 2566 
Q 2638 2572 2619 2572 
Q 2550 2591 2472 2591 
Q 2181 2591 2106 2553 
z
" transform="scale(0.015625)"/>
      </defs>
      <use xlink:href="#LMRoman10-Regular-49" transform="translate(0 0.484375)"/>
      <use xlink:href="#LMRoman10-Regular-6e" transform="translate(36.099991 0.484375)"/>
      <use xlink:href="#LMRoman10-Regular-76" transform="translate(91.699982 0.484375)"/>
      <use xlink:href="#LMRoman10-Regular-65" transform="translate(144.499969 0.484375)"/>
      <use xlink:href="#LMRoman10-Regular-72" transform="translate(188.899963 0.484375)"/>
      <use xlink:href="#LMRoman10-Regular-73" transform="translate(228.09996 0.484375)"/>
      <use xlink:href="#LMRoman10-Regular-65" transform="translate(267.499954 0.484375)"/>
      <use xlink:href="#LMRoman10-Regular-20" transform="translate(311.899948 0.484375)"/>
      <use xlink:href="#LMRoman10-Regular-54" transform="translate(345.199936 0.484375)"/>
      <use xlink:href="#LMRoman10-Regular-65" transform="translate(417.399918 0.484375)"/>
      <use xlink:href="#LMRoman10-Regular-6d" transform="translate(461.799911 0.484375)"/>
      <use xlink:href="#LMRoman10-Regular-70" transform="translate(545.099899 0.484375)"/>
      <use xlink:href="#LMRoman10-Regular-65" transform="translate(600.69989 0.484375)"/>
      <use xlink:href="#LMRoman10-Regular-72" transform="translate(645.099884 0.484375)"/>
      <use xlink:href="#LMRoman10-Regular-61" transform="translate(684.299881 0.484375)"/>
      <use xlink:href="#LMRoman10-Regular-74" transform="translate(734.299866 0.484375)"/>
      <use xlink:href="#LMRoman10-Regular-75" transform="translate(773.19986 0.484375)"/>
      <use xlink:href="#LMRoman10-Regular-72" transform="translate(828.79985 0.484375)"/>
      <use xlink:href="#LMRoman10-Regular-65" transform="translate(867.999847 0.484375)"/>
      <use xlink:href="#LMRoman10-Regular-20" transform="translate(912.399841 0.484375)"/>
      <use xlink:href="#Cmmi10-af" transform="translate(945.699829 0.484375)"/>
     </g>
    </g>
   </g>
   <g id="matplotlib.axis_2">
    <g id="ytick_1">
     <g id="line2d_13">
      <path d="M 67.37125 324.72 
L 513.77125 324.72 
" clip-path="url(#pbf005871fb)" style="fill: none; stroke: #b0b0b0; stroke-width: 0.8; stroke-linecap: square"/>
     </g>
     <g id="line2d_14">
      <defs>
       <path id="m138792dcae" d="M 0 0 
L -5 0 
" style="stroke: #000000; stroke-width: 0.8"/>
      </defs>
      <g>
       <use xlink:href="#m138792dcae" x="67.37125" y="324.72" style="stroke: #000000; stroke-width: 0.8"/>
      </g>
     </g>
     <g id="text_8">
      <!-- 0.0 -->
      <g transform="translate(30.755938 332.354688) scale(0.22 -0.22)">
       <use xlink:href="#LMRoman10-Regular-30"/>
       <use xlink:href="#LMRoman10-Regular-2e" transform="translate(49.999985 0)"/>
       <use xlink:href="#LMRoman10-Regular-30" transform="translate(77.799973 0)"/>
      </g>
     </g>
    </g>
    <g id="ytick_2">
     <g id="line2d_15">
      <path d="M 67.37125 264.24 
L 513.77125 264.24 
" clip-path="url(#pbf005871fb)" style="fill: none; stroke: #b0b0b0; stroke-width: 0.8; stroke-linecap: square"/>
     </g>
     <g id="line2d_16">
      <g>
       <use xlink:href="#m138792dcae" x="67.37125" y="264.24" style="stroke: #000000; stroke-width: 0.8"/>
      </g>
     </g>
     <g id="text_9">
      <!-- 0.2 -->
      <g transform="translate(30.755938 271.874687) scale(0.22 -0.22)">
       <use xlink:href="#LMRoman10-Regular-30"/>
       <use xlink:href="#LMRoman10-Regular-2e" transform="translate(49.999985 0)"/>
       <use xlink:href="#LMRoman10-Regular-32" transform="translate(77.799973 0)"/>
      </g>
     </g>
    </g>
    <g id="ytick_3">
     <g id="line2d_17">
      <path d="M 67.37125 203.76 
L 513.77125 203.76 
" clip-path="url(#pbf005871fb)" style="fill: none; stroke: #b0b0b0; stroke-width: 0.8; stroke-linecap: square"/>
     </g>
     <g id="line2d_18">
      <g>
       <use xlink:href="#m138792dcae" x="67.37125" y="203.76" style="stroke: #000000; stroke-width: 0.8"/>
      </g>
     </g>
     <g id="text_10">
      <!-- 0.4 -->
      <g transform="translate(30.755938 211.394688) scale(0.22 -0.22)">
       <defs>
        <path id="LMRoman10-Regular-34" d="M 3014 1056 
L 3014 1254 
L 2374 1254 
L 2374 4166 
C 2374 4294 2374 4333 2272 4333 
C 2214 4333 2195 4333 2144 4256 
L 179 1254 
L 179 1056 
L 1882 1056 
L 1882 499 
C 1882 269 1869 198 1395 198 
L 1261 198 
L 1261 0 
C 1523 19 1856 19 2125 19 
C 2394 19 2733 19 2995 0 
L 2995 198 
L 2861 198 
C 2387 198 2374 269 2374 499 
L 2374 1056 
L 3014 1056 
z
M 1920 1254 
L 358 1254 
L 1920 3642 
L 1920 1254 
z
" transform="scale(0.015625)"/>
       </defs>
       <use xlink:href="#LMRoman10-Regular-30"/>
       <use xlink:href="#LMRoman10-Regular-2e" transform="translate(49.999985 0)"/>
       <use xlink:href="#LMRoman10-Regular-34" transform="translate(77.799973 0)"/>
      </g>
     </g>
    </g>
    <g id="ytick_4">
     <g id="line2d_19">
      <path d="M 67.37125 143.28 
L 513.77125 143.28 
" clip-path="url(#pbf005871fb)" style="fill: none; stroke: #b0b0b0; stroke-width: 0.8; stroke-linecap: square"/>
     </g>
     <g id="line2d_20">
      <g>
       <use xlink:href="#m138792dcae" x="67.37125" y="143.28" style="stroke: #000000; stroke-width: 0.8"/>
      </g>
     </g>
     <g id="text_11">
      <!-- 0.6 -->
      <g transform="translate(30.755938 150.914687) scale(0.22 -0.22)">
       <defs>
        <path id="LMRoman10-Regular-36" d="M 2925 1306 
C 2925 2118 2355 2733 1645 2733 
C 1210 2733 973 2406 845 2099 
L 845 2253 
C 845 3872 1638 4102 1965 4102 
C 2118 4102 2387 4064 2528 3846 
C 2432 3846 2176 3846 2176 3558 
C 2176 3360 2330 3264 2470 3264 
C 2573 3264 2765 3322 2765 3571 
C 2765 3955 2483 4262 1952 4262 
C 1133 4262 269 3437 269 2022 
C 269 314 1011 -141 1606 -141 
C 2317 -141 2925 461 2925 1306 
z
M 2349 1312 
C 2349 1005 2349 685 2240 454 
C 2048 70 1754 38 1606 38 
C 1203 38 1011 422 973 518 
C 858 819 858 1331 858 1446 
C 858 1946 1062 2586 1638 2586 
C 1741 2586 2035 2586 2234 2189 
C 2349 1952 2349 1626 2349 1312 
z
" transform="scale(0.015625)"/>
       </defs>
       <use xlink:href="#LMRoman10-Regular-30"/>
       <use xlink:href="#LMRoman10-Regular-2e" transform="translate(49.999985 0)"/>
       <use xlink:href="#LMRoman10-Regular-36" transform="translate(77.799973 0)"/>
      </g>
     </g>
    </g>
    <g id="ytick_5">
     <g id="line2d_21">
      <path d="M 67.37125 82.8 
L 513.77125 82.8 
" clip-path="url(#pbf005871fb)" style="fill: none; stroke: #b0b0b0; stroke-width: 0.8; stroke-linecap: square"/>
     </g>
     <g id="line2d_22">
      <g>
       <use xlink:href="#m138792dcae" x="67.37125" y="82.8" style="stroke: #000000; stroke-width: 0.8"/>
      </g>
     </g>
     <g id="text_12">
      <!-- 0.8 -->
      <g transform="translate(30.755938 90.434687) scale(0.22 -0.22)">
       <defs>
        <path id="LMRoman10-Regular-38" d="M 2925 1075 
C 2925 1306 2854 1594 2611 1862 
C 2490 1997 2387 2061 1978 2317 
C 2438 2554 2752 2886 2752 3309 
C 2752 3898 2182 4262 1600 4262 
C 960 4262 442 3789 442 3194 
C 442 3078 454 2790 723 2490 
C 794 2413 1030 2253 1190 2144 
C 819 1958 269 1600 269 966 
C 269 288 922 -141 1594 -141 
C 2317 -141 2925 390 2925 1075 
z
M 2470 3309 
C 2470 2944 2221 2637 1837 2413 
L 1043 2925 
C 749 3117 723 3334 723 3443 
C 723 3834 1139 4102 1594 4102 
C 2061 4102 2470 3770 2470 3309 
z
M 2605 845 
C 2605 371 2125 38 1600 38 
C 1050 38 589 435 589 966 
C 589 1338 794 1747 1338 2048 
L 2125 1549 
C 2304 1427 2605 1235 2605 845 
z
" transform="scale(0.015625)"/>
       </defs>
       <use xlink:href="#LMRoman10-Regular-30"/>
       <use xlink:href="#LMRoman10-Regular-2e" transform="translate(49.999985 0)"/>
       <use xlink:href="#LMRoman10-Regular-38" transform="translate(77.799973 0)"/>
      </g>
     </g>
    </g>
    <g id="ytick_6">
     <g id="line2d_23">
      <path d="M 67.37125 22.32 
L 513.77125 22.32 
" clip-path="url(#pbf005871fb)" style="fill: none; stroke: #b0b0b0; stroke-width: 0.8; stroke-linecap: square"/>
     </g>
     <g id="line2d_24">
      <g>
       <use xlink:href="#m138792dcae" x="67.37125" y="22.32" style="stroke: #000000; stroke-width: 0.8"/>
      </g>
     </g>
     <g id="text_13">
      <!-- 1.0 -->
      <g transform="translate(30.755938 29.954687) scale(0.22 -0.22)">
       <use xlink:href="#LMRoman10-Regular-31"/>
       <use xlink:href="#LMRoman10-Regular-2e" transform="translate(49.999985 0)"/>
       <use xlink:href="#LMRoman10-Regular-30" transform="translate(77.799973 0)"/>
      </g>
     </g>
    </g>
    <g id="text_14">
     <!-- Magnetization -->
     <g transform="translate(22.225312 242.282031) rotate(-90) scale(0.22 -0.22)">
      <defs>
       <path id="LMRoman10-Regular-4d" d="M 5626 0 
L 5626 198 
L 5472 198 
C 4979 198 4966 269 4966 499 
L 4966 3872 
C 4966 4102 4979 4173 5472 4173 
L 5626 4173 
L 5626 4371 
L 4544 4371 
C 4378 4371 4378 4365 4333 4250 
L 2931 646 
L 1542 4230 
C 1485 4371 1466 4371 1318 4371 
L 237 4371 
L 237 4173 
L 390 4173 
C 883 4173 896 4102 896 3872 
L 896 672 
C 896 499 896 198 237 198 
L 237 0 
L 986 19 
L 1734 0 
L 1734 198 
C 1075 198 1075 499 1075 672 
L 1075 4122 
L 1082 4122 
L 2624 141 
C 2656 58 2688 0 2752 0 
C 2822 0 2842 51 2867 122 
L 4442 4173 
L 4448 4173 
L 4448 499 
C 4448 269 4435 198 3942 198 
L 3789 198 
L 3789 0 
C 4026 19 4461 19 4710 19 
C 4960 19 5389 19 5626 0 
z
" transform="scale(0.015625)"/>
       <path id="LMRoman10-Regular-67" d="M 3104 2586 
C 3104 2694 3027 2899 2778 2899 
C 2650 2899 2368 2861 2099 2598 
C 1830 2810 1562 2829 1421 2829 
C 826 2829 384 2387 384 1894 
C 384 1613 525 1370 685 1235 
C 602 1139 486 928 486 704 
C 486 506 570 262 768 134 
C 384 26 179 -250 179 -506 
C 179 -966 813 -1318 1594 -1318 
C 2349 -1318 3014 -992 3014 -493 
C 3014 -269 2925 58 2598 237 
C 2259 416 1888 416 1498 416 
C 1338 416 1062 416 1018 422 
C 813 448 678 646 678 851 
C 678 877 678 1024 787 1152 
C 1037 973 1299 954 1421 954 
C 2016 954 2458 1395 2458 1888 
C 2458 2125 2355 2362 2195 2509 
C 2426 2726 2656 2758 2771 2758 
C 2771 2758 2816 2758 2835 2752 
C 2765 2726 2733 2656 2733 2579 
C 2733 2470 2816 2394 2918 2394 
C 2982 2394 3104 2438 3104 2586 
z
M 1978 1894 
C 1978 1722 1971 1517 1875 1357 
C 1824 1280 1677 1101 1421 1101 
C 864 1101 864 1741 864 1888 
C 864 2061 870 2266 966 2426 
C 1018 2502 1165 2682 1421 2682 
C 1978 2682 1978 2042 1978 1894 
z
M 2682 -506 
C 2682 -851 2227 -1171 1600 -1171 
C 954 -1171 512 -845 512 -506 
C 512 -211 755 26 1037 45 
L 1414 45 
C 1965 45 2682 45 2682 -506 
z
" transform="scale(0.015625)"/>
       <path id="LMRoman10-Regular-69" d="M 1581 0 
L 1581 198 
C 1158 198 1133 230 1133 480 
L 1133 2829 
L 237 2758 
L 237 2560 
C 653 2560 710 2522 710 2208 
L 710 486 
C 710 198 640 198 211 198 
L 211 0 
L 915 19 
C 1139 19 1363 6 1581 0 
z
M 1229 3866 
C 1229 4038 1082 4205 890 4205 
C 672 4205 544 4026 544 3866 
C 544 3693 691 3526 883 3526 
C 1101 3526 1229 3706 1229 3866 
z
" transform="scale(0.015625)"/>
       <path id="LMRoman10-Regular-7a" d="M 2566 1197 
L 2406 1197 
C 2349 442 2214 160 1472 160 
L 717 160 
L 2496 2566 
C 2554 2637 2554 2650 2554 2675 
C 2554 2758 2502 2758 2387 2758 
L 339 2758 
L 269 1728 
L 429 1728 
C 467 2381 589 2618 1293 2618 
L 2022 2618 
L 237 205 
C 179 134 179 122 179 90 
C 179 0 224 0 346 0 
L 2458 0 
L 2566 1197 
z
" transform="scale(0.015625)"/>
       <path id="LMRoman10-Regular-6f" d="M 3014 1370 
C 3014 2189 2374 2867 1600 2867 
C 800 2867 179 2170 179 1370 
C 179 544 845 -70 1594 -70 
C 2368 -70 3014 557 3014 1370 
z
M 2483 1421 
C 2483 1190 2483 845 2342 563 
C 2202 275 1920 90 1600 90 
C 1325 90 1043 224 870 518 
C 710 800 710 1190 710 1421 
C 710 1670 710 2016 864 2298 
C 1037 2592 1338 2726 1594 2726 
C 1875 2726 2150 2586 2317 2310 
C 2483 2035 2483 1664 2483 1421 
z
" transform="scale(0.015625)"/>
      </defs>
      <use xlink:href="#LMRoman10-Regular-4d"/>
      <use xlink:href="#LMRoman10-Regular-61" transform="translate(91.699982 0)"/>
      <use xlink:href="#LMRoman10-Regular-67" transform="translate(141.699966 0)"/>
      <use xlink:href="#LMRoman10-Regular-6e" transform="translate(191.699951 0)"/>
      <use xlink:href="#LMRoman10-Regular-65" transform="translate(247.299942 0)"/>
      <use xlink:href="#LMRoman10-Regular-74" transform="translate(291.699936 0)"/>
      <use xlink:href="#LMRoman10-Regular-69" transform="translate(330.59993 0)"/>
      <use xlink:href="#LMRoman10-Regular-7a" transform="translate(358.399918 0)"/>
      <use xlink:href="#LMRoman10-Regular-61" transform="translate(402.799911 0)"/>
      <use xlink:href="#LMRoman10-Regular-74" transform="translate(452.799896 0)"/>
      <use xlink:href="#LMRoman10-Regular-69" transform="translate(491.69989 0)"/>
      <use xlink:href="#LMRoman10-Regular-6f" transform="translate(519.499878 0)"/>
      <use xlink:href="#LMRoman10-Regular-6e" transform="translate(569.499863 0)"/>
     </g>
    </g>
   </g>
   <g id="line2d_25">
    <path d="M 87.662159 300.652215 
L 91.761333 300.505037 
L 95.860506 300.355182 
L 99.95968 300.202568 
L 104.058853 300.047111 
L 108.158027 299.888722 
L 112.2572 299.727308 
L 116.356374 299.562774 
L 120.455548 299.39502 
L 124.554721 299.223938 
L 128.653895 299.049421 
L 132.753068 298.871352 
L 136.852242 298.689612 
L 140.951415 298.504074 
L 145.050589 298.314606 
L 149.149762 298.121069 
L 153.248936 297.923318 
L 157.34811 297.721201 
L 161.447283 297.514556 
L 165.546457 297.303216 
L 169.64563 297.087003 
L 173.744804 296.86573 
L 177.843977 296.639202 
L 181.943151 296.407209 
L 186.042324 296.169535 
L 190.141498 295.925947 
L 194.240671 295.676203 
L 198.339845 295.420045 
L 202.439019 295.157199 
L 206.538192 294.887378 
L 210.637366 294.610274 
L 214.736539 294.325564 
L 218.835713 294.032902 
L 222.934886 293.731923 
L 227.03406 293.422236 
L 231.133233 293.103427 
L 235.232407 292.775054 
L 239.331581 292.436645 
L 243.430754 292.087697 
L 247.529928 291.727671 
L 251.629101 291.355991 
L 255.728275 290.972041 
L 259.827448 290.575159 
L 263.926622 290.164634 
L 268.025795 289.739703 
L 272.124969 289.299544 
L 276.224143 288.84327 
L 280.323316 288.369928 
L 284.42249 287.878485 
L 288.521663 287.367824 
L 292.620837 286.836738 
L 296.72001 286.283914 
L 300.819184 285.70793 
L 304.918357 285.107238 
L 309.017531 284.480153 
L 313.116705 283.824838 
L 317.215878 283.139287 
L 321.315052 282.421307 
L 325.414225 281.668498 
L 329.513399 280.87823 
L 333.612572 280.047616 
L 337.711746 279.173484 
L 341.810919 278.252344 
L 345.910093 277.280356 
L 350.009267 276.253286 
L 354.10844 275.166464 
L 358.207614 274.014737 
L 362.306787 272.792416 
L 366.405961 271.493221 
L 370.505134 270.110219 
L 374.604308 268.635763 
L 378.703481 267.061425 
L 382.802655 265.377938 
L 386.901829 263.575129 
L 391.001002 261.641875 
L 395.100176 259.566065 
L 399.199349 257.334583 
L 403.298523 254.933339 
L 407.397696 252.347334 
L 411.49687 249.5608 
L 415.596043 246.557429 
L 419.695217 243.320705 
L 423.79439 239.83438 
L 427.893564 236.083108 
L 431.992738 232.05325 
L 436.091911 227.733869 
L 440.191085 223.117889 
L 444.290258 218.203377 
L 448.389432 212.994871 
L 452.488605 207.504632 
L 456.587779 201.753655 
L 460.686952 195.772259 
L 464.786126 189.600069 
L 468.8853 183.285241 
L 472.984473 176.882879 
L 477.083647 170.452678 
L 481.18282 164.055998 
L 485.281994 157.752656 
L 489.381167 151.597815 
L 493.480341 145.639322 
" clip-path="url(#pbf005871fb)" style="fill: none; stroke: #ff0000; stroke-width: 4; stroke-linecap: square"/>
   </g>
   <g id="line2d_26">
    <defs>
     <path id="m93854c36e9" d="M -5 0 
L 5 0 
M 0 5 
L 0 -5 
" style="stroke: #0000ff"/>
    </defs>
    <g clip-path="url(#pbf005871fb)">
     <use xlink:href="#m93854c36e9" x="87.662159" y="302.22144" style="fill: #0000ff; stroke: #0000ff"/>
     <use xlink:href="#m93854c36e9" x="91.761333" y="298.22976" style="fill: #0000ff; stroke: #0000ff"/>
     <use xlink:href="#m93854c36e9" x="95.860506" y="294.35904" style="fill: #0000ff; stroke: #0000ff"/>
     <use xlink:href="#m93854c36e9" x="99.95968" y="303.67296" style="fill: #0000ff; stroke: #0000ff"/>
     <use xlink:href="#m93854c36e9" x="104.058853" y="306.45504" style="fill: #0000ff; stroke: #0000ff"/>
     <use xlink:href="#m93854c36e9" x="108.158027" y="297.62496" style="fill: #0000ff; stroke: #0000ff"/>
     <use xlink:href="#m93854c36e9" x="112.2572" y="298.59264" style="fill: #0000ff; stroke: #0000ff"/>
     <use xlink:href="#m93854c36e9" x="116.356374" y="301.37472" style="fill: #0000ff; stroke: #0000ff"/>
     <use xlink:href="#m93854c36e9" x="120.455548" y="301.01184" style="fill: #0000ff; stroke: #0000ff"/>
     <use xlink:href="#m93854c36e9" x="124.554721" y="301.37472" style="fill: #0000ff; stroke: #0000ff"/>
     <use xlink:href="#m93854c36e9" x="128.653895" y="301.7376" style="fill: #0000ff; stroke: #0000ff"/>
     <use xlink:href="#m93854c36e9" x="132.753068" y="300.76992" style="fill: #0000ff; stroke: #0000ff"/>
     <use xlink:href="#m93854c36e9" x="136.852242" y="298.7136" style="fill: #0000ff; stroke: #0000ff"/>
     <use xlink:href="#m93854c36e9" x="140.951415" y="298.95552" style="fill: #0000ff; stroke: #0000ff"/>
     <use xlink:href="#m93854c36e9" x="145.050589" y="302.9472" style="fill: #0000ff; stroke: #0000ff"/>
     <use xlink:href="#m93854c36e9" x="149.149762" y="297.98784" style="fill: #0000ff; stroke: #0000ff"/>
     <use xlink:href="#m93854c36e9" x="153.248936" y="300.76992" style="fill: #0000ff; stroke: #0000ff"/>
     <use xlink:href="#m93854c36e9" x="157.34811" y="300.40704" style="fill: #0000ff; stroke: #0000ff"/>
     <use xlink:href="#m93854c36e9" x="161.447283" y="298.7136" style="fill: #0000ff; stroke: #0000ff"/>
     <use xlink:href="#m93854c36e9" x="165.546457" y="298.35072" style="fill: #0000ff; stroke: #0000ff"/>
     <use xlink:href="#m93854c36e9" x="169.64563" y="297.38304" style="fill: #0000ff; stroke: #0000ff"/>
     <use xlink:href="#m93854c36e9" x="173.744804" y="296.05248" style="fill: #0000ff; stroke: #0000ff"/>
     <use xlink:href="#m93854c36e9" x="177.843977" y="294.35904" style="fill: #0000ff; stroke: #0000ff"/>
     <use xlink:href="#m93854c36e9" x="181.943151" y="292.6656" style="fill: #0000ff; stroke: #0000ff"/>
     <use xlink:href="#m93854c36e9" x="186.042324" y="297.26208" style="fill: #0000ff; stroke: #0000ff"/>
     <use xlink:href="#m93854c36e9" x="190.141498" y="297.504" style="fill: #0000ff; stroke: #0000ff"/>
     <use xlink:href="#m93854c36e9" x="194.240671" y="293.51232" style="fill: #0000ff; stroke: #0000ff"/>
     <use xlink:href="#m93854c36e9" x="198.339845" y="292.0608" style="fill: #0000ff; stroke: #0000ff"/>
     <use xlink:href="#m93854c36e9" x="202.439019" y="290.2464" style="fill: #0000ff; stroke: #0000ff"/>
     <use xlink:href="#m93854c36e9" x="206.538192" y="297.26208" style="fill: #0000ff; stroke: #0000ff"/>
     <use xlink:href="#m93854c36e9" x="210.637366" y="295.56864" style="fill: #0000ff; stroke: #0000ff"/>
     <use xlink:href="#m93854c36e9" x="214.736539" y="297.504" style="fill: #0000ff; stroke: #0000ff"/>
     <use xlink:href="#m93854c36e9" x="218.835713" y="292.54464" style="fill: #0000ff; stroke: #0000ff"/>
     <use xlink:href="#m93854c36e9" x="222.934886" y="296.41536" style="fill: #0000ff; stroke: #0000ff"/>
     <use xlink:href="#m93854c36e9" x="227.03406" y="297.86688" style="fill: #0000ff; stroke: #0000ff"/>
     <use xlink:href="#m93854c36e9" x="231.133233" y="295.32672" style="fill: #0000ff; stroke: #0000ff"/>
     <use xlink:href="#m93854c36e9" x="235.232407" y="292.54464" style="fill: #0000ff; stroke: #0000ff"/>
     <use xlink:href="#m93854c36e9" x="239.331581" y="285.28704" style="fill: #0000ff; stroke: #0000ff"/>
     <use xlink:href="#m93854c36e9" x="243.430754" y="292.78656" style="fill: #0000ff; stroke: #0000ff"/>
     <use xlink:href="#m93854c36e9" x="247.529928" y="291.09312" style="fill: #0000ff; stroke: #0000ff"/>
     <use xlink:href="#m93854c36e9" x="251.629101" y="293.75424" style="fill: #0000ff; stroke: #0000ff"/>
     <use xlink:href="#m93854c36e9" x="255.728275" y="288.91584" style="fill: #0000ff; stroke: #0000ff"/>
     <use xlink:href="#m93854c36e9" x="259.827448" y="291.33504" style="fill: #0000ff; stroke: #0000ff"/>
     <use xlink:href="#m93854c36e9" x="263.926622" y="291.33504" style="fill: #0000ff; stroke: #0000ff"/>
     <use xlink:href="#m93854c36e9" x="268.025795" y="289.15776" style="fill: #0000ff; stroke: #0000ff"/>
     <use xlink:href="#m93854c36e9" x="272.124969" y="285.77088" style="fill: #0000ff; stroke: #0000ff"/>
     <use xlink:href="#m93854c36e9" x="276.224143" y="287.2224" style="fill: #0000ff; stroke: #0000ff"/>
     <use xlink:href="#m93854c36e9" x="280.323316" y="288.67392" style="fill: #0000ff; stroke: #0000ff"/>
     <use xlink:href="#m93854c36e9" x="284.42249" y="294.84288" style="fill: #0000ff; stroke: #0000ff"/>
     <use xlink:href="#m93854c36e9" x="288.521663" y="287.70624" style="fill: #0000ff; stroke: #0000ff"/>
     <use xlink:href="#m93854c36e9" x="292.620837" y="286.25472" style="fill: #0000ff; stroke: #0000ff"/>
     <use xlink:href="#m93854c36e9" x="296.72001" y="289.15776" style="fill: #0000ff; stroke: #0000ff"/>
     <use xlink:href="#m93854c36e9" x="300.819184" y="286.37568" style="fill: #0000ff; stroke: #0000ff"/>
     <use xlink:href="#m93854c36e9" x="304.918357" y="286.25472" style="fill: #0000ff; stroke: #0000ff"/>
     <use xlink:href="#m93854c36e9" x="309.017531" y="283.47264" style="fill: #0000ff; stroke: #0000ff"/>
     <use xlink:href="#m93854c36e9" x="313.116705" y="285.89184" style="fill: #0000ff; stroke: #0000ff"/>
     <use xlink:href="#m93854c36e9" x="317.215878" y="284.92416" style="fill: #0000ff; stroke: #0000ff"/>
     <use xlink:href="#m93854c36e9" x="321.315052" y="281.1744" style="fill: #0000ff; stroke: #0000ff"/>
     <use xlink:href="#m93854c36e9" x="325.414225" y="280.5696" style="fill: #0000ff; stroke: #0000ff"/>
     <use xlink:href="#m93854c36e9" x="329.513399" y="279.72288" style="fill: #0000ff; stroke: #0000ff"/>
     <use xlink:href="#m93854c36e9" x="333.612572" y="276.21504" style="fill: #0000ff; stroke: #0000ff"/>
     <use xlink:href="#m93854c36e9" x="337.711746" y="282.74688" style="fill: #0000ff; stroke: #0000ff"/>
     <use xlink:href="#m93854c36e9" x="341.810919" y="275.97312" style="fill: #0000ff; stroke: #0000ff"/>
     <use xlink:href="#m93854c36e9" x="345.910093" y="280.20672" style="fill: #0000ff; stroke: #0000ff"/>
     <use xlink:href="#m93854c36e9" x="350.009267" y="271.4976" style="fill: #0000ff; stroke: #0000ff"/>
     <use xlink:href="#m93854c36e9" x="354.10844" y="286.73856" style="fill: #0000ff; stroke: #0000ff"/>
     <use xlink:href="#m93854c36e9" x="358.207614" y="275.7312" style="fill: #0000ff; stroke: #0000ff"/>
     <use xlink:href="#m93854c36e9" x="362.306787" y="266.53824" style="fill: #0000ff; stroke: #0000ff"/>
     <use xlink:href="#m93854c36e9" x="366.405961" y="274.40064" style="fill: #0000ff; stroke: #0000ff"/>
     <use xlink:href="#m93854c36e9" x="370.505134" y="273.67488" style="fill: #0000ff; stroke: #0000ff"/>
     <use xlink:href="#m93854c36e9" x="374.604308" y="266.78016" style="fill: #0000ff; stroke: #0000ff"/>
     <use xlink:href="#m93854c36e9" x="378.703481" y="260.12736" style="fill: #0000ff; stroke: #0000ff"/>
     <use xlink:href="#m93854c36e9" x="382.802655" y="266.78016" style="fill: #0000ff; stroke: #0000ff"/>
     <use xlink:href="#m93854c36e9" x="386.901829" y="266.90112" style="fill: #0000ff; stroke: #0000ff"/>
     <use xlink:href="#m93854c36e9" x="391.001002" y="267.74784" style="fill: #0000ff; stroke: #0000ff"/>
     <use xlink:href="#m93854c36e9" x="395.100176" y="249.48288" style="fill: #0000ff; stroke: #0000ff"/>
     <use xlink:href="#m93854c36e9" x="399.199349" y="261.57888" style="fill: #0000ff; stroke: #0000ff"/>
     <use xlink:href="#m93854c36e9" x="403.298523" y="248.63616" style="fill: #0000ff; stroke: #0000ff"/>
     <use xlink:href="#m93854c36e9" x="407.397696" y="264.48192" style="fill: #0000ff; stroke: #0000ff"/>
     <use xlink:href="#m93854c36e9" x="411.49687" y="243.91872" style="fill: #0000ff; stroke: #0000ff"/>
     <use xlink:href="#m93854c36e9" x="415.596043" y="243.43488" style="fill: #0000ff; stroke: #0000ff"/>
     <use xlink:href="#m93854c36e9" x="419.695217" y="238.47552" style="fill: #0000ff; stroke: #0000ff"/>
     <use xlink:href="#m93854c36e9" x="423.79439" y="238.35456" style="fill: #0000ff; stroke: #0000ff"/>
     <use xlink:href="#m93854c36e9" x="427.893564" y="232.42752" style="fill: #0000ff; stroke: #0000ff"/>
     <use xlink:href="#m93854c36e9" x="431.992738" y="219.96864" style="fill: #0000ff; stroke: #0000ff"/>
     <use xlink:href="#m93854c36e9" x="436.091911" y="215.37216" style="fill: #0000ff; stroke: #0000ff"/>
     <use xlink:href="#m93854c36e9" x="440.191085" y="222.62976" style="fill: #0000ff; stroke: #0000ff"/>
     <use xlink:href="#m93854c36e9" x="444.290258" y="212.46912" style="fill: #0000ff; stroke: #0000ff"/>
     <use xlink:href="#m93854c36e9" x="448.389432" y="208.11456" style="fill: #0000ff; stroke: #0000ff"/>
     <use xlink:href="#m93854c36e9" x="452.488605" y="209.92896" style="fill: #0000ff; stroke: #0000ff"/>
     <use xlink:href="#m93854c36e9" x="456.587779" y="205.81632" style="fill: #0000ff; stroke: #0000ff"/>
     <use xlink:href="#m93854c36e9" x="460.686952" y="213.67872" style="fill: #0000ff; stroke: #0000ff"/>
     <use xlink:href="#m93854c36e9" x="464.786126" y="190.21248" style="fill: #0000ff; stroke: #0000ff"/>
     <use xlink:href="#m93854c36e9" x="468.8853" y="162.87552" style="fill: #0000ff; stroke: #0000ff"/>
     <use xlink:href="#m93854c36e9" x="472.984473" y="189.36576" style="fill: #0000ff; stroke: #0000ff"/>
     <use xlink:href="#m93854c36e9" x="477.083647" y="176.90688" style="fill: #0000ff; stroke: #0000ff"/>
     <use xlink:href="#m93854c36e9" x="481.18282" y="168.80256" style="fill: #0000ff; stroke: #0000ff"/>
     <use xlink:href="#m93854c36e9" x="485.281994" y="160.69824" style="fill: #0000ff; stroke: #0000ff"/>
     <use xlink:href="#m93854c36e9" x="489.381167" y="146.54592" style="fill: #0000ff; stroke: #0000ff"/>
     <use xlink:href="#m93854c36e9" x="493.480341" y="146.54592" style="fill: #0000ff; stroke: #0000ff"/>
    </g>
   </g>
   <g id="LineCollection_1">
    <path d="M 425.843977 339.84 
L 425.843977 7.2 
" clip-path="url(#pbf005871fb)" style="fill: none; stroke-dasharray: 14.8,6.4; stroke-dashoffset: 0; stroke: #000000; stroke-width: 4"/>
   </g>
   <g id="patch_3">
    <path d="M 67.37125 339.84 
L 67.37125 7.2 
" style="fill: none; stroke: #000000; stroke-width: 0.8; stroke-linejoin: miter; stroke-linecap: square"/>
   </g>
   <g id="patch_4">
    <path d="M 67.37125 339.84 
L 513.77125 339.84 
" style="fill: none; stroke: #000000; stroke-width: 0.8; stroke-linejoin: miter; stroke-linecap: square"/>
   </g>
   <g id="text_15">
    <!-- $N$=100 -->
    <g transform="translate(87.662159 43.89) scale(0.16 -0.16)">
     <defs>
      <path id="Cmmi10-4e" d="M 300 0 
Q 238 0 238 84 
Q 241 100 250 139 
Q 259 178 276 201 
Q 294 225 319 225 
Q 931 225 1031 616 
L 1900 4116 
Q 1722 4147 1338 4147 
Q 1275 4147 1275 4231 
Q 1278 4247 1287 4286 
Q 1297 4325 1314 4348 
Q 1331 4372 1356 4372 
L 2463 4372 
Q 2509 4372 2522 4331 
L 3944 947 
L 4653 3781 
Q 4666 3850 4666 3878 
Q 4666 4147 4172 4147 
Q 4109 4147 4109 4231 
Q 4131 4313 4143 4342 
Q 4156 4372 4219 4372 
L 5588 4372 
Q 5650 4372 5650 4288 
Q 5647 4272 5637 4233 
Q 5628 4194 5611 4170 
Q 5594 4147 5569 4147 
Q 4956 4147 4856 3756 
L 3938 56 
Q 3916 0 3872 0 
L 3794 0 
Q 3750 0 3738 44 
L 2106 3916 
L 2094 3956 
Q 2081 3969 2081 3975 
L 1234 588 
Q 1228 572 1225 548 
Q 1222 525 1216 494 
Q 1216 328 1359 276 
Q 1503 225 1716 225 
Q 1778 225 1778 141 
Q 1756 53 1740 26 
Q 1725 0 1672 0 
L 300 0 
z
" transform="scale(0.015625)"/>
      <path id="LMRoman10-Regular-3d" d="M 4614 2221 
C 4614 2349 4493 2349 4403 2349 
L 570 2349 
C 480 2349 358 2349 358 2221 
C 358 2093 480 2093 576 2093 
L 4397 2093 
C 4493 2093 4614 2093 4614 2221 
z
M 4614 979 
C 4614 1107 4493 1107 4397 1107 
L 576 1107 
C 480 1107 358 1107 358 979 
C 358 851 480 851 570 851 
L 4403 851 
C 4493 851 4614 851 4614 979 
z
" transform="scale(0.015625)"/>
     </defs>
     <use xlink:href="#Cmmi10-4e" transform="translate(0 0.6875)"/>
     <use xlink:href="#LMRoman10-Regular-3d" transform="translate(80.322266 0.6875)"/>
     <use xlink:href="#LMRoman10-Regular-31" transform="translate(158.122253 0.6875)"/>
     <use xlink:href="#LMRoman10-Regular-30" transform="translate(208.122238 0.6875)"/>
     <use xlink:href="#LMRoman10-Regular-30" transform="translate(258.122223 0.6875)"/>
    </g>
    <!-- Curie-Weiss Model -->
    <g transform="translate(87.662159 60.321) scale(0.16 -0.16)">
     <defs>
      <path id="LMRoman10-Regular-43" d="M 4256 1491 
C 4256 1555 4256 1600 4173 1600 
C 4102 1600 4102 1562 4096 1498 
C 4045 582 3360 58 2662 58 
C 2272 58 1018 275 1018 2182 
C 1018 4096 2266 4314 2656 4314 
C 3354 4314 3923 3731 4051 2797 
C 4064 2707 4064 2688 4154 2688 
C 4256 2688 4256 2707 4256 2842 
L 4256 4358 
C 4256 4467 4256 4512 4186 4512 
C 4160 4512 4134 4512 4083 4435 
L 3763 3962 
C 3526 4192 3200 4512 2586 4512 
C 1389 4512 358 3494 358 2189 
C 358 864 1395 -141 2586 -141 
C 3629 -141 4256 749 4256 1491 
z
" transform="scale(0.015625)"/>
      <path id="LMRoman10-Regular-2d" d="M 1766 1197 
L 1766 1568 
L 70 1568 
L 70 1197 
L 1766 1197 
z
" transform="scale(0.015625)"/>
      <path id="LMRoman10-Regular-57" d="M 6458 4173 
L 6458 4371 
C 6266 4358 6067 4352 5875 4352 
L 5114 4371 
L 5114 4173 
C 5542 4166 5670 3955 5670 3834 
C 5670 3795 5651 3744 5638 3706 
L 4678 749 
L 3654 3885 
C 3648 3910 3635 3949 3635 3981 
C 3635 4173 4006 4173 4173 4173 
L 4173 4371 
C 3942 4352 3507 4352 3264 4352 
L 2483 4371 
L 2483 4173 
C 2848 4173 2982 4173 3059 3942 
L 3200 3494 
L 2310 749 
L 1280 3898 
C 1274 3917 1267 3962 1267 3981 
C 1267 4173 1638 4173 1805 4173 
L 1805 4371 
C 1574 4352 1139 4352 896 4352 
L 115 4371 
L 115 4173 
C 595 4173 621 4141 698 3904 
L 1978 -19 
C 1997 -77 2016 -141 2099 -141 
C 2189 -141 2202 -96 2227 -13 
L 3283 3238 
L 4346 -19 
C 4365 -77 4384 -141 4467 -141 
C 4557 -141 4570 -96 4595 -13 
L 5818 3744 
C 5933 4109 6208 4173 6458 4173 
z
" transform="scale(0.015625)"/>
      <path id="LMRoman10-Regular-64" d="M 3373 0 
L 3373 198 
C 2925 198 2874 243 2874 557 
L 2874 4442 
L 1952 4371 
L 1952 4173 
C 2400 4173 2451 4128 2451 3814 
L 2451 2432 
C 2266 2662 1990 2829 1645 2829 
C 890 2829 218 2202 218 1376 
C 218 563 845 -70 1574 -70 
C 1984 -70 2272 147 2432 352 
L 2432 -70 
L 3373 0 
z
M 2432 755 
C 2432 640 2432 627 2362 518 
C 2170 211 1882 70 1606 70 
C 1318 70 1088 237 934 480 
C 768 742 749 1107 749 1370 
C 749 1606 762 1990 947 2278 
C 1082 2477 1325 2688 1670 2688 
C 1894 2688 2163 2592 2362 2304 
C 2432 2195 2432 2182 2432 2067 
L 2432 755 
z
" transform="scale(0.015625)"/>
      <path id="LMRoman10-Regular-6c" d="M 1632 0 
L 1632 198 
C 1203 198 1133 198 1133 486 
L 1133 4442 
L 211 4371 
L 211 4173 
C 659 4173 710 4128 710 3814 
L 710 486 
C 710 198 640 198 211 198 
L 211 0 
L 922 19 
L 1632 0 
z
" transform="scale(0.015625)"/>
     </defs>
     <use xlink:href="#LMRoman10-Regular-43"/>
     <use xlink:href="#LMRoman10-Regular-75" transform="translate(72.199982 0)"/>
     <use xlink:href="#LMRoman10-Regular-72" transform="translate(127.799973 0)"/>
     <use xlink:href="#LMRoman10-Regular-69" transform="translate(166.999969 0)"/>
     <use xlink:href="#LMRoman10-Regular-65" transform="translate(194.799957 0)"/>
     <use xlink:href="#LMRoman10-Regular-2d" transform="translate(239.199951 0)"/>
     <use xlink:href="#LMRoman10-Regular-57" transform="translate(272.499939 0)"/>
     <use xlink:href="#LMRoman10-Regular-65" transform="translate(375.299927 0)"/>
     <use xlink:href="#LMRoman10-Regular-69" transform="translate(419.699921 0)"/>
     <use xlink:href="#LMRoman10-Regular-73" transform="translate(447.499908 0)"/>
     <use xlink:href="#LMRoman10-Regular-73" transform="translate(486.899902 0)"/>
     <use xlink:href="#LMRoman10-Regular-20" transform="translate(526.299896 0)"/>
     <use xlink:href="#LMRoman10-Regular-4d" transform="translate(559.599884 0)"/>
     <use xlink:href="#LMRoman10-Regular-6f" transform="translate(651.299866 0)"/>
     <use xlink:href="#LMRoman10-Regular-64" transform="translate(701.29985 0)"/>
     <use xlink:href="#LMRoman10-Regular-65" transform="translate(756.899841 0)"/>
     <use xlink:href="#LMRoman10-Regular-6c" transform="translate(801.299835 0)"/>
    </g>
    <!-- Glauber Heat Bath -->
    <g transform="translate(87.662159 76.752) scale(0.16 -0.16)">
     <defs>
      <path id="LMRoman10-Regular-47" d="M 4704 1549 
L 4704 1747 
L 3923 1728 
C 3667 1728 3123 1728 2893 1747 
L 2893 1549 
L 3098 1549 
C 3674 1549 3693 1478 3693 1242 
L 3693 832 
C 3693 115 2880 58 2701 58 
C 2285 58 1018 282 1018 2189 
C 1018 4102 2278 4314 2662 4314 
C 3347 4314 3930 3738 4058 2797 
C 4070 2707 4070 2688 4160 2688 
C 4262 2688 4262 2707 4262 2842 
L 4262 4358 
C 4262 4467 4262 4512 4192 4512 
C 4166 4512 4141 4512 4090 4435 
L 3770 3962 
C 3565 4166 3219 4512 2586 4512 
C 1395 4512 358 3501 358 2189 
C 358 877 1382 -141 2598 -141 
C 3066 -141 3578 26 3795 403 
C 3878 262 4134 6 4205 6 
C 4262 6 4262 58 4262 154 
L 4262 1267 
C 4262 1517 4288 1549 4704 1549 
z
" transform="scale(0.015625)"/>
      <path id="LMRoman10-Regular-62" d="M 3334 1382 
C 3334 2195 2707 2829 1978 2829 
C 1478 2829 1203 2528 1101 2413 
L 1101 4442 
L 179 4371 
L 179 4173 
C 627 4173 678 4128 678 3814 
L 678 0 
L 838 0 
L 1069 397 
C 1165 250 1434 -70 1907 -70 
C 2669 -70 3334 557 3334 1382 
z
M 2803 1389 
C 2803 1152 2790 768 2605 480 
C 2470 282 2227 70 1882 70 
C 1594 70 1363 224 1210 461 
C 1120 595 1120 614 1120 730 
L 1120 2048 
C 1120 2170 1120 2176 1190 2278 
C 1440 2637 1792 2688 1946 2688 
C 2234 2688 2464 2522 2618 2278 
C 2784 2016 2803 1651 2803 1389 
z
" transform="scale(0.015625)"/>
      <path id="LMRoman10-Regular-48" d="M 4582 0 
L 4582 198 
L 4429 198 
C 3936 198 3923 269 3923 499 
L 3923 3872 
C 3923 4102 3936 4173 4429 4173 
L 4582 4173 
L 4582 4371 
C 4358 4352 3885 4352 3642 4352 
C 3398 4352 2918 4352 2694 4371 
L 2694 4173 
L 2848 4173 
C 3341 4173 3354 4102 3354 3872 
L 3354 2374 
L 1440 2374 
L 1440 3872 
C 1440 4102 1453 4173 1946 4173 
L 2099 4173 
L 2099 4371 
C 1875 4352 1402 4352 1158 4352 
C 915 4352 435 4352 211 4371 
L 211 4173 
L 365 4173 
C 858 4173 870 4102 870 3872 
L 870 499 
C 870 269 858 198 365 198 
L 211 198 
L 211 0 
C 435 19 909 19 1152 19 
C 1395 19 1875 19 2099 0 
L 2099 198 
L 1946 198 
C 1453 198 1440 269 1440 499 
L 1440 2176 
L 3354 2176 
L 3354 499 
C 3354 269 3341 198 2848 198 
L 2694 198 
L 2694 0 
C 2918 19 3392 19 3635 19 
C 3878 19 4358 19 4582 0 
z
" transform="scale(0.015625)"/>
      <path id="LMRoman10-Regular-42" d="M 4166 1171 
C 4166 1728 3642 2208 2931 2285 
C 3552 2406 3994 2816 3994 3290 
C 3994 3846 3405 4371 2573 4371 
L 230 4371 
L 230 4173 
L 384 4173 
C 877 4173 890 4102 890 3872 
L 890 499 
C 890 269 877 198 384 198 
L 230 198 
L 230 0 
L 2739 0 
C 3590 0 4166 570 4166 1171 
z
M 3373 3290 
C 3373 2880 3059 2342 2349 2342 
L 1421 2342 
L 1421 3917 
C 1421 4128 1434 4173 1734 4173 
L 2528 4173 
C 3149 4173 3373 3629 3373 3290 
z
M 3526 1178 
C 3526 723 3194 198 2534 198 
L 1734 198 
C 1434 198 1421 243 1421 454 
L 1421 2202 
L 2624 2202 
C 3258 2202 3526 1606 3526 1178 
z
" transform="scale(0.015625)"/>
      <path id="LMRoman10-Regular-68" d="M 3424 0 
L 3424 198 
C 3091 198 2931 198 2925 390 
L 2925 1613 
C 2925 2163 2925 2362 2726 2592 
C 2637 2701 2426 2829 2054 2829 
C 1517 2829 1235 2445 1133 2214 
L 1126 2214 
L 1126 4442 
L 205 4371 
L 205 4173 
C 653 4173 704 4128 704 3814 
L 704 486 
C 704 198 634 198 205 198 
L 205 0 
L 928 19 
L 1645 0 
L 1645 198 
C 1216 198 1146 198 1146 486 
L 1146 1664 
C 1146 2330 1600 2688 2010 2688 
C 2413 2688 2483 2342 2483 1978 
L 2483 486 
C 2483 198 2413 198 1984 198 
L 1984 0 
L 2707 19 
L 3424 0 
z
" transform="scale(0.015625)"/>
     </defs>
     <use xlink:href="#LMRoman10-Regular-47"/>
     <use xlink:href="#LMRoman10-Regular-6c" transform="translate(78.499985 0)"/>
     <use xlink:href="#LMRoman10-Regular-61" transform="translate(106.299973 0)"/>
     <use xlink:href="#LMRoman10-Regular-75" transform="translate(156.299957 0)"/>
     <use xlink:href="#LMRoman10-Regular-62" transform="translate(211.899948 0)"/>
     <use xlink:href="#LMRoman10-Regular-65" transform="translate(267.499939 0)"/>
     <use xlink:href="#LMRoman10-Regular-72" transform="translate(311.899933 0)"/>
     <use xlink:href="#LMRoman10-Regular-20" transform="translate(351.09993 0)"/>
     <use xlink:href="#LMRoman10-Regular-48" transform="translate(384.399918 0)"/>
     <use xlink:href="#LMRoman10-Regular-65" transform="translate(459.399902 0)"/>
     <use xlink:href="#LMRoman10-Regular-61" transform="translate(503.799896 0)"/>
     <use xlink:href="#LMRoman10-Regular-74" transform="translate(553.799881 0)"/>
     <use xlink:href="#LMRoman10-Regular-20" transform="translate(592.699875 0)"/>
     <use xlink:href="#LMRoman10-Regular-42" transform="translate(625.999863 0)"/>
     <use xlink:href="#LMRoman10-Regular-61" transform="translate(696.79985 0)"/>
     <use xlink:href="#LMRoman10-Regular-74" transform="translate(746.799835 0)"/>
     <use xlink:href="#LMRoman10-Regular-68" transform="translate(785.699829 0)"/>
    </g>
   </g>
   <g id="legend_1">
    <g id="line2d_27">
     <path d="M 78.17125 147.06 
L 90.17125 147.06 
L 102.17125 147.06 
" style="fill: none; stroke: #ff0000; stroke-width: 4; stroke-linecap: square"/>
    </g>
    <g id="text_16">
     <!-- Theoretical Magnetization -->
     <g transform="translate(111.77125 151.26) scale(0.12 -0.12)">
      <defs>
       <path id="LMRoman10-Regular-63" d="M 2656 762 
C 2656 826 2592 826 2573 826 
C 2515 826 2502 800 2490 762 
C 2304 166 1888 90 1651 90 
C 1312 90 749 365 749 1395 
C 749 2438 1274 2707 1613 2707 
C 1670 2707 2074 2701 2298 2470 
C 2035 2451 1997 2259 1997 2176 
C 1997 2010 2112 1882 2291 1882 
C 2458 1882 2586 1990 2586 2182 
C 2586 2618 2099 2867 1606 2867 
C 806 2867 218 2176 218 1382 
C 218 563 851 -70 1594 -70 
C 2451 -70 2656 698 2656 762 
z
" transform="scale(0.015625)"/>
      </defs>
      <use xlink:href="#LMRoman10-Regular-54"/>
      <use xlink:href="#LMRoman10-Regular-68" transform="translate(72.199982 0)"/>
      <use xlink:href="#LMRoman10-Regular-65" transform="translate(127.799973 0)"/>
      <use xlink:href="#LMRoman10-Regular-6f" transform="translate(172.199966 0)"/>
      <use xlink:href="#LMRoman10-Regular-72" transform="translate(222.199951 0)"/>
      <use xlink:href="#LMRoman10-Regular-65" transform="translate(261.399948 0)"/>
      <use xlink:href="#LMRoman10-Regular-74" transform="translate(305.799942 0)"/>
      <use xlink:href="#LMRoman10-Regular-69" transform="translate(344.699936 0)"/>
      <use xlink:href="#LMRoman10-Regular-63" transform="translate(372.499924 0)"/>
      <use xlink:href="#LMRoman10-Regular-61" transform="translate(416.899918 0)"/>
      <use xlink:href="#LMRoman10-Regular-6c" transform="translate(466.899902 0)"/>
      <use xlink:href="#LMRoman10-Regular-20" transform="translate(494.69989 0)"/>
      <use xlink:href="#LMRoman10-Regular-4d" transform="translate(527.999878 0)"/>
      <use xlink:href="#LMRoman10-Regular-61" transform="translate(619.69986 0)"/>
      <use xlink:href="#LMRoman10-Regular-67" transform="translate(669.699844 0)"/>
      <use xlink:href="#LMRoman10-Regular-6e" transform="translate(719.699829 0)"/>
      <use xlink:href="#LMRoman10-Regular-65" transform="translate(775.29982 0)"/>
      <use xlink:href="#LMRoman10-Regular-74" transform="translate(819.699814 0)"/>
      <use xlink:href="#LMRoman10-Regular-69" transform="translate(858.599808 0)"/>
      <use xlink:href="#LMRoman10-Regular-7a" transform="translate(886.399796 0)"/>
      <use xlink:href="#LMRoman10-Regular-61" transform="translate(930.799789 0)"/>
      <use xlink:href="#LMRoman10-Regular-74" transform="translate(980.799774 0)"/>
      <use xlink:href="#LMRoman10-Regular-69" transform="translate(1019.699768 0)"/>
      <use xlink:href="#LMRoman10-Regular-6f" transform="translate(1047.499756 0)"/>
      <use xlink:href="#LMRoman10-Regular-6e" transform="translate(1097.499741 0)"/>
     </g>
    </g>
    <g id="patch_5">
     <path d="M 78.17125 168.13125 
L 102.17125 168.13125 
L 102.17125 159.73125 
L 78.17125 159.73125 
z
" style="fill: #ff0000; fill-opacity: 0.2; stroke: #ff0000; stroke-opacity: 0.2; stroke-linejoin: miter"/>
    </g>
    <g id="text_17">
     <!-- Theoretical Variance -->
     <g transform="translate(111.77125 168.13125) scale(0.12 -0.12)">
      <defs>
       <path id="LMRoman10-Regular-56" d="M 4672 4173 
L 4672 4371 
C 4474 4358 4218 4352 4051 4352 
L 3322 4371 
L 3322 4173 
C 3654 4166 3789 4000 3789 3853 
C 3789 3802 3770 3763 3757 3725 
L 2586 640 
L 1363 3872 
C 1325 3962 1325 3987 1325 3987 
C 1325 4173 1690 4173 1850 4173 
L 1850 4371 
C 1619 4352 1178 4352 934 4352 
L 122 4371 
L 122 4173 
C 538 4173 659 4173 749 3930 
L 2234 0 
C 2278 -122 2310 -141 2394 -141 
C 2502 -141 2515 -109 2547 -19 
L 3974 3744 
C 4064 3981 4237 4166 4672 4173 
z
" transform="scale(0.015625)"/>
      </defs>
      <use xlink:href="#LMRoman10-Regular-54"/>
      <use xlink:href="#LMRoman10-Regular-68" transform="translate(72.199982 0)"/>
      <use xlink:href="#LMRoman10-Regular-65" transform="translate(127.799973 0)"/>
      <use xlink:href="#LMRoman10-Regular-6f" transform="translate(172.199966 0)"/>
      <use xlink:href="#LMRoman10-Regular-72" transform="translate(222.199951 0)"/>
      <use xlink:href="#LMRoman10-Regular-65" transform="translate(261.399948 0)"/>
      <use xlink:href="#LMRoman10-Regular-74" transform="translate(305.799942 0)"/>
      <use xlink:href="#LMRoman10-Regular-69" transform="translate(344.699936 0)"/>
      <use xlink:href="#LMRoman10-Regular-63" transform="translate(372.499924 0)"/>
      <use xlink:href="#LMRoman10-Regular-61" transform="translate(416.899918 0)"/>
      <use xlink:href="#LMRoman10-Regular-6c" transform="translate(466.899902 0)"/>
      <use xlink:href="#LMRoman10-Regular-20" transform="translate(494.69989 0)"/>
      <use xlink:href="#LMRoman10-Regular-56" transform="translate(527.999878 0)"/>
      <use xlink:href="#LMRoman10-Regular-61" transform="translate(602.999863 0)"/>
      <use xlink:href="#LMRoman10-Regular-72" transform="translate(652.999847 0)"/>
      <use xlink:href="#LMRoman10-Regular-69" transform="translate(692.199844 0)"/>
      <use xlink:href="#LMRoman10-Regular-61" transform="translate(719.999832 0)"/>
      <use xlink:href="#LMRoman10-Regular-6e" transform="translate(769.999817 0)"/>
      <use xlink:href="#LMRoman10-Regular-63" transform="translate(825.599808 0)"/>
      <use xlink:href="#LMRoman10-Regular-65" transform="translate(869.999802 0)"/>
     </g>
    </g>
    <g id="line2d_28">
     <g>
      <use xlink:href="#m93854c36e9" x="90.17125" y="180.72" style="fill: #0000ff; stroke: #0000ff"/>
     </g>
    </g>
    <g id="text_18">
     <!-- CFTP Magnetization -->
     <g transform="translate(111.77125 184.92) scale(0.12 -0.12)">
      <defs>
       <path id="LMRoman10-Regular-46" d="M 3904 2912 
L 3725 4352 
L 211 4352 
L 211 4154 
L 365 4154 
C 858 4154 870 4083 870 3853 
L 870 499 
C 870 269 858 198 365 198 
L 211 198 
L 211 0 
C 435 19 934 19 1184 19 
C 1446 19 2029 19 2259 0 
L 2259 198 
L 2048 198 
C 1440 198 1440 282 1440 506 
L 1440 2080 
L 1990 2080 
C 2605 2080 2669 1875 2669 1331 
L 2829 1331 
L 2829 3027 
L 2669 3027 
C 2669 2490 2605 2278 1990 2278 
L 1440 2278 
L 1440 3898 
C 1440 4109 1453 4154 1754 4154 
L 2522 4154 
C 3482 4154 3642 3795 3744 2912 
L 3904 2912 
z
" transform="scale(0.015625)"/>
       <path id="LMRoman10-Regular-50" d="M 3994 3181 
C 3994 3808 3360 4371 2483 4371 
L 224 4371 
L 224 4173 
L 378 4173 
C 870 4173 883 4102 883 3872 
L 883 499 
C 883 269 870 198 378 198 
L 224 198 
L 224 0 
C 448 19 922 19 1165 19 
C 1408 19 1888 19 2112 0 
L 2112 198 
L 1958 198 
C 1466 198 1453 269 1453 499 
L 1453 2022 
L 2534 2022 
C 3302 2022 3994 2541 3994 3181 
z
M 3334 3181 
C 3334 2880 3334 2189 2317 2189 
L 1434 2189 
L 1434 3917 
C 1434 4128 1446 4173 1747 4173 
L 2317 4173 
C 3334 4173 3334 3494 3334 3181 
z
" transform="scale(0.015625)"/>
      </defs>
      <use xlink:href="#LMRoman10-Regular-43"/>
      <use xlink:href="#LMRoman10-Regular-46" transform="translate(72.199982 0)"/>
      <use xlink:href="#LMRoman10-Regular-54" transform="translate(137.499969 0)"/>
      <use xlink:href="#LMRoman10-Regular-50" transform="translate(209.699951 0)"/>
      <use xlink:href="#LMRoman10-Regular-20" transform="translate(277.799942 0)"/>
      <use xlink:href="#LMRoman10-Regular-4d" transform="translate(311.09993 0)"/>
      <use xlink:href="#LMRoman10-Regular-61" transform="translate(402.799911 0)"/>
      <use xlink:href="#LMRoman10-Regular-67" transform="translate(452.799896 0)"/>
      <use xlink:href="#LMRoman10-Regular-6e" transform="translate(502.799881 0)"/>
      <use xlink:href="#LMRoman10-Regular-65" transform="translate(558.399872 0)"/>
      <use xlink:href="#LMRoman10-Regular-74" transform="translate(602.799866 0)"/>
      <use xlink:href="#LMRoman10-Regular-69" transform="translate(641.69986 0)"/>
      <use xlink:href="#LMRoman10-Regular-7a" transform="translate(669.499847 0)"/>
      <use xlink:href="#LMRoman10-Regular-61" transform="translate(713.899841 0)"/>
      <use xlink:href="#LMRoman10-Regular-74" transform="translate(763.899826 0)"/>
      <use xlink:href="#LMRoman10-Regular-69" transform="translate(802.79982 0)"/>
      <use xlink:href="#LMRoman10-Regular-6f" transform="translate(830.599808 0)"/>
      <use xlink:href="#LMRoman10-Regular-6e" transform="translate(880.599792 0)"/>
     </g>
    </g>
    <g id="line2d_29">
     <path d="M 78.17125 197.65125 
L 102.17125 197.65125 
" style="fill: none; stroke-dasharray: 14.8,6.4; stroke-dashoffset: 0; stroke: #000000; stroke-width: 4"/>
    </g>
    <g id="text_19">
     <!-- Critical Inverse Temperature -->
     <g transform="translate(111.77125 201.85125) scale(0.12 -0.12)">
      <use xlink:href="#LMRoman10-Regular-43"/>
      <use xlink:href="#LMRoman10-Regular-72" transform="translate(72.199982 0)"/>
      <use xlink:href="#LMRoman10-Regular-69" transform="translate(111.399979 0)"/>
      <use xlink:href="#LMRoman10-Regular-74" transform="translate(139.199966 0)"/>
      <use xlink:href="#LMRoman10-Regular-69" transform="translate(178.09996 0)"/>
      <use xlink:href="#LMRoman10-Regular-63" transform="translate(205.899948 0)"/>
      <use xlink:href="#LMRoman10-Regular-61" transform="translate(250.299942 0)"/>
      <use xlink:href="#LMRoman10-Regular-6c" transform="translate(300.299927 0)"/>
      <use xlink:href="#LMRoman10-Regular-20" transform="translate(328.099915 0)"/>
      <use xlink:href="#LMRoman10-Regular-49" transform="translate(361.399902 0)"/>
      <use xlink:href="#LMRoman10-Regular-6e" transform="translate(397.499893 0)"/>
      <use xlink:href="#LMRoman10-Regular-76" transform="translate(453.099884 0)"/>
      <use xlink:href="#LMRoman10-Regular-65" transform="translate(505.899872 0)"/>
      <use xlink:href="#LMRoman10-Regular-72" transform="translate(550.299866 0)"/>
      <use xlink:href="#LMRoman10-Regular-73" transform="translate(589.499863 0)"/>
      <use xlink:href="#LMRoman10-Regular-65" transform="translate(628.899857 0)"/>
      <use xlink:href="#LMRoman10-Regular-20" transform="translate(673.29985 0)"/>
      <use xlink:href="#LMRoman10-Regular-54" transform="translate(706.599838 0)"/>
      <use xlink:href="#LMRoman10-Regular-65" transform="translate(778.79982 0)"/>
      <use xlink:href="#LMRoman10-Regular-6d" transform="translate(823.199814 0)"/>
      <use xlink:href="#LMRoman10-Regular-70" transform="translate(906.499802 0)"/>
      <use xlink:href="#LMRoman10-Regular-65" transform="translate(962.099792 0)"/>
      <use xlink:href="#LMRoman10-Regular-72" transform="translate(1006.499786 0)"/>
      <use xlink:href="#LMRoman10-Regular-61" transform="translate(1045.699783 0)"/>
      <use xlink:href="#LMRoman10-Regular-74" transform="translate(1095.699768 0)"/>
      <use xlink:href="#LMRoman10-Regular-75" transform="translate(1134.599762 0)"/>
      <use xlink:href="#LMRoman10-Regular-72" transform="translate(1190.199753 0)"/>
      <use xlink:href="#LMRoman10-Regular-65" transform="translate(1229.39975 0)"/>
     </g>
    </g>
   </g>
  </g>
 </g>
 <defs>
  <clipPath id="pbf005871fb">
   <rect x="67.37125" y="7.2" width="446.4" height="332.64"/>
  </clipPath>
 </defs>
</svg>
