<?xml version="1.0" encoding="utf-8" standalone="no"?>
<!DOCTYPE svg PUBLIC "-//W3C//DTD SVG 1.1//EN"
  "http://www.w3.org/Graphics/SVG/1.1/DTD/svg11.dtd">
<svg xmlns:xlink="http://www.w3.org/1999/xlink" width="538.57125pt" height="399.09875pt" viewBox="0 0 538.57125 399.09875" xmlns="http://www.w3.org/2000/svg" version="1.1">
 <metadata>
  <rdf:RDF xmlns:dc="http://purl.org/dc/elements/1.1/" xmlns:cc="http://creativecommons.org/ns#" xmlns:rdf="http://www.w3.org/1999/02/22-rdf-syntax-ns#">
   <cc:Work>
    <dc:type rdf:resource="http://purl.org/dc/dcmitype/StillImage"/>
    <dc:date>2026-04-18T13:22:34.591659</dc:date>
    <dc:format>image/svg+xml</dc:format>
    <dc:creator>
     <cc:Agent>
      <dc:title>Matplotlib v3.10.8, https://matplotlib.org/</dc:title>
     </cc:Agent>
    </dc:creator>
   </cc:Work>
  </rdf:RDF>
 </metadata>
 <defs>
  <style type="text/css">*{stroke-linejoin: round; stroke-linecap: butt}</style>
 </defs>
 <g id="figure_1">
  <g id="patch_1">
   <path d="M 0 399.09875 
L 538.57125 399.09875 
L 538.57125 0 
L 0 0 
z
" style="fill: #ffffff"/>
  </g>
  <g id="axes_1">
   <g id="patch_2">
    <path d="M 84.97125 339.84 
L 531.37125 339.84 
L 531.37125 7.2 
L 84.97125 7.2 
z
" style="fill: #ffffff"/>
   </g>
   <g id="matplotlib.axis_1">
    <g id="xtick_1">
     <g id="line2d_1">
      <path d="M 105.262159 339.84 
L 105.262159 7.2 
" clip-path="url(#p5dbb845e86)" style="fill: none; stroke: #b0b0b0; stroke-width: 0.8; stroke-linecap: square"/>
     </g>
     <g id="line2d_2">
      <defs>
       <path id="m8f48804f45" d="M 0 0 
L 0 5 
" style="stroke: #000000; stroke-width: 0.8"/>
      </defs>
      <g>
       <use xlink:href="#m8f48804f45" x="105.262159" y="339.84" style="stroke: #000000; stroke-width: 0.8"/>
      </g>
     </g>
     <g id="text_1">
      <!-- 0.0 -->
      <g transform="translate(91.204503 363.609375) scale(0.22 -0.22)">
       <defs>
        <path id="LMRoman10-Regular-30" d="M 2944 2048 
C 2944 2560 2912 3072 2688 3546 
C 2394 4160 1869 4262 1600 4262 
C 1216 4262 749 4096 486 3501 
C 282 3059 250 2560 250 2048 
C 250 1568 275 992 538 506 
C 813 -13 1280 -141 1594 -141 
C 1939 -141 2426 -6 2707 602 
C 2912 1043 2944 1542 2944 2048 
z
M 2413 2125 
C 2413 1645 2413 1210 2342 800 
C 2246 192 1882 0 1594 0 
C 1344 0 966 160 851 774 
C 781 1158 781 1747 781 2125 
C 781 2534 781 2957 832 3302 
C 954 4064 1434 4122 1594 4122 
C 1805 4122 2227 4006 2349 3373 
C 2413 3014 2413 2528 2413 2125 
z
" transform="scale(0.015625)"/>
        <path id="LMRoman10-Regular-2e" d="M 1229 339 
C 1229 525 1075 678 890 678 
C 704 678 550 525 550 339 
C 550 154 704 0 890 0 
C 1075 0 1229 154 1229 339 
z
" transform="scale(0.015625)"/>
       </defs>
       <use xlink:href="#LMRoman10-Regular-30"/>
       <use xlink:href="#LMRoman10-Regular-2e" transform="translate(49.999985 0)"/>
       <use xlink:href="#LMRoman10-Regular-30" transform="translate(77.799973 0)"/>
      </g>
     </g>
    </g>
    <g id="xtick_2">
     <g id="line2d_3">
      <path d="M 216.712833 339.84 
L 216.712833 7.2 
" clip-path="url(#p5dbb845e86)" style="fill: none; stroke: #b0b0b0; stroke-width: 0.8; stroke-linecap: square"/>
     </g>
     <g id="line2d_4">
      <g>
       <use xlink:href="#m8f48804f45" x="216.712833" y="339.84" style="stroke: #000000; stroke-width: 0.8"/>
      </g>
     </g>
     <g id="text_2">
      <!-- 0.1 -->
      <g transform="translate(202.655177 363.609375) scale(0.22 -0.22)">
       <defs>
        <path id="LMRoman10-Regular-31" d="M 2682 0 
L 2682 198 
L 2477 198 
C 1901 198 1882 269 1882 506 
L 1882 4096 
C 1882 4250 1882 4262 1734 4262 
C 1338 3853 774 3853 570 3853 
L 570 3654 
C 698 3654 1075 3654 1408 3821 
L 1408 506 
C 1408 275 1389 198 813 198 
L 608 198 
L 608 0 
C 832 19 1389 19 1645 19 
C 1901 19 2458 19 2682 0 
z
" transform="scale(0.015625)"/>
       </defs>
       <use xlink:href="#LMRoman10-Regular-30"/>
       <use xlink:href="#LMRoman10-Regular-2e" transform="translate(49.999985 0)"/>
       <use xlink:href="#LMRoman10-Regular-31" transform="translate(77.799973 0)"/>
      </g>
     </g>
    </g>
    <g id="xtick_3">
     <g id="line2d_5">
      <path d="M 328.163507 339.84 
L 328.163507 7.2 
" clip-path="url(#p5dbb845e86)" style="fill: none; stroke: #b0b0b0; stroke-width: 0.8; stroke-linecap: square"/>
     </g>
     <g id="line2d_6">
      <g>
       <use xlink:href="#m8f48804f45" x="328.163507" y="339.84" style="stroke: #000000; stroke-width: 0.8"/>
      </g>
     </g>
     <g id="text_3">
      <!-- 0.2 -->
      <g transform="translate(314.105851 363.609375) scale(0.22 -0.22)">
       <defs>
        <path id="LMRoman10-Regular-32" d="M 2874 1114 
L 2714 1114 
C 2682 922 2637 640 2573 544 
C 2528 493 2106 493 1965 493 
L 813 493 
L 1491 1152 
C 2490 2035 2874 2381 2874 3021 
C 2874 3750 2298 4262 1517 4262 
C 794 4262 320 3674 320 3104 
C 320 2746 640 2746 659 2746 
C 768 2746 992 2822 992 3085 
C 992 3251 877 3418 653 3418 
C 602 3418 589 3418 570 3411 
C 717 3827 1062 4064 1434 4064 
C 2016 4064 2291 3546 2291 3021 
C 2291 2509 1971 2003 1619 1606 
L 390 237 
C 320 166 320 154 320 0 
L 2694 0 
L 2874 1114 
z
" transform="scale(0.015625)"/>
       </defs>
       <use xlink:href="#LMRoman10-Regular-30"/>
       <use xlink:href="#LMRoman10-Regular-2e" transform="translate(49.999985 0)"/>
       <use xlink:href="#LMRoman10-Regular-32" transform="translate(77.799973 0)"/>
      </g>
     </g>
    </g>
    <g id="xtick_4">
     <g id="line2d_7">
      <path d="M 439.614181 339.84 
L 439.614181 7.2 
" clip-path="url(#p5dbb845e86)" style="fill: none; stroke: #b0b0b0; stroke-width: 0.8; stroke-linecap: square"/>
     </g>
     <g id="line2d_8">
      <g>
       <use xlink:href="#m8f48804f45" x="439.614181" y="339.84" style="stroke: #000000; stroke-width: 0.8"/>
      </g>
     </g>
     <g id="text_4">
      <!-- 0.3 -->
      <g transform="translate(425.556525 363.609375) scale(0.22 -0.22)">
       <defs>
        <path id="LMRoman10-Regular-33" d="M 2925 1094 
C 2925 1619 2522 2118 1856 2253 
C 2381 2426 2752 2874 2752 3379 
C 2752 3904 2189 4262 1574 4262 
C 928 4262 442 3878 442 3392 
C 442 3181 582 3059 768 3059 
C 966 3059 1094 3200 1094 3386 
C 1094 3706 794 3706 698 3706 
C 896 4019 1318 4102 1549 4102 
C 1811 4102 2163 3962 2163 3386 
C 2163 3309 2150 2938 1984 2656 
C 1792 2349 1574 2330 1414 2323 
C 1363 2317 1210 2304 1165 2304 
C 1114 2298 1069 2291 1069 2227 
C 1069 2157 1114 2157 1222 2157 
L 1504 2157 
C 2029 2157 2266 1722 2266 1094 
C 2266 224 1824 38 1542 38 
C 1267 38 787 147 563 525 
C 787 493 986 634 986 877 
C 986 1107 813 1235 627 1235 
C 474 1235 269 1146 269 864 
C 269 282 864 -141 1562 -141 
C 2342 -141 2925 442 2925 1094 
z
" transform="scale(0.015625)"/>
       </defs>
       <use xlink:href="#LMRoman10-Regular-30"/>
       <use xlink:href="#LMRoman10-Regular-2e" transform="translate(49.999985 0)"/>
       <use xlink:href="#LMRoman10-Regular-33" transform="translate(77.799973 0)"/>
      </g>
     </g>
    </g>
    <g id="text_5">
     <!-- Inverse Temperature $\beta$ -->
     <g transform="translate(197.84125 387.49875) scale(0.22 -0.22)">
      <defs>
       <path id="LMRoman10-Regular-49" d="M 2131 0 
L 2131 198 
L 1965 198 
C 1459 198 1440 269 1440 499 
L 1440 3872 
C 1440 4102 1459 4173 1965 4173 
L 2131 4173 
L 2131 4371 
C 1907 4352 1402 4352 1158 4352 
C 909 4352 403 4352 179 4371 
L 179 4173 
L 346 4173 
C 851 4173 870 4102 870 3872 
L 870 499 
C 870 269 851 198 346 198 
L 179 198 
L 179 0 
C 403 19 909 19 1152 19 
C 1402 19 1907 19 2131 0 
z
" transform="scale(0.015625)"/>
       <path id="LMRoman10-Regular-6e" d="M 3424 0 
L 3424 198 
C 3091 198 2931 198 2925 390 
L 2925 1613 
C 2925 2163 2925 2362 2726 2592 
C 2637 2701 2426 2829 2054 2829 
C 1587 2829 1286 2554 1107 2157 
L 1107 2829 
L 205 2758 
L 205 2560 
C 653 2560 704 2515 704 2202 
L 704 486 
C 704 198 634 198 205 198 
L 205 0 
L 928 19 
L 1645 0 
L 1645 198 
C 1216 198 1146 198 1146 486 
L 1146 1664 
C 1146 2330 1600 2688 2010 2688 
C 2413 2688 2483 2342 2483 1978 
L 2483 486 
C 2483 198 2413 198 1984 198 
L 1984 0 
L 2707 19 
L 3424 0 
z
" transform="scale(0.015625)"/>
       <path id="LMRoman10-Regular-76" d="M 3251 2560 
L 3251 2758 
C 3104 2746 2918 2739 2771 2739 
L 2214 2758 
L 2214 2560 
C 2451 2554 2522 2406 2522 2285 
C 2522 2227 2509 2202 2483 2131 
L 1830 499 
L 1114 2285 
C 1075 2368 1075 2394 1075 2394 
C 1075 2560 1325 2560 1440 2560 
L 1440 2758 
L 742 2739 
C 570 2739 314 2746 122 2758 
L 122 2560 
C 525 2560 550 2522 634 2323 
L 1555 51 
C 1594 -38 1606 -70 1690 -70 
C 1773 -70 1798 -13 1824 51 
L 2662 2131 
C 2720 2278 2829 2554 3251 2560 
z
" transform="scale(0.015625)"/>
       <path id="LMRoman10-Regular-65" d="M 2656 762 
C 2656 826 2605 838 2573 838 
C 2515 838 2502 800 2490 749 
C 2266 90 1690 90 1626 90 
C 1306 90 1050 282 902 518 
C 710 826 710 1248 710 1478 
L 2496 1478 
C 2637 1478 2656 1478 2656 1613 
C 2656 2246 2310 2867 1510 2867 
C 768 2867 179 2208 179 1408 
C 179 550 851 -70 1587 -70 
C 2368 -70 2656 640 2656 762 
z
M 2234 1613 
L 717 1613 
C 755 2566 1293 2726 1510 2726 
C 2170 2726 2234 1862 2234 1613 
z
" transform="scale(0.015625)"/>
       <path id="LMRoman10-Regular-72" d="M 2330 2438 
C 2330 2643 2131 2829 1856 2829 
C 1389 2829 1158 2400 1069 2125 
L 1069 2829 
L 179 2758 
L 179 2560 
C 627 2560 678 2515 678 2202 
L 678 486 
C 678 198 608 198 179 198 
L 179 0 
L 909 19 
C 1165 19 1466 19 1722 0 
L 1722 198 
L 1587 198 
C 1114 198 1101 269 1101 499 
L 1101 1485 
C 1101 2118 1370 2688 1856 2688 
C 1901 2688 1914 2688 1926 2682 
C 1907 2675 1779 2598 1779 2432 
C 1779 2253 1914 2157 2054 2157 
C 2170 2157 2330 2234 2330 2438 
z
" transform="scale(0.015625)"/>
       <path id="LMRoman10-Regular-73" d="M 2304 819 
C 2304 1158 2112 1350 2035 1427 
C 1824 1632 1574 1683 1306 1734 
C 947 1805 518 1888 518 2259 
C 518 2483 685 2746 1235 2746 
C 1939 2746 1971 2170 1984 1971 
C 1990 1914 2061 1914 2061 1914 
C 2144 1914 2144 1946 2144 2067 
L 2144 2714 
C 2144 2822 2144 2867 2074 2867 
C 2042 2867 2029 2867 1946 2790 
C 1926 2765 1862 2707 1837 2688 
C 1594 2867 1331 2867 1235 2867 
C 454 2867 211 2438 211 2080 
C 211 1856 314 1677 486 1536 
C 691 1370 870 1331 1331 1242 
C 1472 1216 1997 1114 1997 653 
C 1997 326 1773 70 1274 70 
C 736 70 506 435 384 979 
C 365 1062 358 1088 294 1088 
C 211 1088 211 1043 211 928 
L 211 83 
C 211 -26 211 -70 282 -70 
C 314 -70 320 -64 442 58 
C 454 70 454 83 570 205 
C 851 -64 1139 -70 1274 -70 
C 2010 -70 2304 358 2304 819 
z
" transform="scale(0.015625)"/>
       <path id="LMRoman10-Regular-20" transform="scale(0.015625)"/>
       <path id="LMRoman10-Regular-54" d="M 4384 2893 
L 4262 4333 
L 352 4333 
L 230 2893 
L 390 2893 
C 480 3923 576 4134 1542 4134 
C 1658 4134 1824 4134 1888 4122 
C 2022 4096 2022 4026 2022 3878 
L 2022 506 
C 2022 288 2022 198 1350 198 
L 1094 198 
L 1094 0 
C 1357 19 2010 19 2304 19 
C 2598 19 3258 19 3520 0 
L 3520 198 
L 3264 198 
C 2592 198 2592 288 2592 506 
L 2592 3878 
C 2592 4006 2592 4096 2707 4122 
C 2778 4134 2950 4134 3072 4134 
C 4038 4134 4134 3923 4224 2893 
L 4384 2893 
z
" transform="scale(0.015625)"/>
       <path id="LMRoman10-Regular-6d" d="M 5203 0 
L 5203 198 
C 4870 198 4710 198 4704 390 
L 4704 1613 
C 4704 2163 4704 2362 4506 2592 
C 4416 2701 4205 2829 3834 2829 
C 3296 2829 3014 2445 2906 2202 
C 2816 2758 2342 2829 2054 2829 
C 1587 2829 1286 2554 1107 2157 
L 1107 2829 
L 205 2758 
L 205 2560 
C 653 2560 704 2515 704 2202 
L 704 486 
C 704 198 634 198 205 198 
L 205 0 
L 928 19 
L 1645 0 
L 1645 198 
C 1216 198 1146 198 1146 486 
L 1146 1664 
C 1146 2330 1600 2688 2010 2688 
C 2413 2688 2483 2342 2483 1978 
L 2483 486 
C 2483 198 2413 198 1984 198 
L 1984 0 
L 2707 19 
L 3424 0 
L 3424 198 
C 2995 198 2925 198 2925 486 
L 2925 1664 
C 2925 2330 3379 2688 3789 2688 
C 4192 2688 4262 2342 4262 1978 
L 4262 486 
C 4262 198 4192 198 3763 198 
L 3763 0 
L 4486 19 
L 5203 0 
z
" transform="scale(0.015625)"/>
       <path id="LMRoman10-Regular-70" d="M 3334 1382 
C 3334 2195 2714 2829 1997 2829 
C 1498 2829 1229 2547 1101 2406 
L 1101 2829 
L 179 2758 
L 179 2560 
C 634 2560 678 2522 678 2240 
L 678 -755 
C 678 -1043 608 -1043 179 -1043 
L 179 -1242 
L 896 -1222 
L 1619 -1242 
L 1619 -1043 
C 1190 -1043 1120 -1043 1120 -755 
L 1120 320 
L 1120 378 
C 1152 275 1421 -70 1907 -70 
C 2669 -70 3334 557 3334 1382 
z
M 2803 1382 
C 2803 608 2355 70 1882 70 
C 1626 70 1382 198 1210 461 
C 1120 595 1120 602 1120 730 
L 1120 2157 
C 1306 2483 1619 2669 1946 2669 
C 2413 2669 2803 2106 2803 1382 
z
" transform="scale(0.015625)"/>
       <path id="LMRoman10-Regular-61" d="M 3155 570 
L 3155 928 
L 2995 928 
L 2995 570 
C 2995 198 2835 160 2765 160 
C 2554 160 2528 448 2528 480 
L 2528 1760 
C 2528 2029 2528 2278 2298 2515 
C 2048 2765 1728 2867 1421 2867 
C 896 2867 454 2566 454 2144 
C 454 1952 582 1843 749 1843 
C 928 1843 1043 1971 1043 2138 
C 1043 2214 1011 2426 717 2432 
C 890 2656 1203 2726 1408 2726 
C 1722 2726 2086 2477 2086 1907 
L 2086 1670 
C 1760 1651 1312 1632 909 1440 
C 429 1222 269 890 269 608 
C 269 90 890 -70 1293 -70 
C 1715 -70 2010 186 2131 486 
C 2157 230 2330 -38 2630 -38 
C 2765 -38 3155 51 3155 570 
z
M 2086 896 
C 2086 288 1626 70 1338 70 
C 1024 70 762 294 762 614 
C 762 966 1030 1498 2086 1536 
L 2086 896 
z
" transform="scale(0.015625)"/>
       <path id="LMRoman10-Regular-74" d="M 2125 794 
L 2125 1158 
L 1965 1158 
L 1965 806 
C 1965 333 1773 90 1536 90 
C 1107 90 1107 672 1107 781 
L 1107 2560 
L 2022 2560 
L 2022 2758 
L 1107 2758 
L 1107 3936 
L 947 3936 
C 941 3411 749 2726 122 2701 
L 122 2560 
L 666 2560 
L 666 794 
C 666 6 1261 -70 1491 -70 
C 1946 -70 2125 384 2125 794 
z
" transform="scale(0.015625)"/>
       <path id="LMRoman10-Regular-75" d="M 3424 0 
L 3424 198 
C 2976 198 2925 243 2925 557 
L 2925 2829 
L 1984 2758 
L 1984 2560 
C 2432 2560 2483 2515 2483 2202 
L 2483 1062 
C 2483 506 2176 70 1709 70 
C 1171 70 1146 371 1146 704 
L 1146 2829 
L 205 2758 
L 205 2560 
C 704 2560 704 2541 704 1971 
L 704 1011 
C 704 512 704 -70 1677 -70 
C 2035 -70 2317 109 2502 506 
L 2502 -70 
L 3424 0 
z
" transform="scale(0.015625)"/>
       <path id="Cmmi10-af" d="M 172 -1241 
Q 153 -1241 137 -1219 
Q 122 -1197 122 -1178 
L 1106 2778 
Q 1191 3097 1353 3397 
Q 1516 3697 1761 3955 
Q 2006 4213 2300 4363 
Q 2594 4513 2925 4513 
Q 3163 4513 3355 4408 
Q 3547 4303 3658 4114 
Q 3769 3925 3769 3688 
Q 3769 3459 3681 3251 
Q 3594 3044 3437 2864 
Q 3281 2684 3103 2572 
Q 3206 2506 3287 2404 
Q 3369 2303 3419 2192 
Q 3469 2081 3497 1945 
Q 3525 1809 3525 1691 
Q 3525 1363 3384 1044 
Q 3244 725 3001 465 
Q 2759 206 2446 54 
Q 2134 -97 1806 -97 
Q 1447 -97 1159 100 
Q 872 297 763 634 
L 300 -1203 
Q 300 -1241 250 -1241 
L 172 -1241 
z
M 1819 78 
Q 2106 78 2339 267 
Q 2572 456 2723 742 
Q 2875 1028 2954 1348 
Q 3034 1669 3034 1931 
Q 3034 2256 2847 2444 
Q 2628 2363 2419 2363 
Q 1913 2363 1913 2534 
Q 1913 2759 2491 2759 
Q 2697 2759 2869 2694 
Q 3006 2800 3118 3006 
Q 3231 3213 3289 3438 
Q 3347 3663 3347 3859 
Q 3347 4069 3236 4208 
Q 3125 4347 2913 4347 
Q 2522 4347 2186 4106 
Q 1850 3866 1619 3498 
Q 1388 3131 1288 2741 
L 934 1325 
Q 900 1178 891 997 
Q 891 597 1153 337 
Q 1416 78 1819 78 
z
M 2106 2553 
Q 2203 2528 2425 2528 
Q 2534 2528 2644 2566 
Q 2638 2572 2619 2572 
Q 2550 2591 2472 2591 
Q 2181 2591 2106 2553 
z
" transform="scale(0.015625)"/>
      </defs>
      <use xlink:href="#LMRoman10-Regular-49" transform="translate(0 0.484375)"/>
      <use xlink:href="#LMRoman10-Regular-6e" transform="translate(36.099991 0.484375)"/>
      <use xlink:href="#LMRoman10-Regular-76" transform="translate(91.699982 0.484375)"/>
      <use xlink:href="#LMRoman10-Regular-65" transform="translate(144.499969 0.484375)"/>
      <use xlink:href="#LMRoman10-Regular-72" transform="translate(188.899963 0.484375)"/>
      <use xlink:href="#LMRoman10-Regular-73" transform="translate(228.09996 0.484375)"/>
      <use xlink:href="#LMRoman10-Regular-65" transform="translate(267.499954 0.484375)"/>
      <use xlink:href="#LMRoman10-Regular-20" transform="translate(311.899948 0.484375)"/>
      <use xlink:href="#LMRoman10-Regular-54" transform="translate(345.199936 0.484375)"/>
      <use xlink:href="#LMRoman10-Regular-65" transform="translate(417.399918 0.484375)"/>
      <use xlink:href="#LMRoman10-Regular-6d" transform="translate(461.799911 0.484375)"/>
      <use xlink:href="#LMRoman10-Regular-70" transform="translate(545.099899 0.484375)"/>
      <use xlink:href="#LMRoman10-Regular-65" transform="translate(600.69989 0.484375)"/>
      <use xlink:href="#LMRoman10-Regular-72" transform="translate(645.099884 0.484375)"/>
      <use xlink:href="#LMRoman10-Regular-61" transform="translate(684.299881 0.484375)"/>
      <use xlink:href="#LMRoman10-Regular-74" transform="translate(734.299866 0.484375)"/>
      <use xlink:href="#LMRoman10-Regular-75" transform="translate(773.19986 0.484375)"/>
      <use xlink:href="#LMRoman10-Regular-72" transform="translate(828.79985 0.484375)"/>
      <use xlink:href="#LMRoman10-Regular-65" transform="translate(867.999847 0.484375)"/>
      <use xlink:href="#LMRoman10-Regular-20" transform="translate(912.399841 0.484375)"/>
      <use xlink:href="#Cmmi10-af" transform="translate(945.699829 0.484375)"/>
     </g>
    </g>
   </g>
   <g id="matplotlib.axis_2">
    <g id="ytick_1">
     <g id="line2d_9">
      <path d="M 84.97125 278.080576 
L 531.37125 278.080576 
" clip-path="url(#p5dbb845e86)" style="fill: none; stroke: #b0b0b0; stroke-width: 0.8; stroke-linecap: square"/>
     </g>
     <g id="line2d_10">
      <defs>
       <path id="me461d3cf9c" d="M 0 0 
L -5 0 
" style="stroke: #000000; stroke-width: 0.8"/>
      </defs>
      <g>
       <use xlink:href="#me461d3cf9c" x="84.97125" y="278.080576" style="stroke: #000000; stroke-width: 0.8"/>
      </g>
     </g>
     <g id="text_6">
      <!-- −1.5 -->
      <g transform="translate(31.240625 285.715264) scale(0.22 -0.22)">
       <defs>
        <path id="LMRoman10-Regular-2212" d="M 4614 1600 
C 4614 1728 4493 1728 4403 1728 
L 570 1728 
C 480 1728 358 1728 358 1600 
C 358 1472 480 1472 576 1472 
L 4397 1472 
C 4493 1472 4614 1472 4614 1600 
z
" transform="scale(0.015625)"/>
        <path id="LMRoman10-Regular-35" d="M 2874 1286 
C 2874 2048 2349 2688 1658 2688 
C 1350 2688 1075 2586 845 2362 
L 845 3610 
C 973 3571 1184 3526 1389 3526 
C 2176 3526 2624 4109 2624 4192 
C 2624 4230 2605 4262 2560 4262 
C 2560 4262 2541 4262 2509 4243 
C 2381 4186 2067 4058 1638 4058 
C 1382 4058 1088 4102 787 4237 
C 736 4256 710 4256 710 4256 
C 646 4256 646 4205 646 4102 
L 646 2208 
C 646 2093 646 2042 736 2042 
C 781 2042 794 2061 819 2099 
C 890 2202 1126 2547 1645 2547 
C 1978 2547 2138 2253 2189 2138 
C 2291 1901 2304 1651 2304 1331 
C 2304 1107 2304 723 2150 454 
C 1997 205 1760 38 1466 38 
C 998 38 634 378 525 755 
C 544 749 563 742 634 742 
C 845 742 954 902 954 1056 
C 954 1210 845 1370 634 1370 
C 544 1370 320 1325 320 1030 
C 320 480 762 -141 1478 -141 
C 2221 -141 2874 474 2874 1286 
z
" transform="scale(0.015625)"/>
       </defs>
       <use xlink:href="#LMRoman10-Regular-2212"/>
       <use xlink:href="#LMRoman10-Regular-31" transform="translate(77.799988 0)"/>
       <use xlink:href="#LMRoman10-Regular-2e" transform="translate(127.799973 0)"/>
       <use xlink:href="#LMRoman10-Regular-35" transform="translate(155.59996 0)"/>
      </g>
     </g>
    </g>
    <g id="ytick_2">
     <g id="line2d_11">
      <path d="M 84.97125 190.699745 
L 531.37125 190.699745 
" clip-path="url(#p5dbb845e86)" style="fill: none; stroke: #b0b0b0; stroke-width: 0.8; stroke-linecap: square"/>
     </g>
     <g id="line2d_12">
      <g>
       <use xlink:href="#me461d3cf9c" x="84.97125" y="190.699745" style="stroke: #000000; stroke-width: 0.8"/>
      </g>
     </g>
     <g id="text_7">
      <!-- −1.0 -->
      <g transform="translate(31.240625 198.334433) scale(0.22 -0.22)">
       <use xlink:href="#LMRoman10-Regular-2212"/>
       <use xlink:href="#LMRoman10-Regular-31" transform="translate(77.799988 0)"/>
       <use xlink:href="#LMRoman10-Regular-2e" transform="translate(127.799973 0)"/>
       <use xlink:href="#LMRoman10-Regular-30" transform="translate(155.59996 0)"/>
      </g>
     </g>
    </g>
    <g id="ytick_3">
     <g id="line2d_13">
      <path d="M 84.97125 103.318914 
L 531.37125 103.318914 
" clip-path="url(#p5dbb845e86)" style="fill: none; stroke: #b0b0b0; stroke-width: 0.8; stroke-linecap: square"/>
     </g>
     <g id="line2d_14">
      <g>
       <use xlink:href="#me461d3cf9c" x="84.97125" y="103.318914" style="stroke: #000000; stroke-width: 0.8"/>
      </g>
     </g>
     <g id="text_8">
      <!-- −0.5 -->
      <g transform="translate(31.240625 110.953602) scale(0.22 -0.22)">
       <use xlink:href="#LMRoman10-Regular-2212"/>
       <use xlink:href="#LMRoman10-Regular-30" transform="translate(77.799988 0)"/>
       <use xlink:href="#LMRoman10-Regular-2e" transform="translate(127.799973 0)"/>
       <use xlink:href="#LMRoman10-Regular-35" transform="translate(155.59996 0)"/>
      </g>
     </g>
    </g>
    <g id="ytick_4">
     <g id="line2d_15">
      <path d="M 84.97125 15.938083 
L 531.37125 15.938083 
" clip-path="url(#p5dbb845e86)" style="fill: none; stroke: #b0b0b0; stroke-width: 0.8; stroke-linecap: square"/>
     </g>
     <g id="line2d_16">
      <g>
       <use xlink:href="#me461d3cf9c" x="84.97125" y="15.938083" style="stroke: #000000; stroke-width: 0.8"/>
      </g>
     </g>
     <g id="text_9">
      <!-- 0.0 -->
      <g transform="translate(48.355937 23.572771) scale(0.22 -0.22)">
       <use xlink:href="#LMRoman10-Regular-30"/>
       <use xlink:href="#LMRoman10-Regular-2e" transform="translate(49.999985 0)"/>
       <use xlink:href="#LMRoman10-Regular-30" transform="translate(77.799973 0)"/>
      </g>
     </g>
    </g>
    <g id="text_10">
     <!-- Energy per Spin -->
     <g transform="translate(22.71 251.671562) rotate(-90) scale(0.22 -0.22)">
      <defs>
       <path id="LMRoman10-Regular-45" d="M 4173 1651 
L 4013 1651 
C 3853 666 3706 198 2605 198 
L 1754 198 
C 1453 198 1440 243 1440 454 
L 1440 2163 
L 2016 2163 
C 2637 2163 2707 1958 2707 1414 
L 2867 1414 
L 2867 3110 
L 2707 3110 
C 2707 2560 2637 2362 2016 2362 
L 1440 2362 
L 1440 3898 
C 1440 4109 1453 4154 1754 4154 
L 2579 4154 
C 3558 4154 3731 3802 3834 2912 
L 3994 2912 
L 3814 4352 
L 211 4352 
L 211 4154 
L 365 4154 
C 858 4154 870 4083 870 3853 
L 870 499 
C 870 269 858 198 365 198 
L 211 198 
L 211 0 
L 3904 0 
L 4173 1651 
z
" transform="scale(0.015625)"/>
       <path id="LMRoman10-Regular-67" d="M 3104 2586 
C 3104 2694 3027 2899 2778 2899 
C 2650 2899 2368 2861 2099 2598 
C 1830 2810 1562 2829 1421 2829 
C 826 2829 384 2387 384 1894 
C 384 1613 525 1370 685 1235 
C 602 1139 486 928 486 704 
C 486 506 570 262 768 134 
C 384 26 179 -250 179 -506 
C 179 -966 813 -1318 1594 -1318 
C 2349 -1318 3014 -992 3014 -493 
C 3014 -269 2925 58 2598 237 
C 2259 416 1888 416 1498 416 
C 1338 416 1062 416 1018 422 
C 813 448 678 646 678 851 
C 678 877 678 1024 787 1152 
C 1037 973 1299 954 1421 954 
C 2016 954 2458 1395 2458 1888 
C 2458 2125 2355 2362 2195 2509 
C 2426 2726 2656 2758 2771 2758 
C 2771 2758 2816 2758 2835 2752 
C 2765 2726 2733 2656 2733 2579 
C 2733 2470 2816 2394 2918 2394 
C 2982 2394 3104 2438 3104 2586 
z
M 1978 1894 
C 1978 1722 1971 1517 1875 1357 
C 1824 1280 1677 1101 1421 1101 
C 864 1101 864 1741 864 1888 
C 864 2061 870 2266 966 2426 
C 1018 2502 1165 2682 1421 2682 
C 1978 2682 1978 2042 1978 1894 
z
M 2682 -506 
C 2682 -851 2227 -1171 1600 -1171 
C 954 -1171 512 -845 512 -506 
C 512 -211 755 26 1037 45 
L 1414 45 
C 1965 45 2682 45 2682 -506 
z
" transform="scale(0.015625)"/>
       <path id="LMRoman10-Regular-79" d="M 3251 2560 
L 3251 2758 
C 3104 2746 2918 2739 2771 2739 
L 2214 2758 
L 2214 2560 
C 2413 2554 2515 2445 2515 2285 
C 2515 2221 2509 2208 2477 2131 
L 1830 557 
L 1120 2278 
C 1094 2342 1082 2368 1082 2394 
C 1082 2560 1318 2560 1440 2560 
L 1440 2758 
L 742 2739 
C 570 2739 314 2746 122 2758 
L 122 2560 
C 429 2560 550 2560 640 2336 
L 1600 0 
L 1440 -378 
C 1299 -730 1120 -1171 710 -1171 
C 678 -1171 531 -1171 410 -1056 
C 608 -1030 659 -890 659 -787 
C 659 -621 538 -518 390 -518 
C 262 -518 122 -602 122 -794 
C 122 -1082 390 -1312 710 -1312 
C 1114 -1312 1376 -947 1530 -582 
L 2656 2150 
C 2822 2554 3149 2560 3251 2560 
z
" transform="scale(0.015625)"/>
       <path id="LMRoman10-Regular-53" d="M 3194 1190 
C 3194 1830 2771 2355 2234 2483 
L 1414 2682 
C 1018 2778 768 3123 768 3494 
C 768 3942 1114 4333 1613 4333 
C 2682 4333 2822 3283 2861 2995 
C 2867 2957 2867 2918 2938 2918 
C 3021 2918 3021 2950 3021 3072 
L 3021 4358 
C 3021 4467 3021 4512 2950 4512 
C 2906 4512 2899 4506 2854 4429 
L 2630 4064 
C 2438 4250 2176 4512 1606 4512 
C 896 4512 358 3949 358 3270 
C 358 2739 698 2272 1197 2099 
C 1267 2074 1594 1997 2042 1888 
C 2214 1843 2406 1798 2586 1562 
C 2720 1395 2784 1184 2784 973 
C 2784 518 2464 58 1926 58 
C 1741 58 1254 90 915 403 
C 544 749 525 1158 518 1389 
C 512 1453 461 1453 442 1453 
C 358 1453 358 1408 358 1293 
L 358 13 
C 358 -96 358 -141 429 -141 
C 474 -141 480 -128 525 -58 
C 525 -58 544 -32 755 307 
C 954 90 1363 -141 1933 -141 
C 2682 -141 3194 486 3194 1190 
z
" transform="scale(0.015625)"/>
       <path id="LMRoman10-Regular-69" d="M 1581 0 
L 1581 198 
C 1158 198 1133 230 1133 480 
L 1133 2829 
L 237 2758 
L 237 2560 
C 653 2560 710 2522 710 2208 
L 710 486 
C 710 198 640 198 211 198 
L 211 0 
L 915 19 
C 1139 19 1363 6 1581 0 
z
M 1229 3866 
C 1229 4038 1082 4205 890 4205 
C 672 4205 544 4026 544 3866 
C 544 3693 691 3526 883 3526 
C 1101 3526 1229 3706 1229 3866 
z
" transform="scale(0.015625)"/>
      </defs>
      <use xlink:href="#LMRoman10-Regular-45"/>
      <use xlink:href="#LMRoman10-Regular-6e" transform="translate(68.099991 0)"/>
      <use xlink:href="#LMRoman10-Regular-65" transform="translate(123.699982 0)"/>
      <use xlink:href="#LMRoman10-Regular-72" transform="translate(168.099976 0)"/>
      <use xlink:href="#LMRoman10-Regular-67" transform="translate(207.299973 0)"/>
      <use xlink:href="#LMRoman10-Regular-79" transform="translate(257.299957 0)"/>
      <use xlink:href="#LMRoman10-Regular-20" transform="translate(310.099945 0)"/>
      <use xlink:href="#LMRoman10-Regular-70" transform="translate(343.399933 0)"/>
      <use xlink:href="#LMRoman10-Regular-65" transform="translate(398.999924 0)"/>
      <use xlink:href="#LMRoman10-Regular-72" transform="translate(443.399918 0)"/>
      <use xlink:href="#LMRoman10-Regular-20" transform="translate(482.599915 0)"/>
      <use xlink:href="#LMRoman10-Regular-53" transform="translate(515.899902 0)"/>
      <use xlink:href="#LMRoman10-Regular-70" transform="translate(571.499893 0)"/>
      <use xlink:href="#LMRoman10-Regular-69" transform="translate(627.099884 0)"/>
      <use xlink:href="#LMRoman10-Regular-6e" transform="translate(654.899872 0)"/>
     </g>
    </g>
   </g>
   <g id="line2d_17">
    <path d="M 105.262159 15.938083 
L 109.361333 19.042678 
L 113.460506 22.147189 
L 117.55968 25.251532 
L 121.658853 28.355623 
L 125.758027 31.459378 
L 129.8572 34.562713 
L 133.956374 37.665545 
L 138.055548 40.767789 
L 142.154721 43.869362 
L 146.253895 46.970181 
L 150.353068 50.07016 
L 154.452242 53.169218 
L 158.551415 56.267271 
L 162.650589 59.364234 
L 166.749762 62.460026 
L 170.848936 65.554564 
L 174.94811 68.647763 
L 179.047283 71.739542 
L 183.146457 74.829818 
L 187.24563 77.918508 
L 191.344804 81.00553 
L 195.443977 84.090802 
L 199.543151 87.174243 
L 203.642324 90.25577 
L 207.741498 93.335302 
L 211.840671 96.412757 
L 215.939845 99.488055 
L 220.039019 102.561114 
L 224.138192 105.631855 
L 228.237366 108.700196 
L 232.336539 111.766058 
L 236.435713 114.829361 
L 240.534886 117.890025 
L 244.63406 120.947971 
L 248.733233 124.003119 
L 252.832407 127.055392 
L 256.931581 130.104711 
L 261.030754 133.150997 
L 265.129928 136.194173 
L 269.229101 139.234162 
L 273.328275 142.270886 
L 277.427448 145.304269 
L 281.526622 148.334233 
L 285.625795 151.360704 
L 289.724969 154.383605 
L 293.824143 157.402862 
L 297.923316 160.418398 
L 302.02249 163.43014 
L 306.121663 166.438014 
L 310.220837 169.441945 
L 314.32001 172.44186 
L 318.419184 175.437686 
L 322.518357 178.429352 
L 326.617531 181.416784 
L 330.716705 184.399911 
L 334.815878 187.378661 
L 338.915052 190.352965 
L 343.014225 193.322751 
L 347.113399 196.28795 
L 351.212572 199.248492 
L 355.311746 202.204309 
L 359.410919 205.155331 
L 363.510093 208.101492 
L 367.609267 211.042723 
L 371.70844 213.978957 
L 375.807614 216.910128 
L 379.906787 219.83617 
L 384.005961 222.757017 
L 388.105134 225.672605 
L 392.204308 228.582868 
L 396.303481 231.487744 
L 400.402655 234.387168 
L 404.501829 237.281077 
L 408.601002 240.16941 
L 412.700176 243.052105 
L 416.799349 245.929099 
L 420.898523 248.800333 
L 424.997696 251.665746 
L 429.09687 254.525279 
L 433.196043 257.378873 
L 437.295217 260.226468 
L 441.39439 263.068008 
L 445.493564 265.903435 
L 449.592738 268.732692 
L 453.691911 271.555723 
L 457.791085 274.372473 
L 461.890258 277.182886 
L 465.989432 279.986907 
L 470.088605 282.784484 
" clip-path="url(#p5dbb845e86)" style="fill: none; stroke: #ff0000; stroke-width: 4; stroke-linecap: square"/>
   </g>
   <g id="line2d_18">
    <path d="M 474.187779 285.575563 
L 478.286952 288.360091 
L 482.386126 291.138016 
L 486.4853 293.909287 
L 490.584473 296.673853 
L 494.683647 299.431664 
L 498.78282 302.18267 
L 502.881994 304.926822 
L 506.981167 307.664071 
L 511.080341 310.394371 
" clip-path="url(#p5dbb845e86)" style="fill: none; stroke-dasharray: 14.8,6.4; stroke-dashoffset: 0; stroke: #ff0000; stroke-width: 4"/>
   </g>
   <g id="line2d_19">
    <defs>
     <path id="mf76e6c1744" d="M -5 0 
L 5 0 
M 0 5 
L 0 -5 
" style="stroke: #0000ff"/>
    </defs>
    <g clip-path="url(#p5dbb845e86)">
     <use xlink:href="#mf76e6c1744" x="105.262159" y="21.87998" style="fill: #0000ff; stroke: #0000ff"/>
     <use xlink:href="#mf76e6c1744" x="109.361333" y="19.433316" style="fill: #0000ff; stroke: #0000ff"/>
     <use xlink:href="#mf76e6c1744" x="113.460506" y="17.54589" style="fill: #0000ff; stroke: #0000ff"/>
     <use xlink:href="#mf76e6c1744" x="117.55968" y="23.83731" style="fill: #0000ff; stroke: #0000ff"/>
     <use xlink:href="#mf76e6c1744" x="121.658853" y="30.338444" style="fill: #0000ff; stroke: #0000ff"/>
     <use xlink:href="#mf76e6c1744" x="125.758027" y="24.047024" style="fill: #0000ff; stroke: #0000ff"/>
     <use xlink:href="#mf76e6c1744" x="129.8572" y="31.037491" style="fill: #0000ff; stroke: #0000ff"/>
     <use xlink:href="#mf76e6c1744" x="133.956374" y="35.511389" style="fill: #0000ff; stroke: #0000ff"/>
     <use xlink:href="#mf76e6c1744" x="138.055548" y="38.727004" style="fill: #0000ff; stroke: #0000ff"/>
     <use xlink:href="#mf76e6c1744" x="142.154721" y="41.033858" style="fill: #0000ff; stroke: #0000ff"/>
     <use xlink:href="#mf76e6c1744" x="146.253895" y="50.261274" style="fill: #0000ff; stroke: #0000ff"/>
     <use xlink:href="#mf76e6c1744" x="150.353068" y="56.482789" style="fill: #0000ff; stroke: #0000ff"/>
     <use xlink:href="#mf76e6c1744" x="154.452242" y="53.127365" style="fill: #0000ff; stroke: #0000ff"/>
     <use xlink:href="#mf76e6c1744" x="158.551415" y="57.531359" style="fill: #0000ff; stroke: #0000ff"/>
     <use xlink:href="#mf76e6c1744" x="162.650589" y="59.34888" style="fill: #0000ff; stroke: #0000ff"/>
     <use xlink:href="#mf76e6c1744" x="166.749762" y="58.440119" style="fill: #0000ff; stroke: #0000ff"/>
    </g>
   </g>
   <g id="LineCollection_1">
    <path d="M 474.187779 369.285629 
L 474.187779 -1 
" clip-path="url(#p5dbb845e86)" style="fill: none; stroke-dasharray: 14.8,6.4; stroke-dashoffset: 0; stroke: #000000; stroke-width: 4"/>
   </g>
   <g id="patch_3">
    <path d="M 84.97125 339.84 
L 84.97125 7.2 
" style="fill: none; stroke: #000000; stroke-width: 0.8; stroke-linejoin: miter; stroke-linecap: square"/>
   </g>
   <g id="patch_4">
    <path d="M 84.97125 339.84 
L 531.37125 339.84 
" style="fill: none; stroke: #000000; stroke-width: 0.8; stroke-linejoin: miter; stroke-linecap: square"/>
   </g>
   <g id="text_11">
    <!-- $N$=100 -->
    <g transform="translate(105.262159 222.912576) scale(0.16 -0.16)">
     <defs>
      <path id="Cmmi10-4e" d="M 300 0 
Q 238 0 238 84 
Q 241 100 250 139 
Q 259 178 276 201 
Q 294 225 319 225 
Q 931 225 1031 616 
L 1900 4116 
Q 1722 4147 1338 4147 
Q 1275 4147 1275 4231 
Q 1278 4247 1287 4286 
Q 1297 4325 1314 4348 
Q 1331 4372 1356 4372 
L 2463 4372 
Q 2509 4372 2522 4331 
L 3944 947 
L 4653 3781 
Q 4666 3850 4666 3878 
Q 4666 4147 4172 4147 
Q 4109 4147 4109 4231 
Q 4131 4313 4143 4342 
Q 4156 4372 4219 4372 
L 5588 4372 
Q 5650 4372 5650 4288 
Q 5647 4272 5637 4233 
Q 5628 4194 5611 4170 
Q 5594 4147 5569 4147 
Q 4956 4147 4856 3756 
L 3938 56 
Q 3916 0 3872 0 
L 3794 0 
Q 3750 0 3738 44 
L 2106 3916 
L 2094 3956 
Q 2081 3969 2081 3975 
L 1234 588 
Q 1228 572 1225 548 
Q 1222 525 1216 494 
Q 1216 328 1359 276 
Q 1503 225 1716 225 
Q 1778 225 1778 141 
Q 1756 53 1740 26 
Q 1725 0 1672 0 
L 300 0 
z
" transform="scale(0.015625)"/>
      <path id="LMRoman10-Regular-3d" d="M 4614 2221 
C 4614 2349 4493 2349 4403 2349 
L 570 2349 
C 480 2349 358 2349 358 2221 
C 358 2093 480 2093 576 2093 
L 4397 2093 
C 4493 2093 4614 2093 4614 2221 
z
M 4614 979 
C 4614 1107 4493 1107 4397 1107 
L 576 1107 
C 480 1107 358 1107 358 979 
C 358 851 480 851 570 851 
L 4403 851 
C 4493 851 4614 851 4614 979 
z
" transform="scale(0.015625)"/>
     </defs>
     <use xlink:href="#Cmmi10-4e" transform="translate(0 0.6875)"/>
     <use xlink:href="#LMRoman10-Regular-3d" transform="translate(80.322266 0.6875)"/>
     <use xlink:href="#LMRoman10-Regular-31" transform="translate(158.122253 0.6875)"/>
     <use xlink:href="#LMRoman10-Regular-30" transform="translate(208.122238 0.6875)"/>
     <use xlink:href="#LMRoman10-Regular-30" transform="translate(258.122223 0.6875)"/>
    </g>
    <!-- Erdős-Rényi Graph -->
    <g transform="translate(105.262159 239.553576) scale(0.16 -0.16)">
     <defs>
      <path id="LMRoman10-Regular-64" d="M 3373 0 
L 3373 198 
C 2925 198 2874 243 2874 557 
L 2874 4442 
L 1952 4371 
L 1952 4173 
C 2400 4173 2451 4128 2451 3814 
L 2451 2432 
C 2266 2662 1990 2829 1645 2829 
C 890 2829 218 2202 218 1376 
C 218 563 845 -70 1574 -70 
C 1984 -70 2272 147 2432 352 
L 2432 -70 
L 3373 0 
z
M 2432 755 
C 2432 640 2432 627 2362 518 
C 2170 211 1882 70 1606 70 
C 1318 70 1088 237 934 480 
C 768 742 749 1107 749 1370 
C 749 1606 762 1990 947 2278 
C 1082 2477 1325 2688 1670 2688 
C 1894 2688 2163 2592 2362 2304 
C 2432 2195 2432 2182 2432 2067 
L 2432 755 
z
" transform="scale(0.015625)"/>
      <path id="LMRoman10-Regular-151" d="M 3014 1370 
C 3014 2189 2374 2867 1600 2867 
C 800 2867 179 2170 179 1370 
C 179 544 845 -70 1594 -70 
C 2368 -70 3014 557 3014 1370 
z
M 2483 1421 
C 2483 1190 2483 845 2342 563 
C 2202 275 1920 90 1600 90 
C 1325 90 1043 224 870 518 
C 710 800 710 1190 710 1421 
C 710 1670 710 2016 864 2298 
C 1037 2592 1338 2726 1594 2726 
C 1875 2726 2150 2586 2317 2310 
C 2483 2035 2483 1664 2483 1421 
z
M 1619 4243 
C 1619 4358 1504 4461 1382 4461 
C 1235 4461 1197 4352 1165 4275 
L 819 3347 
C 845 3328 941 3277 954 3270 
L 1542 4077 
C 1600 4154 1619 4179 1619 4243 
z
M 2688 4243 
C 2688 4358 2573 4461 2451 4461 
C 2304 4461 2266 4352 2234 4275 
L 1888 3347 
C 1914 3328 2010 3277 2022 3270 
L 2611 4077 
C 2669 4154 2688 4179 2688 4243 
z
" transform="scale(0.015625)"/>
      <path id="LMRoman10-Regular-2d" d="M 1766 1197 
L 1766 1568 
L 70 1568 
L 70 1197 
L 1766 1197 
z
" transform="scale(0.015625)"/>
      <path id="LMRoman10-Regular-52" d="M 4685 563 
C 4685 602 4685 672 4602 672 
C 4531 672 4531 614 4525 570 
C 4486 115 4262 0 4102 0 
C 3789 0 3738 326 3648 922 
L 3565 1434 
C 3450 1843 3136 2054 2784 2176 
C 3405 2330 3904 2720 3904 3219 
C 3904 3834 3174 4371 2234 4371 
L 224 4371 
L 224 4173 
L 378 4173 
C 870 4173 883 4102 883 3872 
L 883 499 
C 883 269 870 198 378 198 
L 224 198 
L 224 0 
C 454 19 909 19 1158 19 
C 1408 19 1862 19 2093 0 
L 2093 198 
L 1939 198 
C 1446 198 1434 269 1434 499 
L 1434 2118 
L 2170 2118 
C 2272 2118 2541 2118 2765 1901 
C 3008 1670 3008 1472 3008 1043 
C 3008 627 3008 371 3270 128 
C 3533 -102 3885 -141 4077 -141 
C 4576 -141 4685 384 4685 563 
z
M 3245 3219 
C 3245 2778 3091 2259 2144 2259 
L 1434 2259 
L 1434 3917 
C 1434 4064 1434 4141 1574 4160 
C 1638 4173 1824 4173 1952 4173 
C 2528 4173 3245 4147 3245 3219 
z
" transform="scale(0.015625)"/>
      <path id="LMRoman10-Regular-e9" d="M 2656 762 
C 2656 826 2605 838 2573 838 
C 2515 838 2502 800 2490 749 
C 2266 90 1690 90 1626 90 
C 1306 90 1050 282 902 518 
C 710 826 710 1248 710 1478 
L 2496 1478 
C 2637 1478 2656 1478 2656 1613 
C 2656 2246 2310 2867 1510 2867 
C 768 2867 179 2208 179 1408 
C 179 550 851 -70 1587 -70 
C 2368 -70 2656 640 2656 762 
z
M 2234 1613 
L 717 1613 
C 755 2566 1293 2726 1510 2726 
C 2170 2726 2234 1862 2234 1613 
z
M 2214 4237 
C 2214 4352 2099 4467 1984 4467 
C 1888 4467 1818 4397 1792 4358 
L 1024 3379 
L 1133 3264 
L 2106 4045 
C 2163 4090 2214 4160 2214 4237 
z
" transform="scale(0.015625)"/>
      <path id="LMRoman10-Regular-47" d="M 4704 1549 
L 4704 1747 
L 3923 1728 
C 3667 1728 3123 1728 2893 1747 
L 2893 1549 
L 3098 1549 
C 3674 1549 3693 1478 3693 1242 
L 3693 832 
C 3693 115 2880 58 2701 58 
C 2285 58 1018 282 1018 2189 
C 1018 4102 2278 4314 2662 4314 
C 3347 4314 3930 3738 4058 2797 
C 4070 2707 4070 2688 4160 2688 
C 4262 2688 4262 2707 4262 2842 
L 4262 4358 
C 4262 4467 4262 4512 4192 4512 
C 4166 4512 4141 4512 4090 4435 
L 3770 3962 
C 3565 4166 3219 4512 2586 4512 
C 1395 4512 358 3501 358 2189 
C 358 877 1382 -141 2598 -141 
C 3066 -141 3578 26 3795 403 
C 3878 262 4134 6 4205 6 
C 4262 6 4262 58 4262 154 
L 4262 1267 
C 4262 1517 4288 1549 4704 1549 
z
" transform="scale(0.015625)"/>
      <path id="LMRoman10-Regular-68" d="M 3424 0 
L 3424 198 
C 3091 198 2931 198 2925 390 
L 2925 1613 
C 2925 2163 2925 2362 2726 2592 
C 2637 2701 2426 2829 2054 2829 
C 1517 2829 1235 2445 1133 2214 
L 1126 2214 
L 1126 4442 
L 205 4371 
L 205 4173 
C 653 4173 704 4128 704 3814 
L 704 486 
C 704 198 634 198 205 198 
L 205 0 
L 928 19 
L 1645 0 
L 1645 198 
C 1216 198 1146 198 1146 486 
L 1146 1664 
C 1146 2330 1600 2688 2010 2688 
C 2413 2688 2483 2342 2483 1978 
L 2483 486 
C 2483 198 2413 198 1984 198 
L 1984 0 
L 2707 19 
L 3424 0 
z
" transform="scale(0.015625)"/>
     </defs>
     <use xlink:href="#LMRoman10-Regular-45"/>
     <use xlink:href="#LMRoman10-Regular-72" transform="translate(68.099991 0)"/>
     <use xlink:href="#LMRoman10-Regular-64" transform="translate(107.299988 0)"/>
     <use xlink:href="#LMRoman10-Regular-151" transform="translate(162.899979 0)"/>
     <use xlink:href="#LMRoman10-Regular-73" transform="translate(212.899963 0)"/>
     <use xlink:href="#LMRoman10-Regular-2d" transform="translate(252.299957 0)"/>
     <use xlink:href="#LMRoman10-Regular-52" transform="translate(285.599945 0)"/>
     <use xlink:href="#LMRoman10-Regular-e9" transform="translate(359.199936 0)"/>
     <use xlink:href="#LMRoman10-Regular-6e" transform="translate(403.59993 0)"/>
     <use xlink:href="#LMRoman10-Regular-79" transform="translate(459.199921 0)"/>
     <use xlink:href="#LMRoman10-Regular-69" transform="translate(511.999908 0)"/>
     <use xlink:href="#LMRoman10-Regular-20" transform="translate(539.799896 0)"/>
     <use xlink:href="#LMRoman10-Regular-47" transform="translate(573.099884 0)"/>
     <use xlink:href="#LMRoman10-Regular-72" transform="translate(651.599869 0)"/>
     <use xlink:href="#LMRoman10-Regular-61" transform="translate(690.799866 0)"/>
     <use xlink:href="#LMRoman10-Regular-70" transform="translate(740.79985 0)"/>
     <use xlink:href="#LMRoman10-Regular-68" transform="translate(796.399841 0)"/>
    </g>
    <!-- Glauber Heat Bath -->
    <g transform="translate(105.262159 256.159576) scale(0.16 -0.16)">
     <defs>
      <path id="LMRoman10-Regular-6c" d="M 1632 0 
L 1632 198 
C 1203 198 1133 198 1133 486 
L 1133 4442 
L 211 4371 
L 211 4173 
C 659 4173 710 4128 710 3814 
L 710 486 
C 710 198 640 198 211 198 
L 211 0 
L 922 19 
L 1632 0 
z
" transform="scale(0.015625)"/>
      <path id="LMRoman10-Regular-62" d="M 3334 1382 
C 3334 2195 2707 2829 1978 2829 
C 1478 2829 1203 2528 1101 2413 
L 1101 4442 
L 179 4371 
L 179 4173 
C 627 4173 678 4128 678 3814 
L 678 0 
L 838 0 
L 1069 397 
C 1165 250 1434 -70 1907 -70 
C 2669 -70 3334 557 3334 1382 
z
M 2803 1389 
C 2803 1152 2790 768 2605 480 
C 2470 282 2227 70 1882 70 
C 1594 70 1363 224 1210 461 
C 1120 595 1120 614 1120 730 
L 1120 2048 
C 1120 2170 1120 2176 1190 2278 
C 1440 2637 1792 2688 1946 2688 
C 2234 2688 2464 2522 2618 2278 
C 2784 2016 2803 1651 2803 1389 
z
" transform="scale(0.015625)"/>
      <path id="LMRoman10-Regular-48" d="M 4582 0 
L 4582 198 
L 4429 198 
C 3936 198 3923 269 3923 499 
L 3923 3872 
C 3923 4102 3936 4173 4429 4173 
L 4582 4173 
L 4582 4371 
C 4358 4352 3885 4352 3642 4352 
C 3398 4352 2918 4352 2694 4371 
L 2694 4173 
L 2848 4173 
C 3341 4173 3354 4102 3354 3872 
L 3354 2374 
L 1440 2374 
L 1440 3872 
C 1440 4102 1453 4173 1946 4173 
L 2099 4173 
L 2099 4371 
C 1875 4352 1402 4352 1158 4352 
C 915 4352 435 4352 211 4371 
L 211 4173 
L 365 4173 
C 858 4173 870 4102 870 3872 
L 870 499 
C 870 269 858 198 365 198 
L 211 198 
L 211 0 
C 435 19 909 19 1152 19 
C 1395 19 1875 19 2099 0 
L 2099 198 
L 1946 198 
C 1453 198 1440 269 1440 499 
L 1440 2176 
L 3354 2176 
L 3354 499 
C 3354 269 3341 198 2848 198 
L 2694 198 
L 2694 0 
C 2918 19 3392 19 3635 19 
C 3878 19 4358 19 4582 0 
z
" transform="scale(0.015625)"/>
      <path id="LMRoman10-Regular-42" d="M 4166 1171 
C 4166 1728 3642 2208 2931 2285 
C 3552 2406 3994 2816 3994 3290 
C 3994 3846 3405 4371 2573 4371 
L 230 4371 
L 230 4173 
L 384 4173 
C 877 4173 890 4102 890 3872 
L 890 499 
C 890 269 877 198 384 198 
L 230 198 
L 230 0 
L 2739 0 
C 3590 0 4166 570 4166 1171 
z
M 3373 3290 
C 3373 2880 3059 2342 2349 2342 
L 1421 2342 
L 1421 3917 
C 1421 4128 1434 4173 1734 4173 
L 2528 4173 
C 3149 4173 3373 3629 3373 3290 
z
M 3526 1178 
C 3526 723 3194 198 2534 198 
L 1734 198 
C 1434 198 1421 243 1421 454 
L 1421 2202 
L 2624 2202 
C 3258 2202 3526 1606 3526 1178 
z
" transform="scale(0.015625)"/>
     </defs>
     <use xlink:href="#LMRoman10-Regular-47"/>
     <use xlink:href="#LMRoman10-Regular-6c" transform="translate(78.499985 0)"/>
     <use xlink:href="#LMRoman10-Regular-61" transform="translate(106.299973 0)"/>
     <use xlink:href="#LMRoman10-Regular-75" transform="translate(156.299957 0)"/>
     <use xlink:href="#LMRoman10-Regular-62" transform="translate(211.899948 0)"/>
     <use xlink:href="#LMRoman10-Regular-65" transform="translate(267.499939 0)"/>
     <use xlink:href="#LMRoman10-Regular-72" transform="translate(311.899933 0)"/>
     <use xlink:href="#LMRoman10-Regular-20" transform="translate(351.09993 0)"/>
     <use xlink:href="#LMRoman10-Regular-48" transform="translate(384.399918 0)"/>
     <use xlink:href="#LMRoman10-Regular-65" transform="translate(459.399902 0)"/>
     <use xlink:href="#LMRoman10-Regular-61" transform="translate(503.799896 0)"/>
     <use xlink:href="#LMRoman10-Regular-74" transform="translate(553.799881 0)"/>
     <use xlink:href="#LMRoman10-Regular-20" transform="translate(592.699875 0)"/>
     <use xlink:href="#LMRoman10-Regular-42" transform="translate(625.999863 0)"/>
     <use xlink:href="#LMRoman10-Regular-61" transform="translate(696.79985 0)"/>
     <use xlink:href="#LMRoman10-Regular-74" transform="translate(746.799835 0)"/>
     <use xlink:href="#LMRoman10-Regular-68" transform="translate(785.699829 0)"/>
    </g>
    <!-- $J_{ij}\sim\text{Unif}(\{\pm1\})$ -->
    <g transform="translate(105.262159 278.080576) scale(0.16 -0.16)">
     <defs>
      <path id="Cmmi10-4a" d="M 697 384 
Q 759 206 928 115 
Q 1097 25 1294 25 
Q 1494 25 1680 164 
Q 1866 303 1995 512 
Q 2125 722 2175 928 
L 2931 3956 
Q 2938 3981 2939 3993 
Q 2941 4006 2944 4019 
Q 2944 4088 2894 4103 
Q 2725 4147 2209 4147 
Q 2144 4147 2144 4231 
Q 2156 4281 2164 4309 
Q 2172 4338 2192 4355 
Q 2213 4372 2253 4372 
L 3988 4372 
Q 4050 4372 4050 4288 
Q 4025 4147 3969 4147 
Q 3744 4147 3628 4112 
Q 3513 4078 3469 3928 
L 2713 903 
Q 2641 606 2420 367 
Q 2200 128 1897 -6 
Q 1594 -141 1288 -141 
Q 950 -141 695 46 
Q 441 234 441 556 
Q 441 769 556 922 
Q 672 1075 884 1075 
Q 1006 1075 1089 1000 
Q 1172 925 1172 806 
Q 1172 634 1044 506 
Q 916 378 744 378 
Q 709 378 697 384 
z
" transform="scale(0.015625)"/>
      <path id="Cmmi10-69" d="M 500 459 
Q 500 578 550 709 
L 1069 2088 
Q 1153 2322 1153 2472 
Q 1153 2663 1013 2663 
Q 759 2663 595 2402 
Q 431 2141 353 1819 
Q 341 1778 300 1778 
L 225 1778 
Q 172 1778 172 1838 
L 172 1856 
Q 275 2238 487 2533 
Q 700 2828 1025 2828 
Q 1253 2828 1411 2678 
Q 1569 2528 1569 2297 
Q 1569 2178 1516 2047 
L 997 672 
Q 909 459 909 288 
Q 909 97 1056 97 
Q 1306 97 1473 364 
Q 1641 631 1709 941 
Q 1722 978 1759 978 
L 1838 978 
Q 1863 978 1878 961 
Q 1894 944 1894 922 
Q 1894 916 1888 903 
Q 1800 541 1583 234 
Q 1366 -72 1044 -72 
Q 819 -72 659 83 
Q 500 238 500 459 
z
M 1222 3878 
Q 1222 4013 1334 4122 
Q 1447 4231 1581 4231 
Q 1691 4231 1761 4164 
Q 1831 4097 1831 3994 
Q 1831 3850 1717 3742 
Q 1603 3634 1466 3634 
Q 1363 3634 1292 3704 
Q 1222 3775 1222 3878 
z
" transform="scale(0.015625)"/>
      <path id="Cmmi10-6a" d="M -84 -909 
Q -84 -753 23 -639 
Q 131 -525 288 -525 
Q 391 -525 461 -589 
Q 531 -653 531 -756 
Q 531 -878 454 -976 
Q 378 -1075 263 -1106 
Q 375 -1147 488 -1147 
Q 759 -1147 959 -895 
Q 1159 -644 1241 -331 
L 1844 2075 
Q 1888 2259 1888 2388 
Q 1888 2663 1697 2663 
Q 1416 2663 1205 2408 
Q 994 2153 863 1819 
Q 850 1778 813 1778 
L 738 1778 
Q 684 1778 684 1838 
L 684 1856 
Q 828 2241 1093 2534 
Q 1359 2828 1709 2828 
Q 1975 2828 2145 2662 
Q 2316 2497 2316 2241 
Q 2316 2150 2297 2059 
L 1691 -372 
Q 1625 -631 1440 -847 
Q 1256 -1063 1000 -1188 
Q 744 -1313 475 -1313 
Q 259 -1313 87 -1209 
Q -84 -1106 -84 -909 
z
M 1941 3878 
Q 1941 4019 2050 4125 
Q 2159 4231 2297 4231 
Q 2406 4231 2476 4164 
Q 2547 4097 2547 3994 
Q 2547 3850 2433 3742 
Q 2319 3634 2181 3634 
Q 2078 3634 2009 3706 
Q 1941 3778 1941 3878 
z
" transform="scale(0.015625)"/>
      <path id="Cmsy10-bb" d="M 447 850 
Q 378 850 359 1013 
L 359 1050 
Q 359 1544 654 1947 
Q 950 2350 1422 2350 
Q 1716 2350 1955 2204 
Q 2194 2059 2516 1768 
Q 2838 1478 3055 1343 
Q 3272 1209 3553 1209 
Q 3806 1209 4006 1346 
Q 4206 1484 4320 1712 
Q 4434 1941 4434 2188 
Q 4453 2350 4525 2350 
Q 4597 2350 4616 2188 
L 4616 2150 
Q 4616 1841 4486 1537 
Q 4356 1234 4115 1042 
Q 3875 850 3553 850 
Q 3259 850 3031 989 
Q 2803 1128 2481 1417 
Q 2159 1706 1931 1848 
Q 1703 1991 1422 1991 
Q 1172 1991 969 1853 
Q 766 1716 652 1487 
Q 538 1259 538 1013 
Q 519 850 447 850 
z
" transform="scale(0.015625)"/>
      <path id="Cmr10-55" d="M 856 1447 
L 856 3944 
Q 856 4147 197 4147 
L 197 4372 
L 2113 4372 
L 2113 4147 
Q 1453 4147 1453 3944 
L 1453 1472 
Q 1453 1116 1551 798 
Q 1650 481 1883 282 
Q 2116 84 2491 84 
Q 2856 84 3134 276 
Q 3413 469 3563 787 
Q 3713 1106 3713 1472 
L 3713 3769 
Q 3713 4147 3053 4147 
L 3053 4372 
L 4594 4372 
L 4594 4147 
Q 3938 4147 3938 3769 
L 3938 1447 
Q 3938 1150 3833 865 
Q 3728 581 3529 351 
Q 3331 122 3062 -9 
Q 2794 -141 2491 -141 
Q 2066 -141 1686 71 
Q 1306 284 1081 650 
Q 856 1016 856 1447 
z
" transform="scale(0.015625)"/>
      <path id="Cmr10-6e" d="M 191 0 
L 191 225 
Q 409 225 550 259 
Q 691 294 691 428 
L 691 2175 
Q 691 2347 639 2423 
Q 588 2500 491 2517 
Q 394 2534 191 2534 
L 191 2759 
L 1119 2828 
L 1119 2203 
Q 1247 2478 1498 2653 
Q 1750 2828 2047 2828 
Q 2491 2828 2714 2615 
Q 2938 2403 2938 1966 
L 2938 428 
Q 2938 294 3078 259 
Q 3219 225 3438 225 
L 3438 0 
L 1972 0 
L 1972 225 
Q 2191 225 2331 259 
Q 2472 294 2472 428 
L 2472 1947 
Q 2472 2259 2381 2461 
Q 2291 2663 2009 2663 
Q 1638 2663 1398 2366 
Q 1159 2069 1159 1691 
L 1159 428 
Q 1159 294 1300 259 
Q 1441 225 1656 225 
L 1656 0 
L 191 0 
z
" transform="scale(0.015625)"/>
      <path id="Cmr10-69" d="M 197 0 
L 197 225 
Q 416 225 556 259 
Q 697 294 697 428 
L 697 2175 
Q 697 2422 601 2478 
Q 506 2534 225 2534 
L 225 2759 
L 1147 2828 
L 1147 428 
Q 1147 294 1269 259 
Q 1391 225 1594 225 
L 1594 0 
L 197 0 
z
M 469 3928 
Q 469 4069 575 4175 
Q 681 4281 819 4281 
Q 909 4281 993 4234 
Q 1078 4188 1125 4103 
Q 1172 4019 1172 3928 
Q 1172 3791 1065 3684 
Q 959 3578 819 3578 
Q 681 3578 575 3684 
Q 469 3791 469 3928 
z
" transform="scale(0.015625)"/>
      <path id="Cmr10-66" d="M 206 0 
L 206 225 
Q 422 225 562 259 
Q 703 294 703 428 
L 703 2534 
L 213 2534 
L 213 2759 
L 703 2759 
L 703 3525 
Q 703 3731 789 3911 
Q 875 4091 1020 4225 
Q 1166 4359 1355 4436 
Q 1544 4513 1747 4513 
Q 1963 4513 2136 4384 
Q 2309 4256 2309 4044 
Q 2309 3922 2226 3839 
Q 2144 3756 2022 3756 
Q 1900 3756 1814 3839 
Q 1728 3922 1728 4044 
Q 1728 4244 1900 4313 
Q 1797 4347 1716 4347 
Q 1528 4347 1395 4214 
Q 1263 4081 1197 3890 
Q 1131 3700 1131 3513 
L 1131 2759 
L 1869 2759 
L 1869 2534 
L 1153 2534 
L 1153 428 
Q 1153 297 1340 261 
Q 1528 225 1772 225 
L 1772 0 
L 206 0 
z
" transform="scale(0.015625)"/>
      <path id="Cmr10-28" d="M 1984 -1588 
Q 1628 -1306 1370 -942 
Q 1113 -578 948 -165 
Q 784 247 703 697 
Q 622 1147 622 1600 
Q 622 2059 703 2509 
Q 784 2959 951 3375 
Q 1119 3791 1378 4153 
Q 1638 4516 1984 4788 
Q 1984 4800 2016 4800 
L 2075 4800 
Q 2094 4800 2109 4783 
Q 2125 4766 2125 4744 
Q 2125 4716 2113 4703 
Q 1800 4397 1592 4047 
Q 1384 3697 1257 3301 
Q 1131 2906 1075 2482 
Q 1019 2059 1019 1600 
Q 1019 -434 2106 -1491 
Q 2125 -1509 2125 -1544 
Q 2125 -1559 2108 -1579 
Q 2091 -1600 2075 -1600 
L 2016 -1600 
Q 1984 -1600 1984 -1588 
z
" transform="scale(0.015625)"/>
      <path id="Cmex10-a9" d="M 1631 -6425 
L 1631 -4556 
Q 1631 -4338 1503 -4159 
Q 1375 -3981 1184 -3867 
Q 994 -3753 756 -3675 
Q 709 -3650 709 -3622 
L 709 -3547 
Q 709 -3503 756 -3494 
Q 1128 -3366 1379 -3150 
Q 1631 -2934 1631 -2606 
L 1631 -738 
Q 1631 -325 2004 -95 
Q 2378 134 2888 256 
L 2963 256 
Q 2981 256 2998 242 
Q 3016 228 3016 206 
L 3016 128 
Q 3016 91 2975 78 
Q 2619 -31 2359 -232 
Q 2100 -434 2100 -750 
L 2100 -2619 
Q 2100 -2994 1804 -3214 
Q 1509 -3434 1056 -3584 
Q 1497 -3716 1798 -3939 
Q 2100 -4163 2100 -4544 
L 2100 -6413 
Q 2100 -6628 2231 -6790 
Q 2363 -6953 2556 -7059 
Q 2750 -7166 2975 -7238 
Q 3016 -7250 3016 -7291 
L 3016 -7366 
Q 3016 -7384 2998 -7401 
Q 2981 -7419 2963 -7419 
L 2888 -7419 
Q 2559 -7338 2292 -7227 
Q 2025 -7116 1828 -6914 
Q 1631 -6713 1631 -6425 
z
" transform="scale(0.015625)"/>
      <path id="Cmsy10-a7" d="M 481 0 
Q 428 0 393 37 
Q 359 75 359 128 
Q 359 175 393 215 
Q 428 256 481 256 
L 2363 256 
L 2363 2003 
L 481 2003 
Q 428 2003 393 2043 
Q 359 2084 359 2131 
Q 359 2178 393 2218 
Q 428 2259 481 2259 
L 2363 2259 
L 2363 4147 
Q 2363 4197 2400 4230 
Q 2438 4263 2491 4263 
Q 2534 4263 2576 4230 
Q 2619 4197 2619 4147 
L 2619 2259 
L 4500 2259 
Q 4547 2259 4581 2218 
Q 4616 2178 4616 2131 
Q 4616 2084 4581 2043 
Q 4547 2003 4500 2003 
L 2619 2003 
L 2619 256 
L 4500 256 
Q 4547 256 4581 215 
Q 4616 175 4616 128 
Q 4616 75 4581 37 
Q 4547 0 4500 0 
L 481 0 
z
" transform="scale(0.015625)"/>
      <path id="Cmr10-31" d="M 594 0 
L 594 225 
Q 1394 225 1394 428 
L 1394 3788 
Q 1063 3628 556 3628 
L 556 3853 
Q 1341 3853 1741 4263 
L 1831 4263 
Q 1853 4263 1873 4245 
Q 1894 4228 1894 4206 
L 1894 428 
Q 1894 225 2694 225 
L 2694 0 
L 594 0 
z
" transform="scale(0.015625)"/>
      <path id="Cmex10-aa" d="M 709 -7366 
L 709 -7291 
Q 709 -7247 756 -7238 
Q 1631 -6953 1631 -6413 
L 1631 -4544 
Q 1631 -3909 2669 -3584 
Q 2219 -3431 1925 -3209 
Q 1631 -2988 1631 -2619 
L 1631 -750 
Q 1631 -206 756 78 
Q 709 88 709 128 
L 709 206 
Q 709 256 769 256 
L 844 256 
Q 1359 131 1729 -97 
Q 2100 -325 2100 -738 
L 2100 -2606 
Q 2100 -2925 2354 -3142 
Q 2609 -3359 2975 -3494 
Q 3016 -3506 3016 -3547 
L 3016 -3622 
Q 3016 -3641 2975 -3675 
Q 2769 -3744 2566 -3864 
Q 2363 -3984 2231 -4161 
Q 2100 -4338 2100 -4556 
L 2100 -6425 
Q 2100 -6713 1901 -6914 
Q 1703 -7116 1437 -7227 
Q 1172 -7338 844 -7419 
L 769 -7419 
Q 744 -7419 726 -7401 
Q 709 -7384 709 -7366 
z
" transform="scale(0.015625)"/>
      <path id="Cmr10-29" d="M 416 -1600 
Q 359 -1600 359 -1544 
Q 359 -1516 372 -1503 
Q 1466 -434 1466 1600 
Q 1466 3634 384 4691 
Q 359 4706 359 4744 
Q 359 4766 376 4783 
Q 394 4800 416 4800 
L 475 4800 
Q 494 4800 506 4788 
Q 966 4425 1272 3906 
Q 1578 3388 1720 2800 
Q 1863 2213 1863 1600 
Q 1863 1147 1786 708 
Q 1709 269 1542 -157 
Q 1375 -584 1119 -945 
Q 863 -1306 506 -1588 
Q 494 -1600 475 -1600 
L 416 -1600 
z
" transform="scale(0.015625)"/>
     </defs>
     <use xlink:href="#Cmmi10-4a" transform="translate(0 0.705729)"/>
     <use xlink:href="#Cmmi10-69" transform="translate(55.419922 -16.300521) scale(0.7)"/>
     <use xlink:href="#Cmmi10-6a" transform="translate(79.516602 -16.300521) scale(0.7)"/>
     <use xlink:href="#Cmsy10-bb" transform="translate(132.231836 0.705729)"/>
     <use xlink:href="#Cmr10-55" transform="translate(227.475977 0.705729)"/>
     <use xlink:href="#Cmr10-6e" transform="translate(302.475977 0.705729)"/>
     <use xlink:href="#Cmr10-69" transform="translate(357.993555 0.705729)"/>
     <use xlink:href="#Cmr10-66" transform="translate(385.679102 0.705729)"/>
     <use xlink:href="#Cmr10-28" transform="translate(416.19668 0.705729)"/>
     <use xlink:href="#Cmex10-a9" transform="translate(455.015039 94)"/>
     <use xlink:href="#Cmsy10-a7" transform="translate(513.31582 0.705729)"/>
     <use xlink:href="#Cmr10-31" transform="translate(591.001367 0.705729)"/>
     <use xlink:href="#Cmex10-aa" transform="translate(641.001367 94)"/>
     <use xlink:href="#Cmr10-29" transform="translate(699.302148 0.705729)"/>
    </g>
   </g>
   <g id="legend_1">
    <g id="line2d_20">
     <path d="M 95.77125 288.5175 
L 107.77125 288.5175 
L 119.77125 288.5175 
" style="fill: none; stroke: #ff0000; stroke-width: 4; stroke-linecap: square"/>
    </g>
    <g id="text_12">
     <!-- Theoretical Energy per Spin -->
     <g transform="translate(129.37125 292.7175) scale(0.12 -0.12)">
      <defs>
       <path id="LMRoman10-Regular-6f" d="M 3014 1370 
C 3014 2189 2374 2867 1600 2867 
C 800 2867 179 2170 179 1370 
C 179 544 845 -70 1594 -70 
C 2368 -70 3014 557 3014 1370 
z
M 2483 1421 
C 2483 1190 2483 845 2342 563 
C 2202 275 1920 90 1600 90 
C 1325 90 1043 224 870 518 
C 710 800 710 1190 710 1421 
C 710 1670 710 2016 864 2298 
C 1037 2592 1338 2726 1594 2726 
C 1875 2726 2150 2586 2317 2310 
C 2483 2035 2483 1664 2483 1421 
z
" transform="scale(0.015625)"/>
       <path id="LMRoman10-Regular-63" d="M 2656 762 
C 2656 826 2592 826 2573 826 
C 2515 826 2502 800 2490 762 
C 2304 166 1888 90 1651 90 
C 1312 90 749 365 749 1395 
C 749 2438 1274 2707 1613 2707 
C 1670 2707 2074 2701 2298 2470 
C 2035 2451 1997 2259 1997 2176 
C 1997 2010 2112 1882 2291 1882 
C 2458 1882 2586 1990 2586 2182 
C 2586 2618 2099 2867 1606 2867 
C 806 2867 218 2176 218 1382 
C 218 563 851 -70 1594 -70 
C 2451 -70 2656 698 2656 762 
z
" transform="scale(0.015625)"/>
      </defs>
      <use xlink:href="#LMRoman10-Regular-54"/>
      <use xlink:href="#LMRoman10-Regular-68" transform="translate(72.199982 0)"/>
      <use xlink:href="#LMRoman10-Regular-65" transform="translate(127.799973 0)"/>
      <use xlink:href="#LMRoman10-Regular-6f" transform="translate(172.199966 0)"/>
      <use xlink:href="#LMRoman10-Regular-72" transform="translate(222.199951 0)"/>
      <use xlink:href="#LMRoman10-Regular-65" transform="translate(261.399948 0)"/>
      <use xlink:href="#LMRoman10-Regular-74" transform="translate(305.799942 0)"/>
      <use xlink:href="#LMRoman10-Regular-69" transform="translate(344.699936 0)"/>
      <use xlink:href="#LMRoman10-Regular-63" transform="translate(372.499924 0)"/>
      <use xlink:href="#LMRoman10-Regular-61" transform="translate(416.899918 0)"/>
      <use xlink:href="#LMRoman10-Regular-6c" transform="translate(466.899902 0)"/>
      <use xlink:href="#LMRoman10-Regular-20" transform="translate(494.69989 0)"/>
      <use xlink:href="#LMRoman10-Regular-45" transform="translate(527.999878 0)"/>
      <use xlink:href="#LMRoman10-Regular-6e" transform="translate(596.099869 0)"/>
      <use xlink:href="#LMRoman10-Regular-65" transform="translate(651.69986 0)"/>
      <use xlink:href="#LMRoman10-Regular-72" transform="translate(696.099854 0)"/>
      <use xlink:href="#LMRoman10-Regular-67" transform="translate(735.29985 0)"/>
      <use xlink:href="#LMRoman10-Regular-79" transform="translate(785.299835 0)"/>
      <use xlink:href="#LMRoman10-Regular-20" transform="translate(838.099823 0)"/>
      <use xlink:href="#LMRoman10-Regular-70" transform="translate(871.399811 0)"/>
      <use xlink:href="#LMRoman10-Regular-65" transform="translate(926.999802 0)"/>
      <use xlink:href="#LMRoman10-Regular-72" transform="translate(971.399796 0)"/>
      <use xlink:href="#LMRoman10-Regular-20" transform="translate(1010.599792 0)"/>
      <use xlink:href="#LMRoman10-Regular-53" transform="translate(1043.89978 0)"/>
      <use xlink:href="#LMRoman10-Regular-70" transform="translate(1099.499771 0)"/>
      <use xlink:href="#LMRoman10-Regular-69" transform="translate(1155.099762 0)"/>
      <use xlink:href="#LMRoman10-Regular-6e" transform="translate(1182.89975 0)"/>
     </g>
    </g>
    <g id="line2d_21">
     <g>
      <use xlink:href="#mf76e6c1744" x="107.77125" y="305.44875" style="fill: #0000ff; stroke: #0000ff"/>
     </g>
    </g>
    <g id="text_13">
     <!-- CFTP Energy per Spin -->
     <g transform="translate(129.37125 309.64875) scale(0.12 -0.12)">
      <defs>
       <path id="LMRoman10-Regular-43" d="M 4256 1491 
C 4256 1555 4256 1600 4173 1600 
C 4102 1600 4102 1562 4096 1498 
C 4045 582 3360 58 2662 58 
C 2272 58 1018 275 1018 2182 
C 1018 4096 2266 4314 2656 4314 
C 3354 4314 3923 3731 4051 2797 
C 4064 2707 4064 2688 4154 2688 
C 4256 2688 4256 2707 4256 2842 
L 4256 4358 
C 4256 4467 4256 4512 4186 4512 
C 4160 4512 4134 4512 4083 4435 
L 3763 3962 
C 3526 4192 3200 4512 2586 4512 
C 1389 4512 358 3494 358 2189 
C 358 864 1395 -141 2586 -141 
C 3629 -141 4256 749 4256 1491 
z
" transform="scale(0.015625)"/>
       <path id="LMRoman10-Regular-46" d="M 3904 2912 
L 3725 4352 
L 211 4352 
L 211 4154 
L 365 4154 
C 858 4154 870 4083 870 3853 
L 870 499 
C 870 269 858 198 365 198 
L 211 198 
L 211 0 
C 435 19 934 19 1184 19 
C 1446 19 2029 19 2259 0 
L 2259 198 
L 2048 198 
C 1440 198 1440 282 1440 506 
L 1440 2080 
L 1990 2080 
C 2605 2080 2669 1875 2669 1331 
L 2829 1331 
L 2829 3027 
L 2669 3027 
C 2669 2490 2605 2278 1990 2278 
L 1440 2278 
L 1440 3898 
C 1440 4109 1453 4154 1754 4154 
L 2522 4154 
C 3482 4154 3642 3795 3744 2912 
L 3904 2912 
z
" transform="scale(0.015625)"/>
       <path id="LMRoman10-Regular-50" d="M 3994 3181 
C 3994 3808 3360 4371 2483 4371 
L 224 4371 
L 224 4173 
L 378 4173 
C 870 4173 883 4102 883 3872 
L 883 499 
C 883 269 870 198 378 198 
L 224 198 
L 224 0 
C 448 19 922 19 1165 19 
C 1408 19 1888 19 2112 0 
L 2112 198 
L 1958 198 
C 1466 198 1453 269 1453 499 
L 1453 2022 
L 2534 2022 
C 3302 2022 3994 2541 3994 3181 
z
M 3334 3181 
C 3334 2880 3334 2189 2317 2189 
L 1434 2189 
L 1434 3917 
C 1434 4128 1446 4173 1747 4173 
L 2317 4173 
C 3334 4173 3334 3494 3334 3181 
z
" transform="scale(0.015625)"/>
      </defs>
      <use xlink:href="#LMRoman10-Regular-43"/>
      <use xlink:href="#LMRoman10-Regular-46" transform="translate(72.199982 0)"/>
      <use xlink:href="#LMRoman10-Regular-54" transform="translate(137.499969 0)"/>
      <use xlink:href="#LMRoman10-Regular-50" transform="translate(209.699951 0)"/>
      <use xlink:href="#LMRoman10-Regular-20" transform="translate(277.799942 0)"/>
      <use xlink:href="#LMRoman10-Regular-45" transform="translate(311.09993 0)"/>
      <use xlink:href="#LMRoman10-Regular-6e" transform="translate(379.199921 0)"/>
      <use xlink:href="#LMRoman10-Regular-65" transform="translate(434.799911 0)"/>
      <use xlink:href="#LMRoman10-Regular-72" transform="translate(479.199905 0)"/>
      <use xlink:href="#LMRoman10-Regular-67" transform="translate(518.399902 0)"/>
      <use xlink:href="#LMRoman10-Regular-79" transform="translate(568.399887 0)"/>
      <use xlink:href="#LMRoman10-Regular-20" transform="translate(621.199875 0)"/>
      <use xlink:href="#LMRoman10-Regular-70" transform="translate(654.499863 0)"/>
      <use xlink:href="#LMRoman10-Regular-65" transform="translate(710.099854 0)"/>
      <use xlink:href="#LMRoman10-Regular-72" transform="translate(754.499847 0)"/>
      <use xlink:href="#LMRoman10-Regular-20" transform="translate(793.699844 0)"/>
      <use xlink:href="#LMRoman10-Regular-53" transform="translate(826.999832 0)"/>
      <use xlink:href="#LMRoman10-Regular-70" transform="translate(882.599823 0)"/>
      <use xlink:href="#LMRoman10-Regular-69" transform="translate(938.199814 0)"/>
      <use xlink:href="#LMRoman10-Regular-6e" transform="translate(965.999802 0)"/>
     </g>
    </g>
    <g id="line2d_22">
     <path d="M 95.77125 322.44 
L 119.77125 322.44 
" style="fill: none; stroke-dasharray: 14.8,6.4; stroke-dashoffset: 0; stroke: #000000; stroke-width: 4"/>
    </g>
    <g id="text_14">
     <!-- Critical Inverse Temperature $\beta_c$ -->
     <g transform="translate(129.37125 326.64) scale(0.12 -0.12)">
      <defs>
       <path id="Cmmi10-63" d="M 750 763 
Q 750 484 892 290 
Q 1034 97 1300 97 
Q 1681 97 2032 272 
Q 2384 447 2606 756 
Q 2625 775 2656 775 
Q 2688 775 2720 739 
Q 2753 703 2753 672 
Q 2753 647 2741 634 
Q 2506 306 2109 117 
Q 1713 -72 1288 -72 
Q 981 -72 747 73 
Q 513 219 384 462 
Q 256 706 256 1013 
Q 256 1444 497 1869 
Q 738 2294 1138 2561 
Q 1538 2828 1978 2828 
Q 2266 2828 2495 2689 
Q 2725 2550 2725 2278 
Q 2725 2103 2623 1979 
Q 2522 1856 2350 1856 
Q 2247 1856 2176 1920 
Q 2106 1984 2106 2088 
Q 2106 2238 2215 2344 
Q 2325 2450 2472 2450 
L 2484 2450 
Q 2409 2559 2267 2611 
Q 2125 2663 1972 2663 
Q 1597 2663 1315 2342 
Q 1034 2022 892 1576 
Q 750 1131 750 763 
z
" transform="scale(0.015625)"/>
      </defs>
      <use xlink:href="#LMRoman10-Regular-43" transform="translate(0 0.484375)"/>
      <use xlink:href="#LMRoman10-Regular-72" transform="translate(72.199982 0.484375)"/>
      <use xlink:href="#LMRoman10-Regular-69" transform="translate(111.399979 0.484375)"/>
      <use xlink:href="#LMRoman10-Regular-74" transform="translate(139.199966 0.484375)"/>
      <use xlink:href="#LMRoman10-Regular-69" transform="translate(178.09996 0.484375)"/>
      <use xlink:href="#LMRoman10-Regular-63" transform="translate(205.899948 0.484375)"/>
      <use xlink:href="#LMRoman10-Regular-61" transform="translate(250.299942 0.484375)"/>
      <use xlink:href="#LMRoman10-Regular-6c" transform="translate(300.299927 0.484375)"/>
      <use xlink:href="#LMRoman10-Regular-20" transform="translate(328.099915 0.484375)"/>
      <use xlink:href="#LMRoman10-Regular-49" transform="translate(361.399902 0.484375)"/>
      <use xlink:href="#LMRoman10-Regular-6e" transform="translate(397.499893 0.484375)"/>
      <use xlink:href="#LMRoman10-Regular-76" transform="translate(453.099884 0.484375)"/>
      <use xlink:href="#LMRoman10-Regular-65" transform="translate(505.899872 0.484375)"/>
      <use xlink:href="#LMRoman10-Regular-72" transform="translate(550.299866 0.484375)"/>
      <use xlink:href="#LMRoman10-Regular-73" transform="translate(589.499863 0.484375)"/>
      <use xlink:href="#LMRoman10-Regular-65" transform="translate(628.899857 0.484375)"/>
      <use xlink:href="#LMRoman10-Regular-20" transform="translate(673.29985 0.484375)"/>
      <use xlink:href="#LMRoman10-Regular-54" transform="translate(706.599838 0.484375)"/>
      <use xlink:href="#LMRoman10-Regular-65" transform="translate(778.79982 0.484375)"/>
      <use xlink:href="#LMRoman10-Regular-6d" transform="translate(823.199814 0.484375)"/>
      <use xlink:href="#LMRoman10-Regular-70" transform="translate(906.499802 0.484375)"/>
      <use xlink:href="#LMRoman10-Regular-65" transform="translate(962.099792 0.484375)"/>
      <use xlink:href="#LMRoman10-Regular-72" transform="translate(1006.499786 0.484375)"/>
      <use xlink:href="#LMRoman10-Regular-61" transform="translate(1045.699783 0.484375)"/>
      <use xlink:href="#LMRoman10-Regular-74" transform="translate(1095.699768 0.484375)"/>
      <use xlink:href="#LMRoman10-Regular-75" transform="translate(1134.599762 0.484375)"/>
      <use xlink:href="#LMRoman10-Regular-72" transform="translate(1190.199753 0.484375)"/>
      <use xlink:href="#LMRoman10-Regular-65" transform="translate(1229.39975 0.484375)"/>
      <use xlink:href="#LMRoman10-Regular-20" transform="translate(1273.799744 0.484375)"/>
      <use xlink:href="#Cmmi10-af" transform="translate(1307.099731 0.484375)"/>
      <use xlink:href="#Cmmi10-63" transform="translate(1363.593872 -16.521875) scale(0.7)"/>
     </g>
    </g>
   </g>
  </g>
 </g>
 <defs>
  <clipPath id="p5dbb845e86">
   <rect x="84.97125" y="7.2" width="446.4" height="332.64"/>
  </clipPath>
 </defs>
</svg>
