<?xml version="1.0" encoding="utf-8" standalone="no"?>
<!DOCTYPE svg PUBLIC "-//W3C//DTD SVG 1.1//EN"
  "http://www.w3.org/Graphics/SVG/1.1/DTD/svg11.dtd">
<svg xmlns:xlink="http://www.w3.org/1999/xlink" width="538.57125pt" height="399.09875pt" viewBox="0 0 538.57125 399.09875" xmlns="http://www.w3.org/2000/svg" version="1.1">
 <metadata>
  <rdf:RDF xmlns:dc="http://purl.org/dc/elements/1.1/" xmlns:cc="http://creativecommons.org/ns#" xmlns:rdf="http://www.w3.org/1999/02/22-rdf-syntax-ns#">
   <cc:Work>
    <dc:type rdf:resource="http://purl.org/dc/dcmitype/StillImage"/>
    <dc:date>2026-04-27T21:00:09.267390</dc:date>
    <dc:format>image/svg+xml</dc:format>
    <dc:creator>
     <cc:Agent>
      <dc:title>Matplotlib v3.10.8, https://matplotlib.org/</dc:title>
     </cc:Agent>
    </dc:creator>
   </cc:Work>
  </rdf:RDF>
 </metadata>
 <defs>
  <style type="text/css">*{stroke-linejoin: round; stroke-linecap: butt}</style>
 </defs>
 <g id="figure_1">
  <g id="patch_1">
   <path d="M 0 399.09875 
L 538.57125 399.09875 
L 538.57125 0 
L 0 0 
z
" style="fill: #ffffff"/>
  </g>
  <g id="axes_1">
   <g id="patch_2">
    <path d="M 84.97125 339.84 
L 531.37125 339.84 
L 531.37125 7.2 
L 84.97125 7.2 
z
" style="fill: #ffffff"/>
   </g>
   <g id="matplotlib.axis_1">
    <g id="xtick_1">
     <g id="line2d_1">
      <path d="M 105.262159 339.84 
L 105.262159 7.2 
" clip-path="url(#pfd9dd2c8db)" style="fill: none; stroke: #b0b0b0; stroke-width: 0.8; stroke-linecap: square"/>
     </g>
     <g id="line2d_2">
      <defs>
       <path id="m853fc2a466" d="M 0 0 
L 0 5 
" style="stroke: #000000; stroke-width: 0.8"/>
      </defs>
      <g>
       <use xlink:href="#m853fc2a466" x="105.262159" y="339.84" style="stroke: #000000; stroke-width: 0.8"/>
      </g>
     </g>
     <g id="text_1">
      <!-- 0.0 -->
      <g transform="translate(91.204503 363.609375) scale(0.22 -0.22)">
       <defs>
        <path id="LMRoman10-Regular-30" d="M 2944 2048 
C 2944 2560 2912 3072 2688 3546 
C 2394 4160 1869 4262 1600 4262 
C 1216 4262 749 4096 486 3501 
C 282 3059 250 2560 250 2048 
C 250 1568 275 992 538 506 
C 813 -13 1280 -141 1594 -141 
C 1939 -141 2426 -6 2707 602 
C 2912 1043 2944 1542 2944 2048 
z
M 2413 2125 
C 2413 1645 2413 1210 2342 800 
C 2246 192 1882 0 1594 0 
C 1344 0 966 160 851 774 
C 781 1158 781 1747 781 2125 
C 781 2534 781 2957 832 3302 
C 954 4064 1434 4122 1594 4122 
C 1805 4122 2227 4006 2349 3373 
C 2413 3014 2413 2528 2413 2125 
z
" transform="scale(0.015625)"/>
        <path id="LMRoman10-Regular-2e" d="M 1229 339 
C 1229 525 1075 678 890 678 
C 704 678 550 525 550 339 
C 550 154 704 0 890 0 
C 1075 0 1229 154 1229 339 
z
" transform="scale(0.015625)"/>
       </defs>
       <use xlink:href="#LMRoman10-Regular-30"/>
       <use xlink:href="#LMRoman10-Regular-2e" transform="translate(49.999985 0)"/>
       <use xlink:href="#LMRoman10-Regular-30" transform="translate(77.799973 0)"/>
      </g>
     </g>
    </g>
    <g id="xtick_2">
     <g id="line2d_3">
      <path d="M 239.586387 339.84 
L 239.586387 7.2 
" clip-path="url(#pfd9dd2c8db)" style="fill: none; stroke: #b0b0b0; stroke-width: 0.8; stroke-linecap: square"/>
     </g>
     <g id="line2d_4">
      <g>
       <use xlink:href="#m853fc2a466" x="239.586387" y="339.84" style="stroke: #000000; stroke-width: 0.8"/>
      </g>
     </g>
     <g id="text_2">
      <!-- 0.2 -->
      <g transform="translate(225.528731 363.609375) scale(0.22 -0.22)">
       <defs>
        <path id="LMRoman10-Regular-32" d="M 2874 1114 
L 2714 1114 
C 2682 922 2637 640 2573 544 
C 2528 493 2106 493 1965 493 
L 813 493 
L 1491 1152 
C 2490 2035 2874 2381 2874 3021 
C 2874 3750 2298 4262 1517 4262 
C 794 4262 320 3674 320 3104 
C 320 2746 640 2746 659 2746 
C 768 2746 992 2822 992 3085 
C 992 3251 877 3418 653 3418 
C 602 3418 589 3418 570 3411 
C 717 3827 1062 4064 1434 4064 
C 2016 4064 2291 3546 2291 3021 
C 2291 2509 1971 2003 1619 1606 
L 390 237 
C 320 166 320 154 320 0 
L 2694 0 
L 2874 1114 
z
" transform="scale(0.015625)"/>
       </defs>
       <use xlink:href="#LMRoman10-Regular-30"/>
       <use xlink:href="#LMRoman10-Regular-2e" transform="translate(49.999985 0)"/>
       <use xlink:href="#LMRoman10-Regular-32" transform="translate(77.799973 0)"/>
      </g>
     </g>
    </g>
    <g id="xtick_3">
     <g id="line2d_5">
      <path d="M 373.910616 339.84 
L 373.910616 7.2 
" clip-path="url(#pfd9dd2c8db)" style="fill: none; stroke: #b0b0b0; stroke-width: 0.8; stroke-linecap: square"/>
     </g>
     <g id="line2d_6">
      <g>
       <use xlink:href="#m853fc2a466" x="373.910616" y="339.84" style="stroke: #000000; stroke-width: 0.8"/>
      </g>
     </g>
     <g id="text_3">
      <!-- 0.4 -->
      <g transform="translate(359.85296 363.609375) scale(0.22 -0.22)">
       <defs>
        <path id="LMRoman10-Regular-34" d="M 3014 1056 
L 3014 1254 
L 2374 1254 
L 2374 4166 
C 2374 4294 2374 4333 2272 4333 
C 2214 4333 2195 4333 2144 4256 
L 179 1254 
L 179 1056 
L 1882 1056 
L 1882 499 
C 1882 269 1869 198 1395 198 
L 1261 198 
L 1261 0 
C 1523 19 1856 19 2125 19 
C 2394 19 2733 19 2995 0 
L 2995 198 
L 2861 198 
C 2387 198 2374 269 2374 499 
L 2374 1056 
L 3014 1056 
z
M 1920 1254 
L 358 1254 
L 1920 3642 
L 1920 1254 
z
" transform="scale(0.015625)"/>
       </defs>
       <use xlink:href="#LMRoman10-Regular-30"/>
       <use xlink:href="#LMRoman10-Regular-2e" transform="translate(49.999985 0)"/>
       <use xlink:href="#LMRoman10-Regular-34" transform="translate(77.799973 0)"/>
      </g>
     </g>
    </g>
    <g id="xtick_4">
     <g id="line2d_7">
      <path d="M 508.234844 339.84 
L 508.234844 7.2 
" clip-path="url(#pfd9dd2c8db)" style="fill: none; stroke: #b0b0b0; stroke-width: 0.8; stroke-linecap: square"/>
     </g>
     <g id="line2d_8">
      <g>
       <use xlink:href="#m853fc2a466" x="508.234844" y="339.84" style="stroke: #000000; stroke-width: 0.8"/>
      </g>
     </g>
     <g id="text_4">
      <!-- 0.6 -->
      <g transform="translate(494.177188 363.609375) scale(0.22 -0.22)">
       <defs>
        <path id="LMRoman10-Regular-36" d="M 2925 1306 
C 2925 2118 2355 2733 1645 2733 
C 1210 2733 973 2406 845 2099 
L 845 2253 
C 845 3872 1638 4102 1965 4102 
C 2118 4102 2387 4064 2528 3846 
C 2432 3846 2176 3846 2176 3558 
C 2176 3360 2330 3264 2470 3264 
C 2573 3264 2765 3322 2765 3571 
C 2765 3955 2483 4262 1952 4262 
C 1133 4262 269 3437 269 2022 
C 269 314 1011 -141 1606 -141 
C 2317 -141 2925 461 2925 1306 
z
M 2349 1312 
C 2349 1005 2349 685 2240 454 
C 2048 70 1754 38 1606 38 
C 1203 38 1011 422 973 518 
C 858 819 858 1331 858 1446 
C 858 1946 1062 2586 1638 2586 
C 1741 2586 2035 2586 2234 2189 
C 2349 1952 2349 1626 2349 1312 
z
" transform="scale(0.015625)"/>
       </defs>
       <use xlink:href="#LMRoman10-Regular-30"/>
       <use xlink:href="#LMRoman10-Regular-2e" transform="translate(49.999985 0)"/>
       <use xlink:href="#LMRoman10-Regular-36" transform="translate(77.799973 0)"/>
      </g>
     </g>
    </g>
    <g id="text_5">
     <!-- Inverse Temperature $\beta$ -->
     <g transform="translate(197.84125 387.49875) scale(0.22 -0.22)">
      <defs>
       <path id="LMRoman10-Regular-49" d="M 2131 0 
L 2131 198 
L 1965 198 
C 1459 198 1440 269 1440 499 
L 1440 3872 
C 1440 4102 1459 4173 1965 4173 
L 2131 4173 
L 2131 4371 
C 1907 4352 1402 4352 1158 4352 
C 909 4352 403 4352 179 4371 
L 179 4173 
L 346 4173 
C 851 4173 870 4102 870 3872 
L 870 499 
C 870 269 851 198 346 198 
L 179 198 
L 179 0 
C 403 19 909 19 1152 19 
C 1402 19 1907 19 2131 0 
z
" transform="scale(0.015625)"/>
       <path id="LMRoman10-Regular-6e" d="M 3424 0 
L 3424 198 
C 3091 198 2931 198 2925 390 
L 2925 1613 
C 2925 2163 2925 2362 2726 2592 
C 2637 2701 2426 2829 2054 2829 
C 1587 2829 1286 2554 1107 2157 
L 1107 2829 
L 205 2758 
L 205 2560 
C 653 2560 704 2515 704 2202 
L 704 486 
C 704 198 634 198 205 198 
L 205 0 
L 928 19 
L 1645 0 
L 1645 198 
C 1216 198 1146 198 1146 486 
L 1146 1664 
C 1146 2330 1600 2688 2010 2688 
C 2413 2688 2483 2342 2483 1978 
L 2483 486 
C 2483 198 2413 198 1984 198 
L 1984 0 
L 2707 19 
L 3424 0 
z
" transform="scale(0.015625)"/>
       <path id="LMRoman10-Regular-76" d="M 3251 2560 
L 3251 2758 
C 3104 2746 2918 2739 2771 2739 
L 2214 2758 
L 2214 2560 
C 2451 2554 2522 2406 2522 2285 
C 2522 2227 2509 2202 2483 2131 
L 1830 499 
L 1114 2285 
C 1075 2368 1075 2394 1075 2394 
C 1075 2560 1325 2560 1440 2560 
L 1440 2758 
L 742 2739 
C 570 2739 314 2746 122 2758 
L 122 2560 
C 525 2560 550 2522 634 2323 
L 1555 51 
C 1594 -38 1606 -70 1690 -70 
C 1773 -70 1798 -13 1824 51 
L 2662 2131 
C 2720 2278 2829 2554 3251 2560 
z
" transform="scale(0.015625)"/>
       <path id="LMRoman10-Regular-65" d="M 2656 762 
C 2656 826 2605 838 2573 838 
C 2515 838 2502 800 2490 749 
C 2266 90 1690 90 1626 90 
C 1306 90 1050 282 902 518 
C 710 826 710 1248 710 1478 
L 2496 1478 
C 2637 1478 2656 1478 2656 1613 
C 2656 2246 2310 2867 1510 2867 
C 768 2867 179 2208 179 1408 
C 179 550 851 -70 1587 -70 
C 2368 -70 2656 640 2656 762 
z
M 2234 1613 
L 717 1613 
C 755 2566 1293 2726 1510 2726 
C 2170 2726 2234 1862 2234 1613 
z
" transform="scale(0.015625)"/>
       <path id="LMRoman10-Regular-72" d="M 2330 2438 
C 2330 2643 2131 2829 1856 2829 
C 1389 2829 1158 2400 1069 2125 
L 1069 2829 
L 179 2758 
L 179 2560 
C 627 2560 678 2515 678 2202 
L 678 486 
C 678 198 608 198 179 198 
L 179 0 
L 909 19 
C 1165 19 1466 19 1722 0 
L 1722 198 
L 1587 198 
C 1114 198 1101 269 1101 499 
L 1101 1485 
C 1101 2118 1370 2688 1856 2688 
C 1901 2688 1914 2688 1926 2682 
C 1907 2675 1779 2598 1779 2432 
C 1779 2253 1914 2157 2054 2157 
C 2170 2157 2330 2234 2330 2438 
z
" transform="scale(0.015625)"/>
       <path id="LMRoman10-Regular-73" d="M 2304 819 
C 2304 1158 2112 1350 2035 1427 
C 1824 1632 1574 1683 1306 1734 
C 947 1805 518 1888 518 2259 
C 518 2483 685 2746 1235 2746 
C 1939 2746 1971 2170 1984 1971 
C 1990 1914 2061 1914 2061 1914 
C 2144 1914 2144 1946 2144 2067 
L 2144 2714 
C 2144 2822 2144 2867 2074 2867 
C 2042 2867 2029 2867 1946 2790 
C 1926 2765 1862 2707 1837 2688 
C 1594 2867 1331 2867 1235 2867 
C 454 2867 211 2438 211 2080 
C 211 1856 314 1677 486 1536 
C 691 1370 870 1331 1331 1242 
C 1472 1216 1997 1114 1997 653 
C 1997 326 1773 70 1274 70 
C 736 70 506 435 384 979 
C 365 1062 358 1088 294 1088 
C 211 1088 211 1043 211 928 
L 211 83 
C 211 -26 211 -70 282 -70 
C 314 -70 320 -64 442 58 
C 454 70 454 83 570 205 
C 851 -64 1139 -70 1274 -70 
C 2010 -70 2304 358 2304 819 
z
" transform="scale(0.015625)"/>
       <path id="LMRoman10-Regular-20" transform="scale(0.015625)"/>
       <path id="LMRoman10-Regular-54" d="M 4384 2893 
L 4262 4333 
L 352 4333 
L 230 2893 
L 390 2893 
C 480 3923 576 4134 1542 4134 
C 1658 4134 1824 4134 1888 4122 
C 2022 4096 2022 4026 2022 3878 
L 2022 506 
C 2022 288 2022 198 1350 198 
L 1094 198 
L 1094 0 
C 1357 19 2010 19 2304 19 
C 2598 19 3258 19 3520 0 
L 3520 198 
L 3264 198 
C 2592 198 2592 288 2592 506 
L 2592 3878 
C 2592 4006 2592 4096 2707 4122 
C 2778 4134 2950 4134 3072 4134 
C 4038 4134 4134 3923 4224 2893 
L 4384 2893 
z
" transform="scale(0.015625)"/>
       <path id="LMRoman10-Regular-6d" d="M 5203 0 
L 5203 198 
C 4870 198 4710 198 4704 390 
L 4704 1613 
C 4704 2163 4704 2362 4506 2592 
C 4416 2701 4205 2829 3834 2829 
C 3296 2829 3014 2445 2906 2202 
C 2816 2758 2342 2829 2054 2829 
C 1587 2829 1286 2554 1107 2157 
L 1107 2829 
L 205 2758 
L 205 2560 
C 653 2560 704 2515 704 2202 
L 704 486 
C 704 198 634 198 205 198 
L 205 0 
L 928 19 
L 1645 0 
L 1645 198 
C 1216 198 1146 198 1146 486 
L 1146 1664 
C 1146 2330 1600 2688 2010 2688 
C 2413 2688 2483 2342 2483 1978 
L 2483 486 
C 2483 198 2413 198 1984 198 
L 1984 0 
L 2707 19 
L 3424 0 
L 3424 198 
C 2995 198 2925 198 2925 486 
L 2925 1664 
C 2925 2330 3379 2688 3789 2688 
C 4192 2688 4262 2342 4262 1978 
L 4262 486 
C 4262 198 4192 198 3763 198 
L 3763 0 
L 4486 19 
L 5203 0 
z
" transform="scale(0.015625)"/>
       <path id="LMRoman10-Regular-70" d="M 3334 1382 
C 3334 2195 2714 2829 1997 2829 
C 1498 2829 1229 2547 1101 2406 
L 1101 2829 
L 179 2758 
L 179 2560 
C 634 2560 678 2522 678 2240 
L 678 -755 
C 678 -1043 608 -1043 179 -1043 
L 179 -1242 
L 896 -1222 
L 1619 -1242 
L 1619 -1043 
C 1190 -1043 1120 -1043 1120 -755 
L 1120 320 
L 1120 378 
C 1152 275 1421 -70 1907 -70 
C 2669 -70 3334 557 3334 1382 
z
M 2803 1382 
C 2803 608 2355 70 1882 70 
C 1626 70 1382 198 1210 461 
C 1120 595 1120 602 1120 730 
L 1120 2157 
C 1306 2483 1619 2669 1946 2669 
C 2413 2669 2803 2106 2803 1382 
z
" transform="scale(0.015625)"/>
       <path id="LMRoman10-Regular-61" d="M 3155 570 
L 3155 928 
L 2995 928 
L 2995 570 
C 2995 198 2835 160 2765 160 
C 2554 160 2528 448 2528 480 
L 2528 1760 
C 2528 2029 2528 2278 2298 2515 
C 2048 2765 1728 2867 1421 2867 
C 896 2867 454 2566 454 2144 
C 454 1952 582 1843 749 1843 
C 928 1843 1043 1971 1043 2138 
C 1043 2214 1011 2426 717 2432 
C 890 2656 1203 2726 1408 2726 
C 1722 2726 2086 2477 2086 1907 
L 2086 1670 
C 1760 1651 1312 1632 909 1440 
C 429 1222 269 890 269 608 
C 269 90 890 -70 1293 -70 
C 1715 -70 2010 186 2131 486 
C 2157 230 2330 -38 2630 -38 
C 2765 -38 3155 51 3155 570 
z
M 2086 896 
C 2086 288 1626 70 1338 70 
C 1024 70 762 294 762 614 
C 762 966 1030 1498 2086 1536 
L 2086 896 
z
" transform="scale(0.015625)"/>
       <path id="LMRoman10-Regular-74" d="M 2125 794 
L 2125 1158 
L 1965 1158 
L 1965 806 
C 1965 333 1773 90 1536 90 
C 1107 90 1107 672 1107 781 
L 1107 2560 
L 2022 2560 
L 2022 2758 
L 1107 2758 
L 1107 3936 
L 947 3936 
C 941 3411 749 2726 122 2701 
L 122 2560 
L 666 2560 
L 666 794 
C 666 6 1261 -70 1491 -70 
C 1946 -70 2125 384 2125 794 
z
" transform="scale(0.015625)"/>
       <path id="LMRoman10-Regular-75" d="M 3424 0 
L 3424 198 
C 2976 198 2925 243 2925 557 
L 2925 2829 
L 1984 2758 
L 1984 2560 
C 2432 2560 2483 2515 2483 2202 
L 2483 1062 
C 2483 506 2176 70 1709 70 
C 1171 70 1146 371 1146 704 
L 1146 2829 
L 205 2758 
L 205 2560 
C 704 2560 704 2541 704 1971 
L 704 1011 
C 704 512 704 -70 1677 -70 
C 2035 -70 2317 109 2502 506 
L 2502 -70 
L 3424 0 
z
" transform="scale(0.015625)"/>
       <path id="Cmmi10-af" d="M 172 -1241 
Q 153 -1241 137 -1219 
Q 122 -1197 122 -1178 
L 1106 2778 
Q 1191 3097 1353 3397 
Q 1516 3697 1761 3955 
Q 2006 4213 2300 4363 
Q 2594 4513 2925 4513 
Q 3163 4513 3355 4408 
Q 3547 4303 3658 4114 
Q 3769 3925 3769 3688 
Q 3769 3459 3681 3251 
Q 3594 3044 3437 2864 
Q 3281 2684 3103 2572 
Q 3206 2506 3287 2404 
Q 3369 2303 3419 2192 
Q 3469 2081 3497 1945 
Q 3525 1809 3525 1691 
Q 3525 1363 3384 1044 
Q 3244 725 3001 465 
Q 2759 206 2446 54 
Q 2134 -97 1806 -97 
Q 1447 -97 1159 100 
Q 872 297 763 634 
L 300 -1203 
Q 300 -1241 250 -1241 
L 172 -1241 
z
M 1819 78 
Q 2106 78 2339 267 
Q 2572 456 2723 742 
Q 2875 1028 2954 1348 
Q 3034 1669 3034 1931 
Q 3034 2256 2847 2444 
Q 2628 2363 2419 2363 
Q 1913 2363 1913 2534 
Q 1913 2759 2491 2759 
Q 2697 2759 2869 2694 
Q 3006 2800 3118 3006 
Q 3231 3213 3289 3438 
Q 3347 3663 3347 3859 
Q 3347 4069 3236 4208 
Q 3125 4347 2913 4347 
Q 2522 4347 2186 4106 
Q 1850 3866 1619 3498 
Q 1388 3131 1288 2741 
L 934 1325 
Q 900 1178 891 997 
Q 891 597 1153 337 
Q 1416 78 1819 78 
z
M 2106 2553 
Q 2203 2528 2425 2528 
Q 2534 2528 2644 2566 
Q 2638 2572 2619 2572 
Q 2550 2591 2472 2591 
Q 2181 2591 2106 2553 
z
" transform="scale(0.015625)"/>
      </defs>
      <use xlink:href="#LMRoman10-Regular-49" transform="translate(0 0.484375)"/>
      <use xlink:href="#LMRoman10-Regular-6e" transform="translate(36.099991 0.484375)"/>
      <use xlink:href="#LMRoman10-Regular-76" transform="translate(91.699982 0.484375)"/>
      <use xlink:href="#LMRoman10-Regular-65" transform="translate(144.499969 0.484375)"/>
      <use xlink:href="#LMRoman10-Regular-72" transform="translate(188.899963 0.484375)"/>
      <use xlink:href="#LMRoman10-Regular-73" transform="translate(228.09996 0.484375)"/>
      <use xlink:href="#LMRoman10-Regular-65" transform="translate(267.499954 0.484375)"/>
      <use xlink:href="#LMRoman10-Regular-20" transform="translate(311.899948 0.484375)"/>
      <use xlink:href="#LMRoman10-Regular-54" transform="translate(345.199936 0.484375)"/>
      <use xlink:href="#LMRoman10-Regular-65" transform="translate(417.399918 0.484375)"/>
      <use xlink:href="#LMRoman10-Regular-6d" transform="translate(461.799911 0.484375)"/>
      <use xlink:href="#LMRoman10-Regular-70" transform="translate(545.099899 0.484375)"/>
      <use xlink:href="#LMRoman10-Regular-65" transform="translate(600.69989 0.484375)"/>
      <use xlink:href="#LMRoman10-Regular-72" transform="translate(645.099884 0.484375)"/>
      <use xlink:href="#LMRoman10-Regular-61" transform="translate(684.299881 0.484375)"/>
      <use xlink:href="#LMRoman10-Regular-74" transform="translate(734.299866 0.484375)"/>
      <use xlink:href="#LMRoman10-Regular-75" transform="translate(773.19986 0.484375)"/>
      <use xlink:href="#LMRoman10-Regular-72" transform="translate(828.79985 0.484375)"/>
      <use xlink:href="#LMRoman10-Regular-65" transform="translate(867.999847 0.484375)"/>
      <use xlink:href="#LMRoman10-Regular-20" transform="translate(912.399841 0.484375)"/>
      <use xlink:href="#Cmmi10-af" transform="translate(945.699829 0.484375)"/>
     </g>
    </g>
   </g>
   <g id="matplotlib.axis_2">
    <g id="ytick_1">
     <g id="line2d_9">
      <path d="M 84.97125 289.297191 
L 531.37125 289.297191 
" clip-path="url(#pfd9dd2c8db)" style="fill: none; stroke: #b0b0b0; stroke-width: 0.8; stroke-linecap: square"/>
     </g>
     <g id="line2d_10">
      <defs>
       <path id="m1a527808e3" d="M 0 0 
L -5 0 
" style="stroke: #000000; stroke-width: 0.8"/>
      </defs>
      <g>
       <use xlink:href="#m1a527808e3" x="84.97125" y="289.297191" style="stroke: #000000; stroke-width: 0.8"/>
      </g>
     </g>
     <g id="text_6">
      <!-- −1.0 -->
      <g transform="translate(31.240625 296.931878) scale(0.22 -0.22)">
       <defs>
        <path id="LMRoman10-Regular-2212" d="M 4614 1600 
C 4614 1728 4493 1728 4403 1728 
L 570 1728 
C 480 1728 358 1728 358 1600 
C 358 1472 480 1472 576 1472 
L 4397 1472 
C 4493 1472 4614 1472 4614 1600 
z
" transform="scale(0.015625)"/>
        <path id="LMRoman10-Regular-31" d="M 2682 0 
L 2682 198 
L 2477 198 
C 1901 198 1882 269 1882 506 
L 1882 4096 
C 1882 4250 1882 4262 1734 4262 
C 1338 3853 774 3853 570 3853 
L 570 3654 
C 698 3654 1075 3654 1408 3821 
L 1408 506 
C 1408 275 1389 198 813 198 
L 608 198 
L 608 0 
C 832 19 1389 19 1645 19 
C 1901 19 2458 19 2682 0 
z
" transform="scale(0.015625)"/>
       </defs>
       <use xlink:href="#LMRoman10-Regular-2212"/>
       <use xlink:href="#LMRoman10-Regular-31" transform="translate(77.799988 0)"/>
       <use xlink:href="#LMRoman10-Regular-2e" transform="translate(127.799973 0)"/>
       <use xlink:href="#LMRoman10-Regular-30" transform="translate(155.59996 0)"/>
      </g>
     </g>
    </g>
    <g id="ytick_2">
     <g id="line2d_11">
      <path d="M 84.97125 235.564392 
L 531.37125 235.564392 
" clip-path="url(#pfd9dd2c8db)" style="fill: none; stroke: #b0b0b0; stroke-width: 0.8; stroke-linecap: square"/>
     </g>
     <g id="line2d_12">
      <g>
       <use xlink:href="#m1a527808e3" x="84.97125" y="235.564392" style="stroke: #000000; stroke-width: 0.8"/>
      </g>
     </g>
     <g id="text_7">
      <!-- −0.8 -->
      <g transform="translate(31.240625 243.19908) scale(0.22 -0.22)">
       <defs>
        <path id="LMRoman10-Regular-38" d="M 2925 1075 
C 2925 1306 2854 1594 2611 1862 
C 2490 1997 2387 2061 1978 2317 
C 2438 2554 2752 2886 2752 3309 
C 2752 3898 2182 4262 1600 4262 
C 960 4262 442 3789 442 3194 
C 442 3078 454 2790 723 2490 
C 794 2413 1030 2253 1190 2144 
C 819 1958 269 1600 269 966 
C 269 288 922 -141 1594 -141 
C 2317 -141 2925 390 2925 1075 
z
M 2470 3309 
C 2470 2944 2221 2637 1837 2413 
L 1043 2925 
C 749 3117 723 3334 723 3443 
C 723 3834 1139 4102 1594 4102 
C 2061 4102 2470 3770 2470 3309 
z
M 2605 845 
C 2605 371 2125 38 1600 38 
C 1050 38 589 435 589 966 
C 589 1338 794 1747 1338 2048 
L 2125 1549 
C 2304 1427 2605 1235 2605 845 
z
" transform="scale(0.015625)"/>
       </defs>
       <use xlink:href="#LMRoman10-Regular-2212"/>
       <use xlink:href="#LMRoman10-Regular-30" transform="translate(77.799988 0)"/>
       <use xlink:href="#LMRoman10-Regular-2e" transform="translate(127.799973 0)"/>
       <use xlink:href="#LMRoman10-Regular-38" transform="translate(155.59996 0)"/>
      </g>
     </g>
    </g>
    <g id="ytick_3">
     <g id="line2d_13">
      <path d="M 84.97125 181.831594 
L 531.37125 181.831594 
" clip-path="url(#pfd9dd2c8db)" style="fill: none; stroke: #b0b0b0; stroke-width: 0.8; stroke-linecap: square"/>
     </g>
     <g id="line2d_14">
      <g>
       <use xlink:href="#m1a527808e3" x="84.97125" y="181.831594" style="stroke: #000000; stroke-width: 0.8"/>
      </g>
     </g>
     <g id="text_8">
      <!-- −0.6 -->
      <g transform="translate(31.240625 189.466282) scale(0.22 -0.22)">
       <use xlink:href="#LMRoman10-Regular-2212"/>
       <use xlink:href="#LMRoman10-Regular-30" transform="translate(77.799988 0)"/>
       <use xlink:href="#LMRoman10-Regular-2e" transform="translate(127.799973 0)"/>
       <use xlink:href="#LMRoman10-Regular-36" transform="translate(155.59996 0)"/>
      </g>
     </g>
    </g>
    <g id="ytick_4">
     <g id="line2d_15">
      <path d="M 84.97125 128.098796 
L 531.37125 128.098796 
" clip-path="url(#pfd9dd2c8db)" style="fill: none; stroke: #b0b0b0; stroke-width: 0.8; stroke-linecap: square"/>
     </g>
     <g id="line2d_16">
      <g>
       <use xlink:href="#m1a527808e3" x="84.97125" y="128.098796" style="stroke: #000000; stroke-width: 0.8"/>
      </g>
     </g>
     <g id="text_9">
      <!-- −0.4 -->
      <g transform="translate(31.240625 135.733483) scale(0.22 -0.22)">
       <use xlink:href="#LMRoman10-Regular-2212"/>
       <use xlink:href="#LMRoman10-Regular-30" transform="translate(77.799988 0)"/>
       <use xlink:href="#LMRoman10-Regular-2e" transform="translate(127.799973 0)"/>
       <use xlink:href="#LMRoman10-Regular-34" transform="translate(155.59996 0)"/>
      </g>
     </g>
    </g>
    <g id="ytick_5">
     <g id="line2d_17">
      <path d="M 84.97125 74.365998 
L 531.37125 74.365998 
" clip-path="url(#pfd9dd2c8db)" style="fill: none; stroke: #b0b0b0; stroke-width: 0.8; stroke-linecap: square"/>
     </g>
     <g id="line2d_18">
      <g>
       <use xlink:href="#m1a527808e3" x="84.97125" y="74.365998" style="stroke: #000000; stroke-width: 0.8"/>
      </g>
     </g>
     <g id="text_10">
      <!-- −0.2 -->
      <g transform="translate(31.240625 82.000685) scale(0.22 -0.22)">
       <use xlink:href="#LMRoman10-Regular-2212"/>
       <use xlink:href="#LMRoman10-Regular-30" transform="translate(77.799988 0)"/>
       <use xlink:href="#LMRoman10-Regular-2e" transform="translate(127.799973 0)"/>
       <use xlink:href="#LMRoman10-Regular-32" transform="translate(155.59996 0)"/>
      </g>
     </g>
    </g>
    <g id="ytick_6">
     <g id="line2d_19">
      <path d="M 84.97125 20.6332 
L 531.37125 20.6332 
" clip-path="url(#pfd9dd2c8db)" style="fill: none; stroke: #b0b0b0; stroke-width: 0.8; stroke-linecap: square"/>
     </g>
     <g id="line2d_20">
      <g>
       <use xlink:href="#m1a527808e3" x="84.97125" y="20.6332" style="stroke: #000000; stroke-width: 0.8"/>
      </g>
     </g>
     <g id="text_11">
      <!-- 0.0 -->
      <g transform="translate(48.355937 28.267887) scale(0.22 -0.22)">
       <use xlink:href="#LMRoman10-Regular-30"/>
       <use xlink:href="#LMRoman10-Regular-2e" transform="translate(49.999985 0)"/>
       <use xlink:href="#LMRoman10-Regular-30" transform="translate(77.799973 0)"/>
      </g>
     </g>
    </g>
    <g id="text_12">
     <!-- Energy per Spin -->
     <g transform="translate(22.71 251.671562) rotate(-90) scale(0.22 -0.22)">
      <defs>
       <path id="LMRoman10-Regular-45" d="M 4173 1651 
L 4013 1651 
C 3853 666 3706 198 2605 198 
L 1754 198 
C 1453 198 1440 243 1440 454 
L 1440 2163 
L 2016 2163 
C 2637 2163 2707 1958 2707 1414 
L 2867 1414 
L 2867 3110 
L 2707 3110 
C 2707 2560 2637 2362 2016 2362 
L 1440 2362 
L 1440 3898 
C 1440 4109 1453 4154 1754 4154 
L 2579 4154 
C 3558 4154 3731 3802 3834 2912 
L 3994 2912 
L 3814 4352 
L 211 4352 
L 211 4154 
L 365 4154 
C 858 4154 870 4083 870 3853 
L 870 499 
C 870 269 858 198 365 198 
L 211 198 
L 211 0 
L 3904 0 
L 4173 1651 
z
" transform="scale(0.015625)"/>
       <path id="LMRoman10-Regular-67" d="M 3104 2586 
C 3104 2694 3027 2899 2778 2899 
C 2650 2899 2368 2861 2099 2598 
C 1830 2810 1562 2829 1421 2829 
C 826 2829 384 2387 384 1894 
C 384 1613 525 1370 685 1235 
C 602 1139 486 928 486 704 
C 486 506 570 262 768 134 
C 384 26 179 -250 179 -506 
C 179 -966 813 -1318 1594 -1318 
C 2349 -1318 3014 -992 3014 -493 
C 3014 -269 2925 58 2598 237 
C 2259 416 1888 416 1498 416 
C 1338 416 1062 416 1018 422 
C 813 448 678 646 678 851 
C 678 877 678 1024 787 1152 
C 1037 973 1299 954 1421 954 
C 2016 954 2458 1395 2458 1888 
C 2458 2125 2355 2362 2195 2509 
C 2426 2726 2656 2758 2771 2758 
C 2771 2758 2816 2758 2835 2752 
C 2765 2726 2733 2656 2733 2579 
C 2733 2470 2816 2394 2918 2394 
C 2982 2394 3104 2438 3104 2586 
z
M 1978 1894 
C 1978 1722 1971 1517 1875 1357 
C 1824 1280 1677 1101 1421 1101 
C 864 1101 864 1741 864 1888 
C 864 2061 870 2266 966 2426 
C 1018 2502 1165 2682 1421 2682 
C 1978 2682 1978 2042 1978 1894 
z
M 2682 -506 
C 2682 -851 2227 -1171 1600 -1171 
C 954 -1171 512 -845 512 -506 
C 512 -211 755 26 1037 45 
L 1414 45 
C 1965 45 2682 45 2682 -506 
z
" transform="scale(0.015625)"/>
       <path id="LMRoman10-Regular-79" d="M 3251 2560 
L 3251 2758 
C 3104 2746 2918 2739 2771 2739 
L 2214 2758 
L 2214 2560 
C 2413 2554 2515 2445 2515 2285 
C 2515 2221 2509 2208 2477 2131 
L 1830 557 
L 1120 2278 
C 1094 2342 1082 2368 1082 2394 
C 1082 2560 1318 2560 1440 2560 
L 1440 2758 
L 742 2739 
C 570 2739 314 2746 122 2758 
L 122 2560 
C 429 2560 550 2560 640 2336 
L 1600 0 
L 1440 -378 
C 1299 -730 1120 -1171 710 -1171 
C 678 -1171 531 -1171 410 -1056 
C 608 -1030 659 -890 659 -787 
C 659 -621 538 -518 390 -518 
C 262 -518 122 -602 122 -794 
C 122 -1082 390 -1312 710 -1312 
C 1114 -1312 1376 -947 1530 -582 
L 2656 2150 
C 2822 2554 3149 2560 3251 2560 
z
" transform="scale(0.015625)"/>
       <path id="LMRoman10-Regular-53" d="M 3194 1190 
C 3194 1830 2771 2355 2234 2483 
L 1414 2682 
C 1018 2778 768 3123 768 3494 
C 768 3942 1114 4333 1613 4333 
C 2682 4333 2822 3283 2861 2995 
C 2867 2957 2867 2918 2938 2918 
C 3021 2918 3021 2950 3021 3072 
L 3021 4358 
C 3021 4467 3021 4512 2950 4512 
C 2906 4512 2899 4506 2854 4429 
L 2630 4064 
C 2438 4250 2176 4512 1606 4512 
C 896 4512 358 3949 358 3270 
C 358 2739 698 2272 1197 2099 
C 1267 2074 1594 1997 2042 1888 
C 2214 1843 2406 1798 2586 1562 
C 2720 1395 2784 1184 2784 973 
C 2784 518 2464 58 1926 58 
C 1741 58 1254 90 915 403 
C 544 749 525 1158 518 1389 
C 512 1453 461 1453 442 1453 
C 358 1453 358 1408 358 1293 
L 358 13 
C 358 -96 358 -141 429 -141 
C 474 -141 480 -128 525 -58 
C 525 -58 544 -32 755 307 
C 954 90 1363 -141 1933 -141 
C 2682 -141 3194 486 3194 1190 
z
" transform="scale(0.015625)"/>
       <path id="LMRoman10-Regular-69" d="M 1581 0 
L 1581 198 
C 1158 198 1133 230 1133 480 
L 1133 2829 
L 237 2758 
L 237 2560 
C 653 2560 710 2522 710 2208 
L 710 486 
C 710 198 640 198 211 198 
L 211 0 
L 915 19 
C 1139 19 1363 6 1581 0 
z
M 1229 3866 
C 1229 4038 1082 4205 890 4205 
C 672 4205 544 4026 544 3866 
C 544 3693 691 3526 883 3526 
C 1101 3526 1229 3706 1229 3866 
z
" transform="scale(0.015625)"/>
      </defs>
      <use xlink:href="#LMRoman10-Regular-45"/>
      <use xlink:href="#LMRoman10-Regular-6e" transform="translate(68.099991 0)"/>
      <use xlink:href="#LMRoman10-Regular-65" transform="translate(123.699982 0)"/>
      <use xlink:href="#LMRoman10-Regular-72" transform="translate(168.099976 0)"/>
      <use xlink:href="#LMRoman10-Regular-67" transform="translate(207.299973 0)"/>
      <use xlink:href="#LMRoman10-Regular-79" transform="translate(257.299957 0)"/>
      <use xlink:href="#LMRoman10-Regular-20" transform="translate(310.099945 0)"/>
      <use xlink:href="#LMRoman10-Regular-70" transform="translate(343.399933 0)"/>
      <use xlink:href="#LMRoman10-Regular-65" transform="translate(398.999924 0)"/>
      <use xlink:href="#LMRoman10-Regular-72" transform="translate(443.399918 0)"/>
      <use xlink:href="#LMRoman10-Regular-20" transform="translate(482.599915 0)"/>
      <use xlink:href="#LMRoman10-Regular-53" transform="translate(515.899902 0)"/>
      <use xlink:href="#LMRoman10-Regular-70" transform="translate(571.499893 0)"/>
      <use xlink:href="#LMRoman10-Regular-69" transform="translate(627.099884 0)"/>
      <use xlink:href="#LMRoman10-Regular-6e" transform="translate(654.899872 0)"/>
     </g>
    </g>
   </g>
   <g id="line2d_21">
    <path d="M 105.262159 20.6332 
L 109.361333 23.912687 
L 113.460506 27.191931 
L 117.55968 30.470686 
L 121.658853 33.748708 
L 125.758027 37.025753 
L 129.8572 40.301579 
L 133.956374 43.575941 
L 138.055548 46.848597 
L 142.154721 50.119305 
L 146.253895 53.387822 
L 150.353068 56.653909 
L 154.452242 59.917323 
L 158.551415 63.177827 
L 162.650589 66.435181 
L 166.749762 69.689147 
L 170.848936 72.93949 
L 174.94811 76.185972 
L 179.047283 79.42836 
L 183.146457 82.666419 
L 187.24563 85.899919 
L 191.344804 89.128628 
L 195.443977 92.352318 
L 199.543151 95.570759 
L 203.642324 98.783725 
L 207.741498 101.990993 
L 211.840671 105.192338 
L 215.939845 108.38754 
L 220.039019 111.576378 
L 224.138192 114.758635 
L 228.237366 117.934095 
L 232.336539 121.102543 
L 236.435713 124.263768 
L 240.534886 127.417559 
L 244.63406 130.563709 
L 248.733233 133.702012 
L 252.832407 136.832264 
L 256.931581 139.954264 
L 261.030754 143.067813 
L 265.129928 146.172714 
L 269.229101 149.268772 
L 273.328275 152.355796 
L 277.427448 155.433597 
L 281.526622 158.501987 
L 285.625795 161.560781 
L 289.724969 164.609798 
L 293.824143 167.64886 
L 297.923316 170.677788 
L 302.02249 173.696409 
L 306.121663 176.704552 
L 310.220837 179.702049 
L 314.32001 182.688733 
L 318.419184 185.664442 
L 322.518357 188.629016 
L 326.617531 191.582298 
L 330.716705 194.524132 
L 334.815878 197.454368 
L 338.915052 200.372858 
L 343.014225 203.279455 
L 347.113399 206.174016 
L 351.212572 209.056403 
L 355.311746 211.926478 
L 359.410919 214.784108 
L 363.510093 217.629162 
L 367.609267 220.461512 
L 371.70844 223.281033 
L 375.807614 226.087604 
L 379.906787 228.881107 
L 384.005961 231.661425 
L 388.105134 234.428446 
L 392.204308 237.18206 
L 396.303481 239.922162 
L 400.402655 242.648647 
L 404.501829 245.361416 
L 408.601002 248.06037 
L 412.700176 250.745416 
L 416.799349 253.416463 
L 420.898523 256.073422 
L 424.997696 258.716208 
L 429.09687 261.344738 
L 433.196043 263.958934 
L 437.295217 266.55872 
L 441.39439 269.144021 
L 445.493564 271.714769 
L 449.592738 274.270894 
L 453.691911 276.812334 
L 457.791085 279.339026 
L 461.890258 281.850912 
L 465.989432 284.347936 
L 470.088605 286.830046 
" clip-path="url(#pfd9dd2c8db)" style="fill: none; stroke: #ff0000; stroke-width: 4; stroke-linecap: square"/>
   </g>
   <g id="line2d_22">
    <path d="M 474.187779 289.297191 
L 478.286952 291.749323 
L 482.386126 294.1864 
L 486.4853 296.608378 
L 490.584473 299.015219 
L 494.683647 301.406888 
L 498.78282 303.783349 
L 502.881994 306.144573 
L 506.981167 308.490532 
L 511.080341 310.8212 
" clip-path="url(#pfd9dd2c8db)" style="fill: none; stroke-dasharray: 14.8,6.4; stroke-dashoffset: 0; stroke: #ff0000; stroke-width: 4"/>
   </g>
   <g id="LineCollection_1">
    <path d="M 105.262159 56.052858 
L 105.262159 -1 
" clip-path="url(#pfd9dd2c8db)" style="fill: none; stroke: #1f77b4; stroke-width: 4"/>
    <path d="M 126.228238 86.650677 
L 126.228238 -1 
" clip-path="url(#pfd9dd2c8db)" style="fill: none; stroke: #1f77b4; stroke-width: 4"/>
    <path d="M 147.194317 95.145219 
L 147.194317 18.338061 
" clip-path="url(#pfd9dd2c8db)" style="fill: none; stroke: #1f77b4; stroke-width: 4"/>
    <path d="M 168.160395 97.42056 
L 168.160395 25.949555 
" clip-path="url(#pfd9dd2c8db)" style="fill: none; stroke: #1f77b4; stroke-width: 4"/>
    <path d="M 189.126474 118.751914 
L 189.126474 52.762788 
" clip-path="url(#pfd9dd2c8db)" style="fill: none; stroke: #1f77b4; stroke-width: 4"/>
    <path d="M 210.092553 127.542665 
L 210.092553 58.157496 
" clip-path="url(#pfd9dd2c8db)" style="fill: none; stroke: #1f77b4; stroke-width: 4"/>
    <path d="M 231.058632 145.611369 
L 231.058632 78.776407 
" clip-path="url(#pfd9dd2c8db)" style="fill: none; stroke: #1f77b4; stroke-width: 4"/>
    <path d="M 252.02471 165.386679 
L 252.02471 92.1005 
" clip-path="url(#pfd9dd2c8db)" style="fill: none; stroke: #1f77b4; stroke-width: 4"/>
    <path d="M 272.990789 173.402844 
L 272.990789 97.839932 
" clip-path="url(#pfd9dd2c8db)" style="fill: none; stroke: #1f77b4; stroke-width: 4"/>
    <path d="M 293.956868 194.596924 
L 293.956868 114.043879 
" clip-path="url(#pfd9dd2c8db)" style="fill: none; stroke: #1f77b4; stroke-width: 4"/>
   </g>
   <g id="LineCollection_2">
    <path d="M 105.262159 61.401504 
L 105.262159 -1 
" clip-path="url(#pfd9dd2c8db)" style="fill: none; stroke: #ff7f0e; stroke-width: 4"/>
    <path d="M 126.228238 62.186385 
L 126.228238 17.230301 
" clip-path="url(#pfd9dd2c8db)" style="fill: none; stroke: #ff7f0e; stroke-width: 4"/>
    <path d="M 147.194317 88.65975 
L 147.194317 36.322349 
" clip-path="url(#pfd9dd2c8db)" style="fill: none; stroke: #ff7f0e; stroke-width: 4"/>
    <path d="M 168.160395 89.665856 
L 168.160395 42.623903 
" clip-path="url(#pfd9dd2c8db)" style="fill: none; stroke: #ff7f0e; stroke-width: 4"/>
    <path d="M 189.126474 112.798378 
L 189.126474 59.468583 
" clip-path="url(#pfd9dd2c8db)" style="fill: none; stroke: #ff7f0e; stroke-width: 4"/>
    <path d="M 210.092553 134.390205 
L 210.092553 75.059852 
" clip-path="url(#pfd9dd2c8db)" style="fill: none; stroke: #ff7f0e; stroke-width: 4"/>
    <path d="M 231.058632 158.918712 
L 231.058632 104.908937 
" clip-path="url(#pfd9dd2c8db)" style="fill: none; stroke: #ff7f0e; stroke-width: 4"/>
    <path d="M 252.02471 149.151661 
L 252.02471 102.20998 
" clip-path="url(#pfd9dd2c8db)" style="fill: none; stroke: #ff7f0e; stroke-width: 4"/>
    <path d="M 272.990789 172.392501 
L 272.990789 131.197418 
" clip-path="url(#pfd9dd2c8db)" style="fill: none; stroke: #ff7f0e; stroke-width: 4"/>
    <path clip-path="url(#pfd9dd2c8db)" style="fill: none; stroke: #ff7f0e; stroke-width: 4"/>
   </g>
   <g id="LineCollection_3">
    <path d="M 105.262159 41.297615 
L 105.262159 4.826229 
" clip-path="url(#pfd9dd2c8db)" style="fill: none; stroke: #2ca02c; stroke-width: 4"/>
    <path d="M 126.228238 52.382165 
L 126.228238 32.515266 
" clip-path="url(#pfd9dd2c8db)" style="fill: none; stroke: #2ca02c; stroke-width: 4"/>
    <path d="M 147.194317 64.323664 
L 147.194317 34.673254 
" clip-path="url(#pfd9dd2c8db)" style="fill: none; stroke: #2ca02c; stroke-width: 4"/>
    <path d="M 168.160395 90.309576 
L 168.160395 53.39303 
" clip-path="url(#pfd9dd2c8db)" style="fill: none; stroke: #2ca02c; stroke-width: 4"/>
    <path d="M 189.126474 106.546323 
L 189.126474 69.052071 
" clip-path="url(#pfd9dd2c8db)" style="fill: none; stroke: #2ca02c; stroke-width: 4"/>
    <path d="M 210.092553 122.155052 
L 210.092553 94.194297 
" clip-path="url(#pfd9dd2c8db)" style="fill: none; stroke: #2ca02c; stroke-width: 4"/>
    <path d="M 231.058632 139.431453 
L 231.058632 104.601033 
" clip-path="url(#pfd9dd2c8db)" style="fill: none; stroke: #2ca02c; stroke-width: 4"/>
    <path d="M 252.02471 157.21765 
L 252.02471 126.018286 
" clip-path="url(#pfd9dd2c8db)" style="fill: none; stroke: #2ca02c; stroke-width: 4"/>
    <path clip-path="url(#pfd9dd2c8db)" style="fill: none; stroke: #2ca02c; stroke-width: 4"/>
    <path clip-path="url(#pfd9dd2c8db)" style="fill: none; stroke: #2ca02c; stroke-width: 4"/>
   </g>
   <g id="LineCollection_4">
    <path d="M 105.262159 33.900176 
L 105.262159 7.566825 
" clip-path="url(#pfd9dd2c8db)" style="fill: none; stroke: #9467bd; stroke-width: 4"/>
    <path d="M 126.228238 47.570078 
L 126.228238 16.364398 
" clip-path="url(#pfd9dd2c8db)" style="fill: none; stroke: #9467bd; stroke-width: 4"/>
    <path d="M 147.194317 71.383915 
L 147.194317 40.408573 
" clip-path="url(#pfd9dd2c8db)" style="fill: none; stroke: #9467bd; stroke-width: 4"/>
    <path d="M 168.160395 80.351764 
L 168.160395 57.347097 
" clip-path="url(#pfd9dd2c8db)" style="fill: none; stroke: #9467bd; stroke-width: 4"/>
    <path d="M 189.126474 99.033157 
L 189.126474 73.4559 
" clip-path="url(#pfd9dd2c8db)" style="fill: none; stroke: #9467bd; stroke-width: 4"/>
    <path d="M 210.092553 122.91041 
L 210.092553 91.819791 
" clip-path="url(#pfd9dd2c8db)" style="fill: none; stroke: #9467bd; stroke-width: 4"/>
    <path d="M 231.058632 131.691299 
L 231.058632 107.340455 
" clip-path="url(#pfd9dd2c8db)" style="fill: none; stroke: #9467bd; stroke-width: 4"/>
    <path d="M 252.02471 152.249988 
L 252.02471 120.884182 
" clip-path="url(#pfd9dd2c8db)" style="fill: none; stroke: #9467bd; stroke-width: 4"/>
    <path d="M 272.990789 158.383129 
L 272.990789 133.607671 
" clip-path="url(#pfd9dd2c8db)" style="fill: none; stroke: #9467bd; stroke-width: 4"/>
    <path clip-path="url(#pfd9dd2c8db)" style="fill: none; stroke: #9467bd; stroke-width: 4"/>
   </g>
   <g id="LineCollection_5">
    <path d="M 157.027587 368.8588 
L 157.027587 -1 
" clip-path="url(#pfd9dd2c8db)" style="fill: none; stroke-dasharray: 14.8,6.4; stroke-dashoffset: 0; stroke: #000000; stroke-width: 4"/>
   </g>
   <g id="LineCollection_6">
    <path d="M 276.802803 368.8588 
L 276.802803 -1 
" clip-path="url(#pfd9dd2c8db)" style="fill: none; stroke-dasharray: 25.6,6.4,4,6.4; stroke-dashoffset: 0; stroke: #bf00bf; stroke-width: 4"/>
   </g>
   <g id="LineCollection_7">
    <path d="M 474.187779 368.8588 
L 474.187779 -1 
" clip-path="url(#pfd9dd2c8db)" style="fill: none; stroke-dasharray: 4,6.6; stroke-dashoffset: 0; stroke: #008000; stroke-width: 4"/>
   </g>
   <g id="line2d_23">
    <defs>
     <path id="m3cf29ac7a6" d="M 0 5 
C 1.326016 5 2.597899 4.473168 3.535534 3.535534 
C 4.473168 2.597899 5 1.326016 5 0 
C 5 -1.326016 4.473168 -2.597899 3.535534 -3.535534 
C 2.597899 -4.473168 1.326016 -5 0 -5 
C -1.326016 -5 -2.597899 -4.473168 -3.535534 -3.535534 
C -4.473168 -2.597899 -5 -1.326016 -5 0 
C -5 1.326016 -4.473168 2.597899 -3.535534 3.535534 
C -2.597899 4.473168 -1.326016 5 0 5 
z
" style="stroke: #1f77b4"/>
    </defs>
    <g clip-path="url(#pfd9dd2c8db)">
     <use xlink:href="#m3cf29ac7a6" x="105.262159" y="18.268956" style="fill: #1f77b4; stroke: #1f77b4"/>
     <use xlink:href="#m3cf29ac7a6" x="126.228238" y="37.827695" style="fill: #1f77b4; stroke: #1f77b4"/>
     <use xlink:href="#m3cf29ac7a6" x="147.194317" y="56.74164" style="fill: #1f77b4; stroke: #1f77b4"/>
     <use xlink:href="#m3cf29ac7a6" x="168.160395" y="61.685057" style="fill: #1f77b4; stroke: #1f77b4"/>
     <use xlink:href="#m3cf29ac7a6" x="189.126474" y="85.757351" style="fill: #1f77b4; stroke: #1f77b4"/>
     <use xlink:href="#m3cf29ac7a6" x="210.092553" y="92.85008" style="fill: #1f77b4; stroke: #1f77b4"/>
     <use xlink:href="#m3cf29ac7a6" x="231.058632" y="112.193888" style="fill: #1f77b4; stroke: #1f77b4"/>
     <use xlink:href="#m3cf29ac7a6" x="252.02471" y="128.74359" style="fill: #1f77b4; stroke: #1f77b4"/>
     <use xlink:href="#m3cf29ac7a6" x="272.990789" y="135.621388" style="fill: #1f77b4; stroke: #1f77b4"/>
     <use xlink:href="#m3cf29ac7a6" x="293.956868" y="154.320402" style="fill: #1f77b4; stroke: #1f77b4"/>
    </g>
   </g>
   <g id="line2d_24">
    <defs>
     <path id="m708c208f21" d="M -5 5 
L 5 5 
L 5 -5 
L -5 -5 
z
" style="stroke: #ff7f0e; stroke-linejoin: miter"/>
    </defs>
    <g clip-path="url(#pfd9dd2c8db)">
     <use xlink:href="#m708c208f21" x="105.262159" y="29.606577" style="fill: #ff7f0e; stroke: #ff7f0e; stroke-linejoin: miter"/>
     <use xlink:href="#m708c208f21" x="126.228238" y="39.708343" style="fill: #ff7f0e; stroke: #ff7f0e; stroke-linejoin: miter"/>
     <use xlink:href="#m708c208f21" x="147.194317" y="62.491049" style="fill: #ff7f0e; stroke: #ff7f0e; stroke-linejoin: miter"/>
     <use xlink:href="#m708c208f21" x="168.160395" y="66.14488" style="fill: #ff7f0e; stroke: #ff7f0e; stroke-linejoin: miter"/>
     <use xlink:href="#m708c208f21" x="189.126474" y="86.133481" style="fill: #ff7f0e; stroke: #ff7f0e; stroke-linejoin: miter"/>
     <use xlink:href="#m708c208f21" x="210.092553" y="104.725029" style="fill: #ff7f0e; stroke: #ff7f0e; stroke-linejoin: miter"/>
     <use xlink:href="#m708c208f21" x="231.058632" y="131.913825" style="fill: #ff7f0e; stroke: #ff7f0e; stroke-linejoin: miter"/>
     <use xlink:href="#m708c208f21" x="252.02471" y="125.68082" style="fill: #ff7f0e; stroke: #ff7f0e; stroke-linejoin: miter"/>
     <use xlink:href="#m708c208f21" x="272.990789" y="151.79496" style="fill: #ff7f0e; stroke: #ff7f0e; stroke-linejoin: miter"/>
    </g>
   </g>
   <g id="line2d_25">
    <defs>
     <path id="m0aa5142a31" d="M -0 7.071068 
L 7.071068 0 
L 0 -7.071068 
L -7.071068 -0 
z
" style="stroke: #2ca02c; stroke-linejoin: miter"/>
    </defs>
    <g clip-path="url(#pfd9dd2c8db)">
     <use xlink:href="#m0aa5142a31" x="105.262159" y="23.061922" style="fill: #2ca02c; stroke: #2ca02c; stroke-linejoin: miter"/>
     <use xlink:href="#m0aa5142a31" x="126.228238" y="42.448716" style="fill: #2ca02c; stroke: #2ca02c; stroke-linejoin: miter"/>
     <use xlink:href="#m0aa5142a31" x="147.194317" y="49.498459" style="fill: #2ca02c; stroke: #2ca02c; stroke-linejoin: miter"/>
     <use xlink:href="#m0aa5142a31" x="168.160395" y="71.851303" style="fill: #2ca02c; stroke: #2ca02c; stroke-linejoin: miter"/>
     <use xlink:href="#m0aa5142a31" x="189.126474" y="87.799197" style="fill: #2ca02c; stroke: #2ca02c; stroke-linejoin: miter"/>
     <use xlink:href="#m0aa5142a31" x="210.092553" y="108.174674" style="fill: #2ca02c; stroke: #2ca02c; stroke-linejoin: miter"/>
     <use xlink:href="#m0aa5142a31" x="231.058632" y="122.016243" style="fill: #2ca02c; stroke: #2ca02c; stroke-linejoin: miter"/>
     <use xlink:href="#m0aa5142a31" x="252.02471" y="141.617968" style="fill: #2ca02c; stroke: #2ca02c; stroke-linejoin: miter"/>
    </g>
   </g>
   <g id="line2d_26">
    <defs>
     <path id="mbaac53b142" d="M -1.666667 5 
L 1.666667 5 
L 1.666667 1.666667 
L 5 1.666667 
L 5 -1.666667 
L 1.666667 -1.666667 
L 1.666667 -5 
L -1.666667 -5 
L -1.666667 -1.666667 
L -5 -1.666667 
L -5 1.666667 
L -1.666667 1.666667 
z
" style="stroke: #9467bd; stroke-linejoin: miter"/>
    </defs>
    <g clip-path="url(#pfd9dd2c8db)">
     <use xlink:href="#mbaac53b142" x="105.262159" y="20.733501" style="fill: #9467bd; stroke: #9467bd; stroke-linejoin: miter"/>
     <use xlink:href="#mbaac53b142" x="126.228238" y="31.967238" style="fill: #9467bd; stroke: #9467bd; stroke-linejoin: miter"/>
     <use xlink:href="#mbaac53b142" x="147.194317" y="55.896244" style="fill: #9467bd; stroke: #9467bd; stroke-linejoin: miter"/>
     <use xlink:href="#mbaac53b142" x="168.160395" y="68.84943" style="fill: #9467bd; stroke: #9467bd; stroke-linejoin: miter"/>
     <use xlink:href="#mbaac53b142" x="189.126474" y="86.244528" style="fill: #9467bd; stroke: #9467bd; stroke-linejoin: miter"/>
     <use xlink:href="#mbaac53b142" x="210.092553" y="107.3651" style="fill: #9467bd; stroke: #9467bd; stroke-linejoin: miter"/>
     <use xlink:href="#mbaac53b142" x="231.058632" y="119.515877" style="fill: #9467bd; stroke: #9467bd; stroke-linejoin: miter"/>
     <use xlink:href="#mbaac53b142" x="252.02471" y="136.567085" style="fill: #9467bd; stroke: #9467bd; stroke-linejoin: miter"/>
     <use xlink:href="#mbaac53b142" x="272.990789" y="145.9954" style="fill: #9467bd; stroke: #9467bd; stroke-linejoin: miter"/>
    </g>
   </g>
   <g id="patch_3">
    <path d="M 84.97125 339.84 
L 84.97125 7.2 
" style="fill: none; stroke: #000000; stroke-width: 0.8; stroke-linejoin: miter; stroke-linecap: square"/>
   </g>
   <g id="patch_4">
    <path d="M 84.97125 339.84 
L 531.37125 339.84 
" style="fill: none; stroke: #000000; stroke-width: 0.8; stroke-linejoin: miter; stroke-linecap: square"/>
   </g>
   <g id="legend_1">
    <g id="line2d_27">
     <path d="M 421.57125 22.2 
L 433.57125 22.2 
L 445.57125 22.2 
" style="fill: none; stroke: #ff0000; stroke-width: 4; stroke-linecap: square"/>
    </g>
    <g id="text_13">
     <!-- RS Solution -->
     <g transform="translate(455.17125 26.4) scale(0.12 -0.12)">
      <defs>
       <path id="LMRoman10-Regular-52" d="M 4685 563 
C 4685 602 4685 672 4602 672 
C 4531 672 4531 614 4525 570 
C 4486 115 4262 0 4102 0 
C 3789 0 3738 326 3648 922 
L 3565 1434 
C 3450 1843 3136 2054 2784 2176 
C 3405 2330 3904 2720 3904 3219 
C 3904 3834 3174 4371 2234 4371 
L 224 4371 
L 224 4173 
L 378 4173 
C 870 4173 883 4102 883 3872 
L 883 499 
C 883 269 870 198 378 198 
L 224 198 
L 224 0 
C 454 19 909 19 1158 19 
C 1408 19 1862 19 2093 0 
L 2093 198 
L 1939 198 
C 1446 198 1434 269 1434 499 
L 1434 2118 
L 2170 2118 
C 2272 2118 2541 2118 2765 1901 
C 3008 1670 3008 1472 3008 1043 
C 3008 627 3008 371 3270 128 
C 3533 -102 3885 -141 4077 -141 
C 4576 -141 4685 384 4685 563 
z
M 3245 3219 
C 3245 2778 3091 2259 2144 2259 
L 1434 2259 
L 1434 3917 
C 1434 4064 1434 4141 1574 4160 
C 1638 4173 1824 4173 1952 4173 
C 2528 4173 3245 4147 3245 3219 
z
" transform="scale(0.015625)"/>
       <path id="LMRoman10-Regular-6f" d="M 3014 1370 
C 3014 2189 2374 2867 1600 2867 
C 800 2867 179 2170 179 1370 
C 179 544 845 -70 1594 -70 
C 2368 -70 3014 557 3014 1370 
z
M 2483 1421 
C 2483 1190 2483 845 2342 563 
C 2202 275 1920 90 1600 90 
C 1325 90 1043 224 870 518 
C 710 800 710 1190 710 1421 
C 710 1670 710 2016 864 2298 
C 1037 2592 1338 2726 1594 2726 
C 1875 2726 2150 2586 2317 2310 
C 2483 2035 2483 1664 2483 1421 
z
" transform="scale(0.015625)"/>
       <path id="LMRoman10-Regular-6c" d="M 1632 0 
L 1632 198 
C 1203 198 1133 198 1133 486 
L 1133 4442 
L 211 4371 
L 211 4173 
C 659 4173 710 4128 710 3814 
L 710 486 
C 710 198 640 198 211 198 
L 211 0 
L 922 19 
L 1632 0 
z
" transform="scale(0.015625)"/>
      </defs>
      <use xlink:href="#LMRoman10-Regular-52"/>
      <use xlink:href="#LMRoman10-Regular-53" transform="translate(73.599991 0)"/>
      <use xlink:href="#LMRoman10-Regular-20" transform="translate(129.199982 0)"/>
      <use xlink:href="#LMRoman10-Regular-53" transform="translate(162.499969 0)"/>
      <use xlink:href="#LMRoman10-Regular-6f" transform="translate(218.09996 0)"/>
      <use xlink:href="#LMRoman10-Regular-6c" transform="translate(268.099945 0)"/>
      <use xlink:href="#LMRoman10-Regular-75" transform="translate(295.899933 0)"/>
      <use xlink:href="#LMRoman10-Regular-74" transform="translate(351.499924 0)"/>
      <use xlink:href="#LMRoman10-Regular-69" transform="translate(390.399918 0)"/>
      <use xlink:href="#LMRoman10-Regular-6f" transform="translate(418.199905 0)"/>
      <use xlink:href="#LMRoman10-Regular-6e" transform="translate(468.19989 0)"/>
     </g>
    </g>
    <g id="line2d_28">
     <path d="M 421.57125 39.04875 
L 445.57125 39.04875 
" style="fill: none; stroke-dasharray: 14.8,6.4; stroke-dashoffset: 0; stroke: #000000; stroke-width: 4"/>
    </g>
    <g id="text_14">
     <!-- $\beta_{BD}$ -->
     <g transform="translate(455.17125 43.24875) scale(0.12 -0.12)">
      <defs>
       <path id="Cmmi10-42" d="M 319 0 
Q 256 0 256 84 
Q 259 100 268 137 
Q 278 175 293 200 
Q 309 225 341 225 
Q 522 225 656 234 
Q 791 244 884 269 
Q 959 297 1006 441 
L 1881 3956 
Q 1894 4019 1894 4044 
Q 1894 4113 1819 4122 
Q 1697 4147 1356 4147 
Q 1294 4147 1294 4231 
Q 1297 4247 1306 4286 
Q 1316 4325 1333 4348 
Q 1350 4372 1375 4372 
L 3669 4372 
Q 3878 4372 4083 4320 
Q 4288 4269 4461 4156 
Q 4634 4044 4736 3876 
Q 4838 3709 4838 3488 
Q 4838 3247 4714 3040 
Q 4591 2834 4395 2681 
Q 4200 2528 3973 2429 
Q 3747 2331 3500 2284 
Q 3675 2284 3854 2215 
Q 4034 2147 4175 2028 
Q 4316 1909 4402 1743 
Q 4488 1578 4488 1388 
Q 4488 1003 4219 684 
Q 3950 366 3542 183 
Q 3134 0 2753 0 
L 319 0 
z
M 1497 275 
Q 1497 225 1716 225 
L 2631 225 
Q 2944 225 3231 398 
Q 3519 572 3692 859 
Q 3866 1147 3866 1459 
Q 3866 1650 3786 1820 
Q 3706 1991 3556 2089 
Q 3406 2188 3213 2188 
L 1966 2188 
L 1522 416 
Q 1497 328 1497 275 
z
M 2009 2356 
L 2981 2356 
Q 3288 2356 3577 2512 
Q 3866 2669 4048 2937 
Q 4231 3206 4231 3506 
Q 4231 3784 4057 3965 
Q 3884 4147 3609 4147 
L 2731 4147 
Q 2559 4147 2500 4115 
Q 2441 4084 2400 3928 
L 2009 2356 
z
" transform="scale(0.015625)"/>
       <path id="Cmmi10-44" d="M 313 0 
Q 250 0 250 84 
Q 253 100 262 139 
Q 272 178 289 201 
Q 306 225 331 225 
Q 722 225 878 269 
Q 959 297 997 441 
L 1875 3956 
Q 1888 4019 1888 4044 
Q 1888 4113 1813 4122 
Q 1691 4147 1350 4147 
Q 1288 4147 1288 4231 
Q 1291 4247 1300 4286 
Q 1309 4325 1326 4348 
Q 1344 4372 1369 4372 
L 3669 4372 
Q 4116 4372 4450 4155 
Q 4784 3938 4962 3570 
Q 5141 3203 5141 2759 
Q 5141 2269 4937 1778 
Q 4734 1288 4368 881 
Q 4003 475 3534 237 
Q 3066 0 2572 0 
L 313 0 
z
M 1509 275 
Q 1509 225 1728 225 
L 2472 225 
Q 2828 225 3159 372 
Q 3491 519 3750 775 
Q 3991 1016 4175 1406 
Q 4359 1797 4461 2222 
Q 4563 2647 4563 3003 
Q 4563 3263 4486 3472 
Q 4409 3681 4270 3831 
Q 4131 3981 3922 4064 
Q 3713 4147 3450 4147 
L 2747 4147 
Q 2572 4147 2515 4117 
Q 2459 4088 2413 3928 
L 1538 416 
Q 1509 338 1509 275 
z
" transform="scale(0.015625)"/>
      </defs>
      <use xlink:href="#Cmmi10-af" transform="translate(0 0.484375)"/>
      <use xlink:href="#Cmmi10-42" transform="translate(56.494141 -16.521875) scale(0.7)"/>
      <use xlink:href="#Cmmi10-44" transform="translate(109.541016 -16.521875) scale(0.7)"/>
     </g>
    </g>
    <g id="line2d_29">
     <path d="M 421.57125 57.64875 
L 445.57125 57.64875 
" style="fill: none; stroke-dasharray: 25.6,6.4,4,6.4; stroke-dashoffset: 0; stroke: #bf00bf; stroke-width: 4"/>
    </g>
    <g id="text_15">
     <!-- $\tanh^{-1}(1/d)$ -->
     <g transform="translate(455.17125 61.84875) scale(0.12 -0.12)">
      <defs>
       <path id="Cmr10-74" d="M 653 769 
L 653 2534 
L 122 2534 
L 122 2700 
Q 541 2700 737 3090 
Q 934 3481 934 3938 
L 1119 3938 
L 1119 2759 
L 2022 2759 
L 2022 2534 
L 1119 2534 
L 1119 781 
Q 1119 516 1208 316 
Q 1297 116 1528 116 
Q 1747 116 1844 327 
Q 1941 538 1941 781 
L 1941 1159 
L 2125 1159 
L 2125 769 
Q 2125 569 2051 373 
Q 1978 178 1834 53 
Q 1691 -72 1484 -72 
Q 1100 -72 876 158 
Q 653 388 653 769 
z
" transform="scale(0.015625)"/>
       <path id="Cmr10-61" d="M 256 628 
Q 256 1009 556 1248 
Q 856 1488 1276 1586 
Q 1697 1684 2075 1684 
L 2075 1947 
Q 2075 2131 1994 2304 
Q 1913 2478 1759 2589 
Q 1606 2700 1422 2700 
Q 997 2700 775 2509 
Q 897 2509 976 2417 
Q 1056 2325 1056 2203 
Q 1056 2075 965 1984 
Q 875 1894 750 1894 
Q 622 1894 531 1984 
Q 441 2075 441 2203 
Q 441 2541 747 2705 
Q 1053 2869 1422 2869 
Q 1681 2869 1943 2758 
Q 2206 2647 2373 2440 
Q 2541 2234 2541 1959 
L 2541 519 
Q 2541 394 2594 289 
Q 2647 184 2759 184 
Q 2866 184 2917 290 
Q 2969 397 2969 519 
L 2969 928 
L 3156 928 
L 3156 519 
Q 3156 375 3081 245 
Q 3006 116 2879 39 
Q 2753 -38 2606 -38 
Q 2419 -38 2283 107 
Q 2147 253 2131 453 
Q 2013 213 1781 70 
Q 1550 -72 1288 -72 
Q 1044 -72 808 0 
Q 572 72 414 226 
Q 256 381 256 628 
z
M 775 628 
Q 775 403 940 250 
Q 1106 97 1331 97 
Q 1538 97 1706 200 
Q 1875 303 1975 481 
Q 2075 659 2075 856 
L 2075 1522 
Q 1784 1522 1479 1426 
Q 1175 1331 975 1128 
Q 775 925 775 628 
z
" transform="scale(0.015625)"/>
       <path id="Cmr10-6e" d="M 191 0 
L 191 225 
Q 409 225 550 259 
Q 691 294 691 428 
L 691 2175 
Q 691 2347 639 2423 
Q 588 2500 491 2517 
Q 394 2534 191 2534 
L 191 2759 
L 1119 2828 
L 1119 2203 
Q 1247 2478 1498 2653 
Q 1750 2828 2047 2828 
Q 2491 2828 2714 2615 
Q 2938 2403 2938 1966 
L 2938 428 
Q 2938 294 3078 259 
Q 3219 225 3438 225 
L 3438 0 
L 1972 0 
L 1972 225 
Q 2191 225 2331 259 
Q 2472 294 2472 428 
L 2472 1947 
Q 2472 2259 2381 2461 
Q 2291 2663 2009 2663 
Q 1638 2663 1398 2366 
Q 1159 2069 1159 1691 
L 1159 428 
Q 1159 294 1300 259 
Q 1441 225 1656 225 
L 1656 0 
L 191 0 
z
" transform="scale(0.015625)"/>
       <path id="Cmr10-68" d="M 191 0 
L 191 225 
Q 409 225 550 259 
Q 691 294 691 428 
L 691 3788 
Q 691 3959 639 4036 
Q 588 4113 491 4130 
Q 394 4147 191 4147 
L 191 4372 
L 1141 4441 
L 1141 2241 
Q 1275 2506 1515 2667 
Q 1756 2828 2047 2828 
Q 2491 2828 2714 2615 
Q 2938 2403 2938 1966 
L 2938 428 
Q 2938 294 3078 259 
Q 3219 225 3438 225 
L 3438 0 
L 1972 0 
L 1972 225 
Q 2191 225 2331 259 
Q 2472 294 2472 428 
L 2472 1947 
Q 2472 2259 2381 2461 
Q 2291 2663 2009 2663 
Q 1638 2663 1398 2366 
Q 1159 2069 1159 1691 
L 1159 428 
Q 1159 294 1300 259 
Q 1441 225 1656 225 
L 1656 0 
L 191 0 
z
" transform="scale(0.015625)"/>
       <path id="Cmsy10-a1" d="M 653 1472 
Q 600 1472 565 1512 
Q 531 1553 531 1600 
Q 531 1647 565 1687 
Q 600 1728 653 1728 
L 4325 1728 
Q 4375 1728 4408 1687 
Q 4441 1647 4441 1600 
Q 4441 1553 4408 1512 
Q 4375 1472 4325 1472 
L 653 1472 
z
" transform="scale(0.015625)"/>
       <path id="Cmr10-31" d="M 594 0 
L 594 225 
Q 1394 225 1394 428 
L 1394 3788 
Q 1063 3628 556 3628 
L 556 3853 
Q 1341 3853 1741 4263 
L 1831 4263 
Q 1853 4263 1873 4245 
Q 1894 4228 1894 4206 
L 1894 428 
Q 1894 225 2694 225 
L 2694 0 
L 594 0 
z
" transform="scale(0.015625)"/>
       <path id="Cmr10-28" d="M 1984 -1588 
Q 1628 -1306 1370 -942 
Q 1113 -578 948 -165 
Q 784 247 703 697 
Q 622 1147 622 1600 
Q 622 2059 703 2509 
Q 784 2959 951 3375 
Q 1119 3791 1378 4153 
Q 1638 4516 1984 4788 
Q 1984 4800 2016 4800 
L 2075 4800 
Q 2094 4800 2109 4783 
Q 2125 4766 2125 4744 
Q 2125 4716 2113 4703 
Q 1800 4397 1592 4047 
Q 1384 3697 1257 3301 
Q 1131 2906 1075 2482 
Q 1019 2059 1019 1600 
Q 1019 -434 2106 -1491 
Q 2125 -1509 2125 -1544 
Q 2125 -1559 2108 -1579 
Q 2091 -1600 2075 -1600 
L 2016 -1600 
Q 1984 -1600 1984 -1588 
z
" transform="scale(0.015625)"/>
       <path id="Cmmi10-3d" d="M 359 -1472 
Q 359 -1453 366 -1447 
L 2591 4722 
Q 2603 4759 2634 4779 
Q 2666 4800 2706 4800 
Q 2763 4800 2798 4765 
Q 2834 4731 2834 4672 
L 2834 4647 
L 609 -1522 
Q 572 -1600 488 -1600 
Q 434 -1600 396 -1562 
Q 359 -1525 359 -1472 
z
" transform="scale(0.015625)"/>
       <path id="Cmmi10-64" d="M 1113 -72 
Q 709 -72 476 233 
Q 244 538 244 953 
Q 244 1363 456 1803 
Q 669 2244 1030 2536 
Q 1391 2828 1806 2828 
Q 1994 2828 2145 2723 
Q 2297 2619 2381 2444 
L 2741 3872 
Q 2766 3981 2772 4044 
Q 2772 4147 2356 4147 
Q 2291 4147 2291 4231 
Q 2294 4247 2305 4287 
Q 2316 4328 2333 4350 
Q 2350 4372 2381 4372 
L 3244 4441 
Q 3322 4441 3322 4359 
L 2400 678 
Q 2356 572 2356 372 
Q 2356 97 2541 97 
Q 2741 97 2845 351 
Q 2950 606 3022 941 
Q 3034 978 3072 978 
L 3150 978 
Q 3175 978 3190 956 
Q 3206 934 3206 916 
Q 3094 469 2961 198 
Q 2828 -72 2528 -72 
Q 2313 -72 2147 54 
Q 1981 181 1941 391 
Q 1528 -72 1113 -72 
z
M 1119 97 
Q 1350 97 1567 270 
Q 1784 444 1941 678 
Q 1947 684 1947 703 
L 2297 2113 
Q 2259 2338 2131 2500 
Q 2003 2663 1791 2663 
Q 1575 2663 1389 2486 
Q 1203 2309 1075 2069 
Q 950 1813 836 1366 
Q 722 919 722 672 
Q 722 450 817 273 
Q 913 97 1119 97 
z
" transform="scale(0.015625)"/>
       <path id="Cmr10-29" d="M 416 -1600 
Q 359 -1600 359 -1544 
Q 359 -1516 372 -1503 
Q 1466 -434 1466 1600 
Q 1466 3634 384 4691 
Q 359 4706 359 4744 
Q 359 4766 376 4783 
Q 394 4800 416 4800 
L 475 4800 
Q 494 4800 506 4788 
Q 966 4425 1272 3906 
Q 1578 3388 1720 2800 
Q 1863 2213 1863 1600 
Q 1863 1147 1786 708 
Q 1709 269 1542 -157 
Q 1375 -584 1119 -945 
Q 863 -1306 506 -1588 
Q 494 -1600 475 -1600 
L 416 -1600 
z
" transform="scale(0.015625)"/>
      </defs>
      <use xlink:href="#Cmr10-74" transform="translate(0 0.109375)"/>
      <use xlink:href="#Cmr10-61" transform="translate(38.818359 0.109375)"/>
      <use xlink:href="#Cmr10-6e" transform="translate(88.818359 0.109375)"/>
      <use xlink:href="#Cmr10-68" transform="translate(144.335938 0.109375)"/>
      <use xlink:href="#Cmsy10-a1" transform="translate(204.317656 38.373438) scale(0.7)"/>
      <use xlink:href="#Cmr10-31" transform="translate(258.697539 38.373438) scale(0.7)"/>
      <use xlink:href="#Cmr10-28" transform="translate(314.707337 0.109375)"/>
      <use xlink:href="#Cmr10-31" transform="translate(353.525696 0.109375)"/>
      <use xlink:href="#Cmmi10-3d" transform="translate(403.525696 0.109375)"/>
      <use xlink:href="#Cmmi10-64" transform="translate(453.525696 0.109375)"/>
      <use xlink:href="#Cmr10-29" transform="translate(505.527649 0.109375)"/>
     </g>
    </g>
    <g id="line2d_30">
     <path d="M 421.57125 75.16875 
L 445.57125 75.16875 
" style="fill: none; stroke-dasharray: 4,6.6; stroke-dashoffset: 0; stroke: #008000; stroke-width: 4"/>
    </g>
    <g id="text_16">
     <!-- $\beta_{SG}$ -->
     <g transform="translate(455.17125 79.36875) scale(0.12 -0.12)">
      <defs>
       <path id="Cmmi10-53" d="M 391 -141 
Q 372 -141 356 -119 
Q 341 -97 341 -78 
L 709 1416 
Q 722 1453 763 1453 
L 838 1453 
Q 863 1453 877 1434 
Q 891 1416 891 1388 
Q 838 1169 838 997 
Q 838 534 1156 309 
Q 1475 84 1959 84 
Q 2169 84 2372 187 
Q 2575 291 2726 456 
Q 2878 622 2968 826 
Q 3059 1031 3059 1241 
Q 3059 1466 2940 1642 
Q 2822 1819 2613 1869 
L 1831 2075 
Q 1516 2159 1328 2414 
Q 1141 2669 1141 2988 
Q 1141 3372 1369 3728 
Q 1597 4084 1964 4298 
Q 2331 4513 2713 4513 
Q 3006 4513 3251 4405 
Q 3497 4297 3628 4063 
L 3994 4494 
Q 4031 4513 4038 4513 
L 4078 4513 
Q 4103 4513 4118 4491 
Q 4134 4469 4134 4447 
L 3763 2963 
Q 3753 2919 3713 2919 
L 3634 2919 
Q 3578 2919 3578 2988 
Q 3609 3191 3609 3341 
Q 3609 3638 3507 3858 
Q 3406 4078 3201 4192 
Q 2997 4306 2694 4306 
Q 2438 4306 2184 4159 
Q 1931 4013 1775 3769 
Q 1619 3525 1619 3263 
Q 1619 3056 1739 2897 
Q 1859 2738 2059 2681 
L 2841 2478 
Q 3053 2422 3211 2280 
Q 3369 2138 3450 1942 
Q 3531 1747 3531 1516 
Q 3531 1213 3403 917 
Q 3275 622 3045 378 
Q 2816 134 2525 -3 
Q 2234 -141 1931 -141 
Q 1169 -141 838 306 
L 481 -122 
Q 444 -141 434 -141 
L 391 -141 
z
" transform="scale(0.015625)"/>
       <path id="Cmmi10-47" d="M 934 1403 
Q 934 1006 1092 707 
Q 1250 409 1547 246 
Q 1844 84 2234 84 
Q 2616 84 2959 264 
Q 3303 444 3391 781 
L 3531 1331 
Q 3534 1350 3537 1370 
Q 3541 1391 3541 1403 
Q 3541 1469 3500 1478 
Q 3341 1522 2859 1522 
Q 2797 1522 2797 1606 
Q 2816 1684 2831 1715 
Q 2847 1747 2906 1747 
L 4556 1747 
Q 4622 1747 4622 1663 
Q 4619 1647 4609 1609 
Q 4600 1572 4584 1547 
Q 4569 1522 4538 1522 
Q 4325 1522 4226 1487 
Q 4128 1453 4091 1306 
L 3950 756 
L 3769 44 
Q 3759 0 3713 0 
Q 3659 0 3559 144 
Q 3459 288 3419 384 
Q 3197 122 2825 -9 
Q 2453 -141 2059 -141 
Q 1563 -141 1164 84 
Q 766 309 545 709 
Q 325 1109 325 1613 
Q 325 2150 564 2673 
Q 803 3197 1212 3611 
Q 1622 4025 2142 4269 
Q 2663 4513 3194 4513 
Q 3406 4513 3601 4447 
Q 3797 4381 3964 4251 
Q 4131 4122 4238 3950 
L 4744 4500 
Q 4744 4513 4775 4513 
L 4813 4513 
Q 4838 4513 4855 4492 
Q 4872 4472 4872 4447 
L 4434 2719 
Q 4434 2675 4384 2675 
L 4269 2675 
Q 4219 2675 4219 2747 
Q 4244 2888 4244 3078 
Q 4244 3394 4137 3672 
Q 4031 3950 3806 4119 
Q 3581 4288 3256 4288 
Q 2741 4288 2303 4027 
Q 1866 3766 1562 3337 
Q 1259 2909 1096 2396 
Q 934 1884 934 1403 
z
" transform="scale(0.015625)"/>
      </defs>
      <use xlink:href="#Cmmi10-af" transform="translate(0 0.484375)"/>
      <use xlink:href="#Cmmi10-53" transform="translate(56.494141 -16.521875) scale(0.7)"/>
      <use xlink:href="#Cmmi10-47" transform="translate(99.389648 -16.521875) scale(0.7)"/>
     </g>
    </g>
    <g id="LineCollection_8">
     <path d="M 433.57125 97.96875 
L 433.57125 85.96875 
" style="fill: none; stroke: #1f77b4; stroke-width: 4"/>
    </g>
    <g id="line2d_31"/>
    <g id="line2d_32">
     <g>
      <use xlink:href="#m3cf29ac7a6" x="433.57125" y="91.96875" style="fill: #1f77b4; stroke: #1f77b4"/>
     </g>
    </g>
    <g id="text_17">
     <!-- N=100 -->
     <g transform="translate(455.17125 96.16875) scale(0.12 -0.12)">
      <defs>
       <path id="LMRoman10-Regular-4e" d="M 4582 4173 
L 4582 4371 
L 3834 4352 
L 3085 4371 
L 3085 4173 
C 3744 4173 3744 3872 3744 3699 
L 3744 966 
L 1485 4288 
C 1427 4365 1421 4371 1299 4371 
L 211 4371 
L 211 4173 
L 397 4173 
C 493 4173 621 4166 717 4160 
C 864 4141 870 4134 870 4013 
L 870 672 
C 870 499 870 198 211 198 
L 211 0 
L 960 19 
L 1709 0 
L 1709 198 
C 1050 198 1050 499 1050 672 
L 1050 4000 
C 1082 3968 1088 3962 1114 3923 
L 3725 83 
C 3782 6 3789 0 3834 0 
C 3923 0 3923 45 3923 166 
L 3923 3699 
C 3923 3872 3923 4173 4582 4173 
z
" transform="scale(0.015625)"/>
       <path id="LMRoman10-Regular-3d" d="M 4614 2221 
C 4614 2349 4493 2349 4403 2349 
L 570 2349 
C 480 2349 358 2349 358 2221 
C 358 2093 480 2093 576 2093 
L 4397 2093 
C 4493 2093 4614 2093 4614 2221 
z
M 4614 979 
C 4614 1107 4493 1107 4397 1107 
L 576 1107 
C 480 1107 358 1107 358 979 
C 358 851 480 851 570 851 
L 4403 851 
C 4493 851 4614 851 4614 979 
z
" transform="scale(0.015625)"/>
      </defs>
      <use xlink:href="#LMRoman10-Regular-4e"/>
      <use xlink:href="#LMRoman10-Regular-3d" transform="translate(74.999985 0)"/>
      <use xlink:href="#LMRoman10-Regular-31" transform="translate(152.799973 0)"/>
      <use xlink:href="#LMRoman10-Regular-30" transform="translate(202.799957 0)"/>
      <use xlink:href="#LMRoman10-Regular-30" transform="translate(252.799942 0)"/>
     </g>
    </g>
    <g id="LineCollection_9">
     <path d="M 433.57125 114.6975 
L 433.57125 102.6975 
" style="fill: none; stroke: #ff7f0e; stroke-width: 4"/>
    </g>
    <g id="line2d_33"/>
    <g id="line2d_34">
     <g>
      <use xlink:href="#m708c208f21" x="433.57125" y="108.6975" style="fill: #ff7f0e; stroke: #ff7f0e; stroke-linejoin: miter"/>
     </g>
    </g>
    <g id="text_18">
     <!-- N=200 -->
     <g transform="translate(455.17125 112.8975) scale(0.12 -0.12)">
      <use xlink:href="#LMRoman10-Regular-4e"/>
      <use xlink:href="#LMRoman10-Regular-3d" transform="translate(74.999985 0)"/>
      <use xlink:href="#LMRoman10-Regular-32" transform="translate(152.799973 0)"/>
      <use xlink:href="#LMRoman10-Regular-30" transform="translate(202.799957 0)"/>
      <use xlink:href="#LMRoman10-Regular-30" transform="translate(252.799942 0)"/>
     </g>
    </g>
    <g id="LineCollection_10">
     <path d="M 433.57125 131.42625 
L 433.57125 119.42625 
" style="fill: none; stroke: #2ca02c; stroke-width: 4"/>
    </g>
    <g id="line2d_35"/>
    <g id="line2d_36">
     <g>
      <use xlink:href="#m0aa5142a31" x="433.57125" y="125.42625" style="fill: #2ca02c; stroke: #2ca02c; stroke-linejoin: miter"/>
     </g>
    </g>
    <g id="text_19">
     <!-- N=500 -->
     <g transform="translate(455.17125 129.62625) scale(0.12 -0.12)">
      <defs>
       <path id="LMRoman10-Regular-35" d="M 2874 1286 
C 2874 2048 2349 2688 1658 2688 
C 1350 2688 1075 2586 845 2362 
L 845 3610 
C 973 3571 1184 3526 1389 3526 
C 2176 3526 2624 4109 2624 4192 
C 2624 4230 2605 4262 2560 4262 
C 2560 4262 2541 4262 2509 4243 
C 2381 4186 2067 4058 1638 4058 
C 1382 4058 1088 4102 787 4237 
C 736 4256 710 4256 710 4256 
C 646 4256 646 4205 646 4102 
L 646 2208 
C 646 2093 646 2042 736 2042 
C 781 2042 794 2061 819 2099 
C 890 2202 1126 2547 1645 2547 
C 1978 2547 2138 2253 2189 2138 
C 2291 1901 2304 1651 2304 1331 
C 2304 1107 2304 723 2150 454 
C 1997 205 1760 38 1466 38 
C 998 38 634 378 525 755 
C 544 749 563 742 634 742 
C 845 742 954 902 954 1056 
C 954 1210 845 1370 634 1370 
C 544 1370 320 1325 320 1030 
C 320 480 762 -141 1478 -141 
C 2221 -141 2874 474 2874 1286 
z
" transform="scale(0.015625)"/>
      </defs>
      <use xlink:href="#LMRoman10-Regular-4e"/>
      <use xlink:href="#LMRoman10-Regular-3d" transform="translate(74.999985 0)"/>
      <use xlink:href="#LMRoman10-Regular-35" transform="translate(152.799973 0)"/>
      <use xlink:href="#LMRoman10-Regular-30" transform="translate(202.799957 0)"/>
      <use xlink:href="#LMRoman10-Regular-30" transform="translate(252.799942 0)"/>
     </g>
    </g>
    <g id="LineCollection_11">
     <path d="M 433.57125 148.155 
L 433.57125 136.155 
" style="fill: none; stroke: #9467bd; stroke-width: 4"/>
    </g>
    <g id="line2d_37"/>
    <g id="line2d_38">
     <g>
      <use xlink:href="#mbaac53b142" x="433.57125" y="142.155" style="fill: #9467bd; stroke: #9467bd; stroke-linejoin: miter"/>
     </g>
    </g>
    <g id="text_20">
     <!-- N=750 -->
     <g transform="translate(455.17125 146.355) scale(0.12 -0.12)">
      <defs>
       <path id="LMRoman10-Regular-37" d="M 3104 4122 
L 1549 4122 
C 768 4122 755 4205 730 4326 
L 570 4326 
L 358 3008 
L 518 3008 
C 538 3110 595 3514 678 3590 
C 723 3629 1222 3629 1306 3629 
L 2630 3629 
L 1914 2618 
C 1338 1754 1126 864 1126 211 
C 1126 147 1126 -141 1421 -141 
C 1715 -141 1715 147 1715 211 
L 1715 538 
C 1715 890 1734 1242 1786 1587 
C 1811 1734 1901 2285 2182 2682 
L 3046 3898 
C 3104 3974 3104 3987 3104 4122 
z
" transform="scale(0.015625)"/>
      </defs>
      <use xlink:href="#LMRoman10-Regular-4e"/>
      <use xlink:href="#LMRoman10-Regular-3d" transform="translate(74.999985 0)"/>
      <use xlink:href="#LMRoman10-Regular-37" transform="translate(152.799973 0)"/>
      <use xlink:href="#LMRoman10-Regular-35" transform="translate(202.799957 0)"/>
      <use xlink:href="#LMRoman10-Regular-30" transform="translate(252.799942 0)"/>
     </g>
    </g>
   </g>
  </g>
 </g>
 <defs>
  <clipPath id="pfd9dd2c8db">
   <rect x="84.97125" y="7.2" width="446.4" height="332.64"/>
  </clipPath>
 </defs>
</svg>
