<?xml version="1.0" encoding="utf-8" standalone="no"?>
<!DOCTYPE svg PUBLIC "-//W3C//DTD SVG 1.1//EN"
  "http://www.w3.org/Graphics/SVG/1.1/DTD/svg11.dtd">
<svg xmlns:xlink="http://www.w3.org/1999/xlink" width="549.57125pt" height="399.09875pt" viewBox="0 0 549.57125 399.09875" xmlns="http://www.w3.org/2000/svg" version="1.1">
 <metadata>
  <rdf:RDF xmlns:dc="http://purl.org/dc/elements/1.1/" xmlns:cc="http://creativecommons.org/ns#" xmlns:rdf="http://www.w3.org/1999/02/22-rdf-syntax-ns#">
   <cc:Work>
    <dc:type rdf:resource="http://purl.org/dc/dcmitype/StillImage"/>
    <dc:date>2026-04-28T02:33:43.060128</dc:date>
    <dc:format>image/svg+xml</dc:format>
    <dc:creator>
     <cc:Agent>
      <dc:title>Matplotlib v3.10.8, https://matplotlib.org/</dc:title>
     </cc:Agent>
    </dc:creator>
   </cc:Work>
  </rdf:RDF>
 </metadata>
 <defs>
  <style type="text/css">*{stroke-linejoin: round; stroke-linecap: butt}</style>
 </defs>
 <g id="figure_1">
  <g id="patch_1">
   <path d="M 0 399.09875 
L 549.57125 399.09875 
L 549.57125 0 
L 0 0 
z
" style="fill: #ffffff"/>
  </g>
  <g id="axes_1">
   <g id="patch_2">
    <path d="M 95.97125 339.84 
L 542.37125 339.84 
L 542.37125 7.2 
L 95.97125 7.2 
z
" style="fill: #ffffff"/>
   </g>
   <g id="matplotlib.axis_1">
    <g id="xtick_1">
     <g id="line2d_1">
      <path d="M 116.262159 339.84 
L 116.262159 7.2 
" clip-path="url(#ped13b9acd0)" style="fill: none; stroke: #b0b0b0; stroke-width: 0.8; stroke-linecap: square"/>
     </g>
     <g id="line2d_2">
      <defs>
       <path id="m913051b9ca" d="M 0 0 
L 0 5 
" style="stroke: #000000; stroke-width: 0.8"/>
      </defs>
      <g>
       <use xlink:href="#m913051b9ca" x="116.262159" y="339.84" style="stroke: #000000; stroke-width: 0.8"/>
      </g>
     </g>
     <g id="text_1">
      <!-- 0.0 -->
      <g transform="translate(102.204503 363.609375) scale(0.22 -0.22)">
       <defs>
        <path id="LMRoman10-Regular-30" d="M 2944 2048 
C 2944 2560 2912 3072 2688 3546 
C 2394 4160 1869 4262 1600 4262 
C 1216 4262 749 4096 486 3501 
C 282 3059 250 2560 250 2048 
C 250 1568 275 992 538 506 
C 813 -13 1280 -141 1594 -141 
C 1939 -141 2426 -6 2707 602 
C 2912 1043 2944 1542 2944 2048 
z
M 2413 2125 
C 2413 1645 2413 1210 2342 800 
C 2246 192 1882 0 1594 0 
C 1344 0 966 160 851 774 
C 781 1158 781 1747 781 2125 
C 781 2534 781 2957 832 3302 
C 954 4064 1434 4122 1594 4122 
C 1805 4122 2227 4006 2349 3373 
C 2413 3014 2413 2528 2413 2125 
z
" transform="scale(0.015625)"/>
        <path id="LMRoman10-Regular-2e" d="M 1229 339 
C 1229 525 1075 678 890 678 
C 704 678 550 525 550 339 
C 550 154 704 0 890 0 
C 1075 0 1229 154 1229 339 
z
" transform="scale(0.015625)"/>
       </defs>
       <use xlink:href="#LMRoman10-Regular-30"/>
       <use xlink:href="#LMRoman10-Regular-2e" transform="translate(49.999985 0)"/>
       <use xlink:href="#LMRoman10-Regular-30" transform="translate(77.799973 0)"/>
      </g>
     </g>
    </g>
    <g id="xtick_2">
     <g id="line2d_3">
      <path d="M 228.316043 339.84 
L 228.316043 7.2 
" clip-path="url(#ped13b9acd0)" style="fill: none; stroke: #b0b0b0; stroke-width: 0.8; stroke-linecap: square"/>
     </g>
     <g id="line2d_4">
      <g>
       <use xlink:href="#m913051b9ca" x="228.316043" y="339.84" style="stroke: #000000; stroke-width: 0.8"/>
      </g>
     </g>
     <g id="text_2">
      <!-- 0.2 -->
      <g transform="translate(214.258387 363.609375) scale(0.22 -0.22)">
       <defs>
        <path id="LMRoman10-Regular-32" d="M 2874 1114 
L 2714 1114 
C 2682 922 2637 640 2573 544 
C 2528 493 2106 493 1965 493 
L 813 493 
L 1491 1152 
C 2490 2035 2874 2381 2874 3021 
C 2874 3750 2298 4262 1517 4262 
C 794 4262 320 3674 320 3104 
C 320 2746 640 2746 659 2746 
C 768 2746 992 2822 992 3085 
C 992 3251 877 3418 653 3418 
C 602 3418 589 3418 570 3411 
C 717 3827 1062 4064 1434 4064 
C 2016 4064 2291 3546 2291 3021 
C 2291 2509 1971 2003 1619 1606 
L 390 237 
C 320 166 320 154 320 0 
L 2694 0 
L 2874 1114 
z
" transform="scale(0.015625)"/>
       </defs>
       <use xlink:href="#LMRoman10-Regular-30"/>
       <use xlink:href="#LMRoman10-Regular-2e" transform="translate(49.999985 0)"/>
       <use xlink:href="#LMRoman10-Regular-32" transform="translate(77.799973 0)"/>
      </g>
     </g>
    </g>
    <g id="xtick_3">
     <g id="line2d_5">
      <path d="M 340.369928 339.84 
L 340.369928 7.2 
" clip-path="url(#ped13b9acd0)" style="fill: none; stroke: #b0b0b0; stroke-width: 0.8; stroke-linecap: square"/>
     </g>
     <g id="line2d_6">
      <g>
       <use xlink:href="#m913051b9ca" x="340.369928" y="339.84" style="stroke: #000000; stroke-width: 0.8"/>
      </g>
     </g>
     <g id="text_3">
      <!-- 0.4 -->
      <g transform="translate(326.312272 363.609375) scale(0.22 -0.22)">
       <defs>
        <path id="LMRoman10-Regular-34" d="M 3014 1056 
L 3014 1254 
L 2374 1254 
L 2374 4166 
C 2374 4294 2374 4333 2272 4333 
C 2214 4333 2195 4333 2144 4256 
L 179 1254 
L 179 1056 
L 1882 1056 
L 1882 499 
C 1882 269 1869 198 1395 198 
L 1261 198 
L 1261 0 
C 1523 19 1856 19 2125 19 
C 2394 19 2733 19 2995 0 
L 2995 198 
L 2861 198 
C 2387 198 2374 269 2374 499 
L 2374 1056 
L 3014 1056 
z
M 1920 1254 
L 358 1254 
L 1920 3642 
L 1920 1254 
z
" transform="scale(0.015625)"/>
       </defs>
       <use xlink:href="#LMRoman10-Regular-30"/>
       <use xlink:href="#LMRoman10-Regular-2e" transform="translate(49.999985 0)"/>
       <use xlink:href="#LMRoman10-Regular-34" transform="translate(77.799973 0)"/>
      </g>
     </g>
    </g>
    <g id="xtick_4">
     <g id="line2d_7">
      <path d="M 452.423812 339.84 
L 452.423812 7.2 
" clip-path="url(#ped13b9acd0)" style="fill: none; stroke: #b0b0b0; stroke-width: 0.8; stroke-linecap: square"/>
     </g>
     <g id="line2d_8">
      <g>
       <use xlink:href="#m913051b9ca" x="452.423812" y="339.84" style="stroke: #000000; stroke-width: 0.8"/>
      </g>
     </g>
     <g id="text_4">
      <!-- 0.6 -->
      <g transform="translate(438.366156 363.609375) scale(0.22 -0.22)">
       <defs>
        <path id="LMRoman10-Regular-36" d="M 2925 1306 
C 2925 2118 2355 2733 1645 2733 
C 1210 2733 973 2406 845 2099 
L 845 2253 
C 845 3872 1638 4102 1965 4102 
C 2118 4102 2387 4064 2528 3846 
C 2432 3846 2176 3846 2176 3558 
C 2176 3360 2330 3264 2470 3264 
C 2573 3264 2765 3322 2765 3571 
C 2765 3955 2483 4262 1952 4262 
C 1133 4262 269 3437 269 2022 
C 269 314 1011 -141 1606 -141 
C 2317 -141 2925 461 2925 1306 
z
M 2349 1312 
C 2349 1005 2349 685 2240 454 
C 2048 70 1754 38 1606 38 
C 1203 38 1011 422 973 518 
C 858 819 858 1331 858 1446 
C 858 1946 1062 2586 1638 2586 
C 1741 2586 2035 2586 2234 2189 
C 2349 1952 2349 1626 2349 1312 
z
" transform="scale(0.015625)"/>
       </defs>
       <use xlink:href="#LMRoman10-Regular-30"/>
       <use xlink:href="#LMRoman10-Regular-2e" transform="translate(49.999985 0)"/>
       <use xlink:href="#LMRoman10-Regular-36" transform="translate(77.799973 0)"/>
      </g>
     </g>
    </g>
    <g id="text_5">
     <!-- Inverse Temperature $\beta$ -->
     <g transform="translate(208.84125 387.49875) scale(0.22 -0.22)">
      <defs>
       <path id="LMRoman10-Regular-49" d="M 2131 0 
L 2131 198 
L 1965 198 
C 1459 198 1440 269 1440 499 
L 1440 3872 
C 1440 4102 1459 4173 1965 4173 
L 2131 4173 
L 2131 4371 
C 1907 4352 1402 4352 1158 4352 
C 909 4352 403 4352 179 4371 
L 179 4173 
L 346 4173 
C 851 4173 870 4102 870 3872 
L 870 499 
C 870 269 851 198 346 198 
L 179 198 
L 179 0 
C 403 19 909 19 1152 19 
C 1402 19 1907 19 2131 0 
z
" transform="scale(0.015625)"/>
       <path id="LMRoman10-Regular-6e" d="M 3424 0 
L 3424 198 
C 3091 198 2931 198 2925 390 
L 2925 1613 
C 2925 2163 2925 2362 2726 2592 
C 2637 2701 2426 2829 2054 2829 
C 1587 2829 1286 2554 1107 2157 
L 1107 2829 
L 205 2758 
L 205 2560 
C 653 2560 704 2515 704 2202 
L 704 486 
C 704 198 634 198 205 198 
L 205 0 
L 928 19 
L 1645 0 
L 1645 198 
C 1216 198 1146 198 1146 486 
L 1146 1664 
C 1146 2330 1600 2688 2010 2688 
C 2413 2688 2483 2342 2483 1978 
L 2483 486 
C 2483 198 2413 198 1984 198 
L 1984 0 
L 2707 19 
L 3424 0 
z
" transform="scale(0.015625)"/>
       <path id="LMRoman10-Regular-76" d="M 3251 2560 
L 3251 2758 
C 3104 2746 2918 2739 2771 2739 
L 2214 2758 
L 2214 2560 
C 2451 2554 2522 2406 2522 2285 
C 2522 2227 2509 2202 2483 2131 
L 1830 499 
L 1114 2285 
C 1075 2368 1075 2394 1075 2394 
C 1075 2560 1325 2560 1440 2560 
L 1440 2758 
L 742 2739 
C 570 2739 314 2746 122 2758 
L 122 2560 
C 525 2560 550 2522 634 2323 
L 1555 51 
C 1594 -38 1606 -70 1690 -70 
C 1773 -70 1798 -13 1824 51 
L 2662 2131 
C 2720 2278 2829 2554 3251 2560 
z
" transform="scale(0.015625)"/>
       <path id="LMRoman10-Regular-65" d="M 2656 762 
C 2656 826 2605 838 2573 838 
C 2515 838 2502 800 2490 749 
C 2266 90 1690 90 1626 90 
C 1306 90 1050 282 902 518 
C 710 826 710 1248 710 1478 
L 2496 1478 
C 2637 1478 2656 1478 2656 1613 
C 2656 2246 2310 2867 1510 2867 
C 768 2867 179 2208 179 1408 
C 179 550 851 -70 1587 -70 
C 2368 -70 2656 640 2656 762 
z
M 2234 1613 
L 717 1613 
C 755 2566 1293 2726 1510 2726 
C 2170 2726 2234 1862 2234 1613 
z
" transform="scale(0.015625)"/>
       <path id="LMRoman10-Regular-72" d="M 2330 2438 
C 2330 2643 2131 2829 1856 2829 
C 1389 2829 1158 2400 1069 2125 
L 1069 2829 
L 179 2758 
L 179 2560 
C 627 2560 678 2515 678 2202 
L 678 486 
C 678 198 608 198 179 198 
L 179 0 
L 909 19 
C 1165 19 1466 19 1722 0 
L 1722 198 
L 1587 198 
C 1114 198 1101 269 1101 499 
L 1101 1485 
C 1101 2118 1370 2688 1856 2688 
C 1901 2688 1914 2688 1926 2682 
C 1907 2675 1779 2598 1779 2432 
C 1779 2253 1914 2157 2054 2157 
C 2170 2157 2330 2234 2330 2438 
z
" transform="scale(0.015625)"/>
       <path id="LMRoman10-Regular-73" d="M 2304 819 
C 2304 1158 2112 1350 2035 1427 
C 1824 1632 1574 1683 1306 1734 
C 947 1805 518 1888 518 2259 
C 518 2483 685 2746 1235 2746 
C 1939 2746 1971 2170 1984 1971 
C 1990 1914 2061 1914 2061 1914 
C 2144 1914 2144 1946 2144 2067 
L 2144 2714 
C 2144 2822 2144 2867 2074 2867 
C 2042 2867 2029 2867 1946 2790 
C 1926 2765 1862 2707 1837 2688 
C 1594 2867 1331 2867 1235 2867 
C 454 2867 211 2438 211 2080 
C 211 1856 314 1677 486 1536 
C 691 1370 870 1331 1331 1242 
C 1472 1216 1997 1114 1997 653 
C 1997 326 1773 70 1274 70 
C 736 70 506 435 384 979 
C 365 1062 358 1088 294 1088 
C 211 1088 211 1043 211 928 
L 211 83 
C 211 -26 211 -70 282 -70 
C 314 -70 320 -64 442 58 
C 454 70 454 83 570 205 
C 851 -64 1139 -70 1274 -70 
C 2010 -70 2304 358 2304 819 
z
" transform="scale(0.015625)"/>
       <path id="LMRoman10-Regular-20" transform="scale(0.015625)"/>
       <path id="LMRoman10-Regular-54" d="M 4384 2893 
L 4262 4333 
L 352 4333 
L 230 2893 
L 390 2893 
C 480 3923 576 4134 1542 4134 
C 1658 4134 1824 4134 1888 4122 
C 2022 4096 2022 4026 2022 3878 
L 2022 506 
C 2022 288 2022 198 1350 198 
L 1094 198 
L 1094 0 
C 1357 19 2010 19 2304 19 
C 2598 19 3258 19 3520 0 
L 3520 198 
L 3264 198 
C 2592 198 2592 288 2592 506 
L 2592 3878 
C 2592 4006 2592 4096 2707 4122 
C 2778 4134 2950 4134 3072 4134 
C 4038 4134 4134 3923 4224 2893 
L 4384 2893 
z
" transform="scale(0.015625)"/>
       <path id="LMRoman10-Regular-6d" d="M 5203 0 
L 5203 198 
C 4870 198 4710 198 4704 390 
L 4704 1613 
C 4704 2163 4704 2362 4506 2592 
C 4416 2701 4205 2829 3834 2829 
C 3296 2829 3014 2445 2906 2202 
C 2816 2758 2342 2829 2054 2829 
C 1587 2829 1286 2554 1107 2157 
L 1107 2829 
L 205 2758 
L 205 2560 
C 653 2560 704 2515 704 2202 
L 704 486 
C 704 198 634 198 205 198 
L 205 0 
L 928 19 
L 1645 0 
L 1645 198 
C 1216 198 1146 198 1146 486 
L 1146 1664 
C 1146 2330 1600 2688 2010 2688 
C 2413 2688 2483 2342 2483 1978 
L 2483 486 
C 2483 198 2413 198 1984 198 
L 1984 0 
L 2707 19 
L 3424 0 
L 3424 198 
C 2995 198 2925 198 2925 486 
L 2925 1664 
C 2925 2330 3379 2688 3789 2688 
C 4192 2688 4262 2342 4262 1978 
L 4262 486 
C 4262 198 4192 198 3763 198 
L 3763 0 
L 4486 19 
L 5203 0 
z
" transform="scale(0.015625)"/>
       <path id="LMRoman10-Regular-70" d="M 3334 1382 
C 3334 2195 2714 2829 1997 2829 
C 1498 2829 1229 2547 1101 2406 
L 1101 2829 
L 179 2758 
L 179 2560 
C 634 2560 678 2522 678 2240 
L 678 -755 
C 678 -1043 608 -1043 179 -1043 
L 179 -1242 
L 896 -1222 
L 1619 -1242 
L 1619 -1043 
C 1190 -1043 1120 -1043 1120 -755 
L 1120 320 
L 1120 378 
C 1152 275 1421 -70 1907 -70 
C 2669 -70 3334 557 3334 1382 
z
M 2803 1382 
C 2803 608 2355 70 1882 70 
C 1626 70 1382 198 1210 461 
C 1120 595 1120 602 1120 730 
L 1120 2157 
C 1306 2483 1619 2669 1946 2669 
C 2413 2669 2803 2106 2803 1382 
z
" transform="scale(0.015625)"/>
       <path id="LMRoman10-Regular-61" d="M 3155 570 
L 3155 928 
L 2995 928 
L 2995 570 
C 2995 198 2835 160 2765 160 
C 2554 160 2528 448 2528 480 
L 2528 1760 
C 2528 2029 2528 2278 2298 2515 
C 2048 2765 1728 2867 1421 2867 
C 896 2867 454 2566 454 2144 
C 454 1952 582 1843 749 1843 
C 928 1843 1043 1971 1043 2138 
C 1043 2214 1011 2426 717 2432 
C 890 2656 1203 2726 1408 2726 
C 1722 2726 2086 2477 2086 1907 
L 2086 1670 
C 1760 1651 1312 1632 909 1440 
C 429 1222 269 890 269 608 
C 269 90 890 -70 1293 -70 
C 1715 -70 2010 186 2131 486 
C 2157 230 2330 -38 2630 -38 
C 2765 -38 3155 51 3155 570 
z
M 2086 896 
C 2086 288 1626 70 1338 70 
C 1024 70 762 294 762 614 
C 762 966 1030 1498 2086 1536 
L 2086 896 
z
" transform="scale(0.015625)"/>
       <path id="LMRoman10-Regular-74" d="M 2125 794 
L 2125 1158 
L 1965 1158 
L 1965 806 
C 1965 333 1773 90 1536 90 
C 1107 90 1107 672 1107 781 
L 1107 2560 
L 2022 2560 
L 2022 2758 
L 1107 2758 
L 1107 3936 
L 947 3936 
C 941 3411 749 2726 122 2701 
L 122 2560 
L 666 2560 
L 666 794 
C 666 6 1261 -70 1491 -70 
C 1946 -70 2125 384 2125 794 
z
" transform="scale(0.015625)"/>
       <path id="LMRoman10-Regular-75" d="M 3424 0 
L 3424 198 
C 2976 198 2925 243 2925 557 
L 2925 2829 
L 1984 2758 
L 1984 2560 
C 2432 2560 2483 2515 2483 2202 
L 2483 1062 
C 2483 506 2176 70 1709 70 
C 1171 70 1146 371 1146 704 
L 1146 2829 
L 205 2758 
L 205 2560 
C 704 2560 704 2541 704 1971 
L 704 1011 
C 704 512 704 -70 1677 -70 
C 2035 -70 2317 109 2502 506 
L 2502 -70 
L 3424 0 
z
" transform="scale(0.015625)"/>
       <path id="Cmmi10-af" d="M 172 -1241 
Q 153 -1241 137 -1219 
Q 122 -1197 122 -1178 
L 1106 2778 
Q 1191 3097 1353 3397 
Q 1516 3697 1761 3955 
Q 2006 4213 2300 4363 
Q 2594 4513 2925 4513 
Q 3163 4513 3355 4408 
Q 3547 4303 3658 4114 
Q 3769 3925 3769 3688 
Q 3769 3459 3681 3251 
Q 3594 3044 3437 2864 
Q 3281 2684 3103 2572 
Q 3206 2506 3287 2404 
Q 3369 2303 3419 2192 
Q 3469 2081 3497 1945 
Q 3525 1809 3525 1691 
Q 3525 1363 3384 1044 
Q 3244 725 3001 465 
Q 2759 206 2446 54 
Q 2134 -97 1806 -97 
Q 1447 -97 1159 100 
Q 872 297 763 634 
L 300 -1203 
Q 300 -1241 250 -1241 
L 172 -1241 
z
M 1819 78 
Q 2106 78 2339 267 
Q 2572 456 2723 742 
Q 2875 1028 2954 1348 
Q 3034 1669 3034 1931 
Q 3034 2256 2847 2444 
Q 2628 2363 2419 2363 
Q 1913 2363 1913 2534 
Q 1913 2759 2491 2759 
Q 2697 2759 2869 2694 
Q 3006 2800 3118 3006 
Q 3231 3213 3289 3438 
Q 3347 3663 3347 3859 
Q 3347 4069 3236 4208 
Q 3125 4347 2913 4347 
Q 2522 4347 2186 4106 
Q 1850 3866 1619 3498 
Q 1388 3131 1288 2741 
L 934 1325 
Q 900 1178 891 997 
Q 891 597 1153 337 
Q 1416 78 1819 78 
z
M 2106 2553 
Q 2203 2528 2425 2528 
Q 2534 2528 2644 2566 
Q 2638 2572 2619 2572 
Q 2550 2591 2472 2591 
Q 2181 2591 2106 2553 
z
" transform="scale(0.015625)"/>
      </defs>
      <use xlink:href="#LMRoman10-Regular-49" transform="translate(0 0.484375)"/>
      <use xlink:href="#LMRoman10-Regular-6e" transform="translate(36.099991 0.484375)"/>
      <use xlink:href="#LMRoman10-Regular-76" transform="translate(91.699982 0.484375)"/>
      <use xlink:href="#LMRoman10-Regular-65" transform="translate(144.499969 0.484375)"/>
      <use xlink:href="#LMRoman10-Regular-72" transform="translate(188.899963 0.484375)"/>
      <use xlink:href="#LMRoman10-Regular-73" transform="translate(228.09996 0.484375)"/>
      <use xlink:href="#LMRoman10-Regular-65" transform="translate(267.499954 0.484375)"/>
      <use xlink:href="#LMRoman10-Regular-20" transform="translate(311.899948 0.484375)"/>
      <use xlink:href="#LMRoman10-Regular-54" transform="translate(345.199936 0.484375)"/>
      <use xlink:href="#LMRoman10-Regular-65" transform="translate(417.399918 0.484375)"/>
      <use xlink:href="#LMRoman10-Regular-6d" transform="translate(461.799911 0.484375)"/>
      <use xlink:href="#LMRoman10-Regular-70" transform="translate(545.099899 0.484375)"/>
      <use xlink:href="#LMRoman10-Regular-65" transform="translate(600.69989 0.484375)"/>
      <use xlink:href="#LMRoman10-Regular-72" transform="translate(645.099884 0.484375)"/>
      <use xlink:href="#LMRoman10-Regular-61" transform="translate(684.299881 0.484375)"/>
      <use xlink:href="#LMRoman10-Regular-74" transform="translate(734.299866 0.484375)"/>
      <use xlink:href="#LMRoman10-Regular-75" transform="translate(773.19986 0.484375)"/>
      <use xlink:href="#LMRoman10-Regular-72" transform="translate(828.79985 0.484375)"/>
      <use xlink:href="#LMRoman10-Regular-65" transform="translate(867.999847 0.484375)"/>
      <use xlink:href="#LMRoman10-Regular-20" transform="translate(912.399841 0.484375)"/>
      <use xlink:href="#Cmmi10-af" transform="translate(945.699829 0.484375)"/>
     </g>
    </g>
   </g>
   <g id="matplotlib.axis_2">
    <g id="ytick_1">
     <g id="line2d_9">
      <path d="M 95.97125 313.220662 
L 542.37125 313.220662 
" clip-path="url(#ped13b9acd0)" style="fill: none; stroke: #b0b0b0; stroke-width: 0.8; stroke-linecap: square"/>
     </g>
     <g id="line2d_10">
      <defs>
       <path id="m56a3d66c8c" d="M 0 0 
L -5 0 
" style="stroke: #000000; stroke-width: 0.8"/>
      </defs>
      <g>
       <use xlink:href="#m56a3d66c8c" x="95.97125" y="313.220662" style="stroke: #000000; stroke-width: 0.8"/>
      </g>
     </g>
     <g id="text_6">
      <!-- −1.25 -->
      <g transform="translate(31.240625 320.85535) scale(0.22 -0.22)">
       <defs>
        <path id="LMRoman10-Regular-2212" d="M 4614 1600 
C 4614 1728 4493 1728 4403 1728 
L 570 1728 
C 480 1728 358 1728 358 1600 
C 358 1472 480 1472 576 1472 
L 4397 1472 
C 4493 1472 4614 1472 4614 1600 
z
" transform="scale(0.015625)"/>
        <path id="LMRoman10-Regular-31" d="M 2682 0 
L 2682 198 
L 2477 198 
C 1901 198 1882 269 1882 506 
L 1882 4096 
C 1882 4250 1882 4262 1734 4262 
C 1338 3853 774 3853 570 3853 
L 570 3654 
C 698 3654 1075 3654 1408 3821 
L 1408 506 
C 1408 275 1389 198 813 198 
L 608 198 
L 608 0 
C 832 19 1389 19 1645 19 
C 1901 19 2458 19 2682 0 
z
" transform="scale(0.015625)"/>
        <path id="LMRoman10-Regular-35" d="M 2874 1286 
C 2874 2048 2349 2688 1658 2688 
C 1350 2688 1075 2586 845 2362 
L 845 3610 
C 973 3571 1184 3526 1389 3526 
C 2176 3526 2624 4109 2624 4192 
C 2624 4230 2605 4262 2560 4262 
C 2560 4262 2541 4262 2509 4243 
C 2381 4186 2067 4058 1638 4058 
C 1382 4058 1088 4102 787 4237 
C 736 4256 710 4256 710 4256 
C 646 4256 646 4205 646 4102 
L 646 2208 
C 646 2093 646 2042 736 2042 
C 781 2042 794 2061 819 2099 
C 890 2202 1126 2547 1645 2547 
C 1978 2547 2138 2253 2189 2138 
C 2291 1901 2304 1651 2304 1331 
C 2304 1107 2304 723 2150 454 
C 1997 205 1760 38 1466 38 
C 998 38 634 378 525 755 
C 544 749 563 742 634 742 
C 845 742 954 902 954 1056 
C 954 1210 845 1370 634 1370 
C 544 1370 320 1325 320 1030 
C 320 480 762 -141 1478 -141 
C 2221 -141 2874 474 2874 1286 
z
" transform="scale(0.015625)"/>
       </defs>
       <use xlink:href="#LMRoman10-Regular-2212"/>
       <use xlink:href="#LMRoman10-Regular-31" transform="translate(77.799988 0)"/>
       <use xlink:href="#LMRoman10-Regular-2e" transform="translate(127.799973 0)"/>
       <use xlink:href="#LMRoman10-Regular-32" transform="translate(155.59996 0)"/>
       <use xlink:href="#LMRoman10-Regular-35" transform="translate(205.599945 0)"/>
      </g>
     </g>
    </g>
    <g id="ytick_2">
     <g id="line2d_11">
      <path d="M 95.97125 254.370535 
L 542.37125 254.370535 
" clip-path="url(#ped13b9acd0)" style="fill: none; stroke: #b0b0b0; stroke-width: 0.8; stroke-linecap: square"/>
     </g>
     <g id="line2d_12">
      <g>
       <use xlink:href="#m56a3d66c8c" x="95.97125" y="254.370535" style="stroke: #000000; stroke-width: 0.8"/>
      </g>
     </g>
     <g id="text_7">
      <!-- −1.00 -->
      <g transform="translate(31.240625 262.005222) scale(0.22 -0.22)">
       <use xlink:href="#LMRoman10-Regular-2212"/>
       <use xlink:href="#LMRoman10-Regular-31" transform="translate(77.799988 0)"/>
       <use xlink:href="#LMRoman10-Regular-2e" transform="translate(127.799973 0)"/>
       <use xlink:href="#LMRoman10-Regular-30" transform="translate(155.59996 0)"/>
       <use xlink:href="#LMRoman10-Regular-30" transform="translate(205.599945 0)"/>
      </g>
     </g>
    </g>
    <g id="ytick_3">
     <g id="line2d_13">
      <path d="M 95.97125 195.520408 
L 542.37125 195.520408 
" clip-path="url(#ped13b9acd0)" style="fill: none; stroke: #b0b0b0; stroke-width: 0.8; stroke-linecap: square"/>
     </g>
     <g id="line2d_14">
      <g>
       <use xlink:href="#m56a3d66c8c" x="95.97125" y="195.520408" style="stroke: #000000; stroke-width: 0.8"/>
      </g>
     </g>
     <g id="text_8">
      <!-- −0.75 -->
      <g transform="translate(31.240625 203.155095) scale(0.22 -0.22)">
       <defs>
        <path id="LMRoman10-Regular-37" d="M 3104 4122 
L 1549 4122 
C 768 4122 755 4205 730 4326 
L 570 4326 
L 358 3008 
L 518 3008 
C 538 3110 595 3514 678 3590 
C 723 3629 1222 3629 1306 3629 
L 2630 3629 
L 1914 2618 
C 1338 1754 1126 864 1126 211 
C 1126 147 1126 -141 1421 -141 
C 1715 -141 1715 147 1715 211 
L 1715 538 
C 1715 890 1734 1242 1786 1587 
C 1811 1734 1901 2285 2182 2682 
L 3046 3898 
C 3104 3974 3104 3987 3104 4122 
z
" transform="scale(0.015625)"/>
       </defs>
       <use xlink:href="#LMRoman10-Regular-2212"/>
       <use xlink:href="#LMRoman10-Regular-30" transform="translate(77.799988 0)"/>
       <use xlink:href="#LMRoman10-Regular-2e" transform="translate(127.799973 0)"/>
       <use xlink:href="#LMRoman10-Regular-37" transform="translate(155.59996 0)"/>
       <use xlink:href="#LMRoman10-Regular-35" transform="translate(205.599945 0)"/>
      </g>
     </g>
    </g>
    <g id="ytick_4">
     <g id="line2d_15">
      <path d="M 95.97125 136.67028 
L 542.37125 136.67028 
" clip-path="url(#ped13b9acd0)" style="fill: none; stroke: #b0b0b0; stroke-width: 0.8; stroke-linecap: square"/>
     </g>
     <g id="line2d_16">
      <g>
       <use xlink:href="#m56a3d66c8c" x="95.97125" y="136.67028" style="stroke: #000000; stroke-width: 0.8"/>
      </g>
     </g>
     <g id="text_9">
      <!-- −0.50 -->
      <g transform="translate(31.240625 144.304968) scale(0.22 -0.22)">
       <use xlink:href="#LMRoman10-Regular-2212"/>
       <use xlink:href="#LMRoman10-Regular-30" transform="translate(77.799988 0)"/>
       <use xlink:href="#LMRoman10-Regular-2e" transform="translate(127.799973 0)"/>
       <use xlink:href="#LMRoman10-Regular-35" transform="translate(155.59996 0)"/>
       <use xlink:href="#LMRoman10-Regular-30" transform="translate(205.599945 0)"/>
      </g>
     </g>
    </g>
    <g id="ytick_5">
     <g id="line2d_17">
      <path d="M 95.97125 77.820153 
L 542.37125 77.820153 
" clip-path="url(#ped13b9acd0)" style="fill: none; stroke: #b0b0b0; stroke-width: 0.8; stroke-linecap: square"/>
     </g>
     <g id="line2d_18">
      <g>
       <use xlink:href="#m56a3d66c8c" x="95.97125" y="77.820153" style="stroke: #000000; stroke-width: 0.8"/>
      </g>
     </g>
     <g id="text_10">
      <!-- −0.25 -->
      <g transform="translate(31.240625 85.45484) scale(0.22 -0.22)">
       <use xlink:href="#LMRoman10-Regular-2212"/>
       <use xlink:href="#LMRoman10-Regular-30" transform="translate(77.799988 0)"/>
       <use xlink:href="#LMRoman10-Regular-2e" transform="translate(127.799973 0)"/>
       <use xlink:href="#LMRoman10-Regular-32" transform="translate(155.59996 0)"/>
       <use xlink:href="#LMRoman10-Regular-35" transform="translate(205.599945 0)"/>
      </g>
     </g>
    </g>
    <g id="ytick_6">
     <g id="line2d_19">
      <path d="M 95.97125 18.970025 
L 542.37125 18.970025 
" clip-path="url(#ped13b9acd0)" style="fill: none; stroke: #b0b0b0; stroke-width: 0.8; stroke-linecap: square"/>
     </g>
     <g id="line2d_20">
      <g>
       <use xlink:href="#m56a3d66c8c" x="95.97125" y="18.970025" style="stroke: #000000; stroke-width: 0.8"/>
      </g>
     </g>
     <g id="text_11">
      <!-- 0.00 -->
      <g transform="translate(48.355937 26.604713) scale(0.22 -0.22)">
       <use xlink:href="#LMRoman10-Regular-30"/>
       <use xlink:href="#LMRoman10-Regular-2e" transform="translate(49.999985 0)"/>
       <use xlink:href="#LMRoman10-Regular-30" transform="translate(77.799973 0)"/>
       <use xlink:href="#LMRoman10-Regular-30" transform="translate(127.799957 0)"/>
      </g>
     </g>
    </g>
    <g id="text_12">
     <!-- Energy per Spin -->
     <g transform="translate(22.71 251.671562) rotate(-90) scale(0.22 -0.22)">
      <defs>
       <path id="LMRoman10-Regular-45" d="M 4173 1651 
L 4013 1651 
C 3853 666 3706 198 2605 198 
L 1754 198 
C 1453 198 1440 243 1440 454 
L 1440 2163 
L 2016 2163 
C 2637 2163 2707 1958 2707 1414 
L 2867 1414 
L 2867 3110 
L 2707 3110 
C 2707 2560 2637 2362 2016 2362 
L 1440 2362 
L 1440 3898 
C 1440 4109 1453 4154 1754 4154 
L 2579 4154 
C 3558 4154 3731 3802 3834 2912 
L 3994 2912 
L 3814 4352 
L 211 4352 
L 211 4154 
L 365 4154 
C 858 4154 870 4083 870 3853 
L 870 499 
C 870 269 858 198 365 198 
L 211 198 
L 211 0 
L 3904 0 
L 4173 1651 
z
" transform="scale(0.015625)"/>
       <path id="LMRoman10-Regular-67" d="M 3104 2586 
C 3104 2694 3027 2899 2778 2899 
C 2650 2899 2368 2861 2099 2598 
C 1830 2810 1562 2829 1421 2829 
C 826 2829 384 2387 384 1894 
C 384 1613 525 1370 685 1235 
C 602 1139 486 928 486 704 
C 486 506 570 262 768 134 
C 384 26 179 -250 179 -506 
C 179 -966 813 -1318 1594 -1318 
C 2349 -1318 3014 -992 3014 -493 
C 3014 -269 2925 58 2598 237 
C 2259 416 1888 416 1498 416 
C 1338 416 1062 416 1018 422 
C 813 448 678 646 678 851 
C 678 877 678 1024 787 1152 
C 1037 973 1299 954 1421 954 
C 2016 954 2458 1395 2458 1888 
C 2458 2125 2355 2362 2195 2509 
C 2426 2726 2656 2758 2771 2758 
C 2771 2758 2816 2758 2835 2752 
C 2765 2726 2733 2656 2733 2579 
C 2733 2470 2816 2394 2918 2394 
C 2982 2394 3104 2438 3104 2586 
z
M 1978 1894 
C 1978 1722 1971 1517 1875 1357 
C 1824 1280 1677 1101 1421 1101 
C 864 1101 864 1741 864 1888 
C 864 2061 870 2266 966 2426 
C 1018 2502 1165 2682 1421 2682 
C 1978 2682 1978 2042 1978 1894 
z
M 2682 -506 
C 2682 -851 2227 -1171 1600 -1171 
C 954 -1171 512 -845 512 -506 
C 512 -211 755 26 1037 45 
L 1414 45 
C 1965 45 2682 45 2682 -506 
z
" transform="scale(0.015625)"/>
       <path id="LMRoman10-Regular-79" d="M 3251 2560 
L 3251 2758 
C 3104 2746 2918 2739 2771 2739 
L 2214 2758 
L 2214 2560 
C 2413 2554 2515 2445 2515 2285 
C 2515 2221 2509 2208 2477 2131 
L 1830 557 
L 1120 2278 
C 1094 2342 1082 2368 1082 2394 
C 1082 2560 1318 2560 1440 2560 
L 1440 2758 
L 742 2739 
C 570 2739 314 2746 122 2758 
L 122 2560 
C 429 2560 550 2560 640 2336 
L 1600 0 
L 1440 -378 
C 1299 -730 1120 -1171 710 -1171 
C 678 -1171 531 -1171 410 -1056 
C 608 -1030 659 -890 659 -787 
C 659 -621 538 -518 390 -518 
C 262 -518 122 -602 122 -794 
C 122 -1082 390 -1312 710 -1312 
C 1114 -1312 1376 -947 1530 -582 
L 2656 2150 
C 2822 2554 3149 2560 3251 2560 
z
" transform="scale(0.015625)"/>
       <path id="LMRoman10-Regular-53" d="M 3194 1190 
C 3194 1830 2771 2355 2234 2483 
L 1414 2682 
C 1018 2778 768 3123 768 3494 
C 768 3942 1114 4333 1613 4333 
C 2682 4333 2822 3283 2861 2995 
C 2867 2957 2867 2918 2938 2918 
C 3021 2918 3021 2950 3021 3072 
L 3021 4358 
C 3021 4467 3021 4512 2950 4512 
C 2906 4512 2899 4506 2854 4429 
L 2630 4064 
C 2438 4250 2176 4512 1606 4512 
C 896 4512 358 3949 358 3270 
C 358 2739 698 2272 1197 2099 
C 1267 2074 1594 1997 2042 1888 
C 2214 1843 2406 1798 2586 1562 
C 2720 1395 2784 1184 2784 973 
C 2784 518 2464 58 1926 58 
C 1741 58 1254 90 915 403 
C 544 749 525 1158 518 1389 
C 512 1453 461 1453 442 1453 
C 358 1453 358 1408 358 1293 
L 358 13 
C 358 -96 358 -141 429 -141 
C 474 -141 480 -128 525 -58 
C 525 -58 544 -32 755 307 
C 954 90 1363 -141 1933 -141 
C 2682 -141 3194 486 3194 1190 
z
" transform="scale(0.015625)"/>
       <path id="LMRoman10-Regular-69" d="M 1581 0 
L 1581 198 
C 1158 198 1133 230 1133 480 
L 1133 2829 
L 237 2758 
L 237 2560 
C 653 2560 710 2522 710 2208 
L 710 486 
C 710 198 640 198 211 198 
L 211 0 
L 915 19 
C 1139 19 1363 6 1581 0 
z
M 1229 3866 
C 1229 4038 1082 4205 890 4205 
C 672 4205 544 4026 544 3866 
C 544 3693 691 3526 883 3526 
C 1101 3526 1229 3706 1229 3866 
z
" transform="scale(0.015625)"/>
      </defs>
      <use xlink:href="#LMRoman10-Regular-45"/>
      <use xlink:href="#LMRoman10-Regular-6e" transform="translate(68.099991 0)"/>
      <use xlink:href="#LMRoman10-Regular-65" transform="translate(123.699982 0)"/>
      <use xlink:href="#LMRoman10-Regular-72" transform="translate(168.099976 0)"/>
      <use xlink:href="#LMRoman10-Regular-67" transform="translate(207.299973 0)"/>
      <use xlink:href="#LMRoman10-Regular-79" transform="translate(257.299957 0)"/>
      <use xlink:href="#LMRoman10-Regular-20" transform="translate(310.099945 0)"/>
      <use xlink:href="#LMRoman10-Regular-70" transform="translate(343.399933 0)"/>
      <use xlink:href="#LMRoman10-Regular-65" transform="translate(398.999924 0)"/>
      <use xlink:href="#LMRoman10-Regular-72" transform="translate(443.399918 0)"/>
      <use xlink:href="#LMRoman10-Regular-20" transform="translate(482.599915 0)"/>
      <use xlink:href="#LMRoman10-Regular-53" transform="translate(515.899902 0)"/>
      <use xlink:href="#LMRoman10-Regular-70" transform="translate(571.499893 0)"/>
      <use xlink:href="#LMRoman10-Regular-69" transform="translate(627.099884 0)"/>
      <use xlink:href="#LMRoman10-Regular-6e" transform="translate(654.899872 0)"/>
     </g>
    </g>
   </g>
   <g id="line2d_21">
    <path d="M 116.262159 18.970025 
L 120.361333 22.414548 
L 124.460506 25.858702 
L 128.55968 29.302118 
L 132.658853 32.744429 
L 136.758027 36.185267 
L 140.8572 39.624264 
L 144.956374 43.061054 
L 149.055548 46.495271 
L 153.154721 49.926552 
L 157.253895 53.354534 
L 161.353068 56.778854 
L 165.452242 60.199152 
L 169.551415 63.61507 
L 173.650589 67.026252 
L 177.749762 70.432342 
L 181.848936 73.832989 
L 185.94811 77.227842 
L 190.047283 80.616554 
L 194.146457 83.99878 
L 198.24563 87.374176 
L 202.344804 90.742404 
L 206.443977 94.103127 
L 210.543151 97.456011 
L 214.642324 100.800726 
L 218.741498 104.136945 
L 222.840671 107.464345 
L 226.939845 110.782606 
L 231.039019 114.091411 
L 235.138192 117.390449 
L 239.237366 120.679411 
L 243.336539 123.957992 
L 247.435713 127.225892 
L 251.534886 130.482816 
L 255.63406 133.728471 
L 259.733233 136.96257 
L 263.832407 140.184831 
L 267.931581 143.394976 
L 272.030754 146.59273 
L 276.129928 149.777825 
L 280.229101 152.949997 
L 284.328275 156.108987 
L 288.427448 159.254542 
L 292.526622 162.386411 
L 296.625795 165.504352 
L 300.724969 168.608124 
L 304.824143 171.697495 
L 308.923316 174.772237 
L 313.02249 177.832125 
L 317.121663 180.876942 
L 321.220837 183.906476 
L 325.32001 186.920519 
L 329.419184 189.91887 
L 333.518357 192.901333 
L 337.617531 195.867717 
L 341.716705 198.817836 
L 345.815878 201.75151 
L 349.915052 204.668566 
L 354.014225 207.568835 
L 358.113399 210.452152 
L 362.212572 213.318361 
L 366.311746 216.16731 
L 370.410919 218.99885 
L 374.510093 221.812842 
L 378.609267 224.609148 
L 382.70844 227.38764 
L 386.807614 230.148191 
L 390.906787 232.890684 
L 395.005961 235.615002 
L 399.105134 238.321038 
L 403.204308 241.008689 
L 407.303481 243.677855 
L 411.402655 246.328445 
L 415.501829 248.960372 
L 419.601002 251.573551 
L 423.700176 254.167907 
L 427.799349 256.743368 
L 431.898523 259.299866 
L 435.997696 261.837339 
L 440.09687 264.35573 
L 444.196043 266.854987 
L 448.295217 269.335063 
L 452.39439 271.795916 
L 456.493564 274.237507 
L 460.592738 276.659803 
L 464.691911 279.062777 
L 468.791085 281.446404 
L 472.890258 283.810664 
L 476.989432 286.155544 
L 481.088605 288.481031 
" clip-path="url(#ped13b9acd0)" style="fill: none; stroke: #ff0000; stroke-width: 4; stroke-linecap: square"/>
   </g>
   <g id="line2d_22">
    <path d="M 485.187779 290.787121 
L 489.286952 293.07381 
L 493.386126 295.341101 
L 497.4853 297.589 
L 501.584473 299.817517 
L 505.683647 302.026667 
L 509.78282 304.216466 
L 513.881994 306.386938 
L 517.981167 308.538107 
L 522.080341 310.670002 
" clip-path="url(#ped13b9acd0)" style="fill: none; stroke-dasharray: 14.8,6.4; stroke-dashoffset: 0; stroke: #ff0000; stroke-width: 4"/>
   </g>
   <g id="LineCollection_1">
    <path d="M 116.262159 52.961742 
L 116.262159 -1 
" clip-path="url(#ped13b9acd0)" style="fill: none; stroke: #1f77b4; stroke-width: 4"/>
    <path d="M 161.353068 100.568724 
L 161.353068 14.959335 
" clip-path="url(#ped13b9acd0)" style="fill: none; stroke: #1f77b4; stroke-width: 4"/>
    <path d="M 206.443977 120.881995 
L 206.443977 57.168439 
" clip-path="url(#ped13b9acd0)" style="fill: none; stroke: #1f77b4; stroke-width: 4"/>
    <path d="M 251.534886 153.945945 
L 251.534886 107.71875 
" clip-path="url(#ped13b9acd0)" style="fill: none; stroke: #1f77b4; stroke-width: 4"/>
    <path d="M 296.625795 188.32925 
L 296.625795 131.338131 
" clip-path="url(#ped13b9acd0)" style="fill: none; stroke: #1f77b4; stroke-width: 4"/>
    <path clip-path="url(#ped13b9acd0)" style="fill: none; stroke: #1f77b4; stroke-width: 4"/>
    <path clip-path="url(#ped13b9acd0)" style="fill: none; stroke: #1f77b4; stroke-width: 4"/>
    <path clip-path="url(#ped13b9acd0)" style="fill: none; stroke: #1f77b4; stroke-width: 4"/>
    <path clip-path="url(#ped13b9acd0)" style="fill: none; stroke: #1f77b4; stroke-width: 4"/>
    <path clip-path="url(#ped13b9acd0)" style="fill: none; stroke: #1f77b4; stroke-width: 4"/>
   </g>
   <g id="LineCollection_2">
    <path d="M 116.262159 47.753337 
L 116.262159 6.005629 
" clip-path="url(#ped13b9acd0)" style="fill: none; stroke: #ff7f0e; stroke-width: 4"/>
    <path d="M 161.353068 78.804644 
L 161.353068 35.970133 
" clip-path="url(#ped13b9acd0)" style="fill: none; stroke: #ff7f0e; stroke-width: 4"/>
    <path d="M 206.443977 114.963535 
L 206.443977 63.840181 
" clip-path="url(#ped13b9acd0)" style="fill: none; stroke: #ff7f0e; stroke-width: 4"/>
    <path d="M 251.534886 153.17927 
L 251.534886 116.771523 
" clip-path="url(#ped13b9acd0)" style="fill: none; stroke: #ff7f0e; stroke-width: 4"/>
    <path d="M 296.625795 179.961634 
L 296.625795 143.472155 
" clip-path="url(#ped13b9acd0)" style="fill: none; stroke: #ff7f0e; stroke-width: 4"/>
    <path clip-path="url(#ped13b9acd0)" style="fill: none; stroke: #ff7f0e; stroke-width: 4"/>
    <path clip-path="url(#ped13b9acd0)" style="fill: none; stroke: #ff7f0e; stroke-width: 4"/>
    <path clip-path="url(#ped13b9acd0)" style="fill: none; stroke: #ff7f0e; stroke-width: 4"/>
    <path clip-path="url(#ped13b9acd0)" style="fill: none; stroke: #ff7f0e; stroke-width: 4"/>
    <path clip-path="url(#ped13b9acd0)" style="fill: none; stroke: #ff7f0e; stroke-width: 4"/>
   </g>
   <g id="LineCollection_3">
    <path d="M 116.262159 31.457834 
L 116.262159 2.791137 
" clip-path="url(#ped13b9acd0)" style="fill: none; stroke: #2ca02c; stroke-width: 4"/>
    <path d="M 161.353068 69.54883 
L 161.353068 40.17896 
" clip-path="url(#ped13b9acd0)" style="fill: none; stroke: #2ca02c; stroke-width: 4"/>
    <path d="M 206.443977 110.508698 
L 206.443977 85.545167 
" clip-path="url(#ped13b9acd0)" style="fill: none; stroke: #2ca02c; stroke-width: 4"/>
    <path d="M 251.534886 141.365246 
L 251.534886 116.909682 
" clip-path="url(#ped13b9acd0)" style="fill: none; stroke: #2ca02c; stroke-width: 4"/>
    <path d="M 296.625795 177.869896 
L 296.625795 158.143696 
" clip-path="url(#ped13b9acd0)" style="fill: none; stroke: #2ca02c; stroke-width: 4"/>
    <path clip-path="url(#ped13b9acd0)" style="fill: none; stroke: #2ca02c; stroke-width: 4"/>
    <path clip-path="url(#ped13b9acd0)" style="fill: none; stroke: #2ca02c; stroke-width: 4"/>
    <path clip-path="url(#ped13b9acd0)" style="fill: none; stroke: #2ca02c; stroke-width: 4"/>
    <path clip-path="url(#ped13b9acd0)" style="fill: none; stroke: #2ca02c; stroke-width: 4"/>
    <path clip-path="url(#ped13b9acd0)" style="fill: none; stroke: #2ca02c; stroke-width: 4"/>
   </g>
   <g id="LineCollection_4">
    <path d="M 116.262159 28.073535 
L 116.262159 8.661266 
" clip-path="url(#ped13b9acd0)" style="fill: none; stroke: #9467bd; stroke-width: 4"/>
    <path d="M 161.353068 67.800599 
L 161.353068 40.3453 
" clip-path="url(#ped13b9acd0)" style="fill: none; stroke: #9467bd; stroke-width: 4"/>
    <path d="M 206.443977 106.85266 
L 206.443977 84.154218 
" clip-path="url(#ped13b9acd0)" style="fill: none; stroke: #9467bd; stroke-width: 4"/>
    <path d="M 251.534886 147.783936 
L 251.534886 118.450668 
" clip-path="url(#ped13b9acd0)" style="fill: none; stroke: #9467bd; stroke-width: 4"/>
    <path d="M 296.625795 177.882515 
L 296.625795 156.850498 
" clip-path="url(#ped13b9acd0)" style="fill: none; stroke: #9467bd; stroke-width: 4"/>
    <path clip-path="url(#ped13b9acd0)" style="fill: none; stroke: #9467bd; stroke-width: 4"/>
    <path clip-path="url(#ped13b9acd0)" style="fill: none; stroke: #9467bd; stroke-width: 4"/>
    <path clip-path="url(#ped13b9acd0)" style="fill: none; stroke: #9467bd; stroke-width: 4"/>
    <path clip-path="url(#ped13b9acd0)" style="fill: none; stroke: #9467bd; stroke-width: 4"/>
    <path clip-path="url(#ped13b9acd0)" style="fill: none; stroke: #9467bd; stroke-width: 4"/>
   </g>
   <g id="LineCollection_5">
    <path d="M 259.362148 369.009998 
L 259.362148 -1 
" clip-path="url(#ped13b9acd0)" style="fill: none; stroke-dasharray: 14.8,6.4; stroke-dashoffset: 0; stroke: #000000; stroke-width: 4"/>
   </g>
   <g id="LineCollection_6">
    <path d="M 485.187779 369.009998 
L 485.187779 -1 
" clip-path="url(#ped13b9acd0)" style="fill: none; stroke-dasharray: 4,6.6; stroke-dashoffset: 0; stroke: #008000; stroke-width: 4"/>
   </g>
   <g id="line2d_23">
    <defs>
     <path id="m3a974938d3" d="M 0 5 
C 1.326016 5 2.597899 4.473168 3.535534 3.535534 
C 4.473168 2.597899 5 1.326016 5 0 
C 5 -1.326016 4.473168 -2.597899 3.535534 -3.535534 
C 2.597899 -4.473168 1.326016 -5 0 -5 
C -1.326016 -5 -2.597899 -4.473168 -3.535534 -3.535534 
C -4.473168 -2.597899 -5 -1.326016 -5 0 
C -5 1.326016 -4.473168 2.597899 -3.535534 3.535534 
C -2.597899 4.473168 -1.326016 5 0 5 
z
" style="stroke: #1f77b4"/>
    </defs>
    <g clip-path="url(#ped13b9acd0)">
     <use xlink:href="#m3a974938d3" x="116.262159" y="15.203617" style="fill: #1f77b4; stroke: #1f77b4"/>
     <use xlink:href="#m3a974938d3" x="161.353068" y="57.764029" style="fill: #1f77b4; stroke: #1f77b4"/>
     <use xlink:href="#m3a974938d3" x="206.443977" y="89.025217" style="fill: #1f77b4; stroke: #1f77b4"/>
     <use xlink:href="#m3a974938d3" x="251.534886" y="130.832348" style="fill: #1f77b4; stroke: #1f77b4"/>
     <use xlink:href="#m3a974938d3" x="296.625795" y="159.83369" style="fill: #1f77b4; stroke: #1f77b4"/>
    </g>
   </g>
   <g id="line2d_24">
    <defs>
     <path id="mf07e971586" d="M -5 5 
L 5 5 
L 5 -5 
L -5 -5 
z
" style="stroke: #ff7f0e; stroke-linejoin: miter"/>
    </defs>
    <g clip-path="url(#ped13b9acd0)">
     <use xlink:href="#mf07e971586" x="116.262159" y="26.879483" style="fill: #ff7f0e; stroke: #ff7f0e; stroke-linejoin: miter"/>
     <use xlink:href="#mf07e971586" x="161.353068" y="57.387389" style="fill: #ff7f0e; stroke: #ff7f0e; stroke-linejoin: miter"/>
     <use xlink:href="#mf07e971586" x="206.443977" y="89.401858" style="fill: #ff7f0e; stroke: #ff7f0e; stroke-linejoin: miter"/>
     <use xlink:href="#mf07e971586" x="251.534886" y="134.975397" style="fill: #ff7f0e; stroke: #ff7f0e; stroke-linejoin: miter"/>
     <use xlink:href="#mf07e971586" x="296.625795" y="161.716894" style="fill: #ff7f0e; stroke: #ff7f0e; stroke-linejoin: miter"/>
    </g>
   </g>
   <g id="line2d_25">
    <defs>
     <path id="m3f01c5aa15" d="M -0 7.071068 
L 7.071068 0 
L 0 -7.071068 
L -7.071068 -0 
z
" style="stroke: #2ca02c; stroke-linejoin: miter"/>
    </defs>
    <g clip-path="url(#ped13b9acd0)">
     <use xlink:href="#m3f01c5aa15" x="116.262159" y="17.124485" style="fill: #2ca02c; stroke: #2ca02c; stroke-linejoin: miter"/>
     <use xlink:href="#m3f01c5aa15" x="161.353068" y="54.863895" style="fill: #2ca02c; stroke: #2ca02c; stroke-linejoin: miter"/>
     <use xlink:href="#m3f01c5aa15" x="206.443977" y="98.026933" style="fill: #2ca02c; stroke: #2ca02c; stroke-linejoin: miter"/>
     <use xlink:href="#m3f01c5aa15" x="251.534886" y="129.137464" style="fill: #2ca02c; stroke: #2ca02c; stroke-linejoin: miter"/>
     <use xlink:href="#m3f01c5aa15" x="296.625795" y="168.006796" style="fill: #2ca02c; stroke: #2ca02c; stroke-linejoin: miter"/>
    </g>
   </g>
   <g id="line2d_26">
    <defs>
     <path id="me9f835c2a1" d="M -1.666667 5 
L 1.666667 5 
L 1.666667 1.666667 
L 5 1.666667 
L 5 -1.666667 
L 1.666667 -1.666667 
L 1.666667 -5 
L -1.666667 -5 
L -1.666667 -1.666667 
L -5 -1.666667 
L -5 1.666667 
L -1.666667 1.666667 
z
" style="stroke: #9467bd; stroke-linejoin: miter"/>
    </defs>
    <g clip-path="url(#ped13b9acd0)">
     <use xlink:href="#me9f835c2a1" x="116.262159" y="18.3674" style="fill: #9467bd; stroke: #9467bd; stroke-linejoin: miter"/>
     <use xlink:href="#me9f835c2a1" x="161.353068" y="54.072949" style="fill: #9467bd; stroke: #9467bd; stroke-linejoin: miter"/>
     <use xlink:href="#me9f835c2a1" x="206.443977" y="95.503439" style="fill: #9467bd; stroke: #9467bd; stroke-linejoin: miter"/>
     <use xlink:href="#me9f835c2a1" x="251.534886" y="133.117302" style="fill: #9467bd; stroke: #9467bd; stroke-linejoin: miter"/>
     <use xlink:href="#me9f835c2a1" x="296.625795" y="167.366507" style="fill: #9467bd; stroke: #9467bd; stroke-linejoin: miter"/>
    </g>
   </g>
   <g id="patch_3">
    <path d="M 95.97125 339.84 
L 95.97125 7.2 
" style="fill: none; stroke: #000000; stroke-width: 0.8; stroke-linejoin: miter; stroke-linecap: square"/>
   </g>
   <g id="patch_4">
    <path d="M 95.97125 339.84 
L 542.37125 339.84 
" style="fill: none; stroke: #000000; stroke-width: 0.8; stroke-linejoin: miter; stroke-linecap: square"/>
   </g>
   <g id="legend_1">
    <g id="line2d_27">
     <path d="M 106.77125 221.75625 
L 118.77125 221.75625 
L 130.77125 221.75625 
" style="fill: none; stroke: #ff0000; stroke-width: 4; stroke-linecap: square"/>
    </g>
    <g id="text_13">
     <!-- RS Solution -->
     <g transform="translate(140.37125 225.95625) scale(0.12 -0.12)">
      <defs>
       <path id="LMRoman10-Regular-52" d="M 4685 563 
C 4685 602 4685 672 4602 672 
C 4531 672 4531 614 4525 570 
C 4486 115 4262 0 4102 0 
C 3789 0 3738 326 3648 922 
L 3565 1434 
C 3450 1843 3136 2054 2784 2176 
C 3405 2330 3904 2720 3904 3219 
C 3904 3834 3174 4371 2234 4371 
L 224 4371 
L 224 4173 
L 378 4173 
C 870 4173 883 4102 883 3872 
L 883 499 
C 883 269 870 198 378 198 
L 224 198 
L 224 0 
C 454 19 909 19 1158 19 
C 1408 19 1862 19 2093 0 
L 2093 198 
L 1939 198 
C 1446 198 1434 269 1434 499 
L 1434 2118 
L 2170 2118 
C 2272 2118 2541 2118 2765 1901 
C 3008 1670 3008 1472 3008 1043 
C 3008 627 3008 371 3270 128 
C 3533 -102 3885 -141 4077 -141 
C 4576 -141 4685 384 4685 563 
z
M 3245 3219 
C 3245 2778 3091 2259 2144 2259 
L 1434 2259 
L 1434 3917 
C 1434 4064 1434 4141 1574 4160 
C 1638 4173 1824 4173 1952 4173 
C 2528 4173 3245 4147 3245 3219 
z
" transform="scale(0.015625)"/>
       <path id="LMRoman10-Regular-6f" d="M 3014 1370 
C 3014 2189 2374 2867 1600 2867 
C 800 2867 179 2170 179 1370 
C 179 544 845 -70 1594 -70 
C 2368 -70 3014 557 3014 1370 
z
M 2483 1421 
C 2483 1190 2483 845 2342 563 
C 2202 275 1920 90 1600 90 
C 1325 90 1043 224 870 518 
C 710 800 710 1190 710 1421 
C 710 1670 710 2016 864 2298 
C 1037 2592 1338 2726 1594 2726 
C 1875 2726 2150 2586 2317 2310 
C 2483 2035 2483 1664 2483 1421 
z
" transform="scale(0.015625)"/>
       <path id="LMRoman10-Regular-6c" d="M 1632 0 
L 1632 198 
C 1203 198 1133 198 1133 486 
L 1133 4442 
L 211 4371 
L 211 4173 
C 659 4173 710 4128 710 3814 
L 710 486 
C 710 198 640 198 211 198 
L 211 0 
L 922 19 
L 1632 0 
z
" transform="scale(0.015625)"/>
      </defs>
      <use xlink:href="#LMRoman10-Regular-52"/>
      <use xlink:href="#LMRoman10-Regular-53" transform="translate(73.599991 0)"/>
      <use xlink:href="#LMRoman10-Regular-20" transform="translate(129.199982 0)"/>
      <use xlink:href="#LMRoman10-Regular-53" transform="translate(162.499969 0)"/>
      <use xlink:href="#LMRoman10-Regular-6f" transform="translate(218.09996 0)"/>
      <use xlink:href="#LMRoman10-Regular-6c" transform="translate(268.099945 0)"/>
      <use xlink:href="#LMRoman10-Regular-75" transform="translate(295.899933 0)"/>
      <use xlink:href="#LMRoman10-Regular-74" transform="translate(351.499924 0)"/>
      <use xlink:href="#LMRoman10-Regular-69" transform="translate(390.399918 0)"/>
      <use xlink:href="#LMRoman10-Regular-6f" transform="translate(418.199905 0)"/>
      <use xlink:href="#LMRoman10-Regular-6e" transform="translate(468.19989 0)"/>
     </g>
    </g>
    <g id="line2d_28">
     <path d="M 106.77125 238.605 
L 130.77125 238.605 
" style="fill: none; stroke-dasharray: 14.8,6.4; stroke-dashoffset: 0; stroke: #000000; stroke-width: 4"/>
    </g>
    <g id="text_14">
     <!-- $\beta_{BD}$ -->
     <g transform="translate(140.37125 242.805) scale(0.12 -0.12)">
      <defs>
       <path id="Cmmi10-42" d="M 319 0 
Q 256 0 256 84 
Q 259 100 268 137 
Q 278 175 293 200 
Q 309 225 341 225 
Q 522 225 656 234 
Q 791 244 884 269 
Q 959 297 1006 441 
L 1881 3956 
Q 1894 4019 1894 4044 
Q 1894 4113 1819 4122 
Q 1697 4147 1356 4147 
Q 1294 4147 1294 4231 
Q 1297 4247 1306 4286 
Q 1316 4325 1333 4348 
Q 1350 4372 1375 4372 
L 3669 4372 
Q 3878 4372 4083 4320 
Q 4288 4269 4461 4156 
Q 4634 4044 4736 3876 
Q 4838 3709 4838 3488 
Q 4838 3247 4714 3040 
Q 4591 2834 4395 2681 
Q 4200 2528 3973 2429 
Q 3747 2331 3500 2284 
Q 3675 2284 3854 2215 
Q 4034 2147 4175 2028 
Q 4316 1909 4402 1743 
Q 4488 1578 4488 1388 
Q 4488 1003 4219 684 
Q 3950 366 3542 183 
Q 3134 0 2753 0 
L 319 0 
z
M 1497 275 
Q 1497 225 1716 225 
L 2631 225 
Q 2944 225 3231 398 
Q 3519 572 3692 859 
Q 3866 1147 3866 1459 
Q 3866 1650 3786 1820 
Q 3706 1991 3556 2089 
Q 3406 2188 3213 2188 
L 1966 2188 
L 1522 416 
Q 1497 328 1497 275 
z
M 2009 2356 
L 2981 2356 
Q 3288 2356 3577 2512 
Q 3866 2669 4048 2937 
Q 4231 3206 4231 3506 
Q 4231 3784 4057 3965 
Q 3884 4147 3609 4147 
L 2731 4147 
Q 2559 4147 2500 4115 
Q 2441 4084 2400 3928 
L 2009 2356 
z
" transform="scale(0.015625)"/>
       <path id="Cmmi10-44" d="M 313 0 
Q 250 0 250 84 
Q 253 100 262 139 
Q 272 178 289 201 
Q 306 225 331 225 
Q 722 225 878 269 
Q 959 297 997 441 
L 1875 3956 
Q 1888 4019 1888 4044 
Q 1888 4113 1813 4122 
Q 1691 4147 1350 4147 
Q 1288 4147 1288 4231 
Q 1291 4247 1300 4286 
Q 1309 4325 1326 4348 
Q 1344 4372 1369 4372 
L 3669 4372 
Q 4116 4372 4450 4155 
Q 4784 3938 4962 3570 
Q 5141 3203 5141 2759 
Q 5141 2269 4937 1778 
Q 4734 1288 4368 881 
Q 4003 475 3534 237 
Q 3066 0 2572 0 
L 313 0 
z
M 1509 275 
Q 1509 225 1728 225 
L 2472 225 
Q 2828 225 3159 372 
Q 3491 519 3750 775 
Q 3991 1016 4175 1406 
Q 4359 1797 4461 2222 
Q 4563 2647 4563 3003 
Q 4563 3263 4486 3472 
Q 4409 3681 4270 3831 
Q 4131 3981 3922 4064 
Q 3713 4147 3450 4147 
L 2747 4147 
Q 2572 4147 2515 4117 
Q 2459 4088 2413 3928 
L 1538 416 
Q 1509 338 1509 275 
z
" transform="scale(0.015625)"/>
      </defs>
      <use xlink:href="#Cmmi10-af" transform="translate(0 0.484375)"/>
      <use xlink:href="#Cmmi10-42" transform="translate(56.494141 -16.521875) scale(0.7)"/>
      <use xlink:href="#Cmmi10-44" transform="translate(109.541016 -16.521875) scale(0.7)"/>
     </g>
    </g>
    <g id="line2d_29">
     <path d="M 106.77125 255.525 
L 130.77125 255.525 
" style="fill: none; stroke-dasharray: 4,6.6; stroke-dashoffset: 0; stroke: #008000; stroke-width: 4"/>
    </g>
    <g id="text_15">
     <!-- $\beta_{SG}$ -->
     <g transform="translate(140.37125 259.725) scale(0.12 -0.12)">
      <defs>
       <path id="Cmmi10-53" d="M 391 -141 
Q 372 -141 356 -119 
Q 341 -97 341 -78 
L 709 1416 
Q 722 1453 763 1453 
L 838 1453 
Q 863 1453 877 1434 
Q 891 1416 891 1388 
Q 838 1169 838 997 
Q 838 534 1156 309 
Q 1475 84 1959 84 
Q 2169 84 2372 187 
Q 2575 291 2726 456 
Q 2878 622 2968 826 
Q 3059 1031 3059 1241 
Q 3059 1466 2940 1642 
Q 2822 1819 2613 1869 
L 1831 2075 
Q 1516 2159 1328 2414 
Q 1141 2669 1141 2988 
Q 1141 3372 1369 3728 
Q 1597 4084 1964 4298 
Q 2331 4513 2713 4513 
Q 3006 4513 3251 4405 
Q 3497 4297 3628 4063 
L 3994 4494 
Q 4031 4513 4038 4513 
L 4078 4513 
Q 4103 4513 4118 4491 
Q 4134 4469 4134 4447 
L 3763 2963 
Q 3753 2919 3713 2919 
L 3634 2919 
Q 3578 2919 3578 2988 
Q 3609 3191 3609 3341 
Q 3609 3638 3507 3858 
Q 3406 4078 3201 4192 
Q 2997 4306 2694 4306 
Q 2438 4306 2184 4159 
Q 1931 4013 1775 3769 
Q 1619 3525 1619 3263 
Q 1619 3056 1739 2897 
Q 1859 2738 2059 2681 
L 2841 2478 
Q 3053 2422 3211 2280 
Q 3369 2138 3450 1942 
Q 3531 1747 3531 1516 
Q 3531 1213 3403 917 
Q 3275 622 3045 378 
Q 2816 134 2525 -3 
Q 2234 -141 1931 -141 
Q 1169 -141 838 306 
L 481 -122 
Q 444 -141 434 -141 
L 391 -141 
z
" transform="scale(0.015625)"/>
       <path id="Cmmi10-47" d="M 934 1403 
Q 934 1006 1092 707 
Q 1250 409 1547 246 
Q 1844 84 2234 84 
Q 2616 84 2959 264 
Q 3303 444 3391 781 
L 3531 1331 
Q 3534 1350 3537 1370 
Q 3541 1391 3541 1403 
Q 3541 1469 3500 1478 
Q 3341 1522 2859 1522 
Q 2797 1522 2797 1606 
Q 2816 1684 2831 1715 
Q 2847 1747 2906 1747 
L 4556 1747 
Q 4622 1747 4622 1663 
Q 4619 1647 4609 1609 
Q 4600 1572 4584 1547 
Q 4569 1522 4538 1522 
Q 4325 1522 4226 1487 
Q 4128 1453 4091 1306 
L 3950 756 
L 3769 44 
Q 3759 0 3713 0 
Q 3659 0 3559 144 
Q 3459 288 3419 384 
Q 3197 122 2825 -9 
Q 2453 -141 2059 -141 
Q 1563 -141 1164 84 
Q 766 309 545 709 
Q 325 1109 325 1613 
Q 325 2150 564 2673 
Q 803 3197 1212 3611 
Q 1622 4025 2142 4269 
Q 2663 4513 3194 4513 
Q 3406 4513 3601 4447 
Q 3797 4381 3964 4251 
Q 4131 4122 4238 3950 
L 4744 4500 
Q 4744 4513 4775 4513 
L 4813 4513 
Q 4838 4513 4855 4492 
Q 4872 4472 4872 4447 
L 4434 2719 
Q 4434 2675 4384 2675 
L 4269 2675 
Q 4219 2675 4219 2747 
Q 4244 2888 4244 3078 
Q 4244 3394 4137 3672 
Q 4031 3950 3806 4119 
Q 3581 4288 3256 4288 
Q 2741 4288 2303 4027 
Q 1866 3766 1562 3337 
Q 1259 2909 1096 2396 
Q 934 1884 934 1403 
z
" transform="scale(0.015625)"/>
      </defs>
      <use xlink:href="#Cmmi10-af" transform="translate(0 0.484375)"/>
      <use xlink:href="#Cmmi10-53" transform="translate(56.494141 -16.521875) scale(0.7)"/>
      <use xlink:href="#Cmmi10-47" transform="translate(99.389648 -16.521875) scale(0.7)"/>
     </g>
    </g>
    <g id="LineCollection_7">
     <path d="M 118.77125 278.325 
L 118.77125 266.325 
" style="fill: none; stroke: #1f77b4; stroke-width: 4"/>
    </g>
    <g id="line2d_30"/>
    <g id="line2d_31">
     <g>
      <use xlink:href="#m3a974938d3" x="118.77125" y="272.325" style="fill: #1f77b4; stroke: #1f77b4"/>
     </g>
    </g>
    <g id="text_16">
     <!-- N=100 -->
     <g transform="translate(140.37125 276.525) scale(0.12 -0.12)">
      <defs>
       <path id="LMRoman10-Regular-4e" d="M 4582 4173 
L 4582 4371 
L 3834 4352 
L 3085 4371 
L 3085 4173 
C 3744 4173 3744 3872 3744 3699 
L 3744 966 
L 1485 4288 
C 1427 4365 1421 4371 1299 4371 
L 211 4371 
L 211 4173 
L 397 4173 
C 493 4173 621 4166 717 4160 
C 864 4141 870 4134 870 4013 
L 870 672 
C 870 499 870 198 211 198 
L 211 0 
L 960 19 
L 1709 0 
L 1709 198 
C 1050 198 1050 499 1050 672 
L 1050 4000 
C 1082 3968 1088 3962 1114 3923 
L 3725 83 
C 3782 6 3789 0 3834 0 
C 3923 0 3923 45 3923 166 
L 3923 3699 
C 3923 3872 3923 4173 4582 4173 
z
" transform="scale(0.015625)"/>
       <path id="LMRoman10-Regular-3d" d="M 4614 2221 
C 4614 2349 4493 2349 4403 2349 
L 570 2349 
C 480 2349 358 2349 358 2221 
C 358 2093 480 2093 576 2093 
L 4397 2093 
C 4493 2093 4614 2093 4614 2221 
z
M 4614 979 
C 4614 1107 4493 1107 4397 1107 
L 576 1107 
C 480 1107 358 1107 358 979 
C 358 851 480 851 570 851 
L 4403 851 
C 4493 851 4614 851 4614 979 
z
" transform="scale(0.015625)"/>
      </defs>
      <use xlink:href="#LMRoman10-Regular-4e"/>
      <use xlink:href="#LMRoman10-Regular-3d" transform="translate(74.999985 0)"/>
      <use xlink:href="#LMRoman10-Regular-31" transform="translate(152.799973 0)"/>
      <use xlink:href="#LMRoman10-Regular-30" transform="translate(202.799957 0)"/>
      <use xlink:href="#LMRoman10-Regular-30" transform="translate(252.799942 0)"/>
     </g>
    </g>
    <g id="LineCollection_8">
     <path d="M 118.77125 295.05375 
L 118.77125 283.05375 
" style="fill: none; stroke: #ff7f0e; stroke-width: 4"/>
    </g>
    <g id="line2d_32"/>
    <g id="line2d_33">
     <g>
      <use xlink:href="#mf07e971586" x="118.77125" y="289.05375" style="fill: #ff7f0e; stroke: #ff7f0e; stroke-linejoin: miter"/>
     </g>
    </g>
    <g id="text_17">
     <!-- N=200 -->
     <g transform="translate(140.37125 293.25375) scale(0.12 -0.12)">
      <use xlink:href="#LMRoman10-Regular-4e"/>
      <use xlink:href="#LMRoman10-Regular-3d" transform="translate(74.999985 0)"/>
      <use xlink:href="#LMRoman10-Regular-32" transform="translate(152.799973 0)"/>
      <use xlink:href="#LMRoman10-Regular-30" transform="translate(202.799957 0)"/>
      <use xlink:href="#LMRoman10-Regular-30" transform="translate(252.799942 0)"/>
     </g>
    </g>
    <g id="LineCollection_9">
     <path d="M 118.77125 311.7825 
L 118.77125 299.7825 
" style="fill: none; stroke: #2ca02c; stroke-width: 4"/>
    </g>
    <g id="line2d_34"/>
    <g id="line2d_35">
     <g>
      <use xlink:href="#m3f01c5aa15" x="118.77125" y="305.7825" style="fill: #2ca02c; stroke: #2ca02c; stroke-linejoin: miter"/>
     </g>
    </g>
    <g id="text_18">
     <!-- N=500 -->
     <g transform="translate(140.37125 309.9825) scale(0.12 -0.12)">
      <use xlink:href="#LMRoman10-Regular-4e"/>
      <use xlink:href="#LMRoman10-Regular-3d" transform="translate(74.999985 0)"/>
      <use xlink:href="#LMRoman10-Regular-35" transform="translate(152.799973 0)"/>
      <use xlink:href="#LMRoman10-Regular-30" transform="translate(202.799957 0)"/>
      <use xlink:href="#LMRoman10-Regular-30" transform="translate(252.799942 0)"/>
     </g>
    </g>
    <g id="LineCollection_10">
     <path d="M 118.77125 328.51125 
L 118.77125 316.51125 
" style="fill: none; stroke: #9467bd; stroke-width: 4"/>
    </g>
    <g id="line2d_36"/>
    <g id="line2d_37">
     <g>
      <use xlink:href="#me9f835c2a1" x="118.77125" y="322.51125" style="fill: #9467bd; stroke: #9467bd; stroke-linejoin: miter"/>
     </g>
    </g>
    <g id="text_19">
     <!-- N=750 -->
     <g transform="translate(140.37125 326.71125) scale(0.12 -0.12)">
      <use xlink:href="#LMRoman10-Regular-4e"/>
      <use xlink:href="#LMRoman10-Regular-3d" transform="translate(74.999985 0)"/>
      <use xlink:href="#LMRoman10-Regular-37" transform="translate(152.799973 0)"/>
      <use xlink:href="#LMRoman10-Regular-35" transform="translate(202.799957 0)"/>
      <use xlink:href="#LMRoman10-Regular-30" transform="translate(252.799942 0)"/>
     </g>
    </g>
   </g>
  </g>
 </g>
 <defs>
  <clipPath id="ped13b9acd0">
   <rect x="95.97125" y="7.2" width="446.4" height="332.64"/>
  </clipPath>
 </defs>
</svg>
